<?xml version="1.0" encoding="iso-8859-1"?>
<!-- Generator: Adobe Illustrator 19.0.0, SVG Export Plug-In . SVG Version: 6.00 Build 0)  -->
<svg xmlns="http://www.w3.org/2000/svg" xmlns:xlink="http://www.w3.org/1999/xlink" version="1.1" id="Layer_1" x="0px" y="0px" viewBox="0 0 512.001 512.001" style="enable-background:new 0 0 512.001 512.001;" xml:space="preserve">
<path style="fill:#F4F4F4;" d="M192.939,236.289l-19.541,18.603L34.133,387.67l-25.6,24.405V85.334  c0.009-6.716,1.997-13.269,5.717-18.859L192.939,236.289z"/>
<path style="fill:#FFFFFF;" d="M173.397,254.891L34.133,387.67V146.774c0.026-6.682,2.014-13.21,5.717-18.773L173.397,254.891z"/>
<path style="fill:#3949AB;" d="M42.667,460.801h429.909h-3.243H42.667z"/>
<path style="fill:#F4F4F4;" d="M503.467,85.334v326.571l-25.6-24.32L338.603,255.147l-19.541-18.603L497.664,65.878  C501.53,71.63,503.552,78.414,503.467,85.334z"/>
<path style="fill:#FFFFFF;" d="M477.867,146.945v240.64L338.603,255.147l133.461-127.147  C475.827,133.607,477.85,140.195,477.867,146.945z"/>
<path style="fill:#A8A5A4;" d="M497.664,66.219L319.061,236.886l-52.309,49.835c-6.238,4.992-15.095,4.992-21.333,0l-13.483-13.653  l-38.997-37.12L14.251,66.39c6.34-9.498,16.998-15.198,28.416-15.189h426.667C480.691,51.184,491.307,56.816,497.664,66.219z"/>
<path style="fill:#BDBDBD;" d="M449.28,66.219L270.677,236.886l-38.741,36.181l-38.997-37.12L14.251,66.39  c6.34-9.498,16.998-15.198,28.416-15.189h378.283C432.307,51.184,442.923,56.816,449.28,66.219z"/>
<path style="fill:#F4F4F4;" d="M503.467,411.905v14.763c-0.06,6.007-1.707,11.895-4.779,17.067  c-5.478,9.199-14.959,15.3-25.6,16.469l0,0l-430.421,0.597l0,0c-12.092-0.102-23.228-6.596-29.269-17.067  c-3.14-5.137-4.83-11.042-4.864-17.067v-14.507l184.405-175.787l52.48,49.92c6.238,4.992,15.095,4.992,21.333,0l52.309-49.835  L503.467,411.905z"/>
<path style="fill:#FFFFFF;" d="M498.688,443.734c-5.478,9.199-14.959,15.3-25.6,16.469l0,0l-430.421,0.597l0,0  c-12.092-0.102-23.228-6.596-29.269-17.067l179.541-170.667l52.48,49.92c6.238,4.992,15.095,4.992,21.333,0l52.309-49.92  L498.688,443.734z"/>
<path d="M8.533,420.609c-4.71,0-8.533-3.823-8.533-8.533V85.334c-0.017-8.405,2.449-16.631,7.083-23.637  c1.391-2.099,3.644-3.473,6.144-3.755s5.001,0.563,6.827,2.304l178.773,170.155c3.413,3.243,3.558,8.644,0.307,12.066  c-0.102,0.102-0.205,0.205-0.307,0.307L14.421,418.134C12.851,419.687,10.744,420.575,8.533,420.609z M17.067,81.153  c-0.111,1.391-0.111,2.79,0,4.181v307.2l163.499-156.245L17.067,81.153z"/>
<path d="M469.333,469.334H42.667c-4.71,0-8.533-3.823-8.533-8.533s3.823-8.533,8.533-8.533h429.909l0,0  c4.71-0.188,8.687,3.482,8.875,8.192c0.188,4.71-3.482,8.687-8.192,8.875H469.333z"/>
<path d="M503.467,420.438c-2.193-0.009-4.309-0.862-5.888-2.389l-184.405-175.36c-3.413-3.243-3.558-8.644-0.307-12.066  c0.102-0.102,0.205-0.205,0.307-0.307L491.776,59.734c3.422-3.243,8.823-3.106,12.066,0.316c0.333,0.35,0.64,0.734,0.905,1.135  c4.796,7.134,7.322,15.556,7.253,24.149v326.571C512,416.615,508.177,420.438,503.467,420.438z M331.435,236.545l163.499,155.477  V85.334c0.119-1.417,0.119-2.85,0-4.267L331.435,236.545z"/>
<path d="M256,298.667c-5.82,0.009-11.469-2.014-15.957-5.717L8.533,72.534c-3.038-2.79-3.652-7.347-1.451-10.837  c7.919-11.904,21.282-19.046,35.584-19.029h426.667c14.191-0.026,27.469,7.014,35.413,18.773c2.287,3.465,1.749,8.081-1.28,10.923  L272.64,292.523C267.947,296.389,262.084,298.556,256,298.667z M25.6,65.793l225.28,214.187c3.021,2.236,7.134,2.236,10.155,0  L485.888,65.707c-4.642-3.883-10.505-5.999-16.555-5.973H42.667C36.429,59.606,30.362,61.765,25.6,65.793z"/>
<path d="M42.667,469.334C19.106,469.334,0,450.228,0,426.667v-14.507c0.009-2.321,0.964-4.54,2.645-6.144l184.405-175.616  c3.294-3.14,8.482-3.14,11.776,0l52.48,49.92c3.021,2.236,7.134,2.236,10.155,0l51.712-49.92c3.294-3.14,8.482-3.14,11.776,0  l184.405,175.275c1.681,1.604,2.637,3.823,2.645,6.144v14.848c0.111,21.965-16.461,40.422-38.315,42.667h-0.853H42.667z   M17.067,415.745v10.923c0,14.14,11.46,25.6,25.6,25.6h430.08c12.791-1.724,22.298-12.698,22.187-25.6v-11.093L319.061,248.321  l-46.421,44.203c-9.463,7.808-23.134,7.808-32.597,0l-47.019-44.715L17.067,415.745z"/>
<g>
</g>
<g>
</g>
<g>
</g>
<g>
</g>
<g>
</g>
<g>
</g>
<g>
</g>
<g>
</g>
<g>
</g>
<g>
</g>
<g>
</g>
<g>
</g>
<g>
</g>
<g>
</g>
<g>
</g>
</svg>
