<?xml version="1.0" encoding="iso-8859-1"?>
<!-- Generator: Adobe Illustrator 19.0.0, SVG Export Plug-In . SVG Version: 6.00 Build 0)  -->
<svg xmlns="http://www.w3.org/2000/svg" xmlns:xlink="http://www.w3.org/1999/xlink" version="1.1" id="Layer_1" x="0px" y="0px" viewBox="0 0 512 512" style="enable-background:new 0 0 512 512;" xml:space="preserve">
<path style="fill:#AD1457;" d="M85.333,305.152v166.059c-1.715,0.99-3.593,1.655-5.547,1.963c-0.973,0.265-1.98,0.41-2.987,0.427  H59.733c-28.279,0-51.2-22.921-51.2-51.2v-68.267c0.026-24.969,18.048-46.268,42.667-50.432c2.816-0.521,5.675-0.777,8.533-0.768  H76.8c1.024-0.128,2.048-0.128,3.072,0C81.809,303.351,83.652,304.102,85.333,305.152z"/>
<path style="fill:#D81B60;" d="M85.333,305.152v166.059c-1.715,0.99-3.593,1.655-5.547,1.963  c-25.933-2.825-45.594-24.687-45.653-50.773v-68.267c0.026-24.969,18.048-46.268,42.667-50.432h3.072  C81.758,303.881,83.61,304.367,85.333,305.152z"/>
<path style="fill:#AD1457;" d="M503.467,354.133V422.4c0,28.279-22.921,51.2-51.2,51.2H435.2c-0.99,0.128-1.997,0.128-2.987,0  c-1.954-0.307-3.831-0.973-5.547-1.963V305.152c1.698-0.964,3.541-1.621,5.461-1.963c1.007-0.213,2.039-0.299,3.072-0.256h17.067  c2.859-0.009,5.717,0.247,8.533,0.768C485.419,307.866,503.441,329.165,503.467,354.133z"/>
<path style="fill:#D81B60;" d="M477.867,354.133V422.4c0.154,26.249-19.558,48.358-45.653,51.2  c-1.954-0.307-3.831-0.973-5.547-1.963V305.152c1.698-0.964,3.541-1.621,5.461-1.963h3.072  C460.006,307.379,478.089,328.977,477.867,354.133z"/>
<path style="fill:#A8A5A4;" d="M460.8,226.133v77.568c-2.816-0.521-5.675-0.777-8.533-0.768H435.2  c-2.995,0.009-5.939,0.802-8.533,2.304v-79.104c0-94.259-76.408-170.667-170.667-170.667S85.333,131.874,85.333,226.133v79.104  c-2.594-1.502-5.538-2.296-8.533-2.304H59.733c-2.859-0.009-5.717,0.247-8.533,0.768v-77.568c0-113.109,91.691-204.8,204.8-204.8  S460.8,113.024,460.8,226.133z"/>
<path style="fill:#BDBDBD;" d="M443.733,240.811v62.123H435.2c-2.995,0.009-5.939,0.802-8.533,2.304v-79.104  c-0.154-94.259-76.689-170.539-170.948-170.385c-44.578,0.068-87.356,17.579-119.185,48.785  c-42.974,32.23-68.267,82.816-68.267,136.533v61.867h-8.533c-2.859-0.009-5.717,0.247-8.533,0.768v-77.568  c-0.102-55.569,22.485-108.774,62.549-147.285c89.515-69.137,218.129-52.617,287.275,36.898  C428.689,151.569,443.708,195.55,443.733,240.811z"/>
<path style="fill:#2979FF;" d="M145.067,311.467v153.6c0,14.14-11.46,25.6-25.6,25.6H102.4c-9.429,0-17.067-7.637-17.067-17.067  V302.933c0-9.429,7.637-17.067,17.067-17.067h17.067C133.606,285.867,145.067,297.327,145.067,311.467z"/>
<path style="fill:#0091EA;" d="M145.067,311.467v153.6c0,14.14-11.46,25.6-25.6,25.6c-9.429,0-17.067-7.637-17.067-17.067V302.933  c0-9.429,7.637-17.067,17.067-17.067C133.606,285.867,145.067,297.327,145.067,311.467z"/>
<path style="fill:#2979FF;" d="M426.667,302.933V473.6c0,9.429-7.637,17.067-17.067,17.067h-17.067c-14.14,0-25.6-11.46-25.6-25.6  v-153.6c0-14.14,11.46-25.6,25.6-25.6H409.6C419.029,285.867,426.667,293.504,426.667,302.933z"/>
<path style="fill:#0091EA;" d="M409.6,302.933V473.6c0,9.429-7.637,17.067-17.067,17.067c-14.14,0-25.6-11.46-25.6-25.6v-153.6  c0-14.14,11.46-25.6,25.6-25.6C401.963,285.867,409.6,293.504,409.6,302.933z"/>
<path d="M76.8,482.133H59.733C26.743,482.133,0,455.39,0,422.4v-68.267c0.017-29.158,21.077-54.05,49.835-58.88  c3.268-0.589,6.579-0.87,9.899-0.853H76.8c4.531,0.009,8.977,1.212,12.885,3.499c2.594,1.536,4.181,4.326,4.181,7.339v165.973  c0,3.012-1.587,5.803-4.181,7.339C85.786,480.862,81.34,482.099,76.8,482.133z M59.733,311.467  c-2.321-0.017-4.634,0.188-6.912,0.597c-20.608,3.379-35.738,21.188-35.755,42.069V422.4c0,23.561,19.106,42.667,42.667,42.667H76.8  v-153.6H59.733z"/>
<path d="M452.267,482.133H435.2c-4.531-0.009-8.977-1.212-12.885-3.499c-2.594-1.536-4.181-4.326-4.181-7.339V305.152  c0-3.012,1.587-5.803,4.181-7.339c3.917-2.253,8.363-3.43,12.885-3.413h17.067c3.405-0.009,6.81,0.307,10.155,0.939  c28.621,4.941,49.545,29.747,49.579,58.795V422.4C512,455.39,485.257,482.133,452.267,482.133z M435.2,465.067h17.067  c23.561,0,42.667-19.106,42.667-42.667v-68.267c-0.034-20.77-15.027-38.494-35.499-41.984c-2.364-0.452-4.762-0.683-7.168-0.683  H435.2V465.067z"/>
<path d="M426.667,313.685c-4.71,0-8.533-3.823-8.533-8.533v-79.019C418.133,136.593,345.54,64,256,64S93.867,136.593,93.867,226.133  v79.104c0,4.71-3.823,8.533-8.533,8.533c-1.527,0-3.038-0.41-4.352-1.195c-1.271-0.725-2.714-1.101-4.181-1.109H59.733  c-2.321-0.017-4.634,0.188-6.912,0.597c-4.625,0.896-9.105-2.125-10.001-6.758c-0.111-0.58-0.162-1.178-0.154-1.775v-77.397  C42.667,108.314,138.18,12.8,256,12.8s213.333,95.514,213.333,213.333v77.568c0.085,4.71-3.661,8.602-8.38,8.687  c-0.597,0.009-1.195-0.043-1.775-0.154c-2.278-0.469-4.591-0.725-6.912-0.768H435.2c-1.468,0.009-2.91,0.384-4.181,1.109  C429.696,313.327,428.194,313.711,426.667,313.685z M435.2,294.4h17.067v-68.267c0-108.399-87.868-196.267-196.267-196.267  S59.733,117.734,59.733,226.133V294.4H76.8v-68.267c0-98.97,80.23-179.2,179.2-179.2s179.2,80.23,179.2,179.2V294.4z"/>
<path d="M119.467,499.2H102.4c-14.14,0-25.6-11.46-25.6-25.6V302.933c0-14.14,11.46-25.6,25.6-25.6h17.067  c18.85,0,34.133,15.283,34.133,34.133v153.6C153.6,483.917,138.317,499.2,119.467,499.2z M102.4,294.4  c-4.71,0-8.533,3.823-8.533,8.533V473.6c0,4.71,3.823,8.533,8.533,8.533h17.067c9.429,0,17.067-7.637,17.067-17.067v-153.6  c0-9.429-7.637-17.067-17.067-17.067H102.4z"/>
<path d="M409.6,499.2h-17.067c-18.85,0-34.133-15.283-34.133-34.133v-153.6c0-18.85,15.283-34.133,34.133-34.133H409.6  c14.14,0,25.6,11.46,25.6,25.6V473.6C435.2,487.74,423.74,499.2,409.6,499.2z M392.533,294.4c-9.429,0-17.067,7.637-17.067,17.067  v153.6c0,9.429,7.637,17.067,17.067,17.067H409.6c4.71,0,8.533-3.823,8.533-8.533V302.933c0-4.71-3.823-8.533-8.533-8.533H392.533z"/>
<g>
</g>
<g>
</g>
<g>
</g>
<g>
</g>
<g>
</g>
<g>
</g>
<g>
</g>
<g>
</g>
<g>
</g>
<g>
</g>
<g>
</g>
<g>
</g>
<g>
</g>
<g>
</g>
<g>
</g>
</svg>
