<?xml version="1.0" encoding="iso-8859-1"?>
<!-- Generator: Adobe Illustrator 19.0.0, SVG Export Plug-In . SVG Version: 6.00 Build 0)  -->
<svg xmlns="http://www.w3.org/2000/svg" xmlns:xlink="http://www.w3.org/1999/xlink" version="1.1" id="Layer_1" x="0px" y="0px" viewBox="0 0 511.999 511.999" style="enable-background:new 0 0 511.999 511.999;" xml:space="preserve">
<path style="fill:#311B92;" d="M170.667,426.67c0,42.417-34.379,76.796-76.796,76.796c-4.284,0.009-8.567-0.341-12.799-1.024  c-41.845-6.903-70.175-46.428-63.272-88.273c5.359-32.468,30.804-57.921,63.272-63.272c4.232-0.683,8.516-1.032,12.799-1.024  C136.288,349.874,170.667,384.253,170.667,426.67z"/>
<path style="fill:#5E35B1;" d="M145.068,426.67c0.026,37.494-27.032,69.526-63.997,75.772  c-41.845-6.903-70.175-46.428-63.272-88.273c5.359-32.468,30.804-57.921,63.272-63.272  C118.045,357.144,145.094,389.176,145.068,426.67z"/>
<path style="fill:#311B92;" d="M494.918,366.939c0,42.417-34.379,76.796-76.796,76.796c-4.284,0.009-8.567-0.341-12.799-1.024  c-41.845-6.903-70.175-46.428-63.272-88.273c5.359-32.468,30.804-57.921,63.272-63.272c4.232-0.683,8.516-1.032,12.799-1.024  C460.539,290.143,494.918,324.522,494.918,366.939z"/>
<path style="fill:#5E35B1;" d="M469.319,366.939c0.026,37.494-27.032,69.526-63.997,75.772  c-41.845-6.903-70.175-46.428-63.272-88.273c5.359-32.468,30.804-57.921,63.272-63.272  C442.295,297.413,469.345,329.446,469.319,366.939z"/>
<path style="fill:#311B92;" d="M494.918,46.614v55.805c0,6.741-6.144,10.751-10.837,7.168c-4.616-3.686-9.557-6.946-14.762-9.728  c-16.264-8.814-34.336-13.772-52.819-14.506h-5.802c-31.58-0.614-62.043,11.716-84.305,34.132  c-22.237,22.407-52.665,34.737-84.22,34.132c-4.352,0-8.533,0-12.97-0.683l0,0l0,0c-19.583-1.86-38.39-8.61-54.696-19.626  c-2.355-1.715-3.678-4.514-3.498-7.424V68.288c-0.034-1.647,0.384-3.268,1.195-4.693c11.357,4.727,23.397,7.611,35.668,8.533  c11.161,3.166,22.706,4.744,34.302,4.693c31.555,0.606,61.983-11.724,84.22-34.132c22.262-22.416,52.725-34.746,84.305-34.132  c8.012-0.009,16.016,0.734,23.892,2.219l0,0c21.742,3.797,41.854,13.985,57.768,29.268C494.039,41.81,494.96,44.174,494.918,46.614z  "/>
<path style="fill:#5E35B1;" d="M469.319,40.385v58.962c0.043,0.171,0.043,0.341,0,0.512c-16.264-8.814-34.336-13.772-52.819-14.506  c-10.248-2.731-20.803-4.104-31.401-4.096c-31.947-0.486-62.597,12.637-84.305,36.094c-18.593,20.36-44.132,33.022-71.591,35.497  l0,0l0,0c-19.583-1.86-38.39-8.61-54.696-19.626c-2.355-1.715-3.678-4.514-3.498-7.424V68.288c-0.034-1.647,0.384-3.268,1.195-4.693  c11.357,4.727,23.397,7.611,35.668,8.533c11.161,3.166,22.706,4.744,34.302,4.693c31.555,0.606,61.983-11.724,84.22-34.132  c22.262-22.416,52.725-34.746,84.305-34.132c8.012-0.009,16.016,0.734,23.892,2.219l0,0c12.048,5.418,22.962,13.055,32.169,22.527  C468.466,35.257,469.379,37.783,469.319,40.385z"/>
<path d="M170.667,435.203c-4.71,0-8.533-3.823-8.533-8.533V110.952c0-4.71,3.823-8.533,8.533-8.533c4.71,0,8.533,3.823,8.533,8.533  V426.67C179.2,431.38,175.377,435.203,170.667,435.203z"/>
<path d="M93.871,511.999c-47.127,0-85.329-38.202-85.329-85.329s38.202-85.329,85.329-85.329S179.2,379.543,179.2,426.67  S140.998,511.999,93.871,511.999z M93.871,358.407c-37.698,0-68.263,30.565-68.263,68.263s30.565,68.263,68.263,68.263  s68.263-30.565,68.263-68.263S131.569,358.407,93.871,358.407z"/>
<path d="M418.121,452.269c-47.127,0-85.329-38.202-85.329-85.329s38.202-85.329,85.329-85.329s85.329,38.202,85.329,85.329  S465.249,452.269,418.121,452.269z M418.121,298.676c-37.698,0-68.263,30.565-68.263,68.263s30.565,68.263,68.263,68.263  s68.263-30.565,68.263-68.263S455.82,298.676,418.121,298.676z"/>
<path d="M494.918,366.939c-4.71,0-8.533-3.823-8.533-8.533V42.689c0-4.71,3.823-8.533,8.533-8.533s8.533,3.823,8.533,8.533v315.718  C503.451,363.117,499.628,366.939,494.918,366.939z"/>
<path d="M242.173,162.15c-25.932,0.299-51.343-7.287-72.871-21.759c-4.676-3.319-7.364-8.772-7.168-14.506V68.288  c-0.085-6.178,3.174-11.929,8.533-15.018c4.531-2.654,10.146-2.654,14.677,0c17.288,9.924,36.896,15.103,56.829,15.018  c29.225,0.589,57.409-10.82,77.991-31.572c23.884-24.105,56.607-37.366,90.534-36.692c32.536-0.435,63.963,11.801,87.633,34.132  c3.268,3.328,5.111,7.799,5.12,12.458v55.805c0.179,6.545-3.405,12.612-9.216,15.615c-5.017,2.475-11.007,1.809-15.359-1.707  c-19.617-14.881-43.646-22.783-68.263-22.442c-29.131-0.572-57.247,10.769-77.82,31.401  C308.926,149.487,276.159,162.815,242.173,162.15z M179.2,69.568V125.8c18.491,12.799,40.489,19.532,62.973,19.284  c29.208,0.606,57.392-10.769,77.991-31.486c23.867-24.14,56.59-37.425,90.534-36.777c27.092-0.333,53.595,7.944,75.687,23.636  V46.614c-20.317-19.489-47.537-30.113-75.687-29.524c-29.165-0.597-57.307,10.743-77.905,31.401  c-23.875,24.199-56.633,37.528-90.619,36.862C220.192,85.473,198.527,80.038,179.2,69.568z"/>
<g>
</g>
<g>
</g>
<g>
</g>
<g>
</g>
<g>
</g>
<g>
</g>
<g>
</g>
<g>
</g>
<g>
</g>
<g>
</g>
<g>
</g>
<g>
</g>
<g>
</g>
<g>
</g>
<g>
</g>
</svg>
