<?xml version="1.0" encoding="iso-8859-1"?>
<!-- Generator: Adobe Illustrator 19.0.0, SVG Export Plug-In . SVG Version: 6.00 Build 0)  -->
<svg xmlns="http://www.w3.org/2000/svg" xmlns:xlink="http://www.w3.org/1999/xlink" version="1.1" id="Layer_1" x="0px" y="0px" viewBox="0 0 512 512" style="enable-background:new 0 0 512 512;" xml:space="preserve">
<path style="fill:#F4F4F4;" d="M503.467,256c0,136.67-110.797,247.467-247.467,247.467c-8.55,0.009-17.092-0.418-25.6-1.28  C94.413,488.533-4.762,367.232,8.883,231.245C20.642,114.116,113.28,21.487,230.4,9.728c8.508-0.828,17.05-1.229,25.6-1.195  C392.67,8.533,503.467,119.33,503.467,256z"/>
<path style="fill:#FFFFFF;" d="M452.267,256c0.026,126.78-95.77,233.071-221.867,246.187  C94.413,488.533-4.762,367.232,8.883,231.245C20.642,114.116,113.28,21.487,230.4,9.728C356.531,22.844,452.335,129.186,452.267,256  z"/>
<g>
	<path style="fill:#388E3C;" d="M349.867,162.133v136.533c0,4.71-3.823,8.533-8.533,8.533h-42.667v-93.867H204.8v-51.2   c0-4.71,3.823-8.533,8.533-8.533h128C346.044,153.6,349.867,157.423,349.867,162.133z"/>
	<path style="fill:#388E3C;" d="M298.667,213.333V358.4c0,4.71-3.823,8.533-8.533,8.533h-128c-4.71,0-8.533-3.823-8.533-8.533   V221.867c0-4.71,3.823-8.533,8.533-8.533H298.667z"/>
</g>
<path style="fill:#4CAF50;" d="M273.067,213.333V358.4c0,4.71-3.823,8.533-8.533,8.533h-102.4c-4.71,0-8.533-3.823-8.533-8.533  V221.867c0-4.71,3.823-8.533,8.533-8.533H273.067z"/>
<path d="M256,512C114.611,512,0,397.389,0,256S114.611,0,256,0s256,114.611,256,256l0,0C511.718,397.269,397.269,511.718,256,512z   M256,17.067C124.041,17.067,17.067,124.041,17.067,256S124.041,494.933,256,494.933S494.933,387.96,494.933,256  C494.652,124.16,387.84,17.348,256,17.067z"/>
<path d="M290.133,375.467h-128c-9.429,0-17.067-7.637-17.067-17.067V221.867c0-9.429,7.637-17.067,17.067-17.067h136.533  c4.71,0,8.533,3.823,8.533,8.533V358.4C307.2,367.829,299.563,375.467,290.133,375.467z M162.133,221.867V358.4h128V221.867H162.133  z"/>
<path d="M341.333,315.733h-42.667c-4.71,0-8.533-3.823-8.533-8.533v-85.333H204.8c-4.71,0-8.533-3.823-8.533-8.533v-51.2  c0-9.429,7.637-17.067,17.067-17.067h128c9.429,0,17.067,7.637,17.067,17.067v136.533  C358.4,308.096,350.763,315.733,341.333,315.733z M307.2,298.667h34.133V162.133h-128V204.8h85.333c4.71,0,8.533,3.823,8.533,8.533  V298.667z"/>
<g>
</g>
<g>
</g>
<g>
</g>
<g>
</g>
<g>
</g>
<g>
</g>
<g>
</g>
<g>
</g>
<g>
</g>
<g>
</g>
<g>
</g>
<g>
</g>
<g>
</g>
<g>
</g>
<g>
</g>
</svg>
