<?xml version="1.0" encoding="iso-8859-1"?>
<!-- Generator: Adobe Illustrator 19.0.0, SVG Export Plug-In . SVG Version: 6.00 Build 0)  -->
<svg xmlns="http://www.w3.org/2000/svg" xmlns:xlink="http://www.w3.org/1999/xlink" version="1.1" id="Layer_1" x="0px" y="0px" viewBox="0 0 512.005 512.005" style="enable-background:new 0 0 512.005 512.005;" xml:space="preserve">
<path style="fill:#F4F4F4;" d="M430.814,430.936c-96.606,96.674-253.295,96.717-349.969,0.102s-96.717-253.295-0.102-349.969  s253.303-96.717,349.969-0.102c0.034,0.034,0.068,0.068,0.102,0.102c96.614,96.205,96.947,252.51,0.742,349.124  C431.309,430.441,431.061,430.689,430.814,430.936z"/>
<path style="fill:#FFFFFF;" d="M388.147,430.936c-41.148,41.225-95.565,66.56-153.6,71.509  C98.398,490.55-2.338,370.537,9.557,234.388C20.011,114.716,114.884,19.843,234.547,9.389  c136.158,11.802,236.979,131.746,225.178,267.913C454.699,335.337,429.346,389.746,388.147,430.936z"/>
<path style="fill:#388E3C;" d="M187.529,230.317h136.533c9.429,0,17.067,7.637,17.067,17.067v128  c0,9.429-7.637,17.067-17.067,17.067H187.529c-9.429,0-17.067-7.637-17.067-17.067v-128  C170.462,237.955,178.108,230.317,187.529,230.317z"/>
<path style="fill:#4CAF50;" d="M187.529,230.317h119.467c9.429,0,17.067,7.637,17.067,17.067v128  c0,9.429-7.637,17.067-17.067,17.067H187.529c-9.429,0-17.067-7.637-17.067-17.067v-128  C170.462,237.955,178.108,230.317,187.529,230.317z"/>
<rect x="204.595" y="264.451" style="fill:#F4F4F4;" width="102.4" height="93.867"/>
<rect x="204.595" y="264.451" style="fill:#FFFFFF;" width="76.8" height="93.867"/>
<path style="fill:#388E3C;" d="M312.03,167.085h-39.168v63.317h-34.133v-63.317h-39.168c-4.71-0.017-8.516-3.857-8.499-8.567  c0.009-2.261,0.922-4.429,2.526-6.025l51.2-51.2l4.949-5.035c3.319-3.345,8.721-3.371,12.066-0.051  c0.017,0.017,0.034,0.034,0.051,0.051l56.149,56.235c3.345,3.319,3.371,8.721,0.051,12.066  C316.459,166.164,314.3,167.077,312.03,167.085z"/>
<path style="fill:#4CAF50;" d="M289.929,167.085h-39.168v63.317h-12.032v-63.317h-39.168c-4.71-0.017-8.516-3.857-8.499-8.567  c0.009-2.261,0.922-4.429,2.526-6.025l51.2-51.2l51.2,51.2c3.345,3.319,3.371,8.721,0.051,12.066  C294.426,166.189,292.224,167.102,289.929,167.085z"/>
<path d="M255.795,512.003C114.415,511.892-0.111,397.187,0,255.798S114.816-0.108,256.205,0.003  C323.96,0.054,388.932,26.968,436.881,74.84l0,0c100.053,99.891,100.181,261.982,0.29,362.035  C389.095,485.029,323.832,512.054,255.795,512.003z M255.795,17.069C123.836,17.172,16.947,124.231,17.05,256.19  c0.111,131.959,107.162,238.848,239.121,238.746s238.848-107.162,238.746-239.121c-0.051-63.394-25.293-124.169-70.161-168.943l0,0  C379.955,42.072,319.155,16.95,255.795,17.069z"/>
<path d="M324.062,401.069H187.529c-14.14,0-25.6-11.46-25.6-25.6v-128c0-14.14,11.46-25.6,25.6-25.6h136.533  c14.14,0,25.6,11.46,25.6,25.6v128C349.662,389.609,338.202,401.069,324.062,401.069z M187.529,238.936  c-4.71,0-8.533,3.823-8.533,8.533v128c0,4.71,3.823,8.533,8.533,8.533h136.533c4.71,0,8.533-3.823,8.533-8.533v-128  c0-4.71-3.823-8.533-8.533-8.533H187.529z"/>
<path d="M306.995,366.936h-102.4c-4.71,0-8.533-3.823-8.533-8.533v-93.867c0-4.71,3.823-8.533,8.533-8.533h102.4  c4.71,0,8.533,3.823,8.533,8.533v93.867C315.529,363.113,311.714,366.936,306.995,366.936z M213.129,349.869h85.333v-76.8h-85.333  L213.129,349.869L213.129,349.869z"/>
<path d="M272.862,238.936h-34.133c-4.71,0-8.533-3.823-8.533-8.533v-54.784h-30.635c-9.429-0.043-17.033-7.714-16.998-17.135  c0.017-4.48,1.801-8.781,4.966-11.964l56.149-56.235c6.665-6.665,17.468-6.673,24.132-0.017c0.009,0.009,0.009,0.009,0.017,0.017  l56.235,56.235c6.69,6.639,6.733,17.442,0.102,24.132c-3.209,3.234-7.578,5.052-12.134,5.052h-30.635v54.699  C281.395,235.113,277.581,238.936,272.862,238.936z M247.262,221.869h17.067v-54.784c0-4.71,3.823-8.533,8.533-8.533h39.253  l-56.32-56.149l-56.149,56.235h39.083c4.71,0,8.533,3.823,8.533,8.533V221.869z"/>
<g>
</g>
<g>
</g>
<g>
</g>
<g>
</g>
<g>
</g>
<g>
</g>
<g>
</g>
<g>
</g>
<g>
</g>
<g>
</g>
<g>
</g>
<g>
</g>
<g>
</g>
<g>
</g>
<g>
</g>
</svg>
