<?xml version="1.0" encoding="iso-8859-1"?>
<!-- Generator: Adobe Illustrator 19.0.0, SVG Export Plug-In . SVG Version: 6.00 Build 0)  -->
<svg xmlns="http://www.w3.org/2000/svg" xmlns:xlink="http://www.w3.org/1999/xlink" version="1.1" id="Layer_1" x="0px" y="0px" viewBox="0 0 511.997 511.997" style="enable-background:new 0 0 511.997 511.997;" xml:space="preserve">
<circle style="fill:#F4F4F4;" cx="255.974" cy="255.939" r="247.45"/>
<path style="fill:#D50000;" d="M303.937,237.994c-5.188-13.891-16.144-24.847-30.035-30.035l97.7-79.952  c3.771-2.824,9.122-2.065,11.946,1.707c2.278,3.038,2.278,7.202,0,10.239L303.937,237.994z"/>
<path style="fill:#717272;" d="M238.064,303.867l-97.7,79.611c-3.771,2.824-9.122,2.065-11.946-1.707  c-2.278-3.038-2.278-7.202,0-10.239l79.611-97.7C213.217,287.715,224.173,298.679,238.064,303.867z"/>
<path style="fill:#827717;" d="M292.162,292.092c-12.842,12.816-31.503,17.885-49.063,13.311c-1.707-0.418-3.388-0.939-5.034-1.536  c-13.891-5.188-24.847-16.144-30.035-30.035c-7.005-18.781-2.406-39.925,11.775-54.098c6.485-6.502,14.634-11.11,23.55-13.311  c10.103-2.611,20.76-2.073,30.547,1.536c13.891,5.188,24.847,16.144,30.035,30.035C310.942,256.775,306.343,277.919,292.162,292.092  z"/>
<path style="fill:#AFB42B;" d="M266.649,292.092c-6.51,6.468-14.651,11.067-23.55,13.311c-1.707-0.418-3.387-0.939-5.034-1.536  c-13.891-5.188-24.847-16.144-30.035-30.035c-7.005-18.781-2.406-39.925,11.775-54.098c6.485-6.502,14.634-11.11,23.55-13.311  c1.672,0.418,3.328,0.939,4.949,1.536c6.903,2.543,13.166,6.562,18.345,11.775C286.616,239.718,286.616,272.1,266.649,292.092z"/>
<path d="M255.983,51.212c-4.71,0-8.533-3.823-8.533-8.533V8.548c0-4.71,3.823-8.533,8.533-8.533c4.71,0,8.533,3.823,8.533,8.533  v34.131C264.516,47.389,260.693,51.212,255.983,51.212z"/>
<path d="M42.664,264.531H8.533c-4.71,0-8.533-3.823-8.533-8.533s3.823-8.533,8.533-8.533h34.131c4.71,0,8.533,3.823,8.533,8.533  S47.374,264.531,42.664,264.531z"/>
<path d="M255.983,511.981c-4.71,0-8.533-3.823-8.533-8.533v-34.131c0-4.71,3.823-8.533,8.533-8.533c4.71,0,8.533,3.823,8.533,8.533  v34.131C264.516,508.159,260.693,511.981,255.983,511.981z"/>
<path d="M503.433,264.531h-34.131c-4.71,0-8.533-3.823-8.533-8.533s3.823-8.533,8.533-8.533h34.131c4.71,0,8.533,3.823,8.533,8.533  S508.143,264.531,503.433,264.531z"/>
<path d="M255.983,511.981C114.604,511.964,0.017,397.344,0.034,255.964S114.672-0.002,256.043,0.015  c67.853,0.009,132.923,26.955,180.92,74.918l0,0c99.995,99.936,100.055,262.016,0.119,362.011  C389.06,484.992,323.912,511.99,255.983,511.981z M255.983,17.081C124.032,17.09,17.074,124.065,17.083,256.015  c0.009,131.951,106.984,238.909,238.934,238.9s238.909-106.984,238.9-238.934c-0.009-63.364-25.18-124.126-69.986-168.932l0,0  C380.22,42.099,319.381,16.902,255.983,17.081z"/>
<path d="M303.937,246.527h-1.365c-3.012-0.512-5.512-2.594-6.57-5.461c-4.326-11.553-13.448-20.675-25.001-25.001  c-4.411-1.664-6.638-6.587-4.975-10.999c0.529-1.408,1.425-2.645,2.585-3.592l97.7-79.611c7.773-5.324,18.397-3.345,23.721,4.437  c3.857,5.632,3.985,13.012,0.341,18.772l-79.781,98.297C308.963,245.375,306.522,246.536,303.937,246.527z M289.346,206.338  c6.383,4.326,11.886,9.83,16.212,16.212l71.419-87.631L289.346,206.338z"/>
<path d="M135.159,393.717c-9.429-0.034-17.04-7.705-17.006-17.125c0.017-3.635,1.186-7.168,3.353-10.094l79.867-98.041  c2.995-3.635,8.371-4.155,12.014-1.16c1.169,0.964,2.056,2.219,2.577,3.635c4.326,11.553,13.448,20.675,25.001,25.001  c4.42,1.63,6.681,6.536,5.051,10.956c-0.521,1.416-1.416,2.671-2.577,3.635l-97.7,79.525  C142.702,392.378,138.99,393.666,135.159,393.717z M206.408,289.276l-71.334,87.632l87.546-71.419  C216.237,301.154,210.742,295.659,206.408,289.276z"/>
<path d="M255.983,315.728c-7.108,0-14.156-1.271-20.82-3.754c-16.221-6.058-29.011-18.849-35.07-35.07  c-11.494-30.923,4.258-65.301,35.181-76.795c13.422-4.992,28.192-4.992,41.614,0c16.221,6.058,29.011,18.849,35.07,35.07  c11.502,30.923-4.241,65.301-35.164,76.803C270.139,314.456,263.091,315.728,255.983,315.728z M255.983,213.335  c-23.559-0.026-42.689,19.045-42.715,42.613c-0.009,5.12,0.904,10.197,2.696,14.984c4.326,11.553,13.448,20.675,25.001,25.001  c22.057,8.294,46.657-2.858,54.951-24.916c3.643-9.685,3.643-20.351,0-30.035c-4.326-11.553-13.448-20.675-25.001-25.001  C266.137,214.213,261.077,213.318,255.983,213.335z"/>
<g>
</g>
<g>
</g>
<g>
</g>
<g>
</g>
<g>
</g>
<g>
</g>
<g>
</g>
<g>
</g>
<g>
</g>
<g>
</g>
<g>
</g>
<g>
</g>
<g>
</g>
<g>
</g>
<g>
</g>
</svg>
