<?xml version="1.0" encoding="iso-8859-1"?>
<!-- Generator: Adobe Illustrator 19.0.0, SVG Export Plug-In . SVG Version: 6.00 Build 0)  -->
<svg xmlns="http://www.w3.org/2000/svg" xmlns:xlink="http://www.w3.org/1999/xlink" version="1.1" id="Layer_1" x="0px" y="0px" viewBox="0 0 512 512" style="enable-background:new 0 0 512 512;" xml:space="preserve">
<circle style="fill:#F4F4F4;" cx="256" cy="255.915" r="247.467"/>
<path style="fill:#FFC107;" d="M187.733,136.533v6.4V307.2c-1.843,0-3.644,0.597-5.12,1.707l-49.493,37.12  c-3.772,2.825-9.122,2.065-11.947-1.707c-1.109-1.476-1.707-3.277-1.707-5.12V189.781c0-2.688,1.263-5.214,3.413-6.827l59.733-44.8  C184.098,137.079,185.899,136.508,187.733,136.533z"/>
<path style="fill:#F9A825;" d="M256,183.381v164.267l-5.12,4.693l-58.027-43.52c-1.485-1.075-3.285-1.647-5.12-1.621V142.848v-6.315  c1.69,0.119,3.319,0.708,4.693,1.707l58.027,43.52C252.058,182.929,254.02,183.501,256,183.381z"/>
<path style="fill:#FFC107;" d="M329.387,138.155l-5.12,4.693V307.2c-1.843,0-3.644,0.597-5.12,1.707l-58.027,43.52  c-1.596,1.203-3.558,1.801-5.547,1.707c-1.69-0.119-3.319-0.708-4.693-1.707l5.12-4.693V183.381c1.843,0,3.644-0.597,5.12-1.707  l58.027-43.52c1.485-1.075,3.285-1.647,5.12-1.621C326.101,136.542,327.885,137.105,329.387,138.155z"/>
<path style="fill:#F9A825;" d="M392.533,189.781v149.333c0,4.71-3.823,8.533-8.533,8.533c-1.843,0-3.644-0.597-5.12-1.707  l-49.493-37.12c-1.485-1.075-3.285-1.647-5.12-1.621V142.848l5.12-4.693l59.733,44.8  C391.27,184.567,392.533,187.093,392.533,189.781z"/>
<path d="M256,512C114.611,512,0,397.389,0,256S114.611,0,256,0s256,114.611,256,256S397.389,512,256,512z M256,17.067  C124.041,17.067,17.067,124.041,17.067,256S124.041,494.933,256,494.933S494.933,387.96,494.933,256S387.96,17.067,256,17.067z"/>
<path d="M256,364.715c-3.695,0-7.287-1.195-10.24-3.413l-58.027-43.52l-49.493,37.12c-7.543,5.658-18.236,4.13-23.893-3.413  c-2.202-2.927-3.396-6.494-3.413-10.155V191.915c0-5.376,2.526-10.428,6.827-13.653l59.733-44.8c6.067-4.548,14.413-4.548,20.48,0  L256,176.981l58.027-43.52c6.067-4.548,14.413-4.548,20.48,0l59.733,44.8c4.301,3.226,6.827,8.277,6.827,13.653v149.419  c0,9.429-7.637,17.067-17.067,17.067c-3.695,0-7.287-1.195-10.24-3.413l-49.493-37.205l-58.027,43.52  C263.287,363.52,259.695,364.715,256,364.715z M187.733,300.715c3.695,0,7.287,1.195,10.24,3.413L256,347.648l0,0l58.027-43.52  c6.067-4.548,14.413-4.548,20.48,0L384,341.333V191.915l-59.733-44.8l-58.027,43.52c-6.067,4.548-14.413,4.548-20.48,0  l-58.027-43.52L128,191.915v149.419l49.493-37.12C180.437,301.969,184.03,300.74,187.733,300.715z"/>
<path d="M187.733,315.733c-4.71,0-8.533-3.823-8.533-8.533V145.067c0-4.71,3.823-8.533,8.533-8.533c4.71,0,8.533,3.823,8.533,8.533  V307.2C196.267,311.91,192.444,315.733,187.733,315.733z"/>
<path d="M324.267,315.733c-4.71,0-8.533-3.823-8.533-8.533V145.067c0-4.71,3.823-8.533,8.533-8.533s8.533,3.823,8.533,8.533V307.2  C332.8,311.91,328.977,315.733,324.267,315.733z"/>
<rect x="247.467" y="179.115" width="17.067" height="170.667"/>
<g>
</g>
<g>
</g>
<g>
</g>
<g>
</g>
<g>
</g>
<g>
</g>
<g>
</g>
<g>
</g>
<g>
</g>
<g>
</g>
<g>
</g>
<g>
</g>
<g>
</g>
<g>
</g>
<g>
</g>
</svg>
