<?xml version="1.0" encoding="iso-8859-1"?>
<!-- Generator: Adobe Illustrator 19.0.0, SVG Export Plug-In . SVG Version: 6.00 Build 0)  -->
<svg xmlns="http://www.w3.org/2000/svg" xmlns:xlink="http://www.w3.org/1999/xlink" version="1.1" id="Layer_1" x="0px" y="0px" viewBox="0 0 512 512" style="enable-background:new 0 0 512 512;" xml:space="preserve">
<path style="fill:#F4F4F4;" d="M503.467,256c0,136.67-110.797,247.467-247.467,247.467c-7.168,0-14.336,0-21.333-1.024  C98.56,490.018-1.707,369.621,10.709,233.515C21.564,114.611,115.763,20.412,234.667,9.557c6.997-1.024,14.165-1.024,21.333-1.024  C392.67,8.533,503.467,119.33,503.467,256z"/>
<path style="fill:#FFFFFF;" d="M460.8,256c-0.094,128.333-98.278,235.298-226.133,246.357  C98.56,489.933-1.707,369.536,10.709,233.429C21.564,114.526,115.763,20.326,234.667,9.472C362.581,20.54,460.792,127.607,460.8,256  z"/>
<path style="fill:#717272;" d="M230.4,226.133h145.067c4.71,0,8.533,3.823,8.533,8.533V268.8c0,4.71-3.823,8.533-8.533,8.533H230.4  c-4.71,0-8.533-3.823-8.533-8.533v-34.133C221.867,229.956,225.69,226.133,230.4,226.133z"/>
<g>
	<path style="fill:#A8A5A4;" d="M230.4,226.133h128c4.71,0,8.533,3.823,8.533,8.533V268.8c0,4.71-3.823,8.533-8.533,8.533h-128   c-4.71,0-8.533-3.823-8.533-8.533v-34.133C221.867,229.956,225.69,226.133,230.4,226.133z"/>
	<path style="fill:#A8A5A4;" d="M230.4,140.8h145.067c4.71,0,8.533,3.823,8.533,8.533v34.133c0,4.71-3.823,8.533-8.533,8.533H230.4   c-4.71,0-8.533-3.823-8.533-8.533v-34.133C221.867,144.623,225.69,140.8,230.4,140.8z"/>
	<path style="fill:#A8A5A4;" d="M179.2,170.667c0,14.14-11.46,25.6-25.6,25.6c-2.918,0.017-5.811-0.503-8.533-1.536   c-13.312-4.753-20.258-19.396-15.505-32.717c1.263-3.55,3.294-6.767,5.948-9.438c2.671-2.714,5.948-4.762,9.557-5.973   c2.722-1.033,5.615-1.553,8.533-1.536C167.74,145.067,179.2,156.527,179.2,170.667z"/>
</g>
<g>
	<path style="fill:#BDBDBD;" d="M230.4,140.8h128c4.71,0,8.533,3.823,8.533,8.533v34.133c0,4.71-3.823,8.533-8.533,8.533h-128   c-4.71,0-8.533-3.823-8.533-8.533v-34.133C221.867,144.623,225.69,140.8,230.4,140.8z"/>
	<path style="fill:#BDBDBD;" d="M162.133,170.667c-0.009,6.784-2.705,13.295-7.509,18.091c-2.671,2.714-5.948,4.762-9.557,5.973   c-13.312-4.753-20.258-19.396-15.505-32.717c1.263-3.55,3.294-6.767,5.948-9.438c2.671-2.714,5.948-4.762,9.557-5.973   c3.61,1.212,6.886,3.26,9.557,5.973C159.428,157.372,162.125,163.883,162.133,170.667z"/>
</g>
<path style="fill:#717272;" d="M179.2,251.733c-0.009,6.784-2.705,13.295-7.509,18.091c-4.796,4.804-11.307,7.501-18.091,7.509  c-14.14-0.009-25.591-11.486-25.574-25.626c0.009-6.775,2.697-13.278,7.484-18.065c2.671-2.714,5.948-4.762,9.557-5.973  c2.722-1.033,5.615-1.553,8.533-1.536C167.74,226.133,179.2,237.594,179.2,251.733z"/>
<path style="fill:#A8A5A4;" d="M162.133,251.733c-0.009,6.784-2.705,13.295-7.509,18.091c-2.671,2.739-5.939,4.813-9.557,6.059  c-13.329-4.719-20.309-19.345-15.59-32.674c1.271-3.601,3.337-6.869,6.033-9.566c2.671-2.714,5.948-4.762,9.557-5.973  c3.61,1.212,6.886,3.26,9.557,5.973C159.428,238.438,162.125,244.949,162.133,251.733z"/>
<path style="fill:#555656;" d="M179.2,337.067c-0.009,6.784-2.705,13.295-7.509,18.091c-4.796,4.804-11.307,7.501-18.091,7.509  c-14.14-0.009-25.591-11.486-25.574-25.626c0.009-6.775,2.697-13.278,7.484-18.065c2.671-2.714,5.948-4.762,9.557-5.973  c2.722-1.033,5.615-1.553,8.533-1.536C167.74,311.467,179.2,322.927,179.2,337.067z"/>
<path style="fill:#717272;" d="M162.133,337.067c-0.009,6.784-2.705,13.295-7.509,18.091c-2.671,2.739-5.939,4.813-9.557,6.059  c-13.329-4.719-20.309-19.345-15.59-32.674c1.271-3.601,3.337-6.869,6.033-9.566c2.671-2.714,5.948-4.762,9.557-5.973  c3.61,1.212,6.886,3.26,9.557,5.973C159.428,323.772,162.125,330.283,162.133,337.067z"/>
<path style="fill:#555656;" d="M230.4,311.467h145.067c4.71,0,8.533,3.823,8.533,8.533v34.133c0,4.71-3.823,8.533-8.533,8.533H230.4  c-4.71,0-8.533-3.823-8.533-8.533V320C221.867,315.29,225.69,311.467,230.4,311.467z"/>
<path style="fill:#717272;" d="M230.4,311.467h128c4.71,0,8.533,3.823,8.533,8.533v34.133c0,4.71-3.823,8.533-8.533,8.533h-128  c-4.71,0-8.533-3.823-8.533-8.533V320C221.867,315.29,225.69,311.467,230.4,311.467z"/>
<path d="M256,512C114.611,512,0,397.389,0,256S114.611,0,256,0s256,114.611,256,256S397.389,512,256,512z M256,17.067  C124.041,17.067,17.067,124.041,17.067,256S124.041,494.933,256,494.933S494.933,387.96,494.933,256S387.96,17.067,256,17.067z"/>
<path d="M375.467,285.867H230.4c-9.429,0-17.067-7.637-17.067-17.067v-34.133c0-9.429,7.637-17.067,17.067-17.067h145.067  c9.429,0,17.067,7.637,17.067,17.067V268.8C392.533,278.229,384.896,285.867,375.467,285.867z M230.4,234.667V268.8h145.067v-34.133  H230.4z"/>
<path d="M375.467,200.533H230.4c-9.429,0-17.067-7.637-17.067-17.067v-34.133c0-9.429,7.637-17.067,17.067-17.067h145.067  c9.429,0,17.067,7.637,17.067,17.067v34.133C392.533,192.896,384.896,200.533,375.467,200.533z M230.4,149.333v34.133h145.067  v-34.133H230.4z"/>
<path d="M153.6,204.8c-18.85,0-34.133-15.283-34.133-34.133s15.283-34.133,34.133-34.133s34.133,15.283,34.133,34.133  S172.45,204.8,153.6,204.8z M153.6,153.6c-9.429,0-17.067,7.637-17.067,17.067c0,9.429,7.637,17.067,17.067,17.067  c9.429,0,17.067-7.637,17.067-17.067C170.667,161.237,163.029,153.6,153.6,153.6z"/>
<path d="M153.6,285.867c-18.85,0-34.133-15.283-34.133-34.133c0-18.85,15.283-34.133,34.133-34.133s34.133,15.283,34.133,34.133  C187.733,270.583,172.45,285.867,153.6,285.867z M153.6,234.667c-9.429,0-17.067,7.637-17.067,17.067S144.171,268.8,153.6,268.8  c9.429,0,17.067-7.637,17.067-17.067S163.029,234.667,153.6,234.667z"/>
<path d="M153.6,371.2c-18.85,0-34.133-15.283-34.133-34.133s15.283-34.133,34.133-34.133s34.133,15.283,34.133,34.133  S172.45,371.2,153.6,371.2z M153.6,320c-9.429,0-17.067,7.637-17.067,17.067s7.637,17.067,17.067,17.067  c9.429,0,17.067-7.637,17.067-17.067S163.029,320,153.6,320z"/>
<path d="M375.467,371.2H230.4c-9.429,0-17.067-7.637-17.067-17.067V320c0-9.429,7.637-17.067,17.067-17.067h145.067  c9.429,0,17.067,7.637,17.067,17.067v34.133C392.533,363.563,384.896,371.2,375.467,371.2z M230.4,320v34.133h145.067V320H230.4z"/>
<g>
</g>
<g>
</g>
<g>
</g>
<g>
</g>
<g>
</g>
<g>
</g>
<g>
</g>
<g>
</g>
<g>
</g>
<g>
</g>
<g>
</g>
<g>
</g>
<g>
</g>
<g>
</g>
<g>
</g>
</svg>
