<?xml version="1.0" encoding="iso-8859-1"?>
<!-- Generator: Adobe Illustrator 19.0.0, SVG Export Plug-In . SVG Version: 6.00 Build 0)  -->
<svg xmlns="http://www.w3.org/2000/svg" xmlns:xlink="http://www.w3.org/1999/xlink" version="1.1" id="Layer_1" x="0px" y="0px" viewBox="0 0 512.002 512.002" style="enable-background:new 0 0 512.002 512.002;" xml:space="preserve">
<path style="fill:#F4F4F4;" d="M452.199,204.91c-0.017,108.361-87.88,196.181-196.232,196.164  c-108.361-0.017-196.189-87.88-196.164-196.232c0.017-80.049,48.666-152.071,122.922-181.961  c16.626-6.756,34.104-11.149,51.95-13.051C342.388-1.951,439.258,75.82,451.039,183.541  C451.806,190.63,452.199,197.77,452.199,204.91z"/>
<path style="fill:#FFFFFF;" d="M409.547,204.91c-0.06,100.061-75.408,184.042-174.872,194.918  c-107.713-11.857-185.407-108.796-173.541-216.5c7.908-71.783,54.62-133.423,121.592-160.456  c16.626-6.756,34.104-11.149,51.95-13.051c17.845,1.902,35.324,6.295,51.95,13.051C360.907,52.779,409.556,124.835,409.547,204.91z"/>
<path style="fill:#F9A825;" d="M332.774,204.91c0,42.404-34.369,76.773-76.773,76.773l0,0c-4.282,0.009-8.564-0.341-12.796-1.024  c-41.833-6.901-70.154-46.405-63.253-88.246c5.357-32.458,30.795-57.904,63.253-63.253c4.231-0.682,8.513-1.032,12.796-1.024  C298.397,128.136,332.774,162.514,332.774,204.91z"/>
<path style="fill:#FFC107;" d="M307.183,204.91c0.026,37.482-27.024,69.505-63.978,75.749  c-41.833-6.901-70.154-46.405-63.253-88.246c5.357-32.458,30.795-57.904,63.253-63.253  C280.159,135.413,307.208,167.427,307.183,204.91z"/>
<path style="fill:#555656;" d="M298.652,204.91c0,23.552-19.099,42.652-42.652,42.652c-4.333-0.017-8.641-0.648-12.796-1.877  c-22.52-6.91-35.171-30.769-28.261-53.289c4.154-13.529,14.74-24.115,28.261-28.261c4.154-1.228,8.462-1.868,12.796-1.877  C279.553,162.258,298.652,181.357,298.652,204.91z"/>
<path style="fill:#717272;" d="M273.061,204.91c0.043,18.656-12.053,35.179-29.856,40.775c-22.52-6.91-35.171-30.769-28.261-53.289  c4.154-13.529,14.74-24.115,28.261-28.261C260.999,169.739,273.096,186.254,273.061,204.91z"/>
<path style="fill:#2979FF;" d="M503.381,477.881c-0.009,3.907-0.913,7.754-2.644,11.26c-1.211,2.542-2.858,4.845-4.862,6.824  c-4.794,4.803-11.303,7.498-18.084,7.507H34.212c-14.135,0-25.591-11.456-25.591-25.591C8.604,413.75,44.559,355.018,101.687,325.87  c66.921,85.227,190.252,100.069,275.479,33.149c12.335-9.682,23.467-20.814,33.149-33.149  C467.442,355.027,503.398,413.75,503.381,477.881z"/>
<path style="fill:#0091EA;" d="M500.736,489.056c-1.211,2.542-2.858,4.845-4.862,6.824c-4.777,4.828-11.286,7.566-18.084,7.592  H34.212c-9.759-0.017-18.656-5.57-22.947-14.331c9.341-52.632,42.805-97.852,90.422-122.155  c66.921,85.227,190.252,100.069,275.479,33.149c12.335-9.682,23.467-20.814,33.149-33.149  C457.957,391.212,491.447,436.423,500.736,489.056z"/>
<path style="fill:#2979FF;" d="M329.276,22.872c-9.938,32.134-39.641,54.057-73.276,54.082c-6.509,0.009-12.983-0.819-19.279-2.474  c-25.617-6.62-46.021-25.958-53.997-51.182c23.245-9.571,48.137-14.527,73.276-14.587c6.483,0,12.881,0,19.193,0.938l0,0  C293.765,11.424,311.977,15.877,329.276,22.872z"/>
<path style="fill:#0091EA;" d="M291.658,16.133c-6.816,27.715-27.664,49.834-54.935,58.262  c-25.617-6.62-46.021-25.958-53.997-51.182c23.254-9.545,48.137-14.467,73.276-14.502c6.483,0,12.881,0,19.193,0.938l0,0  C280.79,11.527,286.283,13.685,291.658,16.133z"/>
<path d="M256.001,409.638c-113.07,0-204.728-91.659-204.728-204.728S142.931,0.181,256.001,0.181S460.729,91.84,460.729,204.91  S369.062,409.638,256.001,409.638z M256.001,17.242c-24.013-0.043-47.796,4.589-70.034,13.649  C89.804,69.576,43.211,178.884,81.896,275.046c6.628,16.472,15.559,31.921,26.521,45.885  c64.029,81.507,182.004,95.668,263.511,31.639c45.313-35.597,71.757-90.029,71.732-147.652  c0.324-76.679-46.311-145.741-117.548-174.104C303.847,21.772,280.031,17.165,256.001,17.242z"/>
<path d="M256.001,290.213c-47.113,0-85.303-38.19-85.303-85.303s38.19-85.303,85.303-85.303s85.303,38.19,85.303,85.303  S303.114,290.213,256.001,290.213z M256.001,136.667c-37.687,0-68.243,30.556-68.243,68.243s30.556,68.243,68.243,68.243  s68.243-30.556,68.243-68.243S293.688,136.667,256.001,136.667z"/>
<path d="M256.001,256.092c-28.27,0-51.182-22.913-51.182-51.182s22.913-51.182,51.182-51.182s51.182,22.913,51.182,51.182  S284.262,256.092,256.001,256.092z M256.001,170.788c-18.844,0-34.121,15.278-34.121,34.121s15.278,34.121,34.121,34.121  c18.844,0,34.121-15.278,34.121-34.121S274.844,170.788,256.001,170.788z"/>
<path d="M477.79,512.002H34.212c-18.844,0-34.121-15.278-34.121-34.121c0.026-67.313,37.789-128.936,97.758-159.517l6.227-3.156  l4.35,5.545c64.029,81.507,182.004,95.668,263.511,31.639c11.772-9.247,22.392-19.867,31.639-31.639l4.35-5.545l6.227,3.156  c60.122,30.419,97.945,92.136,97.758,159.517C511.911,496.733,496.633,512.002,477.79,512.002z M99.469,336.703  c-50.892,28.773-82.352,82.719-82.318,141.177c0,9.426,7.635,17.061,17.061,17.061H477.79c9.426,0,17.061-7.635,17.061-17.061  c0.179-58.476-31.323-112.473-82.318-141.092c-72.9,86.429-202.067,97.391-288.496,24.482c-8.837-7.456-17.027-15.645-24.482-24.482  L99.469,336.703z"/>
<path d="M256.001,85.485c-37.312,0.171-70.341-24.073-81.38-59.712l-2.303-7.421l6.91-3.412c49.246-19.918,104.301-19.918,153.546,0  l7.251,2.986l-2.644,7.848C326.342,61.421,293.304,85.655,256.001,85.485z M193.644,27.82  c15.312,34.437,55.643,49.945,90.081,34.633c15.431-6.858,27.766-19.202,34.633-34.633C278,13.608,234.001,13.608,193.644,27.82z"/>
<g>
</g>
<g>
</g>
<g>
</g>
<g>
</g>
<g>
</g>
<g>
</g>
<g>
</g>
<g>
</g>
<g>
</g>
<g>
</g>
<g>
</g>
<g>
</g>
<g>
</g>
<g>
</g>
<g>
</g>
</svg>
