<?xml version="1.0" encoding="iso-8859-1"?>
<!-- Generator: Adobe Illustrator 19.0.0, SVG Export Plug-In . SVG Version: 6.00 Build 0)  -->
<svg xmlns="http://www.w3.org/2000/svg" xmlns:xlink="http://www.w3.org/1999/xlink" version="1.1" id="Layer_1" x="0px" y="0px" viewBox="0 0 512 512" style="enable-background:new 0 0 512 512;" xml:space="preserve">
<path style="fill:#555656;" d="M384,42.667v51.2H128v-51.2c0-18.85,15.283-34.133,34.133-34.133h187.733  C368.717,8.533,384,23.817,384,42.667z"/>
<path style="fill:#717272;" d="M349.867,42.667v51.2H128v-51.2c0-18.85,15.283-34.133,34.133-34.133h153.6  C334.583,8.533,349.867,23.817,349.867,42.667z"/>
<path style="fill:#555656;" d="M384,366.933v102.4c0,18.85-15.283,34.133-34.133,34.133H162.133  c-18.85,0-34.133-15.283-34.133-34.133v-102.4H384z"/>
<path style="fill:#717272;" d="M349.867,366.933v102.4c0,18.85-15.283,34.133-34.133,34.133h-153.6  c-18.85,0-34.133-15.283-34.133-34.133v-102.4H349.867z"/>
<circle style="fill:#555656;" cx="256" cy="435.115" r="34.133"/>
<rect x="128" y="93.781" style="fill:#A8A5A4;" width="256" height="273.067"/>
<rect x="128" y="93.781" style="fill:#BDBDBD;" width="221.867" height="273.067"/>
<path d="M392.533,102.4H119.467V42.667C119.467,19.106,138.573,0,162.133,0h187.733c23.561,0,42.667,19.106,42.667,42.667V102.4z   M136.533,85.333h238.933V42.667c0-14.14-11.46-25.6-25.6-25.6H162.133c-14.14,0-25.6,11.46-25.6,25.6V85.333z"/>
<path d="M349.867,512H162.133c-23.561,0-42.667-19.106-42.667-42.667V358.4h273.067v110.933  C392.533,492.894,373.427,512,349.867,512z M136.533,375.467v93.867c0,14.14,11.46,25.6,25.6,25.6l0,0h187.733  c14.14,0,25.6-11.46,25.6-25.6l0,0v-93.867H136.533z"/>
<path d="M256,477.867c-23.561,0-42.667-19.106-42.667-42.667s19.106-42.667,42.667-42.667c23.561,0,42.667,19.106,42.667,42.667  S279.561,477.867,256,477.867z M256,409.6c-14.14,0-25.6,11.46-25.6,25.6c0,14.14,11.46,25.6,25.6,25.6  c14.14,0,25.6-11.46,25.6-25.6C281.6,421.06,270.14,409.6,256,409.6z"/>
<path d="M392.533,375.467H119.467V85.333h273.067V375.467z M136.533,358.4h238.933v-256H136.533V358.4z"/>
<path d="M281.6,59.733h-51.2c-4.71,0-8.533-3.823-8.533-8.533s3.823-8.533,8.533-8.533h51.2c4.71,0,8.533,3.823,8.533,8.533  S286.31,59.733,281.6,59.733z"/>
<g>
</g>
<g>
</g>
<g>
</g>
<g>
</g>
<g>
</g>
<g>
</g>
<g>
</g>
<g>
</g>
<g>
</g>
<g>
</g>
<g>
</g>
<g>
</g>
<g>
</g>
<g>
</g>
<g>
</g>
</svg>
