<?xml version="1.0" encoding="iso-8859-1"?>
<!-- Generator: Adobe Illustrator 19.0.0, SVG Export Plug-In . SVG Version: 6.00 Build 0)  -->
<svg xmlns="http://www.w3.org/2000/svg" xmlns:xlink="http://www.w3.org/1999/xlink" version="1.1" id="Layer_1" x="0px" y="0px" viewBox="0 0 512 512" style="enable-background:new 0 0 512 512;" xml:space="preserve">
<path style="fill:#AD1457;" d="M503.467,256c0,136.67-110.797,247.467-247.467,247.467c-7.168,0-14.336,0-21.333-1.024  C98.56,490.018-1.707,369.621,10.709,233.515C21.564,114.611,115.763,20.412,234.667,9.557c6.997-1.024,14.165-1.024,21.333-1.024  C392.67,8.533,503.467,119.33,503.467,256z"/>
<path style="fill:#D81B60;" d="M460.8,256c-0.094,128.333-98.278,235.298-226.133,246.357  C98.56,489.933-1.707,369.536,10.709,233.429C21.564,114.526,115.763,20.326,234.667,9.472C362.581,20.54,460.792,127.607,460.8,256  z"/>
<path d="M256,512C114.611,512,0,397.389,0,256S114.611,0,256,0s256,114.611,256,256S397.389,512,256,512z M256,17.067  C124.041,17.067,17.067,124.041,17.067,256S124.041,494.933,256,494.933S494.933,387.96,494.933,256S387.96,17.067,256,17.067z"/>
<path style="fill:#A8A5A4;" d="M256,185.941v161.451c-0.06,4.71-3.934,8.482-8.644,8.422c-2.116-0.026-4.139-0.836-5.692-2.278  c-3.413-3.268-7.194-6.127-11.264-8.533c-13.022-7.313-27.733-11.076-42.667-10.923c-13.286-0.111-26.419,2.807-38.4,8.533  c-9.916,1.34-19.482,4.582-28.16,9.557c-1.109-1.476-1.707-3.277-1.707-5.12V185.941c0-24.149,23.893-44.288,55.467-48.555  c4.241-0.589,8.516-0.879,12.8-0.853C225.451,136.533,256,158.635,256,185.941z"/>
<path style="fill:#BDBDBD;" d="M230.4,187.733v157.611c-13.022-7.313-27.733-11.076-42.667-10.923  c-13.286-0.111-26.419,2.807-38.4,8.533c-9.916,1.34-19.482,4.582-28.16,9.557c-1.109-1.476-1.707-3.277-1.707-5.12V185.941  c0-24.149,23.893-44.288,55.467-48.555C206.507,141.909,230.4,162.816,230.4,187.733z"/>
<path style="fill:#F4F4F4;" d="M392.533,185.941v161.451c-0.06,4.71-3.934,8.482-8.644,8.422c-2.116-0.026-4.139-0.836-5.692-2.278  c-3.413-3.268-7.194-6.127-11.264-8.533c-13.022-7.313-27.733-11.076-42.667-10.923c-4.284,0.026-8.559,0.307-12.8,0.853  c-9.327,1.297-18.364,4.181-26.709,8.533c-9.412,1.391-18.492,4.489-26.795,9.131c-1.254-1.51-1.946-3.413-1.963-5.376v-161.28  c0-21.163,18.432-39.339,44.373-46.251c1.741-0.521,3.507-0.947,5.291-1.28c1.877-0.427,3.84-0.768,5.803-1.024  c4.241-0.589,8.516-0.879,12.8-0.853C361.984,136.533,392.533,158.635,392.533,185.941z"/>
<path style="fill:#FFFFFF;" d="M366.933,187.733v157.611c-13.022-7.313-27.733-11.076-42.667-10.923  c-4.284,0.026-8.559,0.307-12.8,0.853c-9.327,1.297-18.364,4.181-26.709,8.533c-9.412,1.391-18.492,4.489-26.795,9.131  c-0.683,0.316-1.34,0.691-1.963,1.109V187.733c0-22.101,18.432-40.96,44.373-48.213c1.741-0.521,3.507-0.947,5.291-1.28  c1.877-0.427,3.84-0.768,5.803-1.024C343.04,141.824,366.933,162.816,366.933,187.733z"/>
<path d="M128,364.459c-2.355-0.009-4.676-0.503-6.827-1.451c-6.212-2.714-10.231-8.841-10.24-15.616V185.941  c0-32.341,34.133-57.941,76.8-57.941s76.8,26.027,76.8,58.027v161.365c-0.034,9.429-7.697,17.041-17.118,17.015  c-4.284-0.017-8.405-1.638-11.554-4.557c-13.406-11.401-30.532-17.468-48.128-17.067c-17.596-0.401-34.722,5.666-48.128,17.067  C136.457,362.795,132.309,364.442,128,364.459z M187.733,145.067c-32.939,0-59.733,18.347-59.733,40.96v161.365  c16.521-14.387,37.837-22.059,59.733-21.504c21.879-0.546,43.187,7.091,59.733,21.419V185.941  C247.467,163.328,220.672,145.067,187.733,145.067z"/>
<path d="M264.533,364.459c-2.355-0.009-4.676-0.503-6.827-1.451c-6.212-2.714-10.231-8.841-10.24-15.616V185.941  c0-32.341,34.133-57.941,76.8-57.941s76.8,26.027,76.8,58.027v161.365c-0.034,9.429-7.697,17.041-17.118,17.015  c-4.284-0.017-8.405-1.638-11.554-4.557c-13.406-11.401-30.532-17.468-48.128-17.067c-17.596-0.401-34.722,5.666-48.128,17.067  C272.99,362.795,268.843,364.442,264.533,364.459z M324.267,145.067c-32.939,0-59.733,18.347-59.733,40.96v161.365  c16.521-14.387,37.837-22.059,59.733-21.504c21.879-0.546,43.187,7.091,59.733,21.419V185.941  C384,163.328,357.205,145.067,324.267,145.067z"/>
<g>
</g>
<g>
</g>
<g>
</g>
<g>
</g>
<g>
</g>
<g>
</g>
<g>
</g>
<g>
</g>
<g>
</g>
<g>
</g>
<g>
</g>
<g>
</g>
<g>
</g>
<g>
</g>
<g>
</g>
</svg>
