<?xml version="1.0" encoding="iso-8859-1"?>
<!-- Generator: Adobe Illustrator 19.0.0, SVG Export Plug-In . SVG Version: 6.00 Build 0)  -->
<svg xmlns="http://www.w3.org/2000/svg" xmlns:xlink="http://www.w3.org/1999/xlink" version="1.1" id="Layer_1" x="0px" y="0px" viewBox="0 0 512 512" style="enable-background:new 0 0 512 512;" xml:space="preserve">
<path style="fill:#F4F4F4;" d="M503.467,256c0,136.67-110.797,247.467-247.467,247.467c-7.168,0-14.336,0-21.333-1.024  C98.56,490.018-1.707,369.621,10.709,233.515C21.564,114.611,115.763,20.412,234.667,9.557c6.997-1.024,14.165-1.024,21.333-1.024  C392.67,8.533,503.467,119.33,503.467,256z"/>
<path style="fill:#FFFFFF;" d="M460.8,256c-0.094,128.333-98.278,235.298-226.133,246.357  C98.56,489.933-1.707,369.536,10.709,233.429C21.564,114.526,115.763,20.326,234.667,9.472C362.581,20.54,460.792,127.607,460.8,256  z"/>
<path style="fill:#283593;" d="M136.533,230.315h238.933c4.71,0,8.533,3.823,8.533,8.533v34.133c0,4.71-3.823,8.533-8.533,8.533  H136.533c-4.71,0-8.533-3.823-8.533-8.533v-34.133C128,234.138,131.823,230.315,136.533,230.315z"/>
<path style="fill:#3949AB;" d="M366.933,256v25.6h-230.4c-4.71,0-8.533-3.823-8.533-8.533v-25.6h230.4  C363.11,247.467,366.933,251.29,366.933,256z"/>
<path style="fill:#283593;" d="M136.533,144.981h238.933c4.71,0,8.533,3.823,8.533,8.533v34.133c0,4.71-3.823,8.533-8.533,8.533  H136.533c-4.71,0-8.533-3.823-8.533-8.533v-34.133C128,148.804,131.823,144.981,136.533,144.981z"/>
<path style="fill:#3949AB;" d="M366.933,170.667v25.6h-230.4c-4.71,0-8.533-3.823-8.533-8.533v-25.6h230.4  C363.11,162.133,366.933,165.956,366.933,170.667z"/>
<path style="fill:#283593;" d="M136.533,315.648h238.933c4.71,0,8.533,3.823,8.533,8.533v34.133c0,4.71-3.823,8.533-8.533,8.533  H136.533c-4.71,0-8.533-3.823-8.533-8.533v-34.133C128,319.471,131.823,315.648,136.533,315.648z"/>
<path style="fill:#3949AB;" d="M366.933,341.333v25.6h-230.4c-4.71,0-8.533-3.823-8.533-8.533v-25.6h230.4  C363.11,332.8,366.933,336.623,366.933,341.333z"/>
<path d="M256,512C114.611,512,0,397.389,0,256S114.611,0,256,0s256,114.611,256,256S397.389,512,256,512z M256,17.067  C124.041,17.067,17.067,124.041,17.067,256S124.041,494.933,256,494.933S494.933,387.96,494.933,256S387.96,17.067,256,17.067z"/>
<path d="M375.467,290.133H136.533c-9.429,0-17.067-7.637-17.067-17.067v-34.133c0-9.429,7.637-17.067,17.067-17.067h238.933  c9.429,0,17.067,7.637,17.067,17.067v34.133C392.533,282.496,384.896,290.133,375.467,290.133z M136.533,238.933v34.133h238.933  v-34.133H136.533z"/>
<path d="M375.467,204.8H136.533c-9.429,0-17.067-7.637-17.067-17.067V153.6c0-9.429,7.637-17.067,17.067-17.067h238.933  c9.429,0,17.067,7.637,17.067,17.067v34.133C392.533,197.163,384.896,204.8,375.467,204.8z M136.533,153.6v34.133h238.933V153.6  H136.533z"/>
<path d="M375.467,375.467H136.533c-9.429,0-17.067-7.637-17.067-17.067v-34.133c0-9.429,7.637-17.067,17.067-17.067h238.933  c9.429,0,17.067,7.637,17.067,17.067V358.4C392.533,367.829,384.896,375.467,375.467,375.467z M136.533,324.267V358.4h238.933  v-34.133H136.533z"/>
<g>
</g>
<g>
</g>
<g>
</g>
<g>
</g>
<g>
</g>
<g>
</g>
<g>
</g>
<g>
</g>
<g>
</g>
<g>
</g>
<g>
</g>
<g>
</g>
<g>
</g>
<g>
</g>
<g>
</g>
</svg>
