<?xml version="1.0" encoding="iso-8859-1"?>
<!-- Generator: Adobe Illustrator 19.0.0, SVG Export Plug-In . SVG Version: 6.00 Build 0)  -->
<svg xmlns="http://www.w3.org/2000/svg" xmlns:xlink="http://www.w3.org/1999/xlink" version="1.1" id="Layer_1" x="0px" y="0px" viewBox="0 0 512 512" style="enable-background:new 0 0 512 512;" xml:space="preserve">
<path style="fill:#A8A5A4;" d="M503.467,119.467V204.8H8.533v-85.333c0-18.85,15.283-34.133,34.133-34.133h426.667  C488.184,85.333,503.467,100.617,503.467,119.467z"/>
<path style="fill:#BDBDBD;" d="M460.8,119.467V204.8H8.533v-85.333c0-18.85,15.283-34.133,34.133-34.133h384  C445.517,85.333,460.8,100.617,460.8,119.467z"/>
<path style="fill:#F4F4F4;" d="M503.467,204.8v187.733c0,18.85-15.283,34.133-34.133,34.133H42.667  c-18.85,0-34.133-15.283-34.133-34.133V204.8H503.467z"/>
<path style="fill:#FFFFFF;" d="M460.8,204.8v187.733c0,18.85-15.283,34.133-34.133,34.133h-384  c-18.85,0-34.133-15.283-34.133-34.133V204.8H460.8z"/>
<path style="fill:#B71C1C;" d="M93.867,145.067c0,14.14-11.46,25.6-25.6,25.6c-2.918,0.017-5.811-0.503-8.533-1.536  c-13.286-4.821-20.156-19.507-15.326-32.802c2.586-7.125,8.201-12.74,15.326-15.326c2.722-1.033,5.615-1.553,8.533-1.536  C82.406,119.467,93.867,130.927,93.867,145.067z"/>
<path style="fill:#D50000;" d="M76.8,145.067c-0.034,10.82-6.861,20.454-17.067,24.064c-13.286-4.821-20.156-19.507-15.326-32.802  c2.586-7.125,8.201-12.74,15.326-15.326C69.939,124.612,76.766,134.246,76.8,145.067z"/>
<path style="fill:#F9A825;" d="M179.2,145.067c0,14.14-11.46,25.6-25.6,25.6c-2.918,0.017-5.811-0.503-8.533-1.536  c-13.286-4.821-20.156-19.507-15.326-32.802c2.586-7.125,8.201-12.74,15.326-15.326c2.722-1.033,5.615-1.553,8.533-1.536  C167.74,119.467,179.2,130.927,179.2,145.067z"/>
<path style="fill:#FFC107;" d="M162.133,145.067c-0.034,10.82-6.861,20.454-17.067,24.064  c-13.286-4.821-20.156-19.507-15.326-32.802c2.586-7.125,8.201-12.74,15.326-15.326  C155.273,124.612,162.099,134.246,162.133,145.067z"/>
<path style="fill:#388E3C;" d="M264.533,145.067c0,14.14-11.46,25.6-25.6,25.6c-2.918,0.017-5.811-0.503-8.533-1.536  c-13.286-4.821-20.156-19.507-15.326-32.802c2.586-7.125,8.201-12.74,15.326-15.326c2.722-1.033,5.615-1.553,8.533-1.536  C253.073,119.467,264.533,130.927,264.533,145.067z"/>
<path style="fill:#4CAF50;" d="M247.467,145.067c-0.034,10.82-6.861,20.454-17.067,24.064  c-13.286-4.821-20.156-19.507-15.326-32.802c2.586-7.125,8.201-12.74,15.326-15.326  C240.606,124.612,247.433,134.246,247.467,145.067z"/>
<path d="M503.467,213.333H8.533C3.823,213.333,0,209.51,0,204.8v-85.333C0,95.906,19.106,76.8,42.667,76.8h426.667  C492.894,76.8,512,95.906,512,119.467V204.8C512,209.51,508.177,213.333,503.467,213.333z M17.067,196.267h477.867v-76.8  c0-14.14-11.46-25.6-25.6-25.6H42.667c-14.14,0-25.6,11.46-25.6,25.6V196.267z"/>
<path d="M469.333,435.2H42.667C19.106,435.2,0,416.094,0,392.533V204.8c0-4.71,3.823-8.533,8.533-8.533h494.933  c4.71,0,8.533,3.823,8.533,8.533v187.733C512,416.094,492.894,435.2,469.333,435.2z M17.067,213.333v179.2  c0,14.14,11.46,25.6,25.6,25.6h426.667c14.14,0,25.6-11.46,25.6-25.6v-179.2H17.067z"/>
<path d="M68.267,179.2c-18.85,0-34.133-15.283-34.133-34.133s15.283-34.133,34.133-34.133s34.133,15.283,34.133,34.133  S87.117,179.2,68.267,179.2z M68.267,128c-9.429,0-17.067,7.637-17.067,17.067c0,9.429,7.637,17.067,17.067,17.067  s17.067-7.637,17.067-17.067C85.333,135.637,77.696,128,68.267,128z"/>
<path d="M153.6,179.2c-18.85,0-34.133-15.283-34.133-34.133s15.283-34.133,34.133-34.133s34.133,15.283,34.133,34.133  S172.45,179.2,153.6,179.2z M153.6,128c-9.429,0-17.067,7.637-17.067,17.067c0,9.429,7.637,17.067,17.067,17.067  c9.429,0,17.067-7.637,17.067-17.067C170.667,135.637,163.029,128,153.6,128z"/>
<path d="M238.933,179.2c-18.85,0-34.133-15.283-34.133-34.133s15.283-34.133,34.133-34.133s34.133,15.283,34.133,34.133  S257.783,179.2,238.933,179.2z M238.933,128c-9.429,0-17.067,7.637-17.067,17.067c0,9.429,7.637,17.067,17.067,17.067  c9.429,0,17.067-7.637,17.067-17.067C256,135.637,248.363,128,238.933,128z"/>
<g>
</g>
<g>
</g>
<g>
</g>
<g>
</g>
<g>
</g>
<g>
</g>
<g>
</g>
<g>
</g>
<g>
</g>
<g>
</g>
<g>
</g>
<g>
</g>
<g>
</g>
<g>
</g>
<g>
</g>
</svg>
