<?xml version="1.0" encoding="iso-8859-1"?>
<!-- Generator: Adobe Illustrator 19.0.0, SVG Export Plug-In . SVG Version: 6.00 Build 0)  -->
<svg xmlns="http://www.w3.org/2000/svg" xmlns:xlink="http://www.w3.org/1999/xlink" version="1.1" id="Layer_1" x="0px" y="0px" viewBox="0 0 512 512" style="enable-background:new 0 0 512 512;" xml:space="preserve">
<path style="fill:#827717;" d="M469.333,85.333H42.667c-18.85,0-34.133,15.283-34.133,34.133v273.067  c0,18.85,15.283,34.133,34.133,34.133h426.667c18.85,0,34.133-15.283,34.133-34.133V119.467  C503.467,100.617,488.184,85.333,469.333,85.333z M435.2,384H281.6c-13.107,0.077-24.158-9.754-25.6-22.784l0,0  c0-0.853,0-1.792,0-2.645V153.6c0-14.14,11.46-25.6,25.6-25.6h153.6c14.14,0,25.6,11.46,25.6,25.6v204.8c0,0.853,0,1.792,0,2.645  l0,0C459.443,374.144,448.367,384.068,435.2,384z"/>
<path style="fill:#AFB42B;" d="M443.733,85.333H42.667c-18.85,0-34.133,15.283-34.133,34.133v273.067  c0,18.85,15.283,34.133,34.133,34.133h401.067c18.85,0,34.133-15.283,34.133-34.133V119.467  C477.867,100.617,462.583,85.333,443.733,85.333z M256,384c-13.107,0.077-24.158-9.754-25.6-22.784l0,0c0-0.853,0-1.792,0-2.645  V153.6c0-14.14,11.46-25.6,25.6-25.6h153.6c14.14,0,25.6,11.46,25.6,25.6v204.8c0,0.853,0,1.792,0,2.645l0,0  c-1.357,13.099-12.433,23.023-25.6,22.955H256z"/>
<path style="fill:#3949AB;" d="M435.2,128H281.6c-14.14,0-25.6,11.46-25.6,25.6v204.8c0,0.853,0,1.792,0,2.645l0,0  c1.357,13.099,12.433,23.023,25.6,22.955h153.6c13.107,0.077,24.158-9.754,25.6-22.784l0,0c0-0.853,0-1.792,0-2.645V153.6  C460.8,139.46,449.34,128,435.2,128z M358.4,281.6c-32.99,0-59.733-26.743-59.733-59.733c-0.213-32.99,26.359-59.904,59.349-60.109  c32.99-0.213,59.904,26.359,60.109,59.349c0.128,19.678-9.446,38.153-25.6,49.399C382.583,277.658,370.654,281.54,358.4,281.6z"/>
<path style="fill:#FFFFFF;" d="M435.2,128H281.6c-14.14,0-25.6,11.46-25.6,25.6v204.8c0,0.853,0,1.792,0,2.645l0,0  c1.357,13.099,12.433,23.023,25.6,22.955h153.6c13.107,0.077,24.158-9.754,25.6-22.784l0,0c0-0.853,0-1.792,0-2.645V153.6  C460.8,139.46,449.34,128,435.2,128z M358.4,281.6c-32.99,0-59.733-26.743-59.733-59.733c-0.213-32.99,26.359-59.904,59.349-60.109  c32.99-0.213,59.904,26.359,60.109,59.349c0.128,19.678-9.446,38.153-25.6,49.399C382.583,277.658,370.654,281.54,358.4,281.6z"/>
<path style="fill:#A8A5A4;" d="M418.133,221.867c0,32.99-26.743,59.733-59.733,59.733c-12.237-0.162-24.141-4.036-34.133-11.093  c-26.957-19.012-33.4-56.286-14.387-83.243c8.533-12.1,21.265-20.608,35.721-23.851c4.215-0.862,8.499-1.297,12.8-1.28  C391.39,162.133,418.133,188.877,418.133,221.867z"/>
<path style="fill:#BDBDBD;" d="M392.533,221.867c-0.034,19.43-9.6,37.606-25.6,48.64c-6.502,4.693-13.918,7.979-21.76,9.643  c-7.552-1.801-14.66-5.111-20.907-9.728c-26.923-19.063-33.297-56.346-14.225-83.268c8.516-12.032,21.188-20.489,35.558-23.74  C373.043,169.438,392.585,193.766,392.533,221.867z"/>
<path style="fill:#555656;" d="M460.8,360.96L460.8,360.96c-1.323,13.133-12.407,23.108-25.6,23.04H281.6  c-13.107,0.077-24.158-9.754-25.6-22.784l0,0c2.022-35.456,22.272-67.328,53.504-84.224c4.762-2.526,9.694-4.719,14.763-6.571  c6.536,4.693,13.978,7.979,21.845,9.643c4.028,0.956,8.149,1.476,12.288,1.536c8.013,0.009,15.94-1.621,23.296-4.779  c3.84-1.715,7.475-3.866,10.837-6.4C431.445,284.1,458.359,319.787,460.8,360.96z"/>
<path style="fill:#717272;" d="M435.2,360.96L435.2,360.96c-1.323,13.133-12.407,23.108-25.6,23.04h-128  c-13.107,0.077-24.158-9.754-25.6-22.784l0,0c2.022-35.456,22.272-67.328,53.504-84.224c7.373,3.106,15.3,4.668,23.296,4.608  c4.275,0,8.542-0.486,12.715-1.451c4.224,0.973,8.55,1.459,12.885,1.451c8.013,0.009,15.94-1.621,23.296-4.779  c8.738,4.685,16.734,10.641,23.723,17.664C423.159,312.243,433.758,335.898,435.2,360.96z"/>
<path d="M469.333,435.2H42.667C19.14,435.2,0,416.06,0,392.533V119.467C0,95.94,19.14,76.8,42.667,76.8h426.667  C492.86,76.8,512,95.94,512,119.467v273.067C512,416.06,492.86,435.2,469.333,435.2z M42.667,93.867  c-14.114,0-25.6,11.486-25.6,25.6v273.067c0,14.114,11.486,25.6,25.6,25.6h426.667c14.114,0,25.6-11.486,25.6-25.6V119.467  c0-14.114-11.486-25.6-25.6-25.6H42.667z M281.378,392.533c-17.374,0-31.94-13.022-33.86-30.379  c-0.034-0.316-0.051-0.623-0.051-0.939V153.6c0-18.825,15.309-34.133,34.133-34.133h153.6c18.825,0,34.133,15.309,34.133,34.133  v207.445c0,0.29-0.017,0.589-0.043,0.887c-1.818,17.468-16.401,30.601-33.954,30.601c-0.06,0-0.119,0-0.179,0H281.6  C281.523,392.533,281.446,392.533,281.378,392.533z M264.533,360.704c1.143,8.465,8.329,14.763,16.896,14.763  c0.043,0,0.077,0,0.111,0H435.2c0.034,0,0.06,0,0.094,0c8.695,0,15.889-6.366,16.973-14.908V153.6  c0-9.412-7.654-17.067-17.067-17.067H281.6c-9.412,0-17.067,7.654-17.067,17.067V360.704z"/>
<path id="SVGCleanerId_0" d="M435.2,392.533H281.6c-17.476,0.102-32.213-13.005-34.133-30.379c-0.017-0.316-0.017-0.623,0-0.939  c-0.06-0.939-0.06-1.877,0-2.816V153.6c0-18.85,15.283-34.133,34.133-34.133h153.6c18.85,0,34.133,15.283,34.133,34.133v204.8  c0,1.024,0,2.133,0,3.157s0,0,0,0.512C467.447,379.477,452.71,392.636,435.2,392.533z M281.6,136.533  c-9.429,0-17.067,7.637-17.067,17.067v204.8c0,0.597,0,1.195,0,1.792c0,0.597,0,0.597,0,0.853  c1.314,8.38,8.585,14.524,17.067,14.421h153.6c8.627,0.077,15.949-6.298,17.067-14.848c0,0,0,0,0-0.427s0-1.195,0-1.792V153.6  c0-9.429-7.637-17.067-17.067-17.067H281.6z M358.4,290.133c-14.182,0.034-28.006-4.42-39.509-12.715  c-30.746-21.82-37.982-64.435-16.162-95.181c21.82-30.746,64.435-37.982,95.181-16.162s37.982,64.435,16.162,95.181  c-4.437,6.255-9.907,11.725-16.162,16.162C386.415,285.722,372.582,290.176,358.4,290.133z M358.4,170.667  c-28.279,0-51.2,22.921-51.2,51.2s22.921,51.2,51.2,51.2c28.279,0,51.2-22.921,51.2-51.2S386.679,170.667,358.4,170.667z"/>
<g>
	<path id="SVGCleanerId_0_1_" d="M435.2,392.533H281.6c-17.476,0.102-32.213-13.005-34.133-30.379c-0.017-0.316-0.017-0.623,0-0.939   c-0.06-0.939-0.06-1.877,0-2.816V153.6c0-18.85,15.283-34.133,34.133-34.133h153.6c18.85,0,34.133,15.283,34.133,34.133v204.8   c0,1.024,0,2.133,0,3.157s0,0,0,0.512C467.447,379.477,452.71,392.636,435.2,392.533z M281.6,136.533   c-9.429,0-17.067,7.637-17.067,17.067v204.8c0,0.597,0,1.195,0,1.792c0,0.597,0,0.597,0,0.853   c1.314,8.38,8.585,14.524,17.067,14.421h153.6c8.627,0.077,15.949-6.298,17.067-14.848c0,0,0,0,0-0.427s0-1.195,0-1.792V153.6   c0-9.429-7.637-17.067-17.067-17.067H281.6z M358.4,290.133c-14.182,0.034-28.006-4.42-39.509-12.715   c-30.746-21.82-37.982-64.435-16.162-95.181c21.82-30.746,64.435-37.982,95.181-16.162s37.982,64.435,16.162,95.181   c-4.437,6.255-9.907,11.725-16.162,16.162C386.415,285.722,372.582,290.176,358.4,290.133z M358.4,170.667   c-28.279,0-51.2,22.921-51.2,51.2s22.921,51.2,51.2,51.2c28.279,0,51.2-22.921,51.2-51.2S386.679,170.667,358.4,170.667z"/>
</g>
<path d="M358.4,290.133c-14.182,0.034-28.006-4.42-39.509-12.715c-30.746-21.82-37.982-64.435-16.162-95.181  c21.82-30.746,64.435-37.982,95.181-16.162s37.982,64.435,16.162,95.181c-4.437,6.255-9.907,11.725-16.162,16.162  C386.415,285.722,372.582,290.176,358.4,290.133z M358.4,170.667c-28.279,0-51.2,22.921-51.2,51.2s22.921,51.2,51.2,51.2  c28.279,0,51.2-22.921,51.2-51.2S386.679,170.667,358.4,170.667z"/>
<path d="M435.2,392.533H281.6c-17.476,0.102-32.213-13.005-34.133-30.379c-0.017-0.316-0.017-0.623,0-0.939  c2.287-44.681,31.198-83.61,73.301-98.731c2.637-0.939,5.572-0.529,7.851,1.109c17.715,12.535,41.421,12.535,59.136,0  c2.278-1.638,5.214-2.048,7.851-1.109c42.027,14.874,71.066,53.461,73.728,97.963c0,0,0,0,0,0.512l0,0  c0.017,0.316,0.017,0.623,0,0.939C467.533,379.375,452.762,392.627,435.2,392.533z M264.533,360.789  c1.195,8.482,8.499,14.763,17.067,14.677h153.6c8.542,0.094,15.829-6.144,17.067-14.592c-2.304-35.814-24.823-67.183-58.027-80.811  c-21.914,13.227-49.34,13.227-71.253,0C289.647,293.555,266.94,324.907,264.533,360.789z"/>
<path d="M213.333,162.133H51.2c-4.71,0-8.533-3.823-8.533-8.533s3.823-8.533,8.533-8.533h162.133c4.71,0,8.533,3.823,8.533,8.533  S218.044,162.133,213.333,162.133z"/>
<path d="M213.333,196.267H51.2c-4.71,0-8.533-3.823-8.533-8.533c0-4.71,3.823-8.533,8.533-8.533h162.133  c4.71,0,8.533,3.823,8.533,8.533C221.867,192.444,218.044,196.267,213.333,196.267z"/>
<path d="M213.333,230.4H51.2c-4.71,0-8.533-3.823-8.533-8.533c0-4.71,3.823-8.533,8.533-8.533h162.133  c4.71,0,8.533,3.823,8.533,8.533C221.867,226.577,218.044,230.4,213.333,230.4z"/>
<g>
</g>
<g>
</g>
<g>
</g>
<g>
</g>
<g>
</g>
<g>
</g>
<g>
</g>
<g>
</g>
<g>
</g>
<g>
</g>
<g>
</g>
<g>
</g>
<g>
</g>
<g>
</g>
<g>
</g>
</svg>
