<?xml version="1.0" encoding="iso-8859-1"?>
<!-- Generator: Adobe Illustrator 19.0.0, SVG Export Plug-In . SVG Version: 6.00 Build 0)  -->
<svg xmlns="http://www.w3.org/2000/svg" xmlns:xlink="http://www.w3.org/1999/xlink" version="1.1" id="Layer_1" x="0px" y="0px" viewBox="0 0 512 512" style="enable-background:new 0 0 512 512;" xml:space="preserve">
<path style="fill:#6D4C41;" d="M503.467,157.867V294.4H281.6v-25.6c0-9.429-7.637-17.067-17.067-17.067h-17.067  c-9.429,0-17.067,7.637-17.067,17.067v25.6H8.533V157.867c0-18.85,15.283-34.133,34.133-34.133h426.667  C488.184,123.733,503.467,139.017,503.467,157.867z"/>
<path style="fill:#8D6E63;" d="M469.333,157.867V294.4H247.467v-25.6c0-9.429-7.637-17.067-17.067-17.067h-17.067  c-9.429,0-17.067,7.637-17.067,17.067v25.6H8.533V157.867c0-18.85,15.283-34.133,34.133-34.133H435.2  C454.05,123.733,469.333,139.017,469.333,157.867z"/>
<path style="fill:#6D4C41;" d="M503.467,294.4v136.533c0,18.85-15.283,34.133-34.133,34.133H42.667  c-18.85,0-34.133-15.283-34.133-34.133V294.4H230.4V320c0,9.429,7.637,17.067,17.067,17.067h17.067  c9.429,0,17.067-7.637,17.067-17.067v-25.6H503.467z"/>
<path style="fill:#8D6E63;" d="M469.333,294.4v136.533c0,18.85-15.283,34.133-34.133,34.133H42.667  c-18.85,0-34.133-15.283-34.133-34.133V294.4h187.733V320c0,9.429,7.637,17.067,17.067,17.067H230.4  c9.429,0,17.067-7.637,17.067-17.067v-25.6H469.333z"/>
<path style="fill:#F9A825;" d="M247.467,251.648h17.067c9.429,0,17.067,7.637,17.067,17.067v51.2  c0,9.429-7.637,17.067-17.067,17.067h-17.067c-9.429,0-17.067-7.637-17.067-17.067v-51.2  C230.4,259.285,238.037,251.648,247.467,251.648z"/>
<path style="fill:#FFC107;" d="M264.533,268.8V320c0,9.429-7.637,17.067-17.067,17.067S230.4,329.429,230.4,320v-51.2  c0-9.429,7.637-17.067,17.067-17.067S264.533,259.371,264.533,268.8z"/>
<path d="M503.467,302.933H281.6c-4.71,0-8.533-3.823-8.533-8.533v-25.6c0-4.71-3.823-8.533-8.533-8.533h-17.067  c-4.71,0-8.533,3.823-8.533,8.533v25.6c0,4.71-3.823,8.533-8.533,8.533H8.533C3.823,302.933,0,299.11,0,294.4V157.867  C0,134.306,19.106,115.2,42.667,115.2h426.667c23.561,0,42.667,19.106,42.667,42.667V294.4  C512,299.11,508.177,302.933,503.467,302.933z M290.133,285.867h204.8v-128c0-14.14-11.46-25.6-25.6-25.6H42.667  c-14.14,0-25.6,11.46-25.6,25.6v128h204.8V268.8c0-14.14,11.46-25.6,25.6-25.6h17.067c14.14,0,25.6,11.46,25.6,25.6V285.867z"/>
<path d="M469.333,473.6H42.667C19.106,473.6,0,454.494,0,430.933V294.4c0-4.71,3.823-8.533,8.533-8.533H230.4  c4.71,0,8.533,3.823,8.533,8.533V320c0,4.71,3.823,8.533,8.533,8.533h17.067c4.71,0,8.533-3.823,8.533-8.533v-25.6  c0-4.71,3.823-8.533,8.533-8.533h221.867c4.71,0,8.533,3.823,8.533,8.533v136.533C512,454.494,492.894,473.6,469.333,473.6z   M17.067,302.933v128c0,14.14,11.46,25.6,25.6,25.6h426.667c14.14,0,25.6-11.46,25.6-25.6v-128h-204.8V320  c0,14.14-11.46,25.6-25.6,25.6h-17.067c-14.14,0-25.6-11.46-25.6-25.6v-17.067H17.067z"/>
<path style="fill:#B71C1C;" d="M375.467,64v59.733h-34.133V81.067H170.667v42.667h-34.133V64c0-9.429,7.637-17.067,17.067-17.067  h204.8C367.829,46.933,375.467,54.571,375.467,64z"/>
<path style="fill:#D50000;" d="M358.4,64v59.733h-17.067V81.067H153.6v42.667h-17.067V64c0-9.429,7.637-17.067,17.067-17.067  h187.733C350.763,46.933,358.4,54.571,358.4,64z"/>
<path d="M375.467,132.267h-34.133c-4.71,0-8.533-3.823-8.533-8.533V89.6H179.2v34.133c0,4.71-3.823,8.533-8.533,8.533h-34.133  c-4.71,0-8.533-3.823-8.533-8.533V64c0-14.14,11.46-25.6,25.6-25.6h204.8c14.14,0,25.6,11.46,25.6,25.6v59.733  C384,128.444,380.177,132.267,375.467,132.267z M349.867,115.2h17.067V64c0-4.71-3.823-8.533-8.533-8.533H153.6  c-4.71,0-8.533,3.823-8.533,8.533v51.2h17.067V81.067c0-4.71,3.823-8.533,8.533-8.533h170.667c4.71,0,8.533,3.823,8.533,8.533V115.2  z"/>
<path id="SVGCleanerId_0" d="M341.333,132.267H170.667c-4.71,0-8.533-3.823-8.533-8.533V81.067c0-4.71,3.823-8.533,8.533-8.533  h170.667c4.71,0,8.533,3.823,8.533,8.533v42.667C349.867,128.444,346.044,132.267,341.333,132.267z M179.2,115.2h153.6V89.6H179.2  V115.2z"/>
<g>
	<path id="SVGCleanerId_0_1_" d="M341.333,132.267H170.667c-4.71,0-8.533-3.823-8.533-8.533V81.067c0-4.71,3.823-8.533,8.533-8.533   h170.667c4.71,0,8.533,3.823,8.533,8.533v42.667C349.867,128.444,346.044,132.267,341.333,132.267z M179.2,115.2h153.6V89.6H179.2   V115.2z"/>
</g>
<path d="M264.533,345.6h-17.067c-14.14,0-25.6-11.46-25.6-25.6v-51.2c0-14.14,11.46-25.6,25.6-25.6h17.067  c14.14,0,25.6,11.46,25.6,25.6V320C290.133,334.14,278.673,345.6,264.533,345.6z M247.467,260.267c-4.71,0-8.533,3.823-8.533,8.533  V320c0,4.71,3.823,8.533,8.533,8.533h17.067c4.71,0,8.533-3.823,8.533-8.533v-51.2c0-4.71-3.823-8.533-8.533-8.533H247.467z"/>
<g>
</g>
<g>
</g>
<g>
</g>
<g>
</g>
<g>
</g>
<g>
</g>
<g>
</g>
<g>
</g>
<g>
</g>
<g>
</g>
<g>
</g>
<g>
</g>
<g>
</g>
<g>
</g>
<g>
</g>
</svg>
