<?xml version="1.0" encoding="iso-8859-1"?>
<!-- Generator: Adobe Illustrator 19.0.0, SVG Export Plug-In . SVG Version: 6.00 Build 0)  -->
<svg xmlns="http://www.w3.org/2000/svg" xmlns:xlink="http://www.w3.org/1999/xlink" version="1.1" id="Layer_1" x="0px" y="0px" viewBox="0 0 512 512" style="enable-background:new 0 0 512 512;" xml:space="preserve">
<path style="fill:#555656;" d="M503.467,64v238.933H8.533V64c0-18.85,15.283-34.133,34.133-34.133h426.667  C488.184,29.867,503.467,45.15,503.467,64z"/>
<path style="fill:#717272;" d="M469.333,64v238.933H8.533V64c0-18.85,15.283-34.133,34.133-34.133H435.2  C454.05,29.867,469.333,45.15,469.333,64z"/>
<path style="fill:#A8A5A4;" d="M503.467,302.933v51.2c0,18.85-15.283,34.133-34.133,34.133H42.667  c-18.85,0-34.133-15.283-34.133-34.133v-51.2H503.467z"/>
<path style="fill:#BDBDBD;" d="M469.333,302.933v51.2c0,18.85-15.283,34.133-34.133,34.133H42.667  c-18.85,0-34.133-15.283-34.133-34.133v-51.2H469.333z"/>
<g>
	<path style="fill:#A8A5A4;" d="M325.205,448H186.795c12.066-17.553,18.364-38.434,18.005-59.733h102.4   C306.842,409.566,313.139,430.447,325.205,448z"/>
	<path style="fill:#A8A5A4;" d="M443.733,465.067c0,9.429-7.637,17.067-17.067,17.067H85.333c-9.429,0-17.067-7.637-17.067-17.067   c0-9.429,7.637-17.067,17.067-17.067h341.333C436.096,448,443.733,455.637,443.733,465.067z"/>
</g>
<path style="fill:#BDBDBD;" d="M418.133,465.067c0,9.429-7.637,17.067-17.067,17.067H85.333c-9.429,0-17.067-7.637-17.067-17.067  c0-9.429,7.637-17.067,17.067-17.067h315.733C410.496,448,418.133,455.637,418.133,465.067z"/>
<path d="M503.467,311.467H8.533c-4.71,0-8.533-3.823-8.533-8.533V64c0-23.561,19.106-42.667,42.667-42.667h426.667  C492.894,21.333,512,40.439,512,64v238.933C512,307.644,508.177,311.467,503.467,311.467z M17.067,294.4h477.867V64  c0-14.14-11.46-25.6-25.6-25.6H42.667c-14.14,0-25.6,11.46-25.6,25.6V294.4z"/>
<path d="M469.333,396.8H42.667C19.106,396.8,0,377.694,0,354.133v-51.2c0-4.71,3.823-8.533,8.533-8.533h494.933  c4.71,0,8.533,3.823,8.533,8.533v51.2C512,377.694,492.894,396.8,469.333,396.8z M17.067,311.467v42.667  c0,14.14,11.46,25.6,25.6,25.6h426.667c14.14,0,25.6-11.46,25.6-25.6v-42.667H17.067z"/>
<path d="M325.205,456.533H186.795c-4.71,0.026-8.55-3.772-8.576-8.491c-0.009-1.937,0.64-3.814,1.835-5.333  c10.897-16.034,16.563-35.055,16.213-54.443c0-4.71,3.823-8.533,8.533-8.533h102.4c4.71,0,8.533,3.823,8.533,8.533  c-0.307,19.473,5.444,38.562,16.469,54.613c2.825,3.772,2.065,9.122-1.707,11.947C328.977,455.97,327.108,456.576,325.205,456.533z   M202.155,439.467h107.691c-6.417-13.38-10.214-27.861-11.179-42.667h-85.333C212.369,411.605,208.572,426.086,202.155,439.467z"/>
<path d="M426.667,490.667H85.333c-14.14,0-25.6-11.46-25.6-25.6c0-14.14,11.46-25.6,25.6-25.6h341.333c14.14,0,25.6,11.46,25.6,25.6  C452.267,479.206,440.806,490.667,426.667,490.667z M85.333,456.533c-4.71,0-8.533,3.823-8.533,8.533s3.823,8.533,8.533,8.533  h341.333c4.71,0,8.533-3.823,8.533-8.533s-3.823-8.533-8.533-8.533H85.333z"/>
<g>
</g>
<g>
</g>
<g>
</g>
<g>
</g>
<g>
</g>
<g>
</g>
<g>
</g>
<g>
</g>
<g>
</g>
<g>
</g>
<g>
</g>
<g>
</g>
<g>
</g>
<g>
</g>
<g>
</g>
</svg>
