<?xml version="1.0" encoding="iso-8859-1"?>
<!-- Generator: Adobe Illustrator 19.0.0, SVG Export Plug-In . SVG Version: 6.00 Build 0)  -->
<svg xmlns="http://www.w3.org/2000/svg" xmlns:xlink="http://www.w3.org/1999/xlink" version="1.1" id="Layer_1" x="0px" y="0px" viewBox="0 0 512 512" style="enable-background:new 0 0 512 512;" xml:space="preserve">
<g>
	<path style="fill:#F4F4F4;" d="M256,256c61.269,0,110.933,49.664,110.933,110.933V460.8H145.067v-93.867   C145.067,305.664,194.731,256,256,256z"/>
	<path style="fill:#F4F4F4;" d="M256,256c-61.269,0-110.933-49.664-110.933-110.933V51.2h221.867v93.867   C366.933,206.336,317.269,256,256,256z"/>
</g>
<path style="fill:#F9A825;" d="M332.8,409.6v8.533c0,4.71-3.823,8.533-8.533,8.533H187.733c-4.71,0-8.533-3.823-8.533-8.533v-5.803  c-0.384-38.144,26.479-71.151,63.915-78.507l0,0c2.475,0,4.949-0.683,7.509-0.853c42.308-2.97,79.019,28.928,81.988,71.236  C332.74,405.999,332.8,407.799,332.8,409.6z"/>
<path style="fill:#FFC107;" d="M307.2,409.6v8.533c0,4.71-3.823,8.533-8.533,8.533H187.733c-4.71,0-8.533-3.823-8.533-8.533v-5.803  c-0.384-38.144,26.479-71.151,63.915-78.507l0,0C280.115,340.036,307.217,372.079,307.2,409.6z"/>
<path style="fill:#F9A825;" d="M332.8,136.533v8.533c0.102,42.419-34.202,76.885-76.621,76.979c-1.826,0.009-3.652-0.06-5.47-0.179  c-2.56,0-5.035-0.512-7.509-0.853l0,0c-37.564-7.339-64.503-40.491-64-78.763v-5.717c0-4.71,3.823-8.533,8.533-8.533h136.533  C328.977,128,332.8,131.823,332.8,136.533z"/>
<path style="fill:#FFC107;" d="M307.2,136.533v8.533c0.026,37.495-27.034,69.53-64,75.776l0,0c-37.504-7.33-64.418-40.388-64-78.592  v-5.717c0-4.71,3.823-8.533,8.533-8.533h110.933C303.377,128,307.2,131.823,307.2,136.533z"/>
<path style="fill:#555656;" d="M128,8.448h256c9.429,0,17.067,7.637,17.067,17.067v8.533c0,9.429-7.637,17.067-17.067,17.067H128  c-9.429,0-17.067-7.637-17.067-17.067v-8.533C110.933,16.085,118.571,8.448,128,8.448z"/>
<path style="fill:#717272;" d="M128,8.448h230.4c9.429,0,17.067,7.637,17.067,17.067v8.533c0,9.429-7.637,17.067-17.067,17.067H128  c-9.429,0-17.067-7.637-17.067-17.067v-8.533C110.933,16.085,118.571,8.448,128,8.448z"/>
<path style="fill:#555656;" d="M128,460.715h256c9.429,0,17.067,7.637,17.067,17.067v8.533c0,9.429-7.637,17.067-17.067,17.067H128  c-9.429,0-17.067-7.637-17.067-17.067v-8.533C110.933,468.352,118.571,460.715,128,460.715z"/>
<path style="fill:#717272;" d="M128,460.715h230.4c9.429,0,17.067,7.637,17.067,17.067v8.533c0,9.429-7.637,17.067-17.067,17.067  H128c-9.429,0-17.067-7.637-17.067-17.067v-8.533C110.933,468.352,118.571,460.715,128,460.715z"/>
<path d="M384,59.733H128c-14.14,0-25.6-11.46-25.6-25.6V25.6C102.4,11.46,113.86,0,128,0h256c14.14,0,25.6,11.46,25.6,25.6v8.533  C409.6,48.273,398.14,59.733,384,59.733z M128,17.067c-4.71,0-8.533,3.823-8.533,8.533v8.533c0,4.71,3.823,8.533,8.533,8.533h256  c4.71,0,8.533-3.823,8.533-8.533V25.6c0-4.71-3.823-8.533-8.533-8.533H128z"/>
<path d="M324.267,435.2H187.733c-9.429,0-17.067-7.637-17.067-17.067v-5.803c-0.751-45.696,33.997-84.164,79.531-88.064  c23.612-1.698,46.848,6.562,64.085,22.784c17.314,16.188,27.11,38.844,27.051,62.549v8.533  C341.333,427.563,333.696,435.2,324.267,435.2z M256,341.333h-4.693c-36.506,3.302-64.256,34.261-63.573,70.912v5.888h136.533V409.6  c-0.017-18.893-7.868-36.941-21.675-49.835C289.997,347.878,273.323,341.282,256,341.333z"/>
<path d="M256,230.4h-5.888c-45.534-3.942-80.247-42.453-79.445-88.149v-5.717c0-9.429,7.637-17.067,17.067-17.067h136.533  c9.429,0,17.067,7.637,17.067,17.067v8.533c-0.009,23.612-9.805,46.165-27.051,62.293C298.53,222.225,277.666,230.477,256,230.4z   M187.733,136.533v5.803c-0.734,36.685,27.034,67.686,63.573,70.997c18.876,1.382,37.461-5.248,51.2-18.261  c13.884-12.919,21.769-31.036,21.76-50.005v-8.533H187.733z"/>
<path d="M366.933,469.333H145.067c-4.71,0-8.533-3.823-8.533-8.533v-93.867c0-65.98,53.487-119.467,119.467-119.467  s119.467,53.487,119.467,119.467V460.8C375.467,465.51,371.644,469.333,366.933,469.333z M153.6,452.267h204.8v-85.333  c0-56.55-45.85-102.4-102.4-102.4s-102.4,45.85-102.4,102.4V452.267z"/>
<path d="M256,264.533c-65.98,0-119.467-53.487-119.467-119.467V51.2c0-4.71,3.823-8.533,8.533-8.533h221.867  c4.71,0,8.533,3.823,8.533,8.533v93.867C375.467,211.046,321.98,264.533,256,264.533z M153.6,59.733v85.333  c0,56.55,45.85,102.4,102.4,102.4s102.4-45.85,102.4-102.4V59.733H153.6z"/>
<path d="M384,512H128c-14.14,0-25.6-11.46-25.6-25.6v-8.533c0-14.14,11.46-25.6,25.6-25.6h256c14.14,0,25.6,11.46,25.6,25.6v8.533  C409.6,500.54,398.14,512,384,512z M128,469.333c-4.71,0-8.533,3.823-8.533,8.533v8.533c0,4.71,3.823,8.533,8.533,8.533h256  c4.71,0,8.533-3.823,8.533-8.533v-8.533c0-4.71-3.823-8.533-8.533-8.533H128z"/>
<g>
</g>
<g>
</g>
<g>
</g>
<g>
</g>
<g>
</g>
<g>
</g>
<g>
</g>
<g>
</g>
<g>
</g>
<g>
</g>
<g>
</g>
<g>
</g>
<g>
</g>
<g>
</g>
<g>
</g>
</svg>
