<?xml version="1.0" encoding="iso-8859-1"?>
<!-- Generator: Adobe Illustrator 19.0.0, SVG Export Plug-In . SVG Version: 6.00 Build 0)  -->
<svg xmlns="http://www.w3.org/2000/svg" xmlns:xlink="http://www.w3.org/1999/xlink" version="1.1" id="Layer_1" x="0px" y="0px" viewBox="0 0 512 512" style="enable-background:new 0 0 512 512;" xml:space="preserve">
<path style="fill:#A8A5A4;" d="M76.8,8.448h358.4c18.85,0,34.133,15.283,34.133,34.133v426.667c0,18.85-15.283,34.133-34.133,34.133  H76.8c-18.85,0-34.133-15.283-34.133-34.133V42.581C42.667,23.731,57.95,8.448,76.8,8.448z"/>
<path style="fill:#BDBDBD;" d="M76.8,8.448h332.8c18.85,0,34.133,15.283,34.133,34.133v426.667c0,18.85-15.283,34.133-34.133,34.133  H76.8c-18.85,0-34.133-15.283-34.133-34.133V42.581C42.667,23.731,57.95,8.448,76.8,8.448z"/>
<path style="fill:#555656;" d="M392.533,213.333c0.017,40.977-18.372,79.787-50.091,105.728l-14.421-10.24l-22.443-15.872  c-6.033-4.301-14.293-3.618-19.541,1.621c-0.529,0.512-0.981,1.084-1.365,1.707c-3.883,5.308-3.883,12.527,0,17.835l18.944,27.221  c-15.232,5.683-31.36,8.567-47.616,8.533c-4.215,0.017-8.431-0.179-12.629-0.597c-75.076-7.049-130.227-73.617-123.179-148.693  c6.127-65.323,57.856-117.052,123.179-123.179c4.198-0.41,8.414-0.606,12.629-0.597C331.409,76.8,392.533,137.924,392.533,213.333z"/>
<path style="fill:#717272;" d="M366.933,213.333c0.009,35.695-13.961,69.965-38.912,95.488c-3.541,3.61-7.27,7.031-11.179,10.24  l-32.171-22.784l-4.693-3.328c-6.861-4.83-16.333-3.174-21.163,3.686c-3.686,5.239-3.686,12.237,0,17.476l19.2,27.221  c-11.145,4.173-22.793,6.844-34.645,7.936c-75.076-7.049-130.227-73.617-123.179-148.693  c6.127-65.323,57.856-117.052,123.179-123.179C313.438,84.087,366.942,142.942,366.933,213.333z"/>
<g>
	<circle style="fill:#555656;" cx="256" cy="213.248" r="51.2"/>
	<circle style="fill:#555656;" cx="102.4" cy="68.181" r="25.6"/>
	<circle style="fill:#555656;" cx="102.4" cy="443.648" r="25.6"/>
	<circle style="fill:#555656;" cx="409.6" cy="68.181" r="25.6"/>
</g>
<path style="fill:#004D40;" d="M418.816,427.264c-4.71,4.745-10.598,8.132-17.067,9.813c-13.286,3.661-27.52-0.085-37.291-9.813  l-60.843-85.931l-19.2-27.307c-1.894-2.697-2.884-5.922-2.816-9.216c0.239-8.388,7.236-14.985,15.616-14.746  c3.004,0.085,5.914,1.058,8.363,2.799l36.864,26.112l76.8,53.931C434.065,388.062,433.869,412.339,418.816,427.264z"/>
<path style="fill:#00796B;" d="M401.749,437.077c-13.286,3.661-27.52-0.085-37.291-9.813l-60.843-85.931l-19.2-27.307  c-1.894-2.697-2.884-5.922-2.816-9.216c1.289,0.384,2.5,0.998,3.584,1.792l36.864,26.197l76.8,53.931  C412.245,400.435,413.483,421.922,401.749,437.077z"/>
<path d="M435.2,512H76.8c-23.561,0-42.667-19.106-42.667-42.667V42.667C34.133,19.106,53.239,0,76.8,0h358.4  c23.561,0,42.667,19.106,42.667,42.667v426.667C477.867,492.894,458.761,512,435.2,512z M76.8,17.067c-14.14,0-25.6,11.46-25.6,25.6  v426.667c0,14.14,11.46,25.6,25.6,25.6l0,0h358.4c14.14,0,25.6-11.46,25.6-25.6l0,0V42.667c0-14.14-11.46-25.6-25.6-25.6H76.8z"/>
<path d="M256,358.4c-80.119,0.009-145.075-64.93-145.084-145.05S175.855,68.275,255.974,68.267s145.075,64.93,145.084,145.05  c0.009,43.529-19.541,84.762-53.231,112.316l-5.035,4.096l-42.155-29.867c-3.038-2.074-7.177-1.297-9.25,1.741  c-1.562,2.287-1.545,5.291,0.034,7.561l25.6,36.267l-10.325,3.925C290.475,355.396,273.306,358.468,256,358.4z M256,85.333  c-70.69,0.23-127.812,57.719-127.59,128.41s57.719,127.812,128.41,127.59c11.255-0.034,22.451-1.553,33.314-4.523l-12.544-17.749  c-6.673-9.421-5.598-22.289,2.56-30.464c8.294-7.97,21.043-9.037,30.549-2.56l31.403,22.272  c52.454-47.394,56.559-128.333,9.165-180.787C326.929,100.582,292.301,85.248,256,85.333z"/>
<path d="M256,273.067c-32.99,0-59.733-26.743-59.733-59.733S223.01,153.6,256,153.6s59.733,26.743,59.733,59.733  S288.99,273.067,256,273.067z M256,170.667c-23.561,0-42.667,19.106-42.667,42.667S232.439,256,256,256  c23.561,0,42.667-19.106,42.667-42.667S279.561,170.667,256,170.667z"/>
<path d="M102.4,102.4c-18.85,0-34.133-15.283-34.133-34.133S83.55,34.133,102.4,34.133s34.133,15.283,34.133,34.133  S121.25,102.4,102.4,102.4z M102.4,51.2c-9.429,0-17.067,7.637-17.067,17.067s7.637,17.067,17.067,17.067  s17.067-7.637,17.067-17.067S111.829,51.2,102.4,51.2z"/>
<path d="M102.4,477.867c-18.85,0-34.133-15.283-34.133-34.133S83.55,409.6,102.4,409.6s34.133,15.283,34.133,34.133  S121.25,477.867,102.4,477.867z M102.4,426.667c-9.429,0-17.067,7.637-17.067,17.067c0,9.429,7.637,17.067,17.067,17.067  s17.067-7.637,17.067-17.067C119.467,434.304,111.829,426.667,102.4,426.667z"/>
<path d="M409.6,102.4c-18.85,0-34.133-15.283-34.133-34.133S390.75,34.133,409.6,34.133c18.85,0,34.133,15.283,34.133,34.133  S428.45,102.4,409.6,102.4z M409.6,51.2c-9.429,0-17.067,7.637-17.067,17.067s7.637,17.067,17.067,17.067  c9.429,0,17.067-7.637,17.067-17.067S419.029,51.2,409.6,51.2z"/>
<path d="M391.68,446.976c-12.467,0.051-24.439-4.864-33.28-13.653l-0.939-1.109l-80.043-113.237  c-6.673-9.421-5.598-22.289,2.56-30.464c8.294-7.97,21.043-9.037,30.549-2.56l114.347,80.981c18.202,18.389,18.202,48,0,66.389l0,0  C416.06,442.095,404.113,447.002,391.68,446.976z M371.029,421.376c11.785,11.785,30.882,11.785,42.667,0s11.785-30.882,0-42.667  l-112.64-79.616c-3.038-2.074-7.177-1.297-9.25,1.741c-1.562,2.287-1.545,5.291,0.034,7.561L371.029,421.376z"/>
<g>
</g>
<g>
</g>
<g>
</g>
<g>
</g>
<g>
</g>
<g>
</g>
<g>
</g>
<g>
</g>
<g>
</g>
<g>
</g>
<g>
</g>
<g>
</g>
<g>
</g>
<g>
</g>
<g>
</g>
</svg>
