<?xml version="1.0" encoding="iso-8859-1"?>
<!-- Generator: Adobe Illustrator 19.0.0, SVG Export Plug-In . SVG Version: 6.00 Build 0)  -->
<svg xmlns="http://www.w3.org/2000/svg" xmlns:xlink="http://www.w3.org/1999/xlink" version="1.1" id="Layer_1" x="0px" y="0px" viewBox="0 0 512 512" style="enable-background:new 0 0 512 512;" xml:space="preserve">
<path style="fill:#555656;" d="M349.176,90.283l-35.601,35.601L164.016,275.357c-1.465-6.251-2.214-12.656-2.214-19.078V94.456  c-0.077-45.14,35.082-82.504,80.145-85.17h5.025h17.034C309.461,9.235,346.953,44.879,349.176,90.283z"/>
<path style="fill:#717272;" d="M323.625,113.023l-10.05,12.861L164.016,275.357c-1.465-6.251-2.214-12.656-2.214-19.078V94.456  c-0.077-45.14,35.082-82.504,80.145-85.17C285.98,11.586,321.496,56.641,323.625,113.023z"/>
<path style="fill:#555656;" d="M349.176,234.817v21.463c0,47.039-38.131,85.17-85.17,85.17h-21.207l80.826-80.912l0,0  L349.176,234.817z"/>
<path style="fill:#717272;" d="M323.625,260.538c-2.138,43.735-37.092,78.731-80.826,80.912L323.625,260.538z"/>
<path style="fill:#A8A5A4;" d="M137.017,302.356l-25.551,25.551c-3.058-5.681-5.698-11.575-7.921-17.63  c-6.592-17.238-9.939-35.541-9.88-53.998H76.632c-2.606-0.017-5.17-0.63-7.495-1.789c-0.715-0.298-1.397-0.673-2.044-1.107  c-4.693-3.177-7.503-8.474-7.495-14.138v-25.551c-0.009-5.664,2.802-10.961,7.495-14.138c2.828-1.874,6.149-2.879,9.539-2.896  h17.034v-34.068c0-9.411,7.623-17.034,17.034-17.034s17.034,7.623,17.034,17.034v93.687L137.017,302.356z"/>
<path style="fill:#BDBDBD;" d="M111.466,302.356l-7.836,7.836c-6.609-17.204-9.99-35.482-9.965-53.913H76.632  c-2.606-0.017-5.17-0.63-7.495-1.789c-0.715-0.298-1.397-0.673-2.044-1.107c-4.693-3.177-7.503-8.474-7.495-14.138v-25.551  c-0.009-5.664,2.802-10.961,7.495-14.138c2.828-1.874,6.149-2.879,9.539-2.896h17.034v-34.068c0.026-4.114,1.542-8.074,4.259-11.157  c2.768,3.058,4.284,7.035,4.258,11.157v93.687L111.466,302.356z"/>
<path style="fill:#A8A5A4;" d="M451.38,213.694v25.551c0,9.411-7.623,17.034-17.034,17.034h-17.034  c-0.034,78.05-58.708,143.614-136.272,152.284v60.641h33.131c9.045-0.204,16.796,6.439,17.971,15.416  c0.894,9.369-5.97,17.681-15.339,18.576c-0.562,0.051-1.133,0.077-1.695,0.077H196.807c-9.105,0.196-16.881-6.541-17.971-15.586  c-0.801-9.377,6.149-17.622,15.527-18.422c0.503-0.043,1.005-0.06,1.508-0.06h34.068v-60.641  c-14.854-1.618-29.384-5.468-43.096-11.413l26.573-26.573c9.769,2.904,19.879,4.488,30.065,4.684  c1.158,0.17,2.325,0.256,3.492,0.256h17.034c65.854,0,119.238-53.385,119.238-119.238v-55.531l34.068-34.068v29.98h17.034  C443.757,196.66,451.38,204.283,451.38,213.694z"/>
<path style="fill:#BDBDBD;" d="M425.829,213.694v25.551c0.009,5.664-2.802,10.961-7.495,14.138  c-0.647,0.434-1.329,0.809-2.044,1.107c-2.325,1.158-4.889,1.772-7.495,1.789h-17.034c-0.034,78.05-58.708,143.614-136.272,152.284  v60.641h33.131c9.045-0.204,16.796,6.439,17.971,15.416c0.894,9.369-5.97,17.681-15.339,18.576  c-0.562,0.051-1.133,0.077-1.695,0.077h-92.75c-9.105,0.196-16.881-6.541-17.971-15.586c-0.801-9.377,6.149-17.622,15.527-18.422  c0.503-0.043,1.005-0.06,1.508-0.06h34.068v-60.641c-14.854-1.618-29.384-5.468-43.096-11.413l22.4-22.4  c4.037,0.511,8.108,0.767,12.179,0.767h17.034c1.678,0.085,3.347,0.085,5.025,0c1.158,0.085,2.334,0.085,3.492,0h17.034  c65.854,0,119.238-53.385,119.238-119.238v-55.531l8.517-8.517v4.429h17.034C418.206,196.66,425.829,204.283,425.829,213.694z"/>
<path style="fill:#D50000;" d="M498.266,13.442L498.266,13.442c6.652,6.652,6.652,17.434,0,24.086L37.607,498.188  c-6.652,6.652-17.434,6.652-24.086,0l0,0c-6.652-6.652-6.652-17.434,0-24.086L474.18,13.442  C480.832,6.791,491.615,6.791,498.266,13.442z"/>
<path d="M164.016,283.875c-4.037,0.111-7.589-2.632-8.517-6.558c-1.542-6.907-2.291-13.959-2.214-21.037V94.456  c0-51.741,41.946-93.687,93.687-93.687h17.034c49.995-0.06,91.234,39.153,93.687,89.088c0.111,2.385-0.792,4.701-2.47,6.388  l-184.904,185.16C168.65,283.065,166.367,283.96,164.016,283.875z M246.972,17.803c-42.338,0-76.653,34.315-76.653,76.653v161.823  c0,0,0,0.511,0,0.767l170.34-170.34c-3.994-39.28-37.168-69.107-76.653-68.903C264.006,17.803,246.972,17.803,246.972,17.803z"/>
<path d="M264.006,349.966h-21.804c-4.701-0.247-8.304-4.259-8.057-8.951c0.111-2.121,1.014-4.122,2.521-5.613L343.129,228.94  c3.313-3.339,8.704-3.364,12.043-0.051c1.627,1.61,2.53,3.807,2.521,6.098v21.293C357.693,308.02,315.747,349.966,264.006,349.966z   M263.154,332.932h0.852c42.338,0,76.653-34.315,76.653-76.653v-0.852L263.154,332.932z"/>
<path d="M111.552,336.339H110.7c-2.683-0.392-5.025-2.036-6.303-4.429c-11.242-20.696-17.818-43.607-19.248-67.114h-8.517  c-14.113,0-25.551-11.438-25.551-25.551v-25.551c0-14.113,11.438-25.551,25.551-25.551h8.517v-25.551  c0-14.113,11.438-25.551,25.551-25.551s25.551,11.438,25.551,25.551v93.687c0.077,13.304,2.649,26.479,7.58,38.838  c0.596,1.158,0.92,2.444,0.937,3.747c1.473,3.228,0.792,7.027-1.703,9.539l-25.551,25.551  C115.912,335.496,113.774,336.356,111.552,336.339z M76.632,205.177c-4.701,0-8.517,3.816-8.517,8.517v25.551  c0,4.701,3.816,8.517,8.517,8.517h17.034c4.701,0,8.517,3.816,8.517,8.517c-0.051,19.666,3.977,39.127,11.839,57.149l13.712-13.457  c-5.391-13.951-8.279-28.736-8.517-43.692v-93.687c-0.034-2.206-0.92-4.31-2.47-5.877c-1.576-1.661-3.756-2.606-6.047-2.64  c-4.701,0-8.517,3.816-8.517,8.517v34.068c0,4.701-3.816,8.517-8.517,8.517L76.632,205.177L76.632,205.177z"/>
<path d="M315.108,511.79H196.807c-13.525,0.213-24.997-9.888-26.488-23.337c-1.226-14.062,9.181-26.445,23.243-27.672  c0.767-0.068,1.542-0.102,2.308-0.094h25.551v-44.714c-13.082-2.061-25.849-5.783-37.986-11.072  c-4.31-1.882-6.277-6.907-4.395-11.217c0.417-0.962,1.014-1.84,1.755-2.581l26.573-26.573c2.223-2.231,5.502-3.049,8.517-2.129  c10.084,3.024,20.56,4.565,31.087,4.599h17.034c61.152,0,110.721-49.569,110.721-110.721v-55.531  c-0.017-2.266,0.877-4.437,2.47-6.047l34.068-34.068c3.313-3.339,8.704-3.364,12.043-0.051c1.627,1.61,2.53,3.807,2.521,6.098  v21.463h8.517c14.113,0,25.551,11.438,25.551,25.551v25.551c0,14.113-11.438,25.551-25.551,25.551h-8.517  c-4.08,76.227-60.88,139.236-136.272,151.177v44.714h24.614c13.465-0.221,24.912,9.786,26.488,23.166  c1.32,14.053-9.002,26.505-23.056,27.825C316.777,511.756,315.943,511.79,315.108,511.79z M195.87,477.722  c-4.701-0.017-8.526,3.79-8.543,8.491c0,0.238,0.009,0.477,0.026,0.707c0.69,4.608,4.71,7.972,9.369,7.836h118.386  c4.701,0.017,8.526-3.79,8.543-8.491c0-0.238-0.009-0.477-0.026-0.707c-0.69-4.608-4.71-7.972-9.369-7.836H281.04  c-4.701,0-8.517-3.816-8.517-8.517v-60.641c-0.026-4.361,3.245-8.04,7.58-8.517c73.229-8.193,128.632-70.078,128.692-143.767  c0-4.701,3.816-8.517,8.517-8.517h17.034c4.701,0,8.517-3.816,8.517-8.517v-25.551c0-4.701-3.816-8.517-8.517-8.517h-17.034  c-4.701,0-8.517-3.816-8.517-8.517v-9.369l-17.034,17.034v51.954c0,70.555-57.2,127.755-127.755,127.755h-17.034  c-10.45,0-20.867-1.286-31.002-3.833l-13.798,13.798c9.326,3.049,18.95,5.136,28.702,6.217c4.335,0.477,7.606,4.156,7.58,8.517  v60.471c0,4.701-3.816,8.517-8.517,8.517H195.87z"/>
<path d="M25.53,511.79c-6.771-0.009-13.269-2.7-18.056-7.495l0,0c-9.965-9.973-9.965-26.139,0-36.112L468.414,7.412  c10.118-9.607,25.994-9.607,36.112,0c9.965,9.973,9.965,26.139,0,36.112L43.586,504.21C38.816,509.03,32.318,511.764,25.53,511.79z   M486.215,17.037c-2.266-0.017-4.437,0.877-6.047,2.47L19.483,480.192c-3.305,3.322-3.305,8.687,0,12.009l0,0  c3.322,3.305,8.687,3.305,12.009,0L492.177,31.516c3.339-3.313,3.364-8.704,0.051-12.043c-1.61-1.627-3.807-2.53-6.098-2.521  L486.215,17.037z"/>
<g>
</g>
<g>
</g>
<g>
</g>
<g>
</g>
<g>
</g>
<g>
</g>
<g>
</g>
<g>
</g>
<g>
</g>
<g>
</g>
<g>
</g>
<g>
</g>
<g>
</g>
<g>
</g>
<g>
</g>
</svg>
