<?xml version="1.0" encoding="iso-8859-1"?>
<!-- Generator: Adobe Illustrator 19.0.0, SVG Export Plug-In . SVG Version: 6.00 Build 0)  -->
<svg xmlns="http://www.w3.org/2000/svg" xmlns:xlink="http://www.w3.org/1999/xlink" version="1.1" id="Layer_1" x="0px" y="0px" viewBox="0 0 512.003 512.003" style="enable-background:new 0 0 512.003 512.003;" xml:space="preserve">
<path style="fill:#555656;" d="M349.868,93.867V256c0,47.13-38.204,85.333-85.333,85.333h-21.419  c-45.423-2.321-81.041-39.851-80.981-85.333V93.867c-0.06-45.483,35.558-83.012,80.981-85.333h21.419  C311.665,8.533,349.868,46.737,349.868,93.867z"/>
<path style="fill:#717272;" d="M324.268,93.867V256c0.06,45.483-35.558,83.012-80.981,85.333l0,0  c-45.491-2.236-81.203-39.791-81.152-85.333V93.867c-0.06-45.483,35.558-83.012,80.981-85.333l0,0  C288.608,10.769,324.328,48.324,324.268,93.867z"/>
<path style="fill:#A8A5A4;" d="M452.268,213.333v25.6c0,9.429-7.637,17.067-17.067,17.067h-17.067  c-0.034,78.199-58.82,143.889-136.533,152.576v60.757h33.195c9.062-0.205,16.828,6.451,18.005,15.445  c0.896,9.387-5.982,17.715-15.369,18.611c-0.563,0.051-1.126,0.077-1.698,0.077H197.207c-9.122,0.196-16.913-6.554-18.005-15.616  c-0.802-9.395,6.161-17.655,15.556-18.458c0.503-0.043,1.007-0.06,1.51-0.06h34.133v-60.757  C152.689,399.889,93.911,334.199,93.868,256H76.802c-9.429,0-17.067-7.637-17.067-17.067v-25.6c0-9.429,7.637-17.067,17.067-17.067  h17.067v-34.133c0-9.429,7.637-17.067,17.067-17.067s17.067,7.637,17.067,17.067V256c0,65.98,53.487,119.467,119.467,119.467h17.067  c65.98,0,119.467-53.487,119.467-119.467v-93.867c0-9.429,7.637-17.067,17.067-17.067c9.429,0,17.067,7.637,17.067,17.067v34.133  h17.067C444.631,196.267,452.268,203.904,452.268,213.333z"/>
<path style="fill:#BDBDBD;" d="M435.202,213.333v25.6c0,9.429-7.637,17.067-17.067,17.067h-17.067  c-0.034,78.199-58.82,143.889-136.533,152.576v60.757h33.195c9.062-0.205,16.828,6.451,18.005,15.445  c0.896,9.387-5.982,17.715-15.369,18.611c-0.563,0.051-1.126,0.077-1.698,0.077H197.207c-9.122,0.196-16.913-6.554-18.005-15.616  c-0.802-9.395,6.161-17.655,15.556-18.458c0.503-0.043,1.007-0.06,1.51-0.06h34.133v-60.757  C152.689,399.889,93.911,334.199,93.868,256H76.802c-9.429,0-17.067-7.637-17.067-17.067v-25.6c0-9.429,7.637-17.067,17.067-17.067  h17.067v-34.133c0.009-6.093,3.26-11.716,8.533-14.763c1.289,0.734,2.466,1.655,3.499,2.731c3.209,3.183,5.018,7.509,5.035,12.032  V256c0,65.98,53.487,119.467,119.467,119.467h34.133c65.98,0,119.467-53.487,119.467-119.467v-93.867  c0.009-6.093,3.26-11.716,8.533-14.763c5.274,3.046,8.525,8.67,8.533,14.763v34.133h17.067  C427.564,196.267,435.202,203.904,435.202,213.333z"/>
<path d="M264.535,349.867h-17.067c-51.84,0-93.867-42.027-93.867-93.867V93.867C153.602,42.027,195.628,0,247.468,0h17.067  c51.84,0,93.867,42.027,93.867,93.867V256C358.402,307.84,316.375,349.867,264.535,349.867z M247.468,17.067  c-42.419,0-76.8,34.381-76.8,76.8V256c0,42.419,34.381,76.8,76.8,76.8h17.067c42.419,0,76.8-34.381,76.8-76.8V93.867  c0-42.419-34.381-76.8-76.8-76.8H247.468z"/>
<path d="M315.735,512H197.207c-13.551,0.213-25.045-9.907-26.539-23.381c-1.229-14.089,9.199-26.496,23.287-27.725  c0.768-0.068,1.545-0.094,2.313-0.094h25.6V416c-75.537-11.964-132.446-75.093-136.533-151.467h-8.533  c-14.14,0-25.6-11.46-25.6-25.6v-25.6c0-14.14,11.46-25.6,25.6-25.6h8.533v-25.6c0-14.14,11.46-25.6,25.6-25.6s25.6,11.46,25.6,25.6  V256c0,61.269,49.664,110.933,110.933,110.933h17.067c61.269,0,110.933-49.664,110.933-110.933v-93.867  c0-14.14,11.46-25.6,25.6-25.6c14.14,0,25.6,11.46,25.6,25.6v25.6h8.533c14.14,0,25.6,11.46,25.6,25.6v25.6  c0,14.14-11.46,25.6-25.6,25.6h-8.533C422.581,340.907,365.672,404.036,290.135,416v44.8h24.661  c13.491-0.222,24.96,9.805,26.539,23.211c1.323,14.08-9.02,26.556-23.1,27.878C317.408,511.966,316.571,512,315.735,512z   M196.268,477.867c-4.71-0.017-8.542,3.797-8.559,8.508c0,0.239,0.009,0.478,0.026,0.708c0.691,4.617,4.719,7.987,9.387,7.851  h118.613c4.71,0.017,8.542-3.797,8.559-8.508c0-0.239-0.009-0.478-0.026-0.708c-0.691-4.617-4.719-7.987-9.387-7.851h-33.28  c-4.71,0-8.533-3.823-8.533-8.533v-60.757c-0.026-4.369,3.251-8.055,7.595-8.533c73.37-8.209,128.879-70.212,128.939-144.043  c0-4.71,3.823-8.533,8.533-8.533h17.067c4.71,0,8.533-3.823,8.533-8.533v-25.6c0-4.71-3.823-8.533-8.533-8.533h-17.067  c-4.71,0-8.533-3.823-8.533-8.533v-34.133c0-4.71-3.823-8.533-8.533-8.533c-4.71,0-8.533,3.823-8.533,8.533V256  c0,70.69-57.31,128-128,128h-17.067c-70.69,0-128-57.31-128-128v-93.867c-0.034-2.21-0.922-4.318-2.475-5.888  c-1.579-1.664-3.763-2.611-6.059-2.645c-4.71,0-8.533,3.823-8.533,8.533v34.133c0,4.71-3.823,8.533-8.533,8.533H76.802  c-4.71,0-8.533,3.823-8.533,8.533v25.6c0,4.71,3.823,8.533,8.533,8.533h17.067c4.71,0,8.533,3.823,8.533,8.533  c-0.026,73.899,55.501,135.996,128.939,144.213c4.343,0.478,7.62,4.164,7.595,8.533v60.587c0,4.71-3.823,8.533-8.533,8.533H196.268z  "/>
<g>
</g>
<g>
</g>
<g>
</g>
<g>
</g>
<g>
</g>
<g>
</g>
<g>
</g>
<g>
</g>
<g>
</g>
<g>
</g>
<g>
</g>
<g>
</g>
<g>
</g>
<g>
</g>
<g>
</g>
</svg>
