<?xml version="1.0" encoding="iso-8859-1"?>
<!-- Generator: Adobe Illustrator 19.0.0, SVG Export Plug-In . SVG Version: 6.00 Build 0)  -->
<svg xmlns="http://www.w3.org/2000/svg" xmlns:xlink="http://www.w3.org/1999/xlink" version="1.1" id="Layer_1" x="0px" y="0px" viewBox="0 0 512 512" style="enable-background:new 0 0 512 512;" xml:space="preserve">
<path style="fill:#555656;" d="M42.667,51.115h426.667c18.85,0,34.133,15.283,34.133,34.133v341.333  c0,18.85-15.283,34.133-34.133,34.133H42.667c-18.85,0-34.133-15.283-34.133-34.133V85.248  C8.533,66.398,23.817,51.115,42.667,51.115z"/>
<path style="fill:#717272;" d="M42.667,51.115H435.2c18.85,0,34.133,15.283,34.133,34.133v341.333  c0,18.85-15.283,34.133-34.133,34.133H42.667c-18.85,0-34.133-15.283-34.133-34.133V85.248  C8.533,66.398,23.817,51.115,42.667,51.115z"/>
<path style="fill:#388E3C;" d="M418.133,213.333v153.6c0,9.429-7.637,17.067-17.067,17.067h-25.6v-68.267  c0-9.429-7.637-17.067-17.067-17.067s-17.067,7.637-17.067,17.067V384H307.2v-68.267c0-9.429-7.637-17.067-17.067-17.067  c-9.429,0-17.067,7.637-17.067,17.067V384h-34.133v-68.267c0-9.429-7.637-17.067-17.067-17.067c-9.429,0-17.067,7.637-17.067,17.067  V384h-34.133v-68.267c0-9.429-7.637-17.067-17.067-17.067c-9.429,0-17.067,7.637-17.067,17.067V384h-25.6  c-9.429,0-17.067-7.637-17.067-17.067v-153.6c0-9.429,7.637-17.067,17.067-17.067H179.2v-51.2c0-9.429,7.637-17.067,17.067-17.067  h119.467c9.429,0,17.067,7.637,17.067,17.067v51.2h68.267C410.496,196.267,418.133,203.904,418.133,213.333z"/>
<path style="fill:#4CAF50;" d="M401.067,213.333v153.6c0,9.429-7.637,17.067-17.067,17.067h-25.6v-68.267  c0-9.429-7.637-17.067-17.067-17.067c-9.429,0-17.067,7.637-17.067,17.067V384h-34.133v-68.267c0-9.429-7.637-17.067-17.067-17.067  S256,306.304,256,315.733V384h-34.133v-68.267c0-9.429-7.637-17.067-17.067-17.067c-9.429,0-17.067,7.637-17.067,17.067V384H153.6  v-68.267c0-9.429-7.637-17.067-17.067-17.067s-17.067,7.637-17.067,17.067V384h-8.533c-9.429,0-17.067-7.637-17.067-17.067v-153.6  c0-9.429,7.637-17.067,17.067-17.067H179.2v-51.2c0-9.429,7.637-17.067,17.067-17.067h102.4c9.429,0,17.067,7.637,17.067,17.067  v51.2H384C393.429,196.267,401.067,203.904,401.067,213.333z"/>
<g>
	<path style="fill:#3949AB;" d="M136.533,384v-68.267c0-9.429,7.637-17.067,17.067-17.067c9.429,0,17.067,7.637,17.067,17.067V384"/>
	<path style="fill:#3949AB;" d="M204.8,384v-68.267c0-9.429,7.637-17.067,17.067-17.067c9.429,0,17.067,7.637,17.067,17.067V384"/>
	<path style="fill:#3949AB;" d="M273.067,384v-68.267c0-9.429,7.637-17.067,17.067-17.067c9.429,0,17.067,7.637,17.067,17.067V384"/>
	<path style="fill:#3949AB;" d="M341.333,384v-68.267c0-9.429,7.637-17.067,17.067-17.067s17.067,7.637,17.067,17.067V384"/>
</g>
<path style="fill:#555656;" d="M170.667,315.733V384h-34.133v-68.267c0-9.429,7.637-17.067,17.067-17.067  C163.029,298.667,170.667,306.304,170.667,315.733z"/>
<path style="fill:#717272;" d="M153.6,315.733V384h-17.067v-68.267c0.009-6.093,3.26-11.716,8.533-14.763  C150.34,304.017,153.591,309.641,153.6,315.733z"/>
<path style="fill:#555656;" d="M238.933,315.733V384H204.8v-68.267c0-9.429,7.637-17.067,17.067-17.067  C231.296,298.667,238.933,306.304,238.933,315.733z"/>
<path style="fill:#717272;" d="M221.867,315.733V384H204.8v-68.267c0.009-6.093,3.26-11.716,8.533-14.763  C218.607,304.017,221.858,309.641,221.867,315.733z"/>
<path style="fill:#555656;" d="M307.2,315.733V384h-34.133v-68.267c0-9.429,7.637-17.067,17.067-17.067  C299.563,298.667,307.2,306.304,307.2,315.733z"/>
<path style="fill:#717272;" d="M290.133,315.733V384h-17.067v-68.267c0.009-6.093,3.26-11.716,8.533-14.763  C286.874,304.017,290.125,309.641,290.133,315.733z"/>
<path style="fill:#555656;" d="M375.467,315.733V384h-34.133v-68.267c0-9.429,7.637-17.067,17.067-17.067  S375.467,306.304,375.467,315.733z"/>
<path style="fill:#717272;" d="M358.4,315.733V384h-17.067v-68.267c0.009-6.093,3.26-11.716,8.533-14.763  C355.14,304.017,358.391,309.641,358.4,315.733z"/>
<path d="M469.333,469.333H42.667C19.106,469.333,0,450.227,0,426.667V85.333c0-23.561,19.106-42.667,42.667-42.667h426.667  c23.561,0,42.667,19.106,42.667,42.667v341.333C512,450.227,492.894,469.333,469.333,469.333z M42.667,59.733  c-14.14,0-25.6,11.46-25.6,25.6v341.333c0,14.14,11.46,25.6,25.6,25.6h426.667c14.14,0,25.6-11.46,25.6-25.6V85.333  c0-14.14-11.46-25.6-25.6-25.6H42.667z"/>
<path d="M401.067,392.533h-25.6c-4.71,0-8.533-3.823-8.533-8.533v-68.267c0-4.71-3.823-8.533-8.533-8.533s-8.533,3.823-8.533,8.533  V384c0,4.71-3.823,8.533-8.533,8.533H307.2c-4.71,0-8.533-3.823-8.533-8.533v-68.267c0-4.71-3.823-8.533-8.533-8.533  c-4.71,0-8.533,3.823-8.533,8.533V384c0,4.71-3.823,8.533-8.533,8.533h-34.133c-4.71,0-8.533-3.823-8.533-8.533v-68.267  c0-4.71-3.823-8.533-8.533-8.533c-4.71,0-8.533,3.823-8.533,8.533V384c0,4.71-3.823,8.533-8.533,8.533h-34.133  c-4.71,0-8.533-3.823-8.533-8.533v-68.267c0-4.71-3.823-8.533-8.533-8.533s-8.533,3.823-8.533,8.533V384  c0,4.71-3.823,8.533-8.533,8.533h-25.6c-14.14,0-25.6-11.46-25.6-25.6v-153.6c0-14.14,11.46-25.6,25.6-25.6h59.733v-42.667  c0-14.14,11.46-25.6,25.6-25.6h119.467c14.14,0,25.6,11.46,25.6,25.6v42.667h59.733c14.14,0,25.6,11.46,25.6,25.6v153.6  C426.667,381.073,415.206,392.533,401.067,392.533z M384,375.467h17.067c4.71,0,8.533-3.823,8.533-8.533v-153.6  c0-4.71-3.823-8.533-8.533-8.533H332.8c-4.71,0-8.533-3.823-8.533-8.533v-51.2c0-4.71-3.823-8.533-8.533-8.533H196.267  c-4.71,0-8.533,3.823-8.533,8.533v51.2c0,4.71-3.823,8.533-8.533,8.533h-68.267c-4.71,0-8.533,3.823-8.533,8.533v153.6  c0,4.71,3.823,8.533,8.533,8.533H128v-59.733c0-14.14,11.46-25.6,25.6-25.6c14.14,0,25.6,11.46,25.6,25.6v59.733h17.067v-59.733  c0-14.14,11.46-25.6,25.6-25.6c14.14,0,25.6,11.46,25.6,25.6v59.733h17.067v-59.733c0-14.14,11.46-25.6,25.6-25.6  c14.14,0,25.6,11.46,25.6,25.6v59.733H332.8v-59.733c0-14.14,11.46-25.6,25.6-25.6s25.6,11.46,25.6,25.6V375.467z"/>
<path id="SVGCleanerId_0" d="M170.667,392.533c-4.71,0-8.533-3.823-8.533-8.533v-68.267c0-4.71-3.823-8.533-8.533-8.533  s-8.533,3.823-8.533,8.533V384c0,4.71-3.823,8.533-8.533,8.533S128,388.71,128,384v-68.267c0-14.14,11.46-25.6,25.6-25.6  c14.14,0,25.6,11.46,25.6,25.6V384C179.2,388.71,175.377,392.533,170.667,392.533z"/>
<path id="SVGCleanerId_1" d="M238.933,392.533c-4.71,0-8.533-3.823-8.533-8.533v-68.267c0-4.71-3.823-8.533-8.533-8.533  c-4.71,0-8.533,3.823-8.533,8.533V384c0,4.71-3.823,8.533-8.533,8.533c-4.71,0-8.533-3.823-8.533-8.533v-68.267  c0-14.14,11.46-25.6,25.6-25.6c14.14,0,25.6,11.46,25.6,25.6V384C247.467,388.71,243.644,392.533,238.933,392.533z"/>
<path id="SVGCleanerId_2" d="M307.2,392.533c-4.71,0-8.533-3.823-8.533-8.533v-68.267c0-4.71-3.823-8.533-8.533-8.533  c-4.71,0-8.533,3.823-8.533,8.533V384c0,4.71-3.823,8.533-8.533,8.533s-8.533-3.823-8.533-8.533v-68.267  c0-14.14,11.46-25.6,25.6-25.6c14.14,0,25.6,11.46,25.6,25.6V384C315.733,388.71,311.91,392.533,307.2,392.533z"/>
<path id="SVGCleanerId_3" d="M375.467,392.533c-4.71,0-8.533-3.823-8.533-8.533v-68.267c0-4.71-3.823-8.533-8.533-8.533  s-8.533,3.823-8.533,8.533V384c0,4.71-3.823,8.533-8.533,8.533S332.8,388.71,332.8,384v-68.267c0-14.14,11.46-25.6,25.6-25.6  s25.6,11.46,25.6,25.6V384C384,388.71,380.177,392.533,375.467,392.533z"/>
<g>
	<path id="SVGCleanerId_0_1_" d="M170.667,392.533c-4.71,0-8.533-3.823-8.533-8.533v-68.267c0-4.71-3.823-8.533-8.533-8.533   s-8.533,3.823-8.533,8.533V384c0,4.71-3.823,8.533-8.533,8.533S128,388.71,128,384v-68.267c0-14.14,11.46-25.6,25.6-25.6   c14.14,0,25.6,11.46,25.6,25.6V384C179.2,388.71,175.377,392.533,170.667,392.533z"/>
</g>
<g>
	<path id="SVGCleanerId_1_1_" d="M238.933,392.533c-4.71,0-8.533-3.823-8.533-8.533v-68.267c0-4.71-3.823-8.533-8.533-8.533   c-4.71,0-8.533,3.823-8.533,8.533V384c0,4.71-3.823,8.533-8.533,8.533c-4.71,0-8.533-3.823-8.533-8.533v-68.267   c0-14.14,11.46-25.6,25.6-25.6c14.14,0,25.6,11.46,25.6,25.6V384C247.467,388.71,243.644,392.533,238.933,392.533z"/>
</g>
<g>
	<path id="SVGCleanerId_2_1_" d="M307.2,392.533c-4.71,0-8.533-3.823-8.533-8.533v-68.267c0-4.71-3.823-8.533-8.533-8.533   c-4.71,0-8.533,3.823-8.533,8.533V384c0,4.71-3.823,8.533-8.533,8.533s-8.533-3.823-8.533-8.533v-68.267   c0-14.14,11.46-25.6,25.6-25.6c14.14,0,25.6,11.46,25.6,25.6V384C315.733,388.71,311.91,392.533,307.2,392.533z"/>
</g>
<g>
	<path id="SVGCleanerId_3_1_" d="M375.467,392.533c-4.71,0-8.533-3.823-8.533-8.533v-68.267c0-4.71-3.823-8.533-8.533-8.533   s-8.533,3.823-8.533,8.533V384c0,4.71-3.823,8.533-8.533,8.533S332.8,388.71,332.8,384v-68.267c0-14.14,11.46-25.6,25.6-25.6   s25.6,11.46,25.6,25.6V384C384,388.71,380.177,392.533,375.467,392.533z"/>
</g>
<g>
</g>
<g>
</g>
<g>
</g>
<g>
</g>
<g>
</g>
<g>
</g>
<g>
</g>
<g>
</g>
<g>
</g>
<g>
</g>
<g>
</g>
<g>
</g>
<g>
</g>
<g>
</g>
<g>
</g>
</svg>
