<?xml version="1.0" encoding="iso-8859-1"?>
<!-- Generator: Adobe Illustrator 19.0.0, SVG Export Plug-In . SVG Version: 6.00 Build 0)  -->
<svg xmlns="http://www.w3.org/2000/svg" xmlns:xlink="http://www.w3.org/1999/xlink" version="1.1" id="Layer_1" x="0px" y="0px" viewBox="0 0 511.995 511.995" style="enable-background:new 0 0 511.995 511.995;" xml:space="preserve">
<path style="fill:#AD1457;" d="M439.474,136.521v68.268c0,4.71-3.823,8.533-8.533,8.533h-17.067v34.134  c-0.017,10.129-6.008,19.294-15.275,23.382l-110.935,48.726c-6.101,2.62-10.138,8.551-10.326,15.19v34.134  c36.626,8.96,59.043,45.919,50.083,82.544c-7.552,30.849-35.388,52.421-67.15,52.029c-2.85,0-5.7-0.171-8.533-0.512  c-37.419-4.625-64.001-38.716-59.367-76.136c3.448-27.879,23.621-50.8,50.834-57.755v-8.533c-0.009-6.776-4.028-12.903-10.24-15.616  l-110.935-48.726c-9.361-4.088-15.394-13.338-15.36-23.552V235.85c-26.616-9.54-40.466-38.853-30.925-65.477  c6.221-17.357,21.291-30.021,39.459-33.17c2.816-0.486,5.675-0.717,8.533-0.683c28.28,0.094,51.124,23.083,51.039,51.363  c-0.068,21.573-13.654,40.79-33.972,48.052v20.054c0.009,6.776,4.028,12.903,10.24,15.616l75.095,32.854l17.067,7.509V110.92  h-42.667l51.201-87.809l8.533-14.592l59.734,102.402h-42.667v175.448L369.5,245.92c6.187-2.697,10.197-8.781,10.24-15.531v-17.067  h-17.067c-4.71,0-8.533-3.823-8.533-8.533V136.52c0-4.71,3.823-8.533,8.533-8.533h68.268  C435.651,127.987,439.474,131.81,439.474,136.521z"/>
<path style="fill:#D81B60;" d="M422.407,136.521v68.268c0,4.71-3.823,8.533-8.533,8.533h-17.067v34.134  c-0.017,10.129-6.008,19.294-15.275,23.382l-110.935,48.726c-6.101,2.62-10.138,8.551-10.326,15.19v34.134  c36.523,9.344,58.565,46.525,49.221,83.056c-6.963,27.213-29.876,47.386-57.755,50.834c-37.419-4.625-64.001-38.716-59.367-76.136  c3.448-27.879,23.621-50.8,50.834-57.755v-8.533c-0.009-6.776-4.028-12.903-10.24-15.616l-110.935-48.726  c-9.301-4.062-15.326-13.235-15.36-23.382V235.85c-26.616-9.54-40.466-38.853-30.925-65.477  c6.221-17.357,21.291-30.021,39.459-33.17c27.862,4.83,46.533,31.326,41.703,59.188c-3.149,18.168-15.821,33.238-33.17,39.459  v20.139c0.009,6.776,4.028,12.903,10.24,15.616l92.162,40.363v-7.509l17.067,7.509V110.92h-42.667l51.201-87.809l51.201,87.809  h-42.667v175.448l17.067-7.509v7.509L369.5,245.92c6.187-2.697,10.197-8.781,10.24-15.531v-17.067h-17.067  c-4.71,0-8.533-3.823-8.533-8.533V136.52c0-4.71,3.823-8.533,8.533-8.533h51.201C418.584,127.987,422.407,131.81,422.407,136.521z"/>
<path d="M260.271,511.993c-42.42,0.196-76.963-34.023-77.16-76.443c-0.154-32.82,20.566-62.107,51.559-72.893v-2.304  c-0.026-3.371-2.031-6.417-5.12-7.765l-110.935-48.726c-12.28-5.359-20.293-17.408-20.48-30.806v-31.489  c-29.807-14.14-42.505-49.767-28.374-79.575s49.767-42.505,79.575-28.374s42.505,49.767,28.374,79.575  c-5.905,12.442-15.923,22.469-28.374,28.374v14.422c0.026,3.371,2.031,6.417,5.12,7.765l80.215,34.902V119.454h-34.134  c-4.71-0.026-8.508-3.874-8.482-8.585c0.009-1.485,0.401-2.936,1.143-4.216L252.932,4.252c2.364-4.079,7.586-5.461,11.665-3.098  c1.289,0.742,2.355,1.818,3.098,3.098l59.734,102.402c2.355,4.079,0.956,9.301-3.123,11.657c-1.306,0.751-2.79,1.152-4.301,1.143  h-34.134v153.603l80.215-35.158c3.012-1.314,5.001-4.233,5.12-7.509v-8.533h-8.533c-9.429,0-17.067-7.637-17.067-17.067v-68.268  c0-9.429,7.637-17.067,17.067-17.067h68.268c9.43,0,17.067,7.637,17.067,17.067v68.268c0,9.429-7.637,17.067-17.067,17.067h-8.533  v25.6c-0.009,13.534-8.004,25.788-20.395,31.233l-110.935,48.726c-3.089,1.348-5.094,4.395-5.12,7.765v27.478  c40.065,13.935,61.236,57.712,47.301,97.777C322.463,491.462,293.125,512.19,260.271,511.993z M123.736,145.054  c-23.561,0.034-42.633,19.175-42.599,42.736c0.026,18.023,11.375,34.074,28.348,40.124c3.413,1.195,5.7,4.403,5.717,8.021v37.121  c-0.009,6.759,3.977,12.877,10.155,15.616l110.935,48.726c9.199,3.968,15.232,12.937,15.446,22.955v8.533  c0.128,3.994-2.534,7.535-6.4,8.533c-31.941,8.243-51.15,40.824-42.906,72.773c8.243,31.941,40.824,51.15,72.773,42.906  c31.941-8.243,51.15-40.824,42.906-72.773c-5.436-21.044-21.863-37.47-42.906-42.906c-3.866-0.998-6.528-4.54-6.4-8.533v-34.134  c0-10.18,6.033-19.397,15.36-23.467L395.1,262.56c6.042-2.637,10.027-8.516,10.24-15.104v-34.134c0-4.71,3.823-8.533,8.533-8.533  h17.067V136.52h-68.268v68.268h17.067c4.71,0,8.533,3.823,8.533,8.533v17.067c0,10.18-6.033,19.397-15.36,23.467l-92.162,40.363  c-4.318,1.886-9.353-0.085-11.239-4.412c-0.478-1.084-0.717-2.261-0.708-3.439V110.92c0-4.71,3.823-8.533,8.533-8.533h27.819  l-44.886-76.801l-44.886,76.801h27.819c4.71,0,8.533,3.823,8.533,8.533v201.049c0.017,4.71-3.789,8.551-8.508,8.559  c-1.186,0-2.355-0.239-3.439-0.708l-92.162-40.449c-9.301-4.062-15.326-13.235-15.36-23.382V235.85  c0.017-3.618,2.304-6.827,5.717-8.021c22.153-8.039,33.596-32.513,25.558-54.665C157.46,156.395,141.579,145.182,123.736,145.054z"/>
<g>
</g>
<g>
</g>
<g>
</g>
<g>
</g>
<g>
</g>
<g>
</g>
<g>
</g>
<g>
</g>
<g>
</g>
<g>
</g>
<g>
</g>
<g>
</g>
<g>
</g>
<g>
</g>
<g>
</g>
</svg>
