<?xml version="1.0" encoding="iso-8859-1"?>
<!-- Generator: Adobe Illustrator 19.0.0, SVG Export Plug-In . SVG Version: 6.00 Build 0)  -->
<svg xmlns="http://www.w3.org/2000/svg" xmlns:xlink="http://www.w3.org/1999/xlink" version="1.1" id="Layer_1" x="0px" y="0px" viewBox="0 0 512 512" style="enable-background:new 0 0 512 512;" xml:space="preserve">
<path style="fill:#A8A5A4;" d="M503.467,256c0,136.67-110.797,247.467-247.467,247.467c-7.168,0-14.336,0-21.333-1.024  C98.56,490.018-1.707,369.621,10.709,233.515C21.564,114.611,115.763,20.412,234.667,9.557c6.997-1.024,14.165-1.024,21.333-1.024  C392.67,8.533,503.467,119.33,503.467,256z"/>
<path style="fill:#BDBDBD;" d="M460.8,256c-0.094,128.333-98.278,235.298-226.133,246.357  C98.56,489.933-1.707,369.536,10.709,233.429C21.564,114.526,115.763,20.326,234.667,9.472C362.581,20.54,460.792,127.607,460.8,256  z"/>
<path style="fill:#F4F4F4;" d="M429.227,272.043c-31.573,56.832-98.219,96.085-175.445,96.085c-4.096,0-8.107,0-12.117,0  c-6.639-0.418-13.244-1.186-19.797-2.304l40.96-40.96c30.532-4.079,54.545-28.092,58.624-58.624l57.515-57.515l12.544-12.459  c15.172,13.039,27.938,28.629,37.717,46.08C434.261,251.605,434.261,262.784,429.227,272.043z"/>
<path style="fill:#FFFFFF;" d="M403.627,272.043c-29.696,53.504-90.539,91.392-162.133,95.659  c-6.571-0.282-13.124-0.913-19.627-1.877l40.96-40.96c30.532-4.079,54.545-28.092,58.624-58.624l57.515-57.515  c9.583,10.146,17.86,21.436,24.661,33.621C408.661,251.605,408.661,262.784,403.627,272.043z"/>
<path style="fill:#F4F4F4;" d="M295.253,148.48L256,187.733l0,0c-37.7,0-68.267,30.566-68.267,68.267l0,0l-64.853,64.853  c-4.719-3.78-9.199-7.851-13.397-12.203c-11.435-11.153-21.18-23.919-28.928-37.888c-5.035-9.259-5.035-20.437,0-29.696  c29.696-53.333,90.539-91.392,161.963-96c4.437,0,8.96,0,13.483,0C269.158,145.033,282.3,146.176,295.253,148.48z"/>
<path style="fill:#FFFFFF;" d="M269.653,148.48L230.4,187.733l0,0c-37.7,0-68.267,30.566-68.267,68.267l0,0l-52.651,52.651  c-11.435-11.153-21.18-23.919-28.928-37.888c-5.035-9.259-5.035-20.437,0-29.696c29.696-53.333,90.539-91.392,161.963-96  C251.631,145.596,260.693,146.731,269.653,148.48z"/>
<path style="fill:#D50000;" d="M397.833,118.409L397.833,118.409c6.665,6.665,6.665,17.468,0,24.132L138.368,402.005  c-6.665,6.665-17.468,6.665-24.132,0l0,0c-6.665-6.665-6.665-17.468,0-24.132L373.7,118.409  C380.356,111.744,391.159,111.744,397.833,118.409z"/>
<path d="M256,512C114.611,512,0,397.389,0,256S114.611,0,256,0s256,114.611,256,256S397.389,512,256,512z M256,17.067  C124.041,17.067,17.067,124.041,17.067,256S124.041,494.933,256,494.933S494.933,387.96,494.933,256S387.96,17.067,256,17.067z"/>
<path d="M256,375.467c-11.11,0.017-22.204-0.785-33.195-2.389l-17.067-2.475l55.296-54.869h2.816  c26.641-3.601,47.599-24.559,51.2-51.2v-2.816l77.739-77.739l5.973,5.205c15.94,13.705,29.338,30.114,39.595,48.469  c6.417,11.844,6.417,26.129,0,37.973C404.48,336.896,334.421,375.467,256,375.467z M242.773,358.4c4.378,0,8.789,0,13.227,0  c71.083,0,137.045-36.011,168.021-91.733l0,0c3.627-6.682,3.627-14.737,0-21.419c-7.962-14.31-18.057-27.315-29.952-38.571  l-62.293,62.293c-5.547,31.966-30.583,57.003-62.549,62.549L242.773,358.4z"/>
<path d="M123.477,332.288l-5.973-4.864c-18.057-14.507-33.143-32.358-44.459-52.565c-6.417-11.844-6.417-26.129,0-37.973  C107.52,174.933,177.579,136.533,256,136.533c13.679,0,27.332,1.229,40.789,3.669l16.043,2.901l-53.248,53.163H256  c-32.99,0-59.733,26.743-59.733,59.733v3.499l-2.475,2.56L123.477,332.288z M256,153.6c-71.083,0-137.045,36.011-168.021,91.733  c-3.627,6.682-3.627,14.737,0,21.419c8.883,16.051,20.42,30.481,34.133,42.667l57.088-57.003  c1.818-39.689,33.604-71.45,73.301-73.216l24.661-24.661C270.165,153.6,263.083,153.6,256,153.6z"/>
<path d="M126.293,415.488c-6.784-0.009-13.295-2.705-18.091-7.509l0,0c-9.984-9.993-9.984-26.189,0-36.181l259.413-259.413  c10.138-9.626,26.044-9.626,36.181,0c9.984,9.993,9.984,26.189,0,36.181L144.384,407.979  C139.588,412.783,133.077,415.479,126.293,415.488z M120.235,395.947c3.328,3.311,8.704,3.311,12.032,0l259.499-259.413  c3.311-3.328,3.311-8.704,0-12.032c-3.328-3.311-8.704-3.311-12.032,0L120.235,384C116.983,387.319,116.983,392.627,120.235,395.947  z"/>
<g>
</g>
<g>
</g>
<g>
</g>
<g>
</g>
<g>
</g>
<g>
</g>
<g>
</g>
<g>
</g>
<g>
</g>
<g>
</g>
<g>
</g>
<g>
</g>
<g>
</g>
<g>
</g>
<g>
</g>
</svg>
