<?xml version="1.0" encoding="iso-8859-1"?>
<!-- Generator: Adobe Illustrator 19.0.0, SVG Export Plug-In . SVG Version: 6.00 Build 0)  -->
<svg xmlns="http://www.w3.org/2000/svg" xmlns:xlink="http://www.w3.org/1999/xlink" version="1.1" id="Layer_1" x="0px" y="0px" viewBox="0 0 512 512" style="enable-background:new 0 0 512 512;" xml:space="preserve">
<path style="fill:#A8A5A4;" d="M503.467,256c0,136.67-110.797,247.467-247.467,247.467c-7.168,0-14.336,0-21.333-1.024  C98.56,490.018-1.707,369.621,10.709,233.515C21.564,114.611,115.763,20.412,234.667,9.557c6.997-1.024,14.165-1.024,21.333-1.024  C392.67,8.533,503.467,119.33,503.467,256z"/>
<path style="fill:#BDBDBD;" d="M460.8,256c-0.094,128.333-98.278,235.298-226.133,246.357  C98.56,489.933-1.707,369.536,10.709,233.429C21.564,114.526,115.763,20.326,234.667,9.472C362.581,20.54,460.792,127.607,460.8,256  z"/>
<path style="fill:#F4F4F4;" d="M431.445,270.763c-31.573,56.832-98.219,96.171-175.445,96.171c-5.717,0-11.435,0-17.067-0.683  c-69.888-5.291-129.195-42.667-158.379-95.403c-5.035-9.259-5.035-20.437,0-29.696c29.184-52.651,88.491-90.197,158.379-95.488  c5.632,0,11.349-0.683,17.067-0.683c77.227,0,143.872,39.253,175.445,96.085C436.463,250.308,436.412,261.495,431.445,270.763z"/>
<path style="fill:#FFFFFF;" d="M397.312,270.763c-29.184,52.565-88.491,90.112-158.379,95.403  c-69.888-5.291-129.195-42.667-158.379-95.403c-5.035-9.259-5.035-20.437,0-29.696c29.184-52.565,88.491-90.112,158.379-95.403  c69.888,5.291,129.195,42.667,158.379,95.403C402.33,250.308,402.278,261.495,397.312,270.763z"/>
<path style="fill:#2979FF;" d="M324.267,256c0,37.7-30.566,68.267-68.267,68.267c-4.292-0.009-8.576-0.41-12.8-1.195  c-37.043-7.023-61.38-42.743-54.357-79.787c5.222-27.571,26.786-49.126,54.357-54.357c4.224-0.785,8.508-1.186,12.8-1.195  C293.7,187.733,324.267,218.3,324.267,256z"/>
<path style="fill:#0091EA;" d="M298.667,256c0.009,32.777-23.279,60.928-55.467,67.072c-37.043-7.023-61.38-42.743-54.357-79.787  c5.222-27.571,26.786-49.126,54.357-54.357C275.388,195.072,298.675,223.223,298.667,256z"/>
<circle style="fill:#555656;" cx="256" cy="255.915" r="25.6"/>
<path d="M256,512C114.611,512,0,397.389,0,256S114.611,0,256,0s256,114.611,256,256S397.389,512,256,512z M256,17.067  C124.041,17.067,17.067,124.041,17.067,256S124.041,494.933,256,494.933S494.933,387.96,494.933,256S387.96,17.067,256,17.067z"/>
<path d="M256,375.467c-78.421,0-148.565-38.485-182.869-100.437c-6.511-11.853-6.511-26.206,0-38.059  C107.435,174.933,177.579,136.533,256,136.533s148.565,38.4,182.869,100.352c6.511,11.853,6.511,26.206,0,38.059  C404.565,336.896,334.421,375.467,256,375.467z M256,153.6c-71.168,0-137.045,36.011-167.936,91.648  c-3.61,6.682-3.61,14.737,0,21.419C118.955,322.304,184.832,358.4,256,358.4s137.045-36.011,167.936-91.648  c3.61-6.682,3.61-14.737,0-21.419C393.045,189.525,327.168,153.6,256,153.6z"/>
<path d="M256,332.8c-42.419,0-76.8-34.381-76.8-76.8s34.381-76.8,76.8-76.8s76.8,34.381,76.8,76.8S298.419,332.8,256,332.8z   M256,196.267c-32.99,0-59.733,26.743-59.733,59.733S223.01,315.733,256,315.733S315.733,288.99,315.733,256  S288.99,196.267,256,196.267z"/>
<path d="M256,290.133c-18.85,0-34.133-15.283-34.133-34.133c0-18.85,15.283-34.133,34.133-34.133  c18.85,0,34.133,15.283,34.133,34.133C290.133,274.85,274.85,290.133,256,290.133z M256,238.933  c-9.429,0-17.067,7.637-17.067,17.067c0,9.429,7.637,17.067,17.067,17.067c9.429,0,17.067-7.637,17.067-17.067  C273.067,246.571,265.429,238.933,256,238.933z"/>
<g>
</g>
<g>
</g>
<g>
</g>
<g>
</g>
<g>
</g>
<g>
</g>
<g>
</g>
<g>
</g>
<g>
</g>
<g>
</g>
<g>
</g>
<g>
</g>
<g>
</g>
<g>
</g>
<g>
</g>
</svg>
