<?xml version="1.0" encoding="iso-8859-1"?>
<!-- Generator: Adobe Illustrator 19.0.0, SVG Export Plug-In . SVG Version: 6.00 Build 0)  -->
<svg xmlns="http://www.w3.org/2000/svg" xmlns:xlink="http://www.w3.org/1999/xlink" version="1.1" id="Layer_1" x="0px" y="0px" viewBox="0 0 512 512" style="enable-background:new 0 0 512 512;" xml:space="preserve">
<path style="fill:#A8A5A4;" d="M503.467,256c0,136.67-110.797,247.467-247.467,247.467c-7.168,0-14.336,0-21.333-1.024  C98.56,490.018-1.707,369.621,10.709,233.515C21.564,114.611,115.763,20.412,234.667,9.557c6.997-1.024,14.165-1.024,21.333-1.024  C392.67,8.533,503.467,119.33,503.467,256z"/>
<path style="fill:#BDBDBD;" d="M460.8,256c-0.094,128.333-98.278,235.298-226.133,246.357  C98.56,489.933-1.707,369.536,10.709,233.429C21.564,114.526,115.763,20.326,234.667,9.472C362.581,20.54,460.792,127.607,460.8,256  z"/>
<g>
	<path style="fill:#4CAF50;" d="M423.424,181.845c-0.333,1.459-1.075,2.79-2.133,3.84l-28.757,28.843l-11.008,11.008   c-3.319,3.345-8.721,3.371-12.066,0.051c-1.63-1.613-2.534-3.814-2.526-6.11v-23.211H119.467v47.787   c-0.009,2.193-0.862,4.309-2.389,5.888l-17.067,17.92c-3.268,3.396-8.67,3.49-12.066,0.222c-1.681-1.621-2.628-3.857-2.611-6.195   v-65.621c0-18.85,15.283-34.133,34.133-34.133h247.467v-22.187c-0.026-4.71,3.772-8.559,8.482-8.585   c2.295-0.017,4.497,0.896,6.11,2.526l39.765,39.765C423.398,175.812,424.209,178.927,423.424,181.845z"/>
	<path style="fill:#4CAF50;" d="M426.667,249.941v65.792c0,18.85-15.283,34.133-34.133,34.133H145.067v22.101   c0.026,4.71-3.772,8.559-8.482,8.585c-2.295,0.017-4.497-0.896-6.11-2.526l-39.765-39.765c-2.236-2.227-3.055-5.513-2.133-8.533   c0.333-1.459,1.075-2.79,2.133-3.84l28.757-28.587l11.008-11.008c3.319-3.345,8.721-3.371,12.066-0.051   c1.63,1.613,2.534,3.814,2.526,6.11v23.381h247.467v-47.787c0.009-2.193,0.862-4.309,2.389-5.888l17.067-17.92   c3.268-3.396,8.67-3.49,12.066-0.222C425.694,245.495,426.633,247.663,426.667,249.941z"/>
</g>
<path d="M256,512C114.611,512,0,397.389,0,256S114.611,0,256,0s256,114.611,256,256S397.389,512,256,512z M256,17.067  C124.041,17.067,17.067,124.041,17.067,256S124.041,494.933,256,494.933S494.933,387.96,494.933,256S387.96,17.067,256,17.067z"/>
<path d="M93.867,278.955c-9.429,0-17.067-7.637-17.067-17.067v-65.621c0-23.561,19.106-42.667,42.667-42.667H358.4v-13.653  c0.043-9.429,7.714-17.033,17.135-16.998c4.523,0.017,8.858,1.835,12.049,5.052l39.765,39.765  c4.284,4.318,5.939,10.598,4.352,16.469c-0.717,2.91-2.219,5.572-4.352,7.68l-39.765,39.851c-6.639,6.69-17.442,6.741-24.132,0.102  c-3.302-3.268-5.12-7.748-5.052-12.39V204.8H128v39.253c0.051,4.437-1.63,8.73-4.693,11.947l-17.067,17.92  C102.972,277.214,98.5,279.031,93.867,278.955z M119.467,170.667c-14.14,0-25.6,11.46-25.6,25.6v65.707l17.067-17.92v-56.32h264.533  v31.829l39.765-39.851l-39.765-39.765v30.72H119.467z M415.232,179.2L415.232,179.2L415.232,179.2z"/>
<path d="M136.533,388.949c-4.54,0.026-8.9-1.758-12.117-4.949l-39.765-39.765c-4.471-4.463-6.11-11.025-4.267-17.067  c0.708-2.825,2.185-5.393,4.267-7.424l39.765-39.851c6.63-6.699,17.442-6.741,24.132-0.111c3.345,3.311,5.171,7.859,5.052,12.57  V307.2H384v-39.253c-0.026-4.454,1.69-8.738,4.779-11.947l17.067-17.92c6.545-6.784,17.348-6.989,24.132-0.444  c3.345,3.217,5.231,7.663,5.222,12.305v65.792c0,23.561-19.106,42.667-42.667,42.667H153.6v13.568  c0,6.921-4.181,13.158-10.581,15.787C140.954,388.574,138.752,388.975,136.533,388.949z M136.533,292.352l-39.765,39.851  l39.765,39.68v-30.549h256c14.14,0,25.6-11.46,25.6-25.6v-65.707l0,0l-17.067,18.005v56.235H136.533V292.352z"/>
<g>
</g>
<g>
</g>
<g>
</g>
<g>
</g>
<g>
</g>
<g>
</g>
<g>
</g>
<g>
</g>
<g>
</g>
<g>
</g>
<g>
</g>
<g>
</g>
<g>
</g>
<g>
</g>
<g>
</g>
</svg>
