<?xml version="1.0" encoding="iso-8859-1"?>
<!-- Generator: Adobe Illustrator 19.0.0, SVG Export Plug-In . SVG Version: 6.00 Build 0)  -->
<svg xmlns="http://www.w3.org/2000/svg" xmlns:xlink="http://www.w3.org/1999/xlink" version="1.1" id="Layer_1" x="0px" y="0px" viewBox="0 0 512 512" style="enable-background:new 0 0 512 512;" xml:space="preserve">
<path style="fill:#A8A5A4;" d="M503.467,256c0,136.67-110.797,247.467-247.467,247.467c-7.168,0-14.336,0-21.333-1.024  C98.56,490.018-1.707,369.621,10.709,233.515C21.564,114.611,115.763,20.412,234.667,9.557c6.997-1.024,14.165-1.024,21.333-1.024  C392.67,8.533,503.467,119.33,503.467,256z"/>
<path style="fill:#BDBDBD;" d="M460.8,256c-0.094,128.333-98.278,235.298-226.133,246.357  C98.56,489.933-1.707,369.536,10.709,233.429C21.564,114.526,115.763,20.326,234.667,9.472C362.581,20.54,460.792,127.607,460.8,256  z"/>
<path style="fill:#4CAF50;" d="M432.725,185.771l-40.192,39.765c-3.319,3.345-8.721,3.371-12.066,0.051  c-1.63-1.613-2.534-3.814-2.526-6.11v-23.211H332.8c-5.265-0.009-10.24,2.415-13.483,6.571L209.749,343.211  c-3.226,4.181-8.201,6.647-13.483,6.656h-102.4c-9.421,0.137-17.178-7.39-17.314-16.819c-0.017-1.05,0.068-2.108,0.247-3.149  c1.741-8.482,9.353-14.464,18.005-14.165H179.2c5.265,0.009,10.24-2.415,13.483-6.571l109.227-140.459  c3.311-4.25,8.439-6.682,13.824-6.571h62.635v-22.187c0.239-4.71,4.241-8.329,8.951-8.098c1.929,0.102,3.763,0.845,5.214,2.125  l39.765,39.68c3.465,3.2,3.678,8.593,0.478,12.058C432.759,185.728,432.742,185.754,432.725,185.771z"/>
<g>
	<path style="fill:#00796B;" d="M234.411,200.277l-21.675,27.819l-19.712-25.6c-3.379-4.122-8.499-6.426-13.824-6.229H94.805   c-8.678,0.299-16.299-5.734-18.005-14.251c-1.553-9.293,4.719-18.091,14.012-19.652c1.015-0.171,2.031-0.247,3.055-0.23h102.4   c5.265-0.009,10.24,2.415,13.483,6.571L234.411,200.277z"/>
	<path style="fill:#00796B;" d="M432.725,338.176l-40.192,39.68c-3.319,3.345-8.721,3.371-12.066,0.051   c-1.604-1.596-2.517-3.763-2.526-6.025v-22.016h-62.208c-5.265,0.009-10.24-2.415-13.483-6.571l-24.661-31.659l21.675-27.819   l19.712,25.6c3.362,4.156,8.482,6.494,13.824,6.315h45.909v-23.381c0.341-4.702,4.429-8.235,9.131-7.893   c1.715,0.128,3.354,0.759,4.693,1.835l39.765,39.765c3.465,3.2,3.678,8.593,0.478,12.058   C432.759,338.133,432.742,338.159,432.725,338.176z"/>
</g>
<path d="M256,512C114.611,512,0,397.389,0,256S114.611,0,256,0s256,114.611,256,256S397.389,512,256,512z M256,17.067  C124.041,17.067,17.067,124.041,17.067,256S124.041,494.933,256,494.933S494.933,387.96,494.933,256S387.96,17.067,256,17.067z"/>
<path d="M196.267,358.4h-102.4c-14.14,0.205-25.762-11.085-25.967-25.225c-0.026-1.587,0.094-3.166,0.367-4.727  c2.458-12.621,13.687-21.606,26.539-21.248H179.2c2.628,0.017,5.111-1.186,6.741-3.243l109.227-140.459  c4.924-6.34,12.535-10.01,20.565-9.899h54.101v-13.653c0.043-9.429,7.714-17.033,17.135-16.998  c4.523,0.017,8.858,1.835,12.049,5.052l39.765,39.68c6.665,6.665,6.673,17.468,0.017,24.132c-0.009,0.009-0.009,0.009-0.017,0.017  l-39.765,39.765c-6.639,6.69-17.442,6.733-24.132,0.102c-3.26-3.226-5.077-7.629-5.052-12.22V204.8H332.8  c-2.628-0.017-5.111,1.186-6.741,3.243L216.491,348.416C211.661,354.697,204.186,358.383,196.267,358.4z M94.805,324.267  c-4.369-0.171-8.252,2.756-9.301,6.997c-0.845,4.634,2.219,9.079,6.861,9.933c0.495,0.085,0.998,0.137,1.502,0.137h102.4  c2.628,0.017,5.111-1.186,6.741-3.243l109.227-140.459c4.924-6.34,12.535-10.01,20.565-9.899h54.443v31.829l39.424-39.851  l-39.765-39.765v30.72h-71.168c-2.628-0.017-5.111,1.186-6.741,3.243L199.765,314.283c-4.907,6.374-12.518,10.069-20.565,9.984  H94.805z M426.667,179.712l6.059,6.059L426.667,179.712z"/>
<path d="M212.736,242.005l-26.453-34.133c-1.732-2.091-4.369-3.234-7.083-3.072H94.805c-12.902,0.35-24.158-8.73-26.539-21.419  c-2.313-13.952,7.125-27.127,21.069-29.44c1.502-0.247,3.012-0.358,4.531-0.341h102.4c7.91,0,15.377,3.652,20.224,9.899  l28.757,36.864L212.736,242.005z M93.867,170.667c-4.71-0.068-8.585,3.695-8.653,8.405c-0.009,0.529,0.026,1.058,0.119,1.579  c1.015,4.275,4.907,7.245,9.301,7.083H179.2c7.91,0,15.377,3.652,20.224,9.899l12.971,17.067l10.837-13.909l-20.565-26.453  c-1.468-2.133-3.823-3.482-6.4-3.669H93.867z"/>
<path d="M386.901,388.949c-2.253,0.009-4.489-0.427-6.571-1.28c-6.34-2.645-10.479-8.832-10.496-15.701V358.4h-54.101  c-7.91,0-15.377-3.652-20.224-9.899l-28.757-36.864l32.512-41.728l26.453,34.133c1.715,2.125,4.352,3.302,7.083,3.157h37.376  v-14.848c-0.009-9.429,7.629-17.075,17.05-17.084c4.514,0,8.841,1.783,12.049,4.966l39.851,39.851  c6.664,6.665,6.673,17.468,0.017,24.132c-0.009,0.009-0.009,0.009-0.017,0.017L399.019,384  C395.802,387.191,391.441,388.975,386.901,388.949z M288.427,311.552l20.565,26.453c1.613,2.091,4.105,3.319,6.741,3.328h71.168  v30.635l39.765-39.851l-39.765-39.851v32H332.8c-7.91,0-15.377-3.652-20.224-9.899l-12.971-17.067L288.427,311.552z"/>
<g>
</g>
<g>
</g>
<g>
</g>
<g>
</g>
<g>
</g>
<g>
</g>
<g>
</g>
<g>
</g>
<g>
</g>
<g>
</g>
<g>
</g>
<g>
</g>
<g>
</g>
<g>
</g>
<g>
</g>
</svg>
