<?xml version="1.0" encoding="iso-8859-1"?>
<!-- Generator: Adobe Illustrator 19.0.0, SVG Export Plug-In . SVG Version: 6.00 Build 0)  -->
<svg xmlns="http://www.w3.org/2000/svg" xmlns:xlink="http://www.w3.org/1999/xlink" version="1.1" id="Layer_1" x="0px" y="0px" viewBox="0 0 511.995 511.995" style="enable-background:new 0 0 511.995 511.995;" xml:space="preserve">
<path style="fill:#AD1457;" d="M42.723,21.347h51.19c18.846,0,34.127,15.28,34.127,34.127V251.7  c0,18.846-15.28,34.126-34.127,34.126h-51.19c-18.846,0-34.127-15.28-34.127-34.126V55.473  C8.597,36.627,23.868,21.347,42.723,21.347z"/>
<path style="fill:#D81B60;" d="M42.723,21.347h25.595c18.846,0,34.127,15.28,34.127,34.127V251.7  c0,18.846-15.28,34.126-34.127,34.126H42.723c-18.846,0-34.127-15.28-34.127-34.126V55.473  C8.597,36.627,23.868,21.347,42.723,21.347z"/>
<path style="fill:#2979FF;" d="M452.241,285.912H332.799v136.506c0,37.693-30.56,68.253-68.253,68.253h-8.532  c-4.709,0-8.532-3.822-8.532-8.532V379.76c0-59.721-85.316-93.848-85.316-93.848c-18.846,0-34.127-15.28-34.127-34.126V55.558  c0-18.846,15.28-34.127,34.127-34.127h248.27c23.343,0,43.733,15.792,49.569,38.392l41.805,162.101  c7.064,27.369-9.393,55.293-36.763,62.358C460.858,285.366,456.558,285.912,452.241,285.912z"/>
<path style="fill:#0091EA;" d="M418.115,285.912H298.672v136.506c-0.017,30.253-19.947,56.889-48.972,65.438  c-1.425-1.561-2.21-3.6-2.218-5.716V379.76c0-59.721-85.316-93.848-85.316-93.848c-18.846,0-34.127-15.28-34.127-34.126V55.558  c0-18.846,15.28-34.127,34.127-34.127H376.31c23.343,0,43.733,15.792,49.569,38.392l41.805,162.101  c7.064,27.369-9.393,55.293-36.763,62.358C426.732,285.366,422.432,285.912,418.115,285.912z"/>
<path d="M93.913,294.444h-51.19c-23.556,0-42.658-19.102-42.658-42.658V55.558c0-23.556,19.102-42.658,42.658-42.658h51.19  c23.556,0,42.658,19.102,42.658,42.658v196.227C136.571,275.35,117.469,294.444,93.913,294.444z M42.723,29.963  c-14.137,0-25.595,11.458-25.595,25.595v196.227c0,14.137,11.458,25.595,25.595,25.595h51.19c14.137,0,25.595-11.458,25.595-25.595  V55.558c0-14.137-11.458-25.595-25.595-25.595C93.913,29.964,42.723,29.964,42.723,29.963z"/>
<path d="M264.546,499.203h-8.532c-9.427,0-17.063-7.636-17.063-17.063V379.76c0-49.483-68.253-80.794-78.576-85.316  c-22.856-0.964-40.884-19.785-40.866-42.658V55.558c0-23.556,19.102-42.658,42.658-42.658h248.27  c27.241-0.009,51.036,18.42,57.844,44.791l41.805,162.101l0,0c8.242,31.934-10.955,64.508-42.897,72.758  c-4.88,1.263-9.905,1.894-14.947,1.894H341.33v127.974C341.33,464.829,306.948,499.203,264.546,499.203L264.546,499.203z   M162.166,29.963c-14.137,0-25.595,11.458-25.595,25.595v196.227c0,14.137,11.458,25.595,25.595,25.595  c1.084,0,2.15,0.196,3.157,0.597c3.754,1.45,90.691,36.942,90.691,101.782v102.38h8.532c32.983,0,59.721-26.738,59.721-59.721  V285.912c0-4.709,3.822-8.532,8.532-8.532h119.443c23.556-0.051,42.615-19.196,42.564-42.752c-0.009-3.566-0.461-7.115-1.357-10.571  L451.644,61.957c-4.854-18.804-21.79-31.951-41.208-31.994C410.436,29.964,162.166,29.964,162.166,29.963z"/>
<path d="M76.85,294.444c-2.269,0.017-4.445-0.879-6.057-2.474L2.539,223.717c-3.063-3.575-2.645-8.967,0.93-12.03  c3.191-2.739,7.909-2.739,11.1,0l68.253,68.253c3.302,3.361,3.242,8.762-0.119,12.064C81.133,293.54,79.042,294.418,76.85,294.444z"/>
<path d="M119.508,285.912c-2.269,0.017-4.445-0.879-6.057-2.474L2.539,172.527c-3.063-3.575-2.645-8.967,0.93-12.03  c3.191-2.739,7.909-2.739,11.1,0L125.48,271.409c3.302,3.361,3.242,8.762-0.119,12.064  C123.791,285.008,121.701,285.887,119.508,285.912z"/>
<path d="M128.04,243.254c-2.269,0.017-4.445-0.879-6.057-2.474L2.539,121.337c-3.063-3.575-2.645-8.967,0.93-12.03  c3.191-2.739,7.909-2.739,11.1,0L134.012,228.75c3.302,3.361,3.242,8.762-0.119,12.064  C132.322,242.35,130.232,243.229,128.04,243.254z"/>
<path d="M128.04,192.064c-2.269,0.017-4.445-0.879-6.057-2.474L2.539,70.147c-3.37-3.344-3.387-8.788-0.043-12.158  c3.344-3.37,8.788-3.387,12.158-0.043L134.097,177.39c3.396,3.268,3.489,8.668,0.222,12.064  C132.681,191.16,130.403,192.107,128.04,192.064z"/>
<path d="M128.04,140.875c-2.269,0.017-4.445-0.879-6.057-2.474L19.603,36.021c-3.37-3.344-3.387-8.788-0.043-12.158  s8.788-3.387,12.158-0.043l102.38,102.38c3.396,3.268,3.489,8.668,0.222,12.064C132.681,139.97,130.403,140.917,128.04,140.875z"/>
<path d="M128.04,89.685c-2.269,0.017-4.445-0.879-6.057-2.474L62.261,27.489c-3.37-3.344-3.387-8.788-0.043-12.158  s8.788-3.387,12.158-0.043l59.721,59.721c3.396,3.268,3.489,8.668,0.222,12.064C132.681,88.781,130.403,89.728,128.04,89.685z"/>
<g>
</g>
<g>
</g>
<g>
</g>
<g>
</g>
<g>
</g>
<g>
</g>
<g>
</g>
<g>
</g>
<g>
</g>
<g>
</g>
<g>
</g>
<g>
</g>
<g>
</g>
<g>
</g>
<g>
</g>
</svg>
