<?xml version="1.0" encoding="iso-8859-1"?>
<!-- Generator: Adobe Illustrator 19.0.0, SVG Export Plug-In . SVG Version: 6.00 Build 0)  -->
<svg xmlns="http://www.w3.org/2000/svg" xmlns:xlink="http://www.w3.org/1999/xlink" version="1.1" id="Layer_1" x="0px" y="0px" viewBox="0 0 512 512" style="enable-background:new 0 0 512 512;" xml:space="preserve">
<path style="fill:#AD1457;" d="M42.72,226.047h51.202c18.851,0,34.134,15.284,34.134,34.134v196.273  c0,18.851-15.284,34.134-34.134,34.134H42.72c-18.851,0-34.134-15.284-34.134-34.134V260.182  C8.585,241.331,23.869,226.047,42.72,226.047z"/>
<path style="fill:#D81B60;" d="M42.72,226.047H68.32c18.851,0,34.134,15.284,34.134,34.134v196.273  c0,18.851-15.284,34.134-34.134,34.134H42.72c-18.851,0-34.134-15.284-34.134-34.134V260.182  C8.585,241.331,23.869,226.047,42.72,226.047z"/>
<path style="fill:#2979FF;" d="M501.914,290.049l-41.815,162.139c-5.803,22.64-26.207,38.478-49.58,38.487H162.19  c-18.851,0-34.134-15.284-34.134-34.134V260.267c0-18.851,15.284-34.134,34.134-34.134c0,0,85.336-34.134,85.336-93.87V29.859  c0-4.711,3.823-8.534,8.534-8.534h8.534c37.702,0,68.269,30.567,68.269,68.269v136.538h119.471  c28.28,0.009,51.193,22.938,51.185,51.219C503.518,281.635,502.972,285.902,501.914,290.049z"/>
<path style="fill:#0091EA;" d="M467.779,290.049l-41.815,162.139c-5.803,22.64-26.207,38.478-49.58,38.487H162.19  c-18.851,0-34.134-15.284-34.134-34.134V260.267c0-18.851,15.284-34.134,34.134-34.134c0,0,85.336-34.134,85.336-93.87V29.859  c0.009-2.116,0.794-4.156,2.219-5.718c29.031,8.551,48.966,35.193,48.983,65.453v136.538h119.471  c28.28,0.009,51.193,22.938,51.185,51.219C469.383,281.635,468.837,285.902,467.779,290.049z"/>
<path d="M93.921,499.208H42.72c-23.561,0-42.668-19.107-42.668-42.668V260.267c0-23.561,19.107-42.668,42.668-42.668h51.202  c23.561,0,42.668,19.107,42.668,42.668V456.54C136.589,480.101,117.483,499.208,93.921,499.208z M42.72,234.666  c-14.14,0-25.601,11.461-25.601,25.601V456.54c0,14.14,11.461,25.601,25.601,25.601h51.202c14.14,0,25.601-11.461,25.601-25.601  V260.267c0-14.14-11.461-25.601-25.601-25.601H42.72z"/>
<path d="M410.518,499.208H162.19c-23.561,0-42.668-19.107-42.668-42.668V260.267c-0.017-22.879,18.014-41.704,40.876-42.668  c10.326-4.608,78.595-36.097,78.595-85.336V29.859c0-9.43,7.638-17.067,17.067-17.067h8.534c42.421,0,76.803,34.382,76.803,76.803  v128.004h110.937c32.991,0.034,59.71,26.813,59.667,59.804c-0.009,5.018-0.64,10.01-1.894,14.866l0,0l-41.815,162.139  C461.49,480.759,437.732,499.183,410.518,499.208z M256.06,29.859v102.403c0,64.77-86.958,100.27-90.712,101.806  c-1.007,0.401-2.074,0.597-3.157,0.597c-14.14,0-25.601,11.461-25.601,25.601V456.54c0,14.14,11.461,25.601,25.601,25.601h248.328  c19.457-0.009,36.439-13.167,41.303-32.001l41.815-162.139c5.888-22.819-7.825-46.09-30.644-51.978  c-3.482-0.896-7.057-1.357-10.659-1.357H332.863c-4.711,0-8.534-3.823-8.534-8.534V89.595c0-32.991-26.744-59.735-59.735-59.735  C264.594,29.859,256.06,29.859,256.06,29.859z"/>
<path d="M8.585,302.935c-4.711,0.026-8.559-3.772-8.585-8.482c-0.017-2.296,0.896-4.497,2.526-6.11l68.269-68.269  c3.32-3.345,8.73-3.362,12.075-0.043c3.345,3.32,3.362,8.73,0.043,12.075l0,0l-68.269,68.269  C13.048,302.005,10.864,302.926,8.585,302.935z"/>
<path d="M8.585,354.137c-4.711,0.026-8.559-3.772-8.585-8.482c-0.017-2.296,0.896-4.497,2.526-6.11l110.937-110.937  c3.576-3.064,8.969-2.645,12.032,0.93c2.739,3.192,2.739,7.911,0,11.102L14.559,351.577C12.98,353.181,10.838,354.103,8.585,354.137  z"/>
<path d="M8.585,405.338c-4.711,0.026-8.559-3.772-8.585-8.482c-0.017-2.296,0.896-4.497,2.526-6.11l119.471-119.471  c3.576-3.064,8.969-2.645,12.032,0.93c2.739,3.192,2.739,7.911,0,11.102L14.559,402.778C12.98,404.383,10.838,405.304,8.585,405.338  z"/>
<path d="M8.585,456.54c-4.711,0.026-8.559-3.772-8.585-8.482c-0.017-2.296,0.896-4.497,2.526-6.11l119.471-119.471  c3.576-3.064,8.969-2.645,12.032,0.93c2.739,3.192,2.739,7.911,0,11.102L14.559,453.98C12.98,455.584,10.838,456.506,8.585,456.54z"/>
<path d="M25.652,490.675c-4.711,0.026-8.559-3.772-8.585-8.482c-0.017-2.296,0.896-4.497,2.526-6.11l102.403-102.403  c3.576-3.064,8.969-2.645,12.032,0.93c2.739,3.192,2.739,7.911,0,11.102L31.626,488.115  C30.047,489.719,27.905,490.64,25.652,490.675z"/>
<path d="M68.32,499.208c-4.711,0.026-8.559-3.772-8.585-8.482c-0.017-2.296,0.896-4.497,2.526-6.11l59.735-59.735  c3.576-3.064,8.969-2.645,12.032,0.93c2.739,3.192,2.739,7.911,0,11.102l-59.735,59.735  C72.715,498.252,70.573,499.174,68.32,499.208z"/>
<g>
</g>
<g>
</g>
<g>
</g>
<g>
</g>
<g>
</g>
<g>
</g>
<g>
</g>
<g>
</g>
<g>
</g>
<g>
</g>
<g>
</g>
<g>
</g>
<g>
</g>
<g>
</g>
<g>
</g>
</svg>
