<?xml version="1.0" encoding="iso-8859-1"?>
<!-- Generator: Adobe Illustrator 19.0.0, SVG Export Plug-In . SVG Version: 6.00 Build 0)  -->
<svg xmlns="http://www.w3.org/2000/svg" xmlns:xlink="http://www.w3.org/1999/xlink" version="1.1" id="Layer_1" x="0px" y="0px" viewBox="0 0 512 512" style="enable-background:new 0 0 512 512;" xml:space="preserve">
<path style="fill:#F4F4F4;" d="M503.467,85.334v341.333c0,18.85-15.283,34.133-34.133,34.133H42.667  c-18.85,0-34.133-15.283-34.133-34.133V204.8L76.8,136.534l-65.195-65.28C17.127,59.051,29.278,51.217,42.667,51.2h426.667  C488.184,51.2,503.467,66.483,503.467,85.334z"/>
<path style="fill:#FFFFFF;" d="M469.334,85.334v341.333c0,18.85-15.283,34.133-34.133,34.133H42.667  c-18.85,0-34.133-15.283-34.133-34.133V204.8L76.8,136.534l-65.195-65.28C17.127,59.051,29.278,51.217,42.667,51.2H435.2  C454.05,51.2,469.334,66.483,469.334,85.334z"/>
<path style="fill:#F9A825;" d="M503.467,221.867v204.8c0,18.85-15.283,34.133-34.133,34.133H42.667  c-18.85,0-34.133-15.283-34.133-34.133v-204.8H503.467z"/>
<path style="fill:#FFC107;" d="M469.334,221.867v204.8c0,18.85-15.283,34.133-34.133,34.133H42.667  c-18.85,0-34.133-15.283-34.133-34.133v-204.8H469.334z"/>
<g>
	<path style="fill:#555656;" d="M76.8,136.534H8.534v-51.2c0-4.83,1.05-9.609,3.072-13.995L76.8,136.534z"/>
	<polygon style="fill:#555656;" points="76.8,136.448 8.534,204.715 8.534,136.448  "/>
	<polygon style="fill:#555656;" points="213.334,136.448 128,221.782 67.072,221.782 152.406,136.448 67.072,51.115 128,51.115  "/>
	<polygon style="fill:#555656;" points="349.867,136.448 264.534,221.782 203.606,221.782 288.939,136.448 203.606,51.115    264.534,51.115  "/>
	<polygon style="fill:#555656;" points="486.4,136.448 401.067,221.782 340.139,221.782 425.472,136.448 340.139,51.115    401.067,51.115  "/>
</g>
<path d="M469.334,469.334H42.667C19.106,469.334,0,450.227,0,426.667V204.8c-0.017-2.27,0.879-4.446,2.475-6.059l62.293-62.208  L5.547,77.312c-2.5-2.517-3.183-6.323-1.707-9.557c6.895-15.258,22.084-25.071,38.827-25.088h426.667  c23.561,0,42.667,19.106,42.667,42.667v341.333C512,450.227,492.894,469.334,469.334,469.334z M17.067,208.214v218.453  c0,14.14,11.46,25.6,25.6,25.6h426.667c14.14,0,25.6-11.46,25.6-25.6V85.334c0-14.14-11.46-25.6-25.6-25.6H42.667  c-7.996-0.017-15.539,3.712-20.395,10.069l60.587,60.587c3.311,3.328,3.311,8.704,0,12.032L17.067,208.214z"/>
<path d="M503.467,145.067H76.8c-4.71,0-8.533-3.823-8.533-8.533S72.09,128,76.8,128h426.667c4.71,0,8.533,3.823,8.533,8.533  S508.177,145.067,503.467,145.067z"/>
<path d="M503.467,230.4H8.534c-4.71,0-8.533-3.823-8.533-8.533s3.823-8.533,8.533-8.533h494.933c4.71,0,8.533,3.823,8.533,8.533  S508.177,230.4,503.467,230.4z"/>
<path d="M76.8,145.067H8.534c-4.71,0-8.533-3.823-8.533-8.533v-51.2c0-6.093,1.314-12.117,3.84-17.664  c1.954-4.292,7.014-6.187,11.298-4.233c0.939,0.427,1.792,1.024,2.526,1.758l65.195,65.195c3.396,3.268,3.49,8.67,0.222,12.066  C81.442,144.162,79.164,145.101,76.8,145.067z M17.067,128h39.168L17.067,88.747V128z"/>
<path d="M8.534,213.334c-4.71,0-8.533-3.823-8.533-8.533v-68.267C0,131.823,3.823,128,8.534,128H76.8  c4.71-0.026,8.559,3.772,8.585,8.482c0.017,2.295-0.896,4.497-2.526,6.11l-68.267,68.267  C12.979,212.455,10.803,213.351,8.534,213.334z M17.067,145.067v39.168l39.168-39.168H17.067z"/>
<path d="M128,230.4H67.072c-4.71,0.026-8.559-3.772-8.585-8.482c-0.017-2.295,0.896-4.497,2.526-6.11l79.36-79.275l-79.36-79.36  c-3.302-3.362-3.243-8.772,0.119-12.066c1.587-1.553,3.721-2.432,5.939-2.441H128c2.27-0.017,4.446,0.879,6.059,2.475l85.333,85.333  c3.311,3.328,3.311,8.704,0,12.032l-85.333,85.333C132.463,229.47,130.279,230.392,128,230.4z M87.638,213.334h36.779l76.8-76.8  l-76.8-76.8H87.638l70.741,70.741c3.311,3.328,3.311,8.704,0,12.032L87.638,213.334z"/>
<path d="M264.534,230.4h-60.928c-4.71,0.026-8.559-3.772-8.585-8.482c-0.017-2.295,0.896-4.497,2.526-6.11l79.36-79.275  l-79.36-79.36c-3.302-3.362-3.243-8.772,0.119-12.066c1.587-1.553,3.721-2.432,5.939-2.441h60.928  c2.27-0.017,4.446,0.879,6.059,2.475l85.333,85.333c3.311,3.328,3.311,8.704,0,12.032l-85.333,85.333  C268.997,229.47,266.812,230.392,264.534,230.4z M224.171,213.334h36.779l76.8-76.8l-76.8-76.8h-36.779l70.741,70.741  c3.311,3.328,3.311,8.704,0,12.032L224.171,213.334z"/>
<path d="M401.067,230.4h-60.928c-4.71,0.026-8.559-3.772-8.585-8.482c-0.017-2.295,0.896-4.497,2.526-6.11l79.36-79.275  l-79.36-79.36c-3.302-3.362-3.243-8.772,0.119-12.066c1.587-1.553,3.721-2.432,5.939-2.441h60.928  c2.27-0.017,4.446,0.879,6.059,2.475l85.333,85.333c3.311,3.328,3.311,8.704,0,12.032l-85.333,85.333  C405.53,229.47,403.345,230.392,401.067,230.4z M360.704,213.334h36.779l76.8-76.8l-76.8-76.8h-36.779l70.741,70.741  c3.311,3.328,3.311,8.704,0,12.032L360.704,213.334z"/>
<g>
</g>
<g>
</g>
<g>
</g>
<g>
</g>
<g>
</g>
<g>
</g>
<g>
</g>
<g>
</g>
<g>
</g>
<g>
</g>
<g>
</g>
<g>
</g>
<g>
</g>
<g>
</g>
<g>
</g>
</svg>
