<?xml version="1.0" encoding="iso-8859-1"?>
<!-- Generator: Adobe Illustrator 19.0.0, SVG Export Plug-In . SVG Version: 6.00 Build 0)  -->
<svg xmlns="http://www.w3.org/2000/svg" xmlns:xlink="http://www.w3.org/1999/xlink" version="1.1" id="Layer_1" x="0px" y="0px" viewBox="0 0 512 512" style="enable-background:new 0 0 512 512;" xml:space="preserve">
<path style="fill:#B71C1C;" d="M486.4,366.848H25.6c-9.429,0-17.067-7.637-17.067-17.067V162.048  c0-9.429,7.637-17.067,17.067-17.067h460.8c9.429,0,17.067,7.637,17.067,17.067v187.733  C503.467,359.211,495.829,366.848,486.4,366.848z"/>
<path style="fill:#D50000;" d="M213.333,366.848H25.6c-9.429,0-17.067-7.637-17.067-17.067V162.048  c0-9.429,7.637-17.067,17.067-17.067h187.733c9.429,0,17.067,7.637,17.067,17.067v187.733  C230.4,359.211,222.763,366.848,213.333,366.848z"/>
<path style="fill:#555656;" d="M281.6,144.981h204.8c9.429,0,17.067,7.637,17.067,17.067v187.733  c0,9.429-7.637,17.067-17.067,17.067H281.6c-9.429,0-17.067-7.637-17.067-17.067V162.048  C264.533,152.619,272.171,144.981,281.6,144.981z"/>
<path style="fill:#717272;" d="M281.6,144.981h170.667c9.429,0,17.067,7.637,17.067,17.067v187.733  c0,9.429-7.637,17.067-17.067,17.067H281.6c-9.429,0-17.067-7.637-17.067-17.067V162.048  C264.533,152.619,272.171,144.981,281.6,144.981z"/>
<rect x="-3.831" y="166.292" transform="matrix(0.7071 -0.7071 0.7071 0.7071 -112.3704 78.3639)" width="84.479" height="17.067"/>
<rect x="-14.395" y="191.887" transform="matrix(0.7071 -0.7071 0.7071 0.7071 -122.9657 103.9744)" width="156.841" height="17.067"/>
<rect x="-25.104" y="217.513" transform="matrix(0.7071 -0.7071 0.7071 0.7071 -133.6131 129.5222)" width="229.288" height="17.067"/>
<rect x="-35.68" y="243.088" transform="matrix(0.7071 -0.7071 0.7071 0.7071 -144.1854 155.1485)" width="301.736" height="17.067"/>
<rect x="130.631" y="302.835" transform="matrix(0.7071 -0.7071 0.7071 0.7071 -158.9408 239.0193)" width="156.841" height="17.067"/>
<rect x="192.423" y="328.436" transform="matrix(0.7071 -0.7071 0.7071 0.7071 -169.5422 264.6273)" width="84.479" height="17.067"/>
<rect x="6.998" y="251.631" transform="matrix(0.7071 -0.7071 0.7071 0.7071 -137.7261 187.8282)" width="301.736" height="17.067"/>
<rect x="68.897" y="277.23" transform="matrix(0.7071 -0.7071 0.7071 0.7071 -148.3075 213.4812)" width="229.288" height="17.067"/>
<path d="M486.4,375.467H25.6c-14.14,0-25.6-11.46-25.6-25.6V162.133c0-14.14,11.46-25.6,25.6-25.6h460.8  c14.14,0,25.6,11.46,25.6,25.6v187.733C512,364.006,500.54,375.467,486.4,375.467z M25.6,153.6c-4.71,0-8.533,3.823-8.533,8.533  v187.733c0,4.71,3.823,8.533,8.533,8.533h460.8c4.71,0,8.533-3.823,8.533-8.533V162.133c0-4.71-3.823-8.533-8.533-8.533H25.6z"/>
<path d="M486.4,375.467H281.6c-14.14,0-25.6-11.46-25.6-25.6V162.133c0-14.14,11.46-25.6,25.6-25.6h204.8  c14.14,0,25.6,11.46,25.6,25.6v187.733C512,364.006,500.54,375.467,486.4,375.467z M281.6,153.6c-4.71,0-8.533,3.823-8.533,8.533  v187.733c0,4.71,3.823,8.533,8.533,8.533h204.8c4.71,0,8.533-3.823,8.533-8.533V162.133c0-4.71-3.823-8.533-8.533-8.533H281.6z"/>
<path d="M384,375.467c-4.71,0-8.533-3.823-8.533-8.533V145.067c0-4.71,3.823-8.533,8.533-8.533s8.533,3.823,8.533,8.533v221.867  C392.533,371.644,388.71,375.467,384,375.467z"/>
<g>
</g>
<g>
</g>
<g>
</g>
<g>
</g>
<g>
</g>
<g>
</g>
<g>
</g>
<g>
</g>
<g>
</g>
<g>
</g>
<g>
</g>
<g>
</g>
<g>
</g>
<g>
</g>
<g>
</g>
</svg>
