<?xml version="1.0" encoding="iso-8859-1"?>
<!-- Generator: Adobe Illustrator 19.0.0, SVG Export Plug-In . SVG Version: 6.00 Build 0)  -->
<svg xmlns="http://www.w3.org/2000/svg" xmlns:xlink="http://www.w3.org/1999/xlink" version="1.1" id="Layer_1" x="0px" y="0px" viewBox="0 0 512 512" style="enable-background:new 0 0 512 512;" xml:space="preserve">
<path style="fill:#388E3C;" d="M25.6,144.981h460.8c9.429,0,17.067,7.637,17.067,17.067v187.733c0,9.429-7.637,17.067-17.067,17.067  H25.6c-9.429,0-17.067-7.637-17.067-17.067V162.048C8.533,152.619,16.171,144.981,25.6,144.981z"/>
<path style="fill:#4CAF50;" d="M298.667,144.981h179.2c9.429,0,17.067,7.637,17.067,17.067v187.733  c0,9.429-7.637,17.067-17.067,17.067h-179.2c-9.429,0-17.067-7.637-17.067-17.067V162.048  C281.6,152.619,289.237,144.981,298.667,144.981z"/>
<path style="fill:#555656;" d="M25.6,144.981h204.8c9.429,0,17.067,7.637,17.067,17.067v187.733c0,9.429-7.637,17.067-17.067,17.067  H25.6c-9.429,0-17.067-7.637-17.067-17.067V162.048C8.533,152.619,16.171,144.981,25.6,144.981z"/>
<path style="fill:#717272;" d="M25.6,144.981h170.667c9.429,0,17.067,7.637,17.067,17.067v187.733  c0,9.429-7.637,17.067-17.067,17.067H25.6c-9.429,0-17.067-7.637-17.067-17.067V162.048C8.533,152.619,16.171,144.981,25.6,144.981z  "/>
<rect x="235.087" y="166.295" transform="matrix(0.7071 -0.7071 0.7071 0.7071 -42.3952 247.3054)" width="84.479" height="17.067"/>
<rect x="224.497" y="191.89" transform="matrix(0.7071 -0.7071 0.7071 0.7071 -52.9981 272.8978)" width="156.841" height="17.067"/>
<rect x="213.79" y="217.583" transform="matrix(0.7071 -0.7071 0.7071 0.7071 -63.6923 298.4662)" width="229.288" height="17.067"/>
<rect x="203.23" y="243.091" transform="matrix(0.7071 -0.7071 0.7071 0.7071 -74.2128 324.084)" width="301.736" height="17.067"/>
<rect x="369.605" y="302.8" transform="matrix(0.7071 -0.7071 0.7071 0.7071 -88.922 407.9889)" width="156.841" height="17.067"/>
<rect x="431.303" y="328.46" transform="matrix(0.7071 -0.7071 0.7071 0.7071 -99.5927 433.5483)" width="84.479" height="17.067"/>
<rect x="245.941" y="251.66" transform="matrix(0.7071 -0.7071 0.7071 0.7071 -67.7616 356.7953)" width="301.736" height="17.067"/>
<rect x="307.749" y="277.206" transform="matrix(0.7071 -0.7071 0.7071 0.7071 -78.3318 382.368)" width="229.288" height="17.067"/>
<path d="M486.4,375.467H25.6c-14.14,0-25.6-11.46-25.6-25.6V162.133c0-14.14,11.46-25.6,25.6-25.6h460.8  c14.14,0,25.6,11.46,25.6,25.6v187.733C512,364.006,500.54,375.467,486.4,375.467z M25.6,153.6c-4.71,0-8.533,3.823-8.533,8.533  v187.733c0,4.71,3.823,8.533,8.533,8.533h460.8c4.71,0,8.533-3.823,8.533-8.533V162.133c0-4.71-3.823-8.533-8.533-8.533H25.6z"/>
<path d="M230.4,375.467H25.6c-14.14,0-25.6-11.46-25.6-25.6V162.133c0-14.14,11.46-25.6,25.6-25.6h204.8  c14.14,0,25.6,11.46,25.6,25.6v187.733C256,364.006,244.54,375.467,230.4,375.467z M25.6,153.6c-4.71,0-8.533,3.823-8.533,8.533  v187.733c0,4.71,3.823,8.533,8.533,8.533h204.8c4.71,0,8.533-3.823,8.533-8.533V162.133c0-4.71-3.823-8.533-8.533-8.533H25.6z"/>
<path d="M128,375.467c-4.71,0-8.533-3.823-8.533-8.533V145.067c0-4.71,3.823-8.533,8.533-8.533c4.71,0,8.533,3.823,8.533,8.533  v221.867C136.533,371.644,132.71,375.467,128,375.467z"/>
<g>
</g>
<g>
</g>
<g>
</g>
<g>
</g>
<g>
</g>
<g>
</g>
<g>
</g>
<g>
</g>
<g>
</g>
<g>
</g>
<g>
</g>
<g>
</g>
<g>
</g>
<g>
</g>
<g>
</g>
</svg>
