<?xml version="1.0" encoding="iso-8859-1"?>
<!-- Generator: Adobe Illustrator 19.0.0, SVG Export Plug-In . SVG Version: 6.00 Build 0)  -->
<svg xmlns="http://www.w3.org/2000/svg" xmlns:xlink="http://www.w3.org/1999/xlink" version="1.1" id="Layer_1" x="0px" y="0px" viewBox="0 0 512 512" style="enable-background:new 0 0 512 512;" xml:space="preserve">
<path style="fill:#A8A5A4;" d="M503.467,256c0,136.67-110.797,247.467-247.467,247.467c-7.168,0-14.336,0-21.333-1.024  C98.56,490.018-1.707,369.621,10.709,233.515C21.564,114.611,115.763,20.412,234.667,9.557c6.997-1.024,14.165-1.024,21.333-1.024  C392.67,8.533,503.467,119.33,503.467,256z"/>
<path style="fill:#BDBDBD;" d="M460.8,256c-0.094,128.333-98.278,235.298-226.133,246.357  C98.56,489.933-1.707,369.536,10.709,233.429C21.564,114.526,115.763,20.326,234.667,9.472C362.581,20.54,460.792,127.607,460.8,256  z"/>
<path style="fill:#3949AB;" d="M238.933,307.115v-102.4c0-4.71,3.823-8.533,8.533-8.533h17.067c4.71,0,8.533,3.823,8.533,8.533  v102.4c0,4.71-3.823,8.533-8.533,8.533h-17.067C242.756,315.648,238.933,311.825,238.933,307.115z"/>
<circle style="fill:#4CAF50;" cx="256" cy="255.915" r="128"/>
<path style="fill:#BDBDBD;" d="M256,349.867c-51.84,0-93.867-42.027-93.867-93.867S204.16,162.133,256,162.133  S349.867,204.16,349.867,256S307.84,349.867,256,349.867z"/>
<path d="M256,512C114.611,512,0,397.389,0,256S114.611,0,256,0s256,114.611,256,256S397.389,512,256,512z M256,17.067  C124.041,17.067,17.067,124.041,17.067,256S124.041,494.933,256,494.933S494.933,387.96,494.933,256S387.96,17.067,256,17.067z"/>
<path style="fill:#4CAF50;" d="M238.933,307.115v-102.4c0-4.71,3.823-8.533,8.533-8.533h17.067c4.71,0,8.533,3.823,8.533,8.533  v102.4c0,4.71-3.823,8.533-8.533,8.533h-17.067C242.756,315.648,238.933,311.825,238.933,307.115z"/>
<path d="M264.533,324.267h-17.067c-9.429,0-17.067-7.637-17.067-17.067V204.8c0-9.429,7.637-17.067,17.067-17.067h17.067  c9.429,0,17.067,7.637,17.067,17.067v102.4C281.6,316.629,273.963,324.267,264.533,324.267z M247.467,204.8v102.4h17.067V204.8  H247.467z"/>
<path d="M256,392.533c-75.409,0-136.533-61.124-136.533-136.533S180.591,119.467,256,119.467S392.533,180.591,392.533,256  S331.409,392.533,256,392.533z M256,136.533c-65.98,0-119.467,53.487-119.467,119.467S190.02,375.467,256,375.467  S375.467,321.98,375.467,256S321.98,136.533,256,136.533z"/>
<path d="M256,358.4c-56.55,0-102.4-45.85-102.4-102.4S199.45,153.6,256,153.6S358.4,199.45,358.4,256S312.55,358.4,256,358.4z   M256,170.667c-47.13,0-85.333,38.204-85.333,85.333S208.87,341.333,256,341.333S341.333,303.13,341.333,256  S303.13,170.667,256,170.667z"/>
<g>
</g>
<g>
</g>
<g>
</g>
<g>
</g>
<g>
</g>
<g>
</g>
<g>
</g>
<g>
</g>
<g>
</g>
<g>
</g>
<g>
</g>
<g>
</g>
<g>
</g>
<g>
</g>
<g>
</g>
</svg>
