<?xml version="1.0" encoding="iso-8859-1"?>
<!-- Generator: Adobe Illustrator 19.0.0, SVG Export Plug-In . SVG Version: 6.00 Build 0)  -->
<svg xmlns="http://www.w3.org/2000/svg" xmlns:xlink="http://www.w3.org/1999/xlink" version="1.1" id="Layer_1" x="0px" y="0px" viewBox="0 0 512 512" style="enable-background:new 0 0 512 512;" xml:space="preserve">
<path style="fill:#A8A5A4;" d="M503.467,256c0,136.67-110.797,247.467-247.467,247.467c-7.168,0-14.336,0-21.333-1.024  C98.56,490.018-1.707,369.621,10.709,233.515C21.564,114.611,115.763,20.412,234.667,9.557c6.997-1.024,14.165-1.024,21.333-1.024  C392.67,8.533,503.467,119.33,503.467,256z"/>
<path style="fill:#BDBDBD;" d="M460.8,256c-0.094,128.333-98.278,235.298-226.133,246.357  C98.56,489.933-1.707,369.536,10.709,233.429C21.564,114.526,115.763,20.326,234.667,9.472C362.581,20.54,460.792,127.607,460.8,256  z"/>
<g>
	<path style="fill:#D50000;" d="M249.6,384c-70.613-3.362-125.124-63.334-121.762-133.948c2.082-43.674,26.308-83.26,64.247-104.986   c4.105-2.313,9.31-0.853,11.622,3.26c0.725,1.297,1.109,2.765,1.092,4.25v20.309c-0.034,2.765-1.399,5.342-3.669,6.912   c-42.061,30.302-51.593,88.969-21.291,131.029s88.969,51.593,131.029,21.291c42.061-30.302,51.593-88.969,21.291-131.029   c-5.905-8.192-13.09-15.386-21.291-21.291c-2.27-1.57-3.635-4.147-3.669-6.912v-20.309c-0.043-4.71,3.746-8.567,8.465-8.602   c1.485-0.009,2.953,0.367,4.25,1.092c61.363,35.098,82.662,113.289,47.565,174.66C343.484,361.694,297.882,386.56,249.6,384z"/>
	<path style="fill:#D50000;" d="M238.933,213.248v-102.4c0-4.71,3.823-8.533,8.533-8.533h17.067c4.71,0,8.533,3.823,8.533,8.533   v102.4c0,4.71-3.823,8.533-8.533,8.533h-17.067C242.756,221.781,238.933,217.958,238.933,213.248z"/>
</g>
<path d="M256,512C114.611,512,0,397.389,0,256S114.611,0,256,0s256,114.611,256,256S397.389,512,256,512z M256,17.067  C124.041,17.067,17.067,124.041,17.067,256S124.041,494.933,256,494.933S494.933,387.96,494.933,256S387.96,17.067,256,17.067z"/>
<path d="M256,392.533h-6.912l0,0c-75.315-3.635-133.427-67.644-129.792-142.959c2.244-46.515,28.041-88.678,68.437-111.846  c5.282-3.046,11.785-3.046,17.067,0c5.299,3.063,8.559,8.73,8.533,14.848v20.309c-0.026,5.495-2.697,10.641-7.168,13.824  c-38.255,27.52-46.959,80.845-19.439,119.108s80.845,46.959,119.108,19.439c38.255-27.52,46.959-80.845,19.439-119.108  c-5.385-7.484-11.947-14.046-19.439-19.439c-4.471-3.183-7.142-8.329-7.168-13.824v-20.309c-0.026-6.118,3.234-11.785,8.533-14.848  c5.282-3.046,11.785-3.046,17.067,0c42.18,24.474,68.173,69.513,68.267,118.272C392.533,331.409,331.409,392.533,256,392.533z   M249.941,375.467c65.894,3.345,122.027-47.36,125.372-113.254c0.102-2.065,0.154-4.139,0.154-6.212  c-0.119-42.641-22.861-82.014-59.733-103.424v20.395c45.935,32.99,56.431,96.973,23.441,142.908s-96.973,56.431-142.908,23.441  s-56.431-96.973-23.441-142.908c6.485-9.037,14.404-16.947,23.441-23.441v-20.395c-57.199,32.887-76.911,105.916-44.023,163.115  C172.518,350.942,209.323,373.47,249.941,375.467z"/>
<path d="M264.533,230.4h-17.067c-9.429,0-17.067-7.637-17.067-17.067v-102.4c0-9.429,7.637-17.067,17.067-17.067h17.067  c9.429,0,17.067,7.637,17.067,17.067v102.4C281.6,222.763,273.963,230.4,264.533,230.4z M247.467,110.933v102.4h17.067v-102.4  H247.467z"/>
<g>
</g>
<g>
</g>
<g>
</g>
<g>
</g>
<g>
</g>
<g>
</g>
<g>
</g>
<g>
</g>
<g>
</g>
<g>
</g>
<g>
</g>
<g>
</g>
<g>
</g>
<g>
</g>
<g>
</g>
</svg>
