<?xml version="1.0" encoding="iso-8859-1"?>
<!-- Generator: Adobe Illustrator 19.0.0, SVG Export Plug-In . SVG Version: 6.00 Build 0)  -->
<svg xmlns="http://www.w3.org/2000/svg" xmlns:xlink="http://www.w3.org/1999/xlink" version="1.1" id="Layer_1" x="0px" y="0px" viewBox="0 0 512 512" style="enable-background:new 0 0 512 512;" xml:space="preserve">
<path style="fill:#F4F4F4;" d="M42.667,51.115h426.667c18.85,0,34.133,15.283,34.133,34.133v341.333  c0,18.85-15.283,34.133-34.133,34.133H42.667c-18.85,0-34.133-15.283-34.133-34.133V85.248  C8.533,66.398,23.817,51.115,42.667,51.115z"/>
<path style="fill:#717272;" d="M76.8,51.2v68.267H8.533V85.333c0-18.85,15.283-34.133,34.133-34.133H76.8z"/>
<rect x="8.533" y="119.381" style="fill:#555656;" width="68.267" height="68.267"/>
<rect x="8.533" y="187.648" style="fill:#717272;" width="68.267" height="68.267"/>
<rect x="8.533" y="255.915" style="fill:#555656;" width="68.267" height="68.267"/>
<rect x="8.533" y="324.181" style="fill:#717272;" width="68.267" height="68.267"/>
<g>
	<path style="fill:#555656;" d="M76.8,392.533V460.8H42.667c-18.85,0-34.133-15.283-34.133-34.133v-34.133H76.8z"/>
	<path style="fill:#555656;" d="M503.467,392.533v34.133c0,18.85-15.283,34.133-34.133,34.133H435.2v-68.267H503.467z"/>
</g>
<rect x="435.2" y="324.181" style="fill:#717272;" width="68.267" height="68.267"/>
<rect x="435.2" y="255.915" style="fill:#555656;" width="68.267" height="68.267"/>
<rect x="435.2" y="187.648" style="fill:#717272;" width="68.267" height="68.267"/>
<rect x="435.2" y="119.381" style="fill:#555656;" width="68.267" height="68.267"/>
<path style="fill:#717272;" d="M503.467,85.333v34.133H435.2V51.2h34.133C488.184,51.2,503.467,66.483,503.467,85.333z"/>
<path style="fill:#283593;" d="M344.832,269.227L225.365,389.803c-6.647,6.682-17.451,6.716-24.132,0.068  c-1.681-1.664-2.987-3.669-3.857-5.871c-0.768-1.894-1.143-3.925-1.109-5.973V136.533c-0.026-2.005,0.324-4.002,1.024-5.888  c3.268-8.841,13.09-13.355,21.931-10.086c2.347,0.87,4.471,2.244,6.229,4.028l119.467,120.576  C351.514,251.844,351.471,262.596,344.832,269.227z"/>
<path style="fill:#3949AB;" d="M310.699,269.227L197.376,384c-0.768-1.894-1.143-3.925-1.109-5.973V136.533  c-0.026-2.005,0.324-4.002,1.024-5.888l113.408,114.432c6.665,6.665,6.673,17.468,0.017,24.132  C310.707,269.218,310.707,269.218,310.699,269.227z"/>
<path d="M469.333,469.333H42.667C19.106,469.333,0,450.227,0,426.667V85.333c0-23.561,19.106-42.667,42.667-42.667h426.667  c23.561,0,42.667,19.106,42.667,42.667v341.333C512,450.227,492.894,469.333,469.333,469.333z M42.667,59.733  c-14.14,0-25.6,11.46-25.6,25.6v341.333c0,14.14,11.46,25.6,25.6,25.6h426.667c14.14,0,25.6-11.46,25.6-25.6V85.333  c0-14.14-11.46-25.6-25.6-25.6H42.667z"/>
<path d="M76.8,469.333c-4.71,0-8.533-3.823-8.533-8.533V51.2c0-4.71,3.823-8.533,8.533-8.533s8.533,3.823,8.533,8.533v409.6  C85.333,465.51,81.51,469.333,76.8,469.333z"/>
<path d="M435.2,469.333c-4.71,0-8.533-3.823-8.533-8.533V51.2c0-4.71,3.823-8.533,8.533-8.533s8.533,3.823,8.533,8.533v409.6  C443.733,465.51,439.91,469.333,435.2,469.333z"/>
<rect x="8.533" y="110.848" width="68.267" height="17.067"/>
<rect x="8.533" y="179.115" width="68.267" height="17.067"/>
<rect x="8.533" y="247.381" width="68.267" height="17.067"/>
<rect x="8.533" y="315.648" width="68.267" height="17.067"/>
<rect x="8.533" y="383.915" width="68.267" height="17.067"/>
<rect x="435.2" y="110.848" width="68.267" height="17.067"/>
<rect x="435.2" y="179.115" width="68.267" height="17.067"/>
<rect x="435.2" y="247.381" width="68.267" height="17.067"/>
<rect x="435.2" y="315.648" width="68.267" height="17.067"/>
<rect x="435.2" y="383.915" width="68.267" height="17.067"/>
<path d="M213.333,403.456c-3.371-0.145-6.673-0.964-9.728-2.389c-9.472-3.891-15.718-13.056-15.872-23.296V136.533  c0.009-14.14,11.486-25.591,25.626-25.574c6.818,0.009,13.355,2.731,18.15,7.569l119.467,120.405c9.984,9.993,9.984,26.189,0,36.181  L231.509,395.691C226.731,400.606,220.186,403.405,213.333,403.456z M213.333,128c-1.169,0.009-2.33,0.239-3.413,0.683  c-3.123,1.365-5.129,4.446-5.12,7.851v241.237c0.017,4.71,3.857,8.516,8.567,8.499c2.261-0.009,4.429-0.922,6.025-2.526  l119.467-120.576c3.345-3.319,3.371-8.721,0.051-12.066c-0.017-0.017-0.034-0.034-0.051-0.051L219.392,130.475  C217.779,128.879,215.603,127.983,213.333,128z"/>
<g>
</g>
<g>
</g>
<g>
</g>
<g>
</g>
<g>
</g>
<g>
</g>
<g>
</g>
<g>
</g>
<g>
</g>
<g>
</g>
<g>
</g>
<g>
</g>
<g>
</g>
<g>
</g>
<g>
</g>
</svg>
