<?xml version="1.0" encoding="iso-8859-1"?>
<!-- Generator: Adobe Illustrator 19.0.0, SVG Export Plug-In . SVG Version: 6.00 Build 0)  -->
<svg xmlns="http://www.w3.org/2000/svg" xmlns:xlink="http://www.w3.org/1999/xlink" version="1.1" id="Layer_1" x="0px" y="0px" viewBox="0 0 512 512" style="enable-background:new 0 0 512 512;" xml:space="preserve">
<path style="fill:#009FE3;" d="M42.667,51.115h426.667c18.85,0,34.133,15.283,34.133,34.133v341.333  c0,18.85-15.283,34.133-34.133,34.133H42.667c-18.85,0-34.133-15.283-34.133-34.133V85.248  C8.533,66.398,23.817,51.115,42.667,51.115z"/>
<path style="fill:#5BC5F2;" d="M42.667,51.115h384c18.85,0,34.133,15.283,34.133,34.133v341.333  c0,18.85-15.283,34.133-34.133,34.133h-384c-18.85,0-34.133-15.283-34.133-34.133V85.248C8.533,66.398,23.817,51.115,42.667,51.115z  "/>
<path style="fill:#555656;" d="M503.467,366.933v59.733c0,18.85-15.283,34.133-34.133,34.133H42.667  c-18.85,0-34.133-15.283-34.133-34.133v-59.733H503.467z"/>
<path style="fill:#717272;" d="M460.8,366.933v59.733c0,18.85-15.283,34.133-34.133,34.133h-384  c-18.85,0-34.133-15.283-34.133-34.133v-59.733H460.8z"/>
<path style="fill:#F9A825;" d="M153.6,153.6c0,23.561-19.106,42.667-42.667,42.667c-7.125,0.017-14.148-1.775-20.395-5.205  c-20.71-11.247-28.382-37.146-17.135-57.856s37.146-28.382,57.856-17.135c7.245,3.934,13.201,9.89,17.135,17.135  C151.834,139.452,153.617,146.475,153.6,153.6z"/>
<path style="fill:#FFC107;" d="M153.6,153.6c0,23.561-19.106,42.667-42.667,42.667c-7.125,0.017-14.148-1.775-20.395-5.205  c-3.439-6.246-5.222-13.269-5.205-20.395C85.333,147.106,104.439,128,128,128c7.125-0.017,14.148,1.766,20.395,5.205  C151.834,139.452,153.617,146.475,153.6,153.6z"/>
<polygon style="fill:#388E3C;" points="503.467,281.515 503.467,366.848 25.6,366.848 152.747,273.152 187.733,247.381   203.179,264.789 211.712,274.432 213.333,272.981 333.653,179.371 366.933,153.515 "/>
<polygon style="fill:#4CAF50;" points="460.8,298.581 460.8,366.848 25.6,366.848 152.747,273.152 169.045,291.499 170.667,290.048   203.179,264.789 211.712,274.432 213.333,272.981 333.653,179.371 "/>
<path d="M469.333,469.333H42.667C19.106,469.333,0,450.227,0,426.667V85.333c0-23.561,19.106-42.667,42.667-42.667h426.667  c23.561,0,42.667,19.106,42.667,42.667V281.6c-0.017,4.71-3.849,8.525-8.559,8.508c-2.142-0.009-4.207-0.819-5.777-2.278  L366.421,164.693L217.429,280.832c-3.516,3.123-8.892,2.825-12.032-0.683l-18.773-21.248L51.2,358.4h452.267  c4.71,0,8.533,3.823,8.533,8.533v59.733C512,450.227,492.894,469.333,469.333,469.333z M17.067,366.933v59.733  c0,14.14,11.46,25.6,25.6,25.6h426.667c14.14,0,25.6-11.46,25.6-25.6v-51.2H25.6c-3.849,0.188-7.347-2.227-8.533-5.888  C16.93,368.7,16.93,367.812,17.067,366.933z M42.667,59.733c-14.14,0-25.6,11.46-25.6,25.6v281.6  c0.043-2.671,1.34-5.163,3.499-6.741l162.133-119.467c3.55-2.611,8.508-2.099,11.435,1.195l18.603,20.992l148.992-116.139  c3.319-2.586,8.03-2.372,11.093,0.512l122.112,114.517V85.333c0-14.14-11.46-25.6-25.6-25.6H42.667z"/>
<path d="M25.6,375.467H8.533c-4.71,0-8.533-3.823-8.533-8.533s3.823-8.533,8.533-8.533H25.6c4.71,0,8.533,3.823,8.533,8.533  S30.31,375.467,25.6,375.467z"/>
<path d="M110.933,204.8c-28.279,0-51.2-22.921-51.2-51.2s22.921-51.2,51.2-51.2s51.2,22.921,51.2,51.2S139.213,204.8,110.933,204.8z   M110.933,119.467c-18.85,0-34.133,15.283-34.133,34.133s15.283,34.133,34.133,34.133s34.133-15.283,34.133-34.133  S129.783,119.467,110.933,119.467z"/>
<path d="M256,332.8c-2.441,0.017-4.77-1.007-6.4-2.816l-44.288-49.749c-2.953-3.678-2.364-9.045,1.314-11.998  c3.405-2.731,8.329-2.458,11.401,0.649l44.288,49.749c3.115,3.541,2.765,8.934-0.777,12.041  C260.002,332.023,258.039,332.774,256,332.8z"/>
<path d="M503.467,401.067c-4.71,0-8.533-3.823-8.533-8.533V273.067c0-4.71,3.823-8.533,8.533-8.533c4.71,0,8.533,3.823,8.533,8.533  v119.467C512,397.244,508.177,401.067,503.467,401.067z"/>
<g>
</g>
<g>
</g>
<g>
</g>
<g>
</g>
<g>
</g>
<g>
</g>
<g>
</g>
<g>
</g>
<g>
</g>
<g>
</g>
<g>
</g>
<g>
</g>
<g>
</g>
<g>
</g>
<g>
</g>
</svg>
