<?xml version="1.0" encoding="iso-8859-1"?>
<!-- Generator: Adobe Illustrator 19.0.0, SVG Export Plug-In . SVG Version: 6.00 Build 0)  -->
<svg xmlns="http://www.w3.org/2000/svg" xmlns:xlink="http://www.w3.org/1999/xlink" version="1.1" id="Layer_1" x="0px" y="0px" viewBox="0 0 512 512" style="enable-background:new 0 0 512 512;" xml:space="preserve">
<path style="fill:#2979FF;" d="M307.157,209.152c-10.564-7.586-22.033-13.833-34.133-18.603  c-19.004-7.569-39.279-11.426-59.733-11.349c-4.378,0-8.644,0.171-12.8,0.512c-16.102,1.212-31.932,4.864-46.933,10.837  c-12.1,4.77-23.569,11.017-34.133,18.603C46.464,261.069,29.406,362.3,81.323,435.26c27.776,39.04,71.407,63.787,119.168,67.61  c4.181,0,8.533,0.512,12.8,0.512c89.54-0.077,162.065-72.73,161.988-162.278C375.236,288.691,349.858,239.539,307.157,209.152z   M213.291,247.467c51.84,0,93.867,42.027,93.867,93.867S265.131,435.2,213.291,435.2c-4.284,0.034-8.567-0.282-12.8-0.939  c-51.319-7.313-86.997-54.844-79.684-106.172c5.888-41.327,38.357-73.796,79.684-79.684  C204.732,247.748,209.007,247.433,213.291,247.467z"/>
<path style="fill:#0091EA;" d="M281.557,209.152c-10.564-7.586-22.033-13.833-34.133-18.603  c-14.976-6.153-30.805-9.975-46.933-11.349c-16.128,1.374-31.957,5.197-46.933,11.349c-12.1,4.77-23.569,11.017-34.133,18.603  C46.464,261.069,29.406,362.3,81.323,435.26c27.776,39.04,71.407,63.787,119.168,67.61c89.259-7.142,155.827-85.291,148.676-174.549  C345.353,280.559,320.597,236.928,281.557,209.152z M187.691,435.2c-51.84,0-93.867-42.027-93.867-93.867  s42.027-93.867,93.867-93.867c4.284-0.034,8.567,0.282,12.8,0.939c51.319,7.313,86.997,54.844,79.684,106.172  c-5.888,41.327-38.357,73.796-79.684,79.684C196.258,434.918,191.983,435.234,187.691,435.2z"/>
<circle style="fill:#3949AB;" cx="213.291" cy="341.248" r="93.867"/>
<path style="fill:#555656;" d="M307.157,341.333c0,51.84-42.027,93.867-93.867,93.867c-4.284,0.034-8.567-0.282-12.8-0.939  c-51.319-7.313-86.997-54.844-79.684-106.172c5.888-41.327,38.357-73.796,79.684-79.684c4.233-0.657,8.516-0.973,12.8-0.939  C265.139,247.467,307.157,289.493,307.157,341.333z"/>
<path style="fill:#717272;" d="M281.557,341.333c-0.034,46.874-34.637,86.537-81.067,92.928  c-51.319-7.313-86.997-54.844-79.684-106.172c5.888-41.327,38.357-73.796,79.684-79.684  C246.929,254.797,281.532,294.46,281.557,341.333z"/>
<path style="fill:#555656;" d="M247.424,324.267c-0.009,12.186-6.519,23.433-17.067,29.525V384c0,9.429-7.637,17.067-17.067,17.067  c-9.429,0-17.067-7.637-17.067-17.067v-30.293c-16.324-9.429-21.922-30.302-12.493-46.626c9.429-16.324,30.302-21.922,46.626-12.493  C240.956,300.706,247.467,312.03,247.424,324.267z"/>
<path style="fill:#A8A5A4;" d="M460.757,102.4v68.267h-34.133V102.4c0-32.99-26.743-59.733-59.733-59.733  c-2.859-0.034-5.717,0.196-8.533,0.683c-29.363,4.241-51.166,29.38-51.2,59.051v106.752c-10.564-7.586-22.033-13.833-34.133-18.603  V102.4c-0.205-48.683,36.847-89.438,85.333-93.867c2.816,0,5.632,0,8.533,0C418.739,8.533,460.757,50.56,460.757,102.4z"/>
<path style="fill:#BDBDBD;" d="M443.691,102.4v68.267h-17.067V102.4c0-32.99-26.743-59.733-59.733-59.733  c-2.859-0.034-5.717,0.196-8.533,0.683c-2.816-0.486-5.675-0.717-8.533-0.683c-32.99,0-59.733,26.743-59.733,59.733v96.085  c-5.521-2.987-11.221-5.641-17.067-7.936V102.4c-0.205-48.683,36.847-89.438,85.333-93.867  C406.844,12.962,443.896,53.717,443.691,102.4z"/>
<path d="M213.291,512c-94.251-0.043-170.624-76.493-170.581-170.743c0.026-55.219,26.761-107.017,71.765-139.017  c11.119-8.004,23.185-14.592,35.925-19.627c40.405-15.957,85.376-15.957,125.781,0c12.74,5.009,24.806,11.571,35.925,19.541  c76.868,54.554,94.959,161.084,40.405,237.952C320.503,485.214,268.612,512.017,213.291,512z M213.291,187.733  c-19.379-0.06-38.588,3.618-56.576,10.837c-11.469,4.523-22.332,10.462-32.341,17.664c-69.171,49.109-85.436,144.99-36.326,214.161  s144.99,85.436,214.161,36.326s85.436-144.99,36.326-214.161c-9.984-14.063-22.263-26.342-36.326-36.326l0,0  c-9.984-7.168-20.821-13.073-32.256-17.579C251.947,191.403,232.704,187.691,213.291,187.733z M213.291,443.733  c-56.55,0-102.4-45.85-102.4-102.4s45.85-102.4,102.4-102.4s102.4,45.85,102.4,102.4S269.85,443.733,213.291,443.733z M213.291,256  c-47.13,0-85.333,38.204-85.333,85.333s38.204,85.333,85.333,85.333s85.333-38.204,85.333-85.333S260.42,256,213.291,256z"/>
<path id="SVGCleanerId_0" d="M213.291,443.733c-56.55,0-102.4-45.85-102.4-102.4s45.85-102.4,102.4-102.4s102.4,45.85,102.4,102.4  S269.85,443.733,213.291,443.733z M213.291,256c-47.13,0-85.333,38.204-85.333,85.333s38.204,85.333,85.333,85.333  s85.333-38.204,85.333-85.333S260.42,256,213.291,256z"/>
<g>
	<path id="SVGCleanerId_0_1_" d="M213.291,443.733c-56.55,0-102.4-45.85-102.4-102.4s45.85-102.4,102.4-102.4   s102.4,45.85,102.4,102.4S269.85,443.733,213.291,443.733z M213.291,256c-47.13,0-85.333,38.204-85.333,85.333   s38.204,85.333,85.333,85.333s85.333-38.204,85.333-85.333S260.42,256,213.291,256z"/>
</g>
<path d="M213.291,409.6c-14.14,0-25.6-11.46-25.6-25.6v-25.6c-18.85-14.14-22.673-40.883-8.533-59.733  c14.14-18.85,40.883-22.673,59.733-8.533c18.85,14.14,22.673,40.883,8.533,59.733c-2.423,3.234-5.299,6.11-8.533,8.533V384  C238.891,398.14,227.43,409.6,213.291,409.6z M213.291,298.667c-14.14,0.068-25.549,11.58-25.481,25.719  c0.043,9.054,4.864,17.417,12.681,21.982l4.267,2.475V384c0,4.71,3.823,8.533,8.533,8.533c4.71,0,8.533-3.823,8.533-8.533v-35.243  l4.267-2.475c12.16-7.211,16.171-22.921,8.96-35.081C230.485,303.514,222.242,298.761,213.291,298.667z"/>
<path d="M315.691,225.707l-13.483-9.643c-9.984-7.168-20.821-13.073-32.256-17.579l-5.461-2.219V102.4  c0-56.55,45.85-102.4,102.4-102.4s102.4,45.85,102.4,102.4v76.8h-51.2v-76.8c0-28.279-22.921-51.2-51.2-51.2  c-28.279,0-51.2,22.921-51.2,51.2L315.691,225.707L315.691,225.707z M281.557,184.832c5.854,2.509,11.546,5.359,17.067,8.533V102.4  c0-37.7,30.566-68.267,68.267-68.267S435.157,64.7,435.157,102.4v59.733h17.067V102.4c0-47.13-38.204-85.333-85.333-85.333  S281.557,55.27,281.557,102.4V184.832z"/>
<g>
</g>
<g>
</g>
<g>
</g>
<g>
</g>
<g>
</g>
<g>
</g>
<g>
</g>
<g>
</g>
<g>
</g>
<g>
</g>
<g>
</g>
<g>
</g>
<g>
</g>
<g>
</g>
<g>
</g>
</svg>
