<?xml version="1.0" encoding="iso-8859-1"?>
<!-- Generator: Adobe Illustrator 19.0.0, SVG Export Plug-In . SVG Version: 6.00 Build 0)  -->
<svg xmlns="http://www.w3.org/2000/svg" xmlns:xlink="http://www.w3.org/1999/xlink" version="1.1" id="Layer_1" x="0px" y="0px" viewBox="0 0 512 512" style="enable-background:new 0 0 512 512;" xml:space="preserve">
<path style="fill:#2979FF;" d="M349.87,209.169c-10.565-7.587-22.035-13.834-34.136-18.604c-19.005-7.57-39.282-11.427-59.738-11.35  c-4.378,0-8.645,0.171-12.801,0.512c-16.104,1.212-31.934,4.864-46.937,10.838c-12.101,4.771-23.571,11.017-34.136,18.604  c-72.966,51.921-90.026,153.16-38.105,226.127c27.778,39.043,71.413,63.792,119.178,67.615c4.182,0,8.534,0.512,12.801,0.512  c89.548-0.077,162.079-72.736,162.002-162.292C417.946,288.715,392.575,239.559,349.87,209.169z M255.996,247.487  c51.844,0,93.874,42.03,93.874,93.874s-42.03,93.875-93.874,93.875c-4.284,0.034-8.568-0.282-12.801-0.939  c-51.324-7.314-87.005-54.848-79.691-106.181c5.889-41.33,38.361-73.802,79.691-79.691  C247.428,247.769,251.703,247.453,255.996,247.487z"/>
<path style="fill:#0091EA;" d="M324.268,209.169c-10.565-7.587-22.035-13.834-34.136-18.604  c-14.977-6.153-30.808-9.976-46.937-11.35c-16.129,1.374-31.96,5.197-46.937,11.35c-12.101,4.771-23.571,11.017-34.136,18.604  c-72.966,51.921-90.026,153.16-38.105,226.127c27.778,39.043,71.413,63.792,119.178,67.615  c89.266-7.143,155.84-85.298,148.689-174.564C388.06,280.582,363.303,236.948,324.268,209.169z M230.394,435.236  c-51.844,0-93.874-42.03-93.874-93.875s42.03-93.874,93.874-93.874c4.284-0.034,8.568,0.282,12.801,0.939  c51.324,7.314,87.005,54.848,79.691,106.181c-5.888,41.33-38.361,73.802-79.691,79.691  C238.953,434.955,234.678,435.27,230.394,435.236z"/>
<circle style="fill:#3949AB;" cx="255.996" cy="341.276" r="93.874"/>
<path style="fill:#555656;" d="M349.87,341.362c0,51.844-42.03,93.875-93.874,93.875c-4.284,0.034-8.568-0.282-12.801-0.939  c-51.324-7.314-87.005-54.848-79.691-106.181c5.889-41.33,38.361-73.802,79.691-79.691c4.233-0.657,8.517-0.973,12.801-0.939  C307.84,247.487,349.87,289.517,349.87,341.362z"/>
<path style="fill:#717272;" d="M324.268,341.362c-0.034,46.878-34.64,86.544-81.073,92.936  c-51.324-7.314-87.005-54.848-79.691-106.181c5.889-41.33,38.361-73.802,79.691-79.691  C289.628,254.818,324.234,294.484,324.268,341.362z"/>
<path style="fill:#555656;" d="M290.132,324.294c-0.009,12.187-6.52,23.434-17.068,29.528v30.211c0,9.43-7.638,17.068-17.068,17.068  s-17.068-7.638-17.068-17.068v-30.296c-16.326-9.43-21.924-30.304-12.494-46.63c9.43-16.326,30.304-21.924,46.63-12.494  C283.663,300.731,290.175,312.056,290.132,324.294z"/>
<path d="M256.235,512c-53.474,0-106.163-24.996-139.404-71.805c-54.49-76.738-36.389-183.49,40.349-237.989  c11.094-7.962,23.204-14.568,35.954-19.586c40.528-16.061,85.204-16.07,125.749,0.009c12.733,5.018,24.834,11.606,35.954,19.586  c15.651,11.12,29.221,24.698,40.332,40.34c54.49,76.738,36.389,183.499-40.349,237.989C324.891,501.793,290.396,512,256.235,512z   M255.987,187.655c-19.176,0-38.343,3.61-56.589,10.847c-11.461,4.514-22.317,10.429-32.301,17.606  c-69.1,49.062-85.392,145.147-36.355,214.213c49.028,69.057,145.121,85.34,214.187,36.321  c69.066-49.037,85.349-145.121,36.312-214.187c-10.002-14.09-22.223-26.31-36.312-36.321l-0.034-0.026  c-9.985-7.169-20.84-13.091-32.284-17.597C294.348,191.274,275.163,187.655,255.987,187.655z M255.996,443.77  c-56.47,0-102.409-45.939-102.409-102.409s45.939-102.409,102.409-102.409s102.409,45.939,102.409,102.409  S312.457,443.77,255.996,443.77z M255.996,256.021c-47.057,0-85.34,38.284-85.34,85.34s38.284,85.34,85.34,85.34  s85.34-38.284,85.34-85.34S303.052,256.021,255.996,256.021z"/>
<path id="SVGCleanerId_0" d="M255.996,443.77c-56.555,0-102.409-45.853-102.409-102.409s45.853-102.409,102.409-102.409  s102.409,45.853,102.409,102.409S312.551,443.77,255.996,443.77z M255.996,256.021c-47.134,0-85.34,38.207-85.34,85.34  s38.207,85.34,85.34,85.34s85.34-38.207,85.34-85.34S303.121,256.021,255.996,256.021z"/>
<g>
	<path id="SVGCleanerId_0_1_" d="M255.996,443.77c-56.555,0-102.409-45.853-102.409-102.409s45.853-102.409,102.409-102.409   s102.409,45.853,102.409,102.409S312.551,443.77,255.996,443.77z M255.996,256.021c-47.134,0-85.34,38.207-85.34,85.34   s38.207,85.34,85.34,85.34s85.34-38.207,85.34-85.34S303.121,256.021,255.996,256.021z"/>
</g>
<path style="fill:#A8A5A4;" d="M349.87,102.409v106.761c-10.565-7.587-22.035-13.834-34.136-18.604v-88.157  c0-32.993-26.746-59.738-59.738-59.738c-2.859-0.034-5.718,0.196-8.534,0.683c-29.366,4.241-51.17,29.383-51.204,59.056v88.157  c-12.101,4.771-23.571,11.017-34.136,18.604V102.409c-0.205-48.687,36.85-89.445,85.34-93.874c2.816,0,5.632,0,8.534,0  C307.84,8.534,349.87,50.564,349.87,102.409z"/>
<path style="fill:#BDBDBD;" d="M332.802,102.409v96.093c-5.522-2.987-11.222-5.641-17.068-7.937v-88.157  c0-32.993-26.746-59.738-59.738-59.738c-2.859-0.034-5.718,0.196-8.534,0.683c-2.816-0.486-5.675-0.717-8.534-0.683  c-32.993,0-59.738,26.746-59.738,59.738v88.157c-5.846,2.296-11.547,4.95-17.068,7.937v-96.093  c-0.205-48.687,36.85-89.445,85.34-93.874C295.944,12.963,332.998,53.722,332.802,102.409z"/>
<path d="M358.404,225.811l-13.484-9.643c-9.985-7.177-20.823-13.083-32.259-17.58l-5.462-2.304v-93.874  c0-28.282-22.922-51.204-51.204-51.204s-51.204,22.922-51.204,51.204v93.874l-5.462,2.134c-11.436,4.497-22.274,10.403-32.259,17.58  l-13.484,9.814V102.409C153.587,45.853,199.441,0,255.996,0s102.409,45.853,102.409,102.409V225.811z M324.268,184.933  c5.854,2.509,11.547,5.359,17.068,8.534v-91.058c0-47.134-38.207-85.34-85.34-85.34s-85.34,38.207-85.34,85.34v91.058  c5.522-3.175,11.214-6.025,17.068-8.534v-82.524c0-37.703,30.569-68.272,68.272-68.272s68.272,30.569,68.272,68.272V184.933z"/>
<path d="M255.996,409.634c-14.141,0-25.602-11.461-25.602-25.602V358.43c-18.852-14.141-22.675-40.887-8.534-59.738  c14.141-18.852,40.887-22.675,59.738-8.534c18.852,14.141,22.675,40.887,8.534,59.738c-2.424,3.234-5.3,6.11-8.534,8.534v25.602  C281.598,398.173,270.128,409.634,255.996,409.634z M255.996,298.692c-14.141,0.068-25.551,11.581-25.483,25.722  c0.043,9.055,4.864,17.418,12.682,21.984l4.267,2.475v35.16c0,4.711,3.823,8.534,8.534,8.534s8.534-3.823,8.534-8.534v-35.246  l4.267-2.475c12.161-7.211,16.172-22.922,8.961-35.083C273.183,303.539,264.939,298.785,255.996,298.692z"/>
<g>
</g>
<g>
</g>
<g>
</g>
<g>
</g>
<g>
</g>
<g>
</g>
<g>
</g>
<g>
</g>
<g>
</g>
<g>
</g>
<g>
</g>
<g>
</g>
<g>
</g>
<g>
</g>
<g>
</g>
</svg>
