<?xml version="1.0" encoding="iso-8859-1"?>
<!-- Generator: Adobe Illustrator 19.0.0, SVG Export Plug-In . SVG Version: 6.00 Build 0)  -->
<svg xmlns="http://www.w3.org/2000/svg" xmlns:xlink="http://www.w3.org/1999/xlink" version="1.1" id="Layer_1" x="0px" y="0px" viewBox="0 0 512 512" style="enable-background:new 0 0 512 512;" xml:space="preserve">
<path style="fill:#555656;" d="M503.467,256c0,136.67-110.797,247.467-247.467,247.467c-7.168,0-14.336,0-21.333-1.024  C98.56,490.018-1.707,369.621,10.709,233.515C21.564,114.611,115.763,20.412,234.667,9.557c6.997-1.024,14.165-1.024,21.333-1.024  C392.67,8.533,503.467,119.33,503.467,256z"/>
<path style="fill:#717272;" d="M460.8,256c-0.094,128.333-98.278,235.298-226.133,246.357  C98.56,489.933-1.707,369.536,10.709,233.429C21.564,114.526,115.763,20.326,234.667,9.472C362.581,20.54,460.792,127.607,460.8,256  z"/>
<path style="fill:#388E3C;" d="M392.533,162.133c0,28.279-22.921,51.2-51.2,51.2c-4.318-0.009-8.619-0.555-12.8-1.621  c-27.358-7.151-43.742-35.123-36.591-62.481c4.685-17.911,18.671-31.906,36.591-36.591c4.173-1.135,8.474-1.707,12.8-1.707  C369.613,110.933,392.533,133.854,392.533,162.133z"/>
<path style="fill:#4CAF50;" d="M366.933,162.133c0,23.347-15.795,43.742-38.4,49.579c-27.358-7.151-43.742-35.123-36.591-62.481  c4.685-17.911,18.671-31.906,36.591-36.591C351.113,118.468,366.899,138.82,366.933,162.133z"/>
<path style="fill:#388E3C;" d="M187.733,256c0,28.279-22.921,51.2-51.2,51.2c-4.318-0.009-8.619-0.555-12.8-1.621  c-27.358-7.151-43.742-35.123-36.591-62.481c4.685-17.911,18.671-31.906,36.591-36.591c4.173-1.135,8.474-1.707,12.8-1.707  C164.813,204.8,187.733,227.721,187.733,256z"/>
<path style="fill:#4CAF50;" d="M162.133,256c0,23.347-15.795,43.742-38.4,49.579c-27.358-7.151-43.742-35.123-36.591-62.481  c4.685-17.911,18.671-31.906,36.591-36.591C146.313,212.335,162.099,232.687,162.133,256z"/>
<path style="fill:#388E3C;" d="M392.533,349.867c0,28.279-22.921,51.2-51.2,51.2c-4.318-0.009-8.619-0.555-12.8-1.621  c-27.358-7.151-43.742-35.123-36.591-62.481c4.685-17.911,18.671-31.906,36.591-36.591c4.173-1.135,8.474-1.707,12.8-1.707  C369.613,298.667,392.533,321.587,392.533,349.867z"/>
<path style="fill:#4CAF50;" d="M366.933,349.867c0,23.347-15.795,43.742-38.4,49.579c-27.358-7.151-43.742-35.123-36.591-62.481  c4.685-17.911,18.671-31.906,36.591-36.591C351.113,306.202,366.899,326.554,366.933,349.867z"/>
<path d="M256,512C114.611,512,0,397.389,0,256S114.611,0,256,0s256,114.611,256,256S397.389,512,256,512z M256,17.067  C124.041,17.067,17.067,124.041,17.067,256S124.041,494.933,256,494.933S494.933,387.96,494.933,256S387.96,17.067,256,17.067z"/>
<path d="M341.333,221.867c-32.99,0-59.733-26.743-59.733-59.733s26.743-59.733,59.733-59.733s59.733,26.743,59.733,59.733  S374.323,221.867,341.333,221.867z M341.333,119.467c-23.561,0-42.667,19.106-42.667,42.667s19.106,42.667,42.667,42.667  S384,185.694,384,162.133S364.894,119.467,341.333,119.467z"/>
<path d="M136.533,315.733c-32.99,0-59.733-26.743-59.733-59.733s26.743-59.733,59.733-59.733S196.267,223.01,196.267,256  S169.523,315.733,136.533,315.733z M136.533,213.333c-23.561,0-42.667,19.106-42.667,42.667c0,23.561,19.106,42.667,42.667,42.667  S179.2,279.561,179.2,256S160.094,213.333,136.533,213.333z"/>
<path d="M341.333,409.6c-32.99,0-59.733-26.743-59.733-59.733s26.743-59.733,59.733-59.733s59.733,26.743,59.733,59.733  S374.323,409.6,341.333,409.6z M341.333,307.2c-23.561,0-42.667,19.106-42.667,42.667c0,23.561,19.106,42.667,42.667,42.667  S384,373.427,384,349.867C384,326.306,364.894,307.2,341.333,307.2z"/>
<path d="M179.2,230.4c-4.71-0.034-8.508-3.883-8.465-8.593c0.026-3.482,2.159-6.596,5.393-7.876l110.933-42.667  c4.403-1.698,9.353,0.503,11.051,4.907c1.698,4.403-0.503,9.353-4.907,11.051l-110.933,42.667  C181.291,230.246,180.25,230.417,179.2,230.4z"/>
<path d="M290.133,341.333c-1.05-0.009-2.091-0.213-3.072-0.597l-110.933-42.667c-4.403-1.698-6.605-6.647-4.907-11.051  c1.698-4.403,6.647-6.605,11.051-4.907l110.933,42.667c4.429,1.604,6.724,6.502,5.12,10.931  C297.079,339.14,293.786,341.402,290.133,341.333z"/>
<g>
</g>
<g>
</g>
<g>
</g>
<g>
</g>
<g>
</g>
<g>
</g>
<g>
</g>
<g>
</g>
<g>
</g>
<g>
</g>
<g>
</g>
<g>
</g>
<g>
</g>
<g>
</g>
<g>
</g>
</svg>
