<?xml version="1.0" encoding="iso-8859-1"?>
<!-- Generator: Adobe Illustrator 19.0.0, SVG Export Plug-In . SVG Version: 6.00 Build 0)  -->
<svg xmlns="http://www.w3.org/2000/svg" xmlns:xlink="http://www.w3.org/1999/xlink" version="1.1" id="Layer_1" x="0px" y="0px" viewBox="0 0 512 512" style="enable-background:new 0 0 512 512;" xml:space="preserve">
<path style="fill:#A8A5A4;" d="M256,8.533c-7.168,0-14.336,0-21.333,1.024C98.56,21.982-1.707,142.379,10.709,278.485  c10.854,118.904,105.054,213.103,223.957,223.957c6.997,0.683,14.165,1.024,21.333,1.024  c136.67,0.051,247.509-110.703,247.561-247.373C503.603,119.415,392.849,8.585,256.179,8.533C256.119,8.533,256.06,8.533,256,8.533z   M145.067,366.933c-9.429,0-17.067-7.637-17.067-17.067v-12.8c0-16.469,9.131-29.867,25.6-29.867c4.506-1.621,8.806-3.763,12.8-6.4  c7.202-3.866,12.006-11.068,12.8-19.2v-76.8c0.026-34.185,22.63-64.23,55.467-73.728c1.399-0.486,2.825-0.887,4.267-1.195  c11.238-2.5,22.895-2.5,34.133,0c34.961,7.97,59.75,39.066,59.733,74.923v76.8c0,17.067,25.6,25.6,25.6,25.6  c7.305-0.299,14.327,2.867,18.944,8.533c4.582,6.118,6.929,13.611,6.656,21.248v12.885c0,9.429-7.637,17.067-17.067,17.067H145.067z  "/>
<path style="fill:#BDBDBD;" d="M234.667,9.472C98.56,21.897-1.707,142.293,10.709,278.4  c10.854,118.903,105.054,213.103,223.957,223.957c136.107-12.425,236.373-132.821,223.957-268.928  C447.77,114.526,353.57,20.326,234.667,9.472z M102.4,366.933c-9.429,0-17.067-7.637-17.067-17.067v-12.8  c0-16.469,9.131-29.867,25.6-29.867c4.506-1.621,8.806-3.763,12.8-6.4c7.202-3.866,12.006-11.068,12.8-19.2v-76.8  c-0.017-35.857,24.772-66.953,59.733-74.923c11.238-2.5,22.895-2.5,34.133,0c1.442,0.307,2.867,0.708,4.267,1.195  c12.476,3.533,23.825,10.231,32.939,19.456c14.404,14.387,22.511,33.911,22.528,54.272v76.8c0,17.067,25.6,25.6,25.6,25.6  c7.305-0.299,14.327,2.867,18.944,8.533c4.582,6.118,6.929,13.611,6.656,21.248v12.885c0,9.429-7.637,17.067-17.067,17.067H102.4z"/>
<path style="fill:#388E3C;" d="M384,336.981v12.885c0,9.429-7.637,17.067-17.067,17.067H145.067  c-9.429,0-17.067-7.637-17.067-17.067v-12.8c0-16.469,9.131-29.867,25.6-29.867c4.506-1.621,8.806-3.763,12.8-6.4  c7.202-3.866,12.006-11.068,12.8-19.2v-76.8c-0.017-35.857,24.772-66.953,59.733-74.923c1.374-0.35,2.773-0.606,4.181-0.768l0,0  c4.25-0.768,8.567-1.143,12.885-1.109c5.743,0.009,11.46,0.64,17.067,1.877c34.961,7.97,59.75,39.066,59.733,74.923v76.8  c0,17.067,25.6,25.6,25.6,25.6c7.305-0.299,14.327,2.867,18.944,8.533C381.926,321.852,384.273,329.344,384,336.981z"/>
<path style="fill:#4CAF50;" d="M358.4,336.981v12.885c0,9.429-7.637,17.067-17.067,17.067H145.067  c-9.429,0-17.067-7.637-17.067-17.067v-12.8c0-16.469,9.131-29.867,25.6-29.867c4.506-1.621,8.806-3.763,12.8-6.4  c7.202-3.866,12.006-11.068,12.8-19.2v-76.8c-0.017-35.857,24.772-66.953,59.733-74.923c1.374-0.35,2.773-0.606,4.181-0.768l0,0  c1.408,0.162,2.807,0.418,4.181,0.768c35.029,7.902,59.904,39.014,59.904,74.923v76.8c0,17.067,25.6,25.6,25.6,25.6  c7.305-0.299,14.327,2.867,18.944,8.533C356.326,321.852,358.673,329.344,358.4,336.981z"/>
<path style="fill:#004D40;" d="M290.133,366.933v8.533c0,18.85-15.283,34.133-34.133,34.133c-4.395,0.034-8.755-0.836-12.8-2.56  c-12.868-5.205-21.308-17.69-21.333-31.573v-8.533H290.133z"/>
<path style="fill:#00796B;" d="M264.533,366.933v8.533c-0.026,13.884-8.465,26.368-21.333,31.573  c-12.868-5.205-21.308-17.69-21.333-31.573v-8.533H264.533z"/>
<path style="fill:#004D40;" d="M273.067,110.933v18.944c-11.238-2.5-22.895-2.5-34.133,0v-18.944  c0-9.429,7.637-17.067,17.067-17.067C265.429,93.867,273.067,101.504,273.067,110.933z"/>
<path d="M256,512C114.842,512,0,397.158,0,256S114.842,0,256,0s256,114.842,256,256S397.158,512,256,512z M256,17.067  C124.254,17.067,17.067,124.254,17.067,256S124.254,494.933,256,494.933S494.933,387.746,494.933,256S387.746,17.067,256,17.067z   M366.933,375.467H145.067c-14.114,0-25.6-11.486-25.6-25.6v-12.8c0-21.99,13.278-37.53,32.503-38.366  c3.413-1.323,6.682-3.012,9.737-5.026c5.367-2.918,8.482-7.603,9.003-12.911l-0.043-75.964  c-0.026-40.098,27.273-74.325,66.372-83.243c12.416-2.765,25.506-2.773,37.888-0.009c39.134,8.926,66.423,43.153,66.406,83.251v76.8  c0,8.329,13.15,14.95,18.526,17.05c9.293,0.162,18.193,4.446,24.098,11.691c5.939,7.927,8.917,17.4,8.568,26.948l0.008,12.578  C392.533,363.981,381.047,375.467,366.933,375.467z M256.009,136.542c-5.12,0-10.24,0.555-15.223,1.664  c-31.232,7.125-53.069,34.509-53.052,66.594v76.8c-1.118,11.819-7.569,21.504-17.297,26.718c-3.9,2.611-8.815,5.069-13.952,6.921  c-0.93,0.324-1.903,0.495-2.884,0.495c-12.587,0-17.067,11.017-17.067,21.333v12.8c0,4.71,3.831,8.533,8.533,8.533h221.867  c4.71,0,8.533-3.823,8.533-8.533v-12.885c0.205-5.973-1.553-11.588-4.949-16.137c-2.697-3.294-7.142-5.282-11.767-5.129  c-1.033,0.077-2.057-0.102-3.046-0.435c-3.217-1.058-31.437-11.11-31.437-33.681v-76.8c0.017-32.085-21.82-59.477-53.103-66.603  C266.214,137.097,261.12,136.542,256.009,136.542z"/>
<path d="M366.933,375.467H145.067c-14.14,0-25.6-11.46-25.6-25.6v-12.8c0-22.016,13.312-37.547,32.512-38.4  c3.379-1.348,6.605-3.029,9.643-5.035c4.181-2.731,9.045-7.083,9.045-12.032v-76.8c-0.034-39.859,27.52-74.436,66.389-83.285  c12.45-2.756,25.353-2.756,37.803,0c38.903,8.815,66.5,43.401,66.475,83.285v76.8c0,8.533,13.312,15.019,18.688,17.067  c9.37,0.222,18.159,4.599,23.979,11.947c5.743,7.569,8.755,16.87,8.533,26.368v12.885  C392.533,364.006,381.073,375.467,366.933,375.467z M256,136.533c-5.137,0.026-10.257,0.597-15.275,1.707  c-30.916,7.287-52.813,34.799-52.992,66.56v76.8c-0.546,11.076-6.861,21.052-16.64,26.283c-4.634,3.063-9.617,5.555-14.848,7.424  c-0.853,0.282-1.749,0.427-2.645,0.427c-12.544,0-17.067,11.008-17.067,21.333v12.8c0,4.71,3.823,8.533,8.533,8.533h221.867  c4.71,0,8.533-3.823,8.533-8.533v-12.8c0.222-5.623-1.468-11.153-4.779-15.701c-2.944-3.755-7.526-5.854-12.288-5.632  c-0.93,0.009-1.852-0.137-2.731-0.427c-3.157-1.195-31.403-11.264-31.403-33.707v-76.8c0.043-31.881-21.99-59.554-53.077-66.645  C266.197,137.071,261.103,136.533,256,136.533z"/>
<path d="M256,418.133c-23.561,0-42.667-19.106-42.667-42.667v-8.533c0-4.71,3.823-8.533,8.533-8.533h68.267  c4.71,0,8.533,3.823,8.533,8.533v8.533C298.667,399.027,279.561,418.133,256,418.133z M230.4,375.467c0,14.14,11.46,25.6,25.6,25.6  c14.14,0,25.6-11.46,25.6-25.6H230.4z"/>
<path d="M273.067,138.325h-1.792c-10.035-2.21-20.429-2.21-30.464,0c-4.608,0.99-9.148-1.937-10.138-6.545  c-0.137-0.649-0.205-1.314-0.188-1.988v-18.859c0-14.14,11.46-25.6,25.6-25.6c14.14,0,25.6,11.46,25.6,25.6v18.944  c0,4.71-3.823,8.533-8.533,8.533l0,0L273.067,138.325z M256,119.467c2.816,0,5.717,0,8.533,0v-8.533c0-4.71-3.823-8.533-8.533-8.533  c-4.71,0-8.533,3.823-8.533,8.533v8.533C250.283,119.467,253.184,119.467,256,119.467z"/>
<g>
</g>
<g>
</g>
<g>
</g>
<g>
</g>
<g>
</g>
<g>
</g>
<g>
</g>
<g>
</g>
<g>
</g>
<g>
</g>
<g>
</g>
<g>
</g>
<g>
</g>
<g>
</g>
<g>
</g>
</svg>
