<?xml version="1.0" encoding="iso-8859-1"?>
<!-- Generator: Adobe Illustrator 19.0.0, SVG Export Plug-In . SVG Version: 6.00 Build 0)  -->
<svg xmlns="http://www.w3.org/2000/svg" xmlns:xlink="http://www.w3.org/1999/xlink" version="1.1" id="Layer_1" x="0px" y="0px" viewBox="0 0 512 512" style="enable-background:new 0 0 512 512;" xml:space="preserve">
<path style="fill:#A8A5A4;" d="M332.8,128c0,65.98-53.487,119.467-119.467,119.467c-5.717,0.009-11.418-0.418-17.067-1.28  c-17.536-2.441-34.278-8.832-48.981-18.688C92.28,191.07,77.218,116.941,113.647,61.926c18.816-28.416,48.879-47.445,82.62-52.284  c5.658-0.759,11.358-1.135,17.067-1.109C279.313,8.533,332.8,62.02,332.8,128z"/>
<path style="fill:#BDBDBD;" d="M298.667,128c-0.017,40.021-20.07,77.372-53.419,99.499c-14.711,9.83-31.454,16.188-48.981,18.603  c-17.536-2.441-34.278-8.832-48.981-18.688c-54.972-36.489-69.948-110.635-33.459-165.606c18.807-28.331,48.785-47.3,82.441-52.164  C255.087,18.133,298.726,68.565,298.667,128z"/>
<path style="fill:#555656;" d="M375.467,468.821v34.133H51.2V375.467c0.043-57.882,30.942-111.351,81.067-140.288  c4.873-2.816,9.882-5.376,15.019-7.68c15.343,10.249,32.879,16.742,51.2,18.944c4.924,0.674,9.882,1.015,14.848,1.024  c17.493,0.034,34.773-3.814,50.603-11.264c5.333-2.492,10.496-5.342,15.445-8.533c27.281,12.16,50.662,31.625,67.584,56.235  c-50.569,11.409-82.313,61.653-70.903,112.222c9.6,42.556,47.249,72.883,90.871,73.207  C369.835,469.333,372.651,469.333,375.467,468.821z"/>
<path style="fill:#717272;" d="M341.333,468.821v34.133H51.2V375.467c0.043-57.882,30.942-111.351,81.067-140.288  c15.846,8.115,33.399,12.322,51.2,12.288c4.907,0.009,9.813-0.341,14.677-1.024c5.035,0.683,10.112,1.033,15.189,1.024  c17.493,0.034,34.773-3.814,50.603-11.264c19.84,12.006,36.796,28.237,49.664,47.531c-50.662,10.982-82.833,60.962-71.851,111.625  c9.301,42.923,47.13,73.66,91.051,73.975C335.872,469.333,338.603,469.333,341.333,468.821z"/>
<path style="fill:#B71C1C;" d="M460.8,375.467c0,51.84-42.027,93.867-93.867,93.867c-4.284,0.034-8.567-0.282-12.8-0.939  c-51.319-7.313-86.997-54.844-79.684-106.172c5.888-41.327,38.357-73.796,79.684-79.684c4.233-0.657,8.516-0.973,12.8-0.939  C418.773,281.6,460.8,323.627,460.8,375.467z"/>
<path style="fill:#D50000;" d="M435.2,375.467c-0.034,46.874-34.637,86.537-81.067,92.928  c-51.319-7.313-86.997-54.844-79.684-106.172c5.888-41.327,38.357-73.796,79.684-79.684  C400.563,288.93,435.166,328.593,435.2,375.467z"/>
<polygon style="fill:#F4F4F4;" points="391.083,375.381 415.232,399.531 391.083,423.595 379.733,412.245 366.933,399.531   355.584,410.88 342.784,423.595 331.435,412.245 318.635,399.531 342.784,375.381 318.635,351.232 331.435,338.432 342.784,327.083   366.933,351.232 391.083,327.083 415.232,351.232 "/>
<polygon style="fill:#FFFFFF;" points="368.384,375.381 392.533,399.531 379.733,412.245 366.933,399.531 355.584,410.88   344.235,399.531 331.435,412.245 318.635,399.531 342.784,375.381 318.635,351.232 331.435,338.432 344.235,351.232   355.584,339.883 366.933,351.232 379.733,338.432 392.533,351.232 "/>
<path d="M213.333,256c-70.69,0.077-128.06-57.165-128.145-127.855C85.112,57.446,142.353,0.077,213.052,0  s128.06,57.165,128.145,127.855c0.051,42.897-21.393,82.97-57.114,106.726C263.134,248.568,238.515,256.017,213.333,256z   M213.333,17.067C152.064,17.067,102.4,66.731,102.4,128s49.664,110.933,110.933,110.933S324.267,189.269,324.267,128  S274.603,17.067,213.333,17.067z"/>
<path d="M375.467,512H51.2c-4.71,0-8.533-3.823-8.533-8.533v-128c0.017-67.337,39.62-128.375,101.12-155.819  c2.765-1.323,6.016-1.058,8.533,0.683c37.163,24.644,85.461,24.644,122.624,0c2.517-1.741,5.769-2.005,8.533-0.683  c28.749,12.774,53.385,33.28,71.168,59.221c2.654,3.891,1.655,9.199-2.236,11.861c-0.896,0.614-1.903,1.05-2.97,1.28  c-46.089,9.83-75.486,55.159-65.655,101.257c8.371,39.27,42.991,67.388,83.149,67.533c2.645,0,5.205,0,7.765,0  c2.381-0.196,4.727,0.606,6.485,2.219c1.758,1.63,2.748,3.917,2.731,6.315v34.133C383.915,508.143,380.143,511.957,375.467,512z   M59.733,494.933h307.2v-17.067c-56.55-0.051-102.357-45.935-102.315-102.485c0.034-43.324,27.341-81.946,68.181-96.427  c-14.268-17.647-32.282-31.898-52.736-41.728c-40.969,25.028-92.493,25.028-133.461,0c-53.077,25.6-86.827,79.309-86.869,138.24  V494.933z"/>
<path d="M366.933,477.867c-56.55,0-102.4-45.85-102.4-102.4s45.85-102.4,102.4-102.4s102.4,45.85,102.4,102.4  S423.484,477.867,366.933,477.867z M366.933,290.133c-47.13,0-85.333,38.204-85.333,85.333s38.204,85.333,85.333,85.333  s85.333-38.204,85.333-85.333S414.063,290.133,366.933,290.133z"/>
<path d="M391.083,432.128c-2.27,0.017-4.446-0.879-6.059-2.475l-18.091-18.005l-18.091,18.091c-3.328,3.311-8.704,3.311-12.032,0  l-24.149-24.064c-3.345-3.319-3.371-8.721-0.051-12.066c0.017-0.017,0.034-0.034,0.051-0.051l18.091-18.091l-18.091-18.091  c-3.311-3.328-3.311-8.704,0-12.032l24.149-24.149c3.328-3.311,8.704-3.311,12.032,0l18.091,18.005l18.091-18.091  c3.328-3.311,8.704-3.311,12.032,0l24.149,24.149c3.311,3.328,3.311,8.704,0,12.032l-18.091,18.176l18.091,18.091  c3.345,3.319,3.371,8.721,0.051,12.066c-0.017,0.017-0.034,0.034-0.051,0.051l-24.149,24.064  C395.452,431.283,393.31,432.145,391.083,432.128z M366.933,390.997c2.27-0.017,4.446,0.879,6.059,2.475l18.091,18.091  l12.032-12.032l-18.091-18.091c-3.311-3.328-3.311-8.704,0-12.032l18.091-18.091L390.997,339.2l-18.091,18.091  c-3.328,3.311-8.704,3.311-12.032,0L342.784,339.2l-12.117,12.117l18.091,18.091c3.311,3.328,3.311,8.704,0,12.032l-18.091,18.091  l12.032,12.032l18.091-18.091C362.419,391.851,364.638,390.963,366.933,390.997z"/>
<g>
</g>
<g>
</g>
<g>
</g>
<g>
</g>
<g>
</g>
<g>
</g>
<g>
</g>
<g>
</g>
<g>
</g>
<g>
</g>
<g>
</g>
<g>
</g>
<g>
</g>
<g>
</g>
<g>
</g>
</svg>
