<?xml version="1.0" encoding="iso-8859-1"?>
<!-- Generator: Adobe Illustrator 19.0.0, SVG Export Plug-In . SVG Version: 6.00 Build 0)  -->
<svg xmlns="http://www.w3.org/2000/svg" xmlns:xlink="http://www.w3.org/1999/xlink" version="1.1" id="Layer_1" x="0px" y="0px" viewBox="0 0 512 512" style="enable-background:new 0 0 512 512;" xml:space="preserve">
<path style="fill:#A8A5A4;" d="M332.74,128c0,65.98-53.487,119.467-119.467,119.467c-5.717,0.009-11.418-0.418-17.067-1.28  c-17.536-2.441-34.278-8.832-48.981-18.688C92.22,191.07,77.158,116.941,113.587,61.926c18.816-28.416,48.879-47.445,82.62-52.284  c5.658-0.759,11.358-1.135,17.067-1.109C279.253,8.533,332.74,62.02,332.74,128z"/>
<path style="fill:#BDBDBD;" d="M298.607,128c-0.017,40.021-20.07,77.372-53.419,99.499c-14.711,9.83-31.454,16.188-48.981,18.603  c-17.536-2.441-34.278-8.832-48.981-18.688c-54.972-36.489-69.948-110.635-33.459-165.606c18.807-28.331,48.794-47.3,82.441-52.164  C255.027,18.133,298.666,68.565,298.607,128z"/>
<path style="fill:#555656;" d="M375.407,468.821v34.133H51.14V375.467c0.043-57.882,30.942-111.351,81.067-140.288  c4.873-2.816,9.882-5.376,15.019-7.68c15.343,10.249,32.879,16.742,51.2,18.944c4.924,0.674,9.882,1.015,14.848,1.024  c17.493,0.034,34.773-3.814,50.603-11.264c5.333-2.492,10.496-5.342,15.445-8.533c27.281,12.16,50.662,31.625,67.584,56.235  c-50.569,11.409-82.313,61.653-70.903,112.222c9.6,42.556,47.249,72.883,90.871,73.207  C369.775,469.333,372.591,469.333,375.407,468.821z"/>
<path style="fill:#717272;" d="M341.273,468.821v34.133H51.14V375.467c0.043-57.882,30.942-111.351,81.067-140.288  c15.846,8.115,33.399,12.322,51.2,12.288c4.907,0.009,9.813-0.341,14.677-1.024c5.035,0.683,10.112,1.033,15.189,1.024  c17.493,0.034,34.773-3.814,50.603-11.264c19.84,12.006,36.796,28.237,49.664,47.531c-50.662,10.982-82.833,60.962-71.851,111.625  c9.301,42.923,47.13,73.66,91.051,73.975C335.812,469.333,338.543,469.333,341.273,468.821z"/>
<path style="fill:#388E3C;" d="M401.007,287.915c-10.889-4.198-22.46-6.34-34.133-6.315c-4.284,0.026-8.559,0.307-12.8,0.853  c-2.449,0.341-4.838,0.768-7.168,1.28c-35.908,7.808-63.957,35.857-71.765,71.765c-1.408,6.562-2.125,13.252-2.133,19.968  c0,51.84,42.027,93.867,93.867,93.867c2.901,0,5.717,0,8.533,0c8.781-0.742,17.399-2.756,25.6-5.973  c48.307-18.816,72.218-73.225,53.402-121.532c-9.54-24.491-28.911-43.861-53.402-53.402V287.915z M349.807,426.667v-34.133h-34.133  V358.4h34.133v-34.133h34.133V358.4h34.133v34.133H383.94v34.133H349.807z"/>
<path style="fill:#4CAF50;" d="M375.407,287.915c-6.869-2.688-14.029-4.548-21.333-5.547c-2.449,0.341-4.838,0.768-7.168,1.28  c-35.908,7.808-63.957,35.857-71.765,71.765c-1.417,6.588-2.125,13.312-2.133,20.053c0.017,46.788,34.475,86.417,80.811,92.928  c7.398-0.956,14.643-2.825,21.589-5.547c29.295-11.435,50.918-36.77,57.6-67.499c1.399-6.537,2.108-13.201,2.133-19.883  C435.183,336.76,411.46,301.995,375.407,287.915z M358.34,392.533v34.133h-34.133v-34.133h-34.133V358.4h34.133v-34.133h34.133  V358.4h34.133v34.133H358.34z"/>
<polygon style="fill:#F4F4F4;" points="418.073,358.315 418.073,392.448 383.94,392.448 383.94,426.581 349.807,426.581   349.807,392.448 315.673,392.448 315.673,358.315 349.807,358.315 349.807,324.181 383.94,324.181 383.94,358.315 "/>
<polygon style="fill:#FFFFFF;" points="401.007,358.315 401.007,392.448 366.873,392.448 366.873,426.581 349.807,426.581   349.807,392.448 315.673,392.448 315.673,358.315 349.807,358.315 349.807,324.181 366.873,324.181 366.873,358.315 "/>
<path d="M213.273,256c-70.69,0.077-128.06-57.165-128.145-127.855C85.052,57.446,142.293,0.077,212.992,0  s128.06,57.165,128.145,127.855c0.051,42.897-21.393,82.97-57.114,106.726C263.074,248.568,238.455,256.017,213.273,256z   M213.273,17.067C152.004,17.067,102.34,66.731,102.34,128s49.664,110.933,110.933,110.933S324.207,189.269,324.207,128  S274.534,17.067,213.273,17.067z"/>
<path d="M375.407,512H51.14c-4.71,0-8.533-3.823-8.533-8.533v-128c0.017-67.337,39.62-128.375,101.12-155.819  c2.765-1.323,6.016-1.058,8.533,0.683c37.163,24.644,85.461,24.644,122.624,0c2.517-1.741,5.769-2.005,8.533-0.683  c28.749,12.774,53.385,33.28,71.168,59.221c2.654,3.891,1.655,9.199-2.236,11.861c-0.896,0.614-1.903,1.05-2.97,1.28  c-46.089,9.83-75.486,55.159-65.655,101.257c8.371,39.27,42.999,67.388,83.149,67.533c2.645,0,5.205,0,7.765,0  c2.381-0.196,4.727,0.606,6.485,2.219c1.758,1.63,2.748,3.917,2.731,6.315v34.133C383.855,508.143,380.083,511.957,375.407,512z   M59.673,494.933h307.2v-17.067c-56.55-0.051-102.357-45.935-102.315-102.485c0.034-43.324,27.341-81.946,68.181-96.427  c-14.268-17.647-32.282-31.898-52.736-41.728c-40.969,25.028-92.493,25.028-133.461,0c-53.077,25.6-86.827,79.309-86.869,138.24  V494.933z"/>
<path d="M366.797,477.867c-47.846,0-89.924-33.929-100.07-80.691c-11.964-55.177,23.185-109.807,78.37-121.779  c7.228-1.553,14.524-2.406,21.99-2.321c12.681,0,25.131,2.313,36.983,6.895c0.956,0.367,1.818,0.887,2.56,1.545  c25.446,10.709,45.679,31.437,55.723,57.225c9.933,25.489,9.335,53.316-1.664,78.362c-10.999,25.045-31.104,44.297-56.585,54.221  c-8.969,3.516-18.389,5.717-27.981,6.528l-9.25,0.017C366.848,477.867,366.822,477.867,366.797,477.867z M367.078,290.133  c-6.306,0.119-12.348,0.64-18.381,1.946c-22.255,4.83-41.318,18.048-53.658,37.214c-12.331,19.166-16.461,41.993-11.622,64.265  c8.448,38.972,43.52,67.243,83.388,67.243c0.017,0,0.043,0,0.06,0h8.542c7.228-0.64,15.036-2.466,22.485-5.385  c21.257-8.286,38.007-24.337,47.172-45.201c9.165-20.864,9.668-44.058,1.391-65.289c-8.653-22.212-26.342-39.902-48.546-48.546  c-0.862-0.333-1.638-0.802-2.33-1.365C386.398,291.772,376.832,290.133,367.078,290.133z M383.94,435.2h-34.133  c-4.719,0-8.533-3.814-8.533-8.533v-25.6h-25.6c-4.719,0-8.533-3.814-8.533-8.533V358.4c0-4.719,3.814-8.533,8.533-8.533h25.6v-25.6  c0-4.719,3.814-8.533,8.533-8.533h34.133c4.719,0,8.533,3.814,8.533,8.533v25.6h25.6c4.719,0,8.533,3.814,8.533,8.533v34.133  c0,4.719-3.814,8.533-8.533,8.533h-25.6v25.6C392.473,431.386,388.659,435.2,383.94,435.2z M358.34,418.133h17.067v-25.6  c0-4.719,3.814-8.533,8.533-8.533h25.6v-17.067h-25.6c-4.719,0-8.533-3.814-8.533-8.533v-25.6H358.34v25.6  c0,4.719-3.814,8.533-8.533,8.533h-25.6V384h25.6c4.719,0,8.533,3.814,8.533,8.533V418.133z"/>
<path d="M383.94,435.2h-34.133c-4.71,0-8.533-3.823-8.533-8.533v-25.6h-25.6c-4.71,0-8.533-3.823-8.533-8.533V358.4  c0-4.71,3.823-8.533,8.533-8.533h25.6v-25.6c0-4.71,3.823-8.533,8.533-8.533h34.133c4.71,0,8.533,3.823,8.533,8.533v25.6h25.6  c4.71,0,8.533,3.823,8.533,8.533v34.133c0,4.71-3.823,8.533-8.533,8.533h-25.6v25.6C392.473,431.377,388.65,435.2,383.94,435.2z   M358.34,418.133h17.067v-25.6c0-4.71,3.823-8.533,8.533-8.533h25.6v-17.067h-25.6c-4.71,0-8.533-3.823-8.533-8.533v-25.6H358.34  v25.6c0,4.71-3.823,8.533-8.533,8.533h-25.6V384h25.6c4.71,0,8.533,3.823,8.533,8.533V418.133z"/>
<g>
</g>
<g>
</g>
<g>
</g>
<g>
</g>
<g>
</g>
<g>
</g>
<g>
</g>
<g>
</g>
<g>
</g>
<g>
</g>
<g>
</g>
<g>
</g>
<g>
</g>
<g>
</g>
<g>
</g>
</svg>
