<?xml version="1.0" encoding="iso-8859-1"?>
<!-- Generator: Adobe Illustrator 19.0.0, SVG Export Plug-In . SVG Version: 6.00 Build 0)  -->
<svg xmlns="http://www.w3.org/2000/svg" xmlns:xlink="http://www.w3.org/1999/xlink" version="1.1" id="Layer_1" x="0px" y="0px" viewBox="0 0 512 512" style="enable-background:new 0 0 512 512;" xml:space="preserve">
<rect x="3.905" y="387.96" transform="matrix(0.7071 -0.7071 0.7071 0.7071 -268.0098 189.2167)" style="fill:#AD1457;" width="180.99" height="60.33"/>
<rect x="0.217" y="396.954" transform="matrix(0.7071 -0.7071 0.7071 0.7071 -271.7031 180.1979)" style="fill:#D81B60;" width="162.9" height="42.24"/>
<path style="fill:#555656;" d="M262.769,275.371l-14.677,14.763l-76.8,76.8l-25.6-25.6l76.8-76.8l14.677-14.763l3.157,3.84  c1.195,1.536,2.56,3.072,3.925,4.523c1.562,1.818,3.217,3.558,4.949,5.205c1.707,1.707,3.413,3.413,5.205,4.949  c1.792,1.536,3.157,2.816,4.779,4.181L262.769,275.371z"/>
<path style="fill:#717272;" d="M248.091,290.133l-76.8,76.8l-25.6-25.6l76.8-76.8l3.157,3.84c1.195,1.536,2.56,3.072,3.925,4.523  c1.562,1.818,3.217,3.558,4.949,5.205c1.707,1.707,3.413,3.413,5.205,4.949c1.792,1.536,3.157,2.816,4.779,4.181L248.091,290.133z"/>
<path style="fill:#F4F4F4;" d="M501.702,157.781c0,82.492-66.842,149.367-149.333,149.419c-7.142-0.009-14.276-0.555-21.333-1.621  c-27.068-3.857-52.557-15.104-73.643-32.512c-7.373-6.11-14.14-12.911-20.224-20.309c-52.454-63.642-43.383-157.764,20.258-210.219  c21.094-17.382,46.549-28.646,73.609-32.555c7.066-1.007,14.199-1.493,21.333-1.451C434.792,8.585,501.608,75.358,501.702,157.781z"/>
<path style="fill:#FFFFFF;" d="M459.035,157.781c-0.077,74.206-54.571,137.122-128,147.797  c-27.068-3.857-52.557-15.104-73.643-32.512c-7.373-6.11-14.14-12.911-20.224-20.309c-52.454-63.642-43.383-157.764,20.258-210.219  c21.094-17.382,46.549-28.646,73.609-32.555C404.507,20.591,459.035,83.55,459.035,157.781z"/>
<path style="fill:#B71C1C;" d="M279.835,136.533V179.2h145.067v-42.667H279.835z"/>
<path style="fill:#D50000;" d="M279.835,136.533V179.2h119.467v-42.667H279.835z"/>
<path d="M352.369,315.733c-87.185,0-157.867-70.682-157.867-157.867S265.184,0,352.369,0c87.151,0,157.815,70.63,157.867,157.781  C510.099,244.924,439.511,315.546,352.369,315.733z M352.369,17.067c-77.687,0.094-140.655,63.027-140.8,140.715  c-0.171,32.751,11.221,64.512,32.171,89.685c5.726,6.903,12.1,13.244,19.029,18.944c25.139,20.958,56.866,32.384,89.6,32.256  c77.764,0,140.8-63.036,140.8-140.8S430.133,17.067,352.369,17.067z"/>
<path d="M49.435,512c-4.71,0.026-8.559-3.772-8.585-8.482c-0.017-2.295,0.896-4.497,2.526-6.11l128-128  c3.575-3.063,8.969-2.645,12.032,0.93c2.739,3.191,2.739,7.91,0,11.102l-128,128C53.838,511.044,51.688,511.966,49.435,512z"/>
<path d="M49.435,508.331c-4.523,0.051-8.883-1.698-12.117-4.864L6.769,472.832c-6.665-6.665-6.673-17.468-0.017-24.132  c0.009-0.009,0.009-0.009,0.017-0.017L122.651,332.8c6.758-6.451,17.391-6.451,24.149,0l30.635,30.464  c6.665,6.665,6.673,17.468,0.017,24.132c-0.009,0.009-0.009,0.009-0.017,0.017L61.553,503.467  C58.318,506.633,53.958,508.382,49.435,508.331z M134.769,344.832L18.886,460.8l30.549,30.464l115.883-115.797L134.769,344.832z"/>
<path d="M168.902,378.88l-37.632-37.547l92.672-92.757l15.957-5.888l3.84,4.693c5.726,6.929,12.1,13.303,19.029,19.029l4.693,3.84  l-5.888,15.957L168.902,378.88z M155.334,341.333l13.568,13.483l77.995-77.995l0.427-1.195c-4.506-4.019-8.781-8.294-12.8-12.8  l-1.195,0.427L155.334,341.333z"/>
<path d="M424.91,187.733H279.844c-4.719,0-8.533-3.823-8.533-8.533v-42.667c0-4.71,3.814-8.533,8.533-8.533H424.91  c4.719,0,8.533,3.823,8.533,8.533V179.2C433.444,183.91,429.621,187.733,424.91,187.733z M288.377,170.667h128v-25.6h-128V170.667z"/>
<g>
</g>
<g>
</g>
<g>
</g>
<g>
</g>
<g>
</g>
<g>
</g>
<g>
</g>
<g>
</g>
<g>
</g>
<g>
</g>
<g>
</g>
<g>
</g>
<g>
</g>
<g>
</g>
<g>
</g>
</svg>
