<?xml version="1.0" encoding="iso-8859-1"?>
<!-- Generator: Adobe Illustrator 19.0.0, SVG Export Plug-In . SVG Version: 6.00 Build 0)  -->
<svg xmlns="http://www.w3.org/2000/svg" xmlns:xlink="http://www.w3.org/1999/xlink" version="1.1" id="Layer_1" x="0px" y="0px" viewBox="0 0 511.995 511.995" style="enable-background:new 0 0 511.995 511.995;" xml:space="preserve">
<rect x="-0.252" y="390.65" transform="matrix(0.7071 -0.7071 0.7071 0.7071 -271.0935 187.5698)" style="fill:#AD1457;" width="182.245" height="60.748"/>
<rect x="-3.985" y="399.85" transform="matrix(0.7071 -0.7071 0.7071 0.7071 -274.9199 178.5171)" style="fill:#D81B60;" width="164.029" height="42.532"/>
<path style="fill:#555656;" d="M260.407,277.349l-14.779,14.865l-77.332,77.332l-25.777-25.777l77.332-77.332l14.779-14.779  l3.179,3.867c1.203,1.547,2.578,3.093,3.953,4.554c1.572,1.83,3.239,3.583,4.984,5.241c1.719,1.719,3.437,3.437,5.241,4.984  c1.804,1.547,3.179,2.836,4.812,4.21L260.407,277.349z"/>
<path style="fill:#717272;" d="M245.628,292.214l-77.332,77.332l-25.777-25.777l77.332-77.332l3.179,3.867  c1.203,1.547,2.578,3.093,3.953,4.554c1.572,1.83,3.239,3.583,4.984,5.241c1.719,1.719,3.437,3.437,5.241,4.984  c1.804,1.547,3.179,2.836,4.812,4.21L245.628,292.214z"/>
<path style="fill:#F4F4F4;" d="M503.402,158.945c0,83.063-67.305,150.403-150.368,150.454c-7.192-0.009-14.375-0.559-21.481-1.633  c-27.255-3.884-52.921-15.209-74.153-32.737c-7.424-6.152-14.238-13-20.364-20.45c-52.818-64.083-43.684-158.858,20.399-211.676  c21.241-17.503,46.872-28.845,74.119-32.78c7.115-1.014,14.298-1.504,21.481-1.461C436.02,8.714,503.308,75.95,503.402,158.945z"/>
<path style="fill:#FFFFFF;" d="M460.44,158.945c-0.077,74.72-54.949,138.073-128.887,148.822  c-27.255-3.884-52.921-15.209-74.153-32.737c-7.424-6.152-14.238-13-20.364-20.45c-52.818-64.083-43.684-158.858,20.399-211.676  c21.241-17.503,46.872-28.845,74.119-32.78C405.525,20.803,460.431,84.199,460.44,158.945z"/>
<path style="fill:#388E3C;" d="M374.515,137.549V85.995h-42.962v51.555h-51.555v42.962h51.555v51.555h42.962v-51.555h51.555v-42.962  H374.515z"/>
<path style="fill:#4CAF50;" d="M357.33,137.549V85.995h-25.777v51.555h-51.555v42.962h51.555v51.555h25.777v-51.555h51.555v-42.962  H357.33z"/>
<path d="M353.034,317.991c-87.789,0-158.961-71.171-158.961-158.961S265.244,0.07,353.034,0.07  c87.755,0,158.909,71.12,158.961,158.875C511.849,246.691,440.78,317.802,353.034,317.991z M353.034,17.255  c-78.226,0.095-141.63,63.464-141.776,141.69c-0.172,32.978,11.299,64.959,32.394,90.307c5.766,6.951,12.184,13.336,19.161,19.075  c25.313,21.103,57.26,32.608,90.221,32.48c78.303,0,141.776-63.473,141.776-141.776S431.328,17.255,353.034,17.255z"/>
<path d="M48.001,511.924c-4.554,0.052-8.945-1.71-12.201-4.898L5.038,476.179c-6.711-6.711-6.719-17.589-0.017-24.3  c0.009-0.009,0.009-0.009,0.017-0.017l116.686-116.686c6.805-6.496,17.511-6.496,24.317,0l30.847,30.675  c6.711,6.711,6.719,17.589,0.017,24.3c-0.009,0.009-0.009,0.009-0.017,0.017L60.202,507.026  C56.946,510.214,52.555,511.975,48.001,511.924z M133.926,347.292L17.24,464.064l30.761,30.675l116.686-116.6L133.926,347.292z"/>
<path d="M168.296,381.576l-37.893-37.807l93.314-93.4l16.068-5.929l3.867,4.726c5.766,6.977,12.184,13.396,19.161,19.161  l4.726,3.867l-5.929,16.068L168.296,381.576z M154.633,343.769l13.662,13.576l78.535-78.535l0.43-1.203  c-4.537-4.047-8.842-8.352-12.889-12.889l-1.203,0.43L154.633,343.769z"/>
<path d="M374.515,240.659h-42.962c-4.752,0-8.592-3.849-8.592-8.592v-42.962h-42.962c-4.752,0-8.592-3.849-8.592-8.592v-42.962  c0-4.743,3.841-8.592,8.592-8.592h42.962V85.995c0-4.743,3.841-8.592,8.592-8.592h42.962c4.752,0,8.592,3.849,8.592,8.592v42.962  h42.962c4.752,0,8.592,3.849,8.592,8.592v42.962c0,4.743-3.841,8.592-8.592,8.592h-42.962v42.962  C383.107,236.81,379.267,240.659,374.515,240.659z M340.145,223.474h25.777v-42.962c0-4.743,3.841-8.592,8.592-8.592h42.962v-25.777  h-42.962c-4.752,0-8.592-3.849-8.592-8.592V94.587h-25.777v42.962c0,4.743-3.841,8.592-8.592,8.592H288.59v25.777h42.962  c4.752,0,8.592,3.849,8.592,8.592V223.474z"/>
<g>
</g>
<g>
</g>
<g>
</g>
<g>
</g>
<g>
</g>
<g>
</g>
<g>
</g>
<g>
</g>
<g>
</g>
<g>
</g>
<g>
</g>
<g>
</g>
<g>
</g>
<g>
</g>
<g>
</g>
</svg>
