<?xml version="1.0" encoding="iso-8859-1"?>
<!-- Generator: Adobe Illustrator 19.0.0, SVG Export Plug-In . SVG Version: 6.00 Build 0)  -->
<svg xmlns="http://www.w3.org/2000/svg" xmlns:xlink="http://www.w3.org/1999/xlink" version="1.1" id="Layer_1" x="0px" y="0px" viewBox="0 0 512.004 512.004" style="enable-background:new 0 0 512.004 512.004;" xml:space="preserve">
<path style="fill:#F4F4F4;" d="M503.846,158.803c0,83.096-67.331,150.461-150.426,150.512c-2.862,0-5.733,0-8.596,0  c-2.235,0-4.384,0-6.619-0.516c-2.235-0.516-4.298,0-6.361-0.774l-3.868-0.602l-4.642-1.289c-1.797-0.309-3.576-0.713-5.329-1.203  l-4.9-1.289c-3.997-1.031-7.925-2.286-11.776-3.782l-6.275-2.493c-2.235-0.946-4.47-1.891-6.619-3.009  c-2.149-1.117-2.923-1.375-4.298-2.149s-2.751-1.375-4.04-2.149c-3.524-1.977-6.877-4.04-10.229-6.275  c-3.352-2.235-6.103-4.212-8.596-6.533l-3.61-2.923c-1.633-1.375-3.266-2.751-4.814-4.212l-5.243-4.986  c-1.719-1.719-3.352-3.438-4.986-5.243c-1.633-1.805-2.665-3.009-3.954-4.556l-3.18-3.868c-4.384-5.415-8.355-11.166-11.862-17.192  c-1.375-2.347-2.665-4.753-3.868-7.22c-4.599-8.897-8.226-18.266-10.831-27.936c-0.438-1.324-0.782-2.673-1.031-4.04  c-0.464-1.642-0.834-3.301-1.117-4.986c-0.404-1.616-0.722-3.249-0.946-4.9c0-1.633-0.602-3.266-0.86-4.986c0,0,0-0.516,0-0.774  c0-2.063-0.516-4.126-0.688-6.275c-0.172-2.149,0-4.642-0.516-6.963c-0.516-2.321,0-4.642,0-7.049s0-4.728,0-7.049  c0-2.321,0-4.642,0.516-6.963c0.516-2.321,0-4.212,0.688-6.275c0,0,0-0.516,0-0.774c0-1.719,0.516-3.352,0.86-4.986  c0.223-1.65,0.542-3.284,0.946-4.9c0.284-1.685,0.653-3.344,1.117-4.986c0.249-1.367,0.593-2.716,1.031-4.04  c2.605-9.67,6.232-19.04,10.831-27.936c1.203-2.467,2.493-4.874,3.868-7.22c4.349-7.581,9.387-14.742,15.043-21.404  c1.289-1.547,2.579-3.094,3.954-4.556c1.375-1.461,3.266-3.524,4.986-5.243l5.243-4.986c1.547-1.461,3.18-2.837,4.814-4.212  c3.997-3.387,8.192-6.55,12.55-9.455c3.352-2.235,6.705-4.298,10.229-6.275l1.117-0.602c0.756-0.602,1.564-1.152,2.407-1.633  l4.298-2.149c2.149-1.117,4.384-2.063,6.619-3.009l6.275-2.493l1.805-0.946l4.642-1.547c1.745-0.602,3.524-1.126,5.329-1.547  c1.659-0.516,3.292-0.946,4.9-1.289c1.814-0.499,3.645-0.903,5.501-1.203l4.9-0.946l3.696-0.602c2.063,0,4.212-0.602,6.361-0.774  c2.149-0.172,4.384,0,6.619-0.516h8.596C436.429,8.728,503.648,75.879,503.846,158.803z"/>
<path style="fill:#FFFFFF;" d="M460.867,158.803c0,74.775-54.927,138.195-128.937,148.879l-3.868-0.602l-4.728-0.946  c-1.797-0.309-3.576-0.713-5.329-1.203l-4.9-1.289c-3.997-1.031-7.925-2.286-11.776-3.782l-6.275-2.493  c-2.235-0.946-4.47-1.891-6.619-3.009c-2.149-1.117-2.923-1.375-4.298-2.149s-2.751-1.375-4.04-2.149  c-3.524-1.977-6.877-4.04-10.229-6.275c-3.352-2.235-6.103-4.212-8.596-6.533l-3.61-2.923c-1.633-1.375-3.266-2.751-4.814-4.212  l-5.243-4.986c-1.719-1.719-3.352-3.438-4.986-5.243c-1.633-1.805-2.665-3.009-3.954-4.556l-3.18-3.868  c-4.384-5.415-8.355-11.166-11.862-17.192c-1.375-2.347-2.665-4.753-3.868-7.22c-4.599-8.897-8.226-18.266-10.831-27.936  c-0.438-1.324-0.782-2.673-1.032-4.04c-0.464-1.642-0.834-3.301-1.117-4.986c-0.404-1.616-0.722-3.249-0.946-4.9  c0-1.633-0.602-3.266-0.86-4.986c0,0,0-0.516,0-0.774c0-2.063-0.516-4.126-0.688-6.275c-0.172-2.149,0-4.642-0.516-6.963  c-0.516-2.321,0-4.642,0-7.049s0-4.728,0-7.049c0-2.321,0-4.642,0.516-6.963c0.516-2.321,0-4.212,0.688-6.275c0,0,0-0.516,0-0.774  c0-1.719,0.516-3.352,0.86-4.986c0.223-1.65,0.542-3.284,0.946-4.9c0.284-1.685,0.653-3.344,1.117-4.986  c0.249-1.367,0.593-2.716,1.032-4.04c2.605-9.67,6.232-19.04,10.831-27.936c1.203-2.467,2.493-4.874,3.868-7.22  c4.349-7.581,9.387-14.742,15.043-21.404c1.289-1.547,2.579-3.094,3.954-4.556c1.375-1.461,3.266-3.524,4.986-5.243l5.243-4.986  c1.547-1.461,3.18-2.837,4.814-4.212c3.997-3.387,8.192-6.55,12.55-9.455c3.352-2.235,6.705-4.298,10.229-6.275l1.117-0.602  c0.756-0.602,1.564-1.152,2.407-1.633l4.298-2.149c2.149-1.117,4.384-2.063,6.619-3.009l6.275-2.493l1.805-0.946l4.642-1.547  c1.745-0.602,3.524-1.126,5.329-1.547c1.659-0.516,3.292-0.946,4.9-1.289c1.814-0.499,3.645-0.903,5.501-1.203l4.9-0.946  l3.696-0.602C405.931,20.608,460.859,84.028,460.867,158.803z"/>
<path d="M353.42,317.911c-3.009,0-6.017,0-8.596,0s-4.642,0-7.049-0.516c-2.407-0.516-4.556-0.43-6.791-0.86l-4.126-0.602  l-4.986-0.946c-2.029-0.352-4.04-0.817-6.017-1.375c-1.711-0.361-3.404-0.825-5.072-1.375c-4.169-1.074-8.278-2.398-12.292-3.954  l-6.447-2.579c-2.493-1.031-4.9-2.063-7.306-3.352c-2.407-1.289-3.009-1.375-4.556-2.321c-1.547-0.946-2.751-1.375-4.298-2.235  c-3.524-1.977-7.049-4.126-10.573-6.447c-3.524-2.321-6.877-4.814-9.627-7.049l-3.782-3.009c-1.977-1.719-3.61-3.009-5.157-4.47  l-5.415-5.157c-1.805-1.805-3.524-3.696-5.329-5.587c-1.805-1.891-2.751-3.094-4.126-4.814l-3.352-4.04  c-4.685-5.88-8.914-12.12-12.636-18.653c-1.461-2.407-2.837-4.986-4.126-7.736c-4.839-9.369-8.673-19.22-11.432-29.398  c-0.507-1.547-0.911-3.129-1.203-4.728c-0.456-1.582-0.834-3.189-1.117-4.814c0-1.633-0.688-3.352-0.946-4.986  c-0.258-1.633-0.602-3.524-0.946-5.329v-1.203c0-2.149-0.516-4.212-0.688-6.447s-0.43-4.728-0.516-7.306c-0.086-2.579,0-4.9,0-7.392  s0-4.9,0-7.306s0-5.072,0.602-7.65c0.602-2.579,0-3.868,0.602-5.845v-1.547c0-1.891,0.602-3.61,0.946-5.415  c0.344-1.805,0.516-3.352,0.946-4.986c0.43-1.633,0.774-3.61,1.203-5.415c0.292-1.547,0.696-3.069,1.203-4.556  c2.656-10.229,6.404-20.14,11.175-29.57c1.203-2.493,2.579-5.157,4.126-7.65c4.607-8.003,9.928-15.567,15.902-22.607  c1.461-1.719,2.837-3.352,4.212-4.814c1.375-1.461,3.352-3.61,5.157-5.415c1.805-1.805,3.61-3.524,5.587-5.329  c1.977-1.805,3.094-2.837,4.814-4.212c4.298-3.67,8.802-7.083,13.495-10.229c3.524-2.321,7.049-4.556,10.745-6.619l0.946-0.516  c1.212-0.722,2.476-1.358,3.782-1.891l4.384-2.149c2.063-1.117,4.47-2.149,6.963-3.18l5.845-2.579l1.547-0.602l5.415-1.805  c1.805-0.688,3.954-1.203,6.017-1.719c2.063-0.516,3.266-0.946,5.157-1.375c1.814-0.499,3.645-0.903,5.501-1.203l5.157-1.031  l3.696-0.602c2.321,0,4.728-0.688,7.135-0.86c2.407-0.172,4.47-0.43,6.963-0.516s5.845,0,8.596,0  c87.823,0,159.022,71.199,159.022,159.022s-71.199,159.022-159.022,159.022L353.42,317.911z M213.05,178.917  c0,1.461,0.43,2.837,0.688,4.212c0.181,1.444,0.438,2.88,0.774,4.298v1.032c0,1.375,0.602,2.751,0.946,4.04  c0.223,1.186,0.507,2.364,0.86,3.524c2.476,9.249,5.94,18.214,10.315,26.733c1.203,2.493,2.407,4.642,3.61,6.791  c3.292,5.811,7.031,11.355,11.175,16.59l2.923,3.61c1.289,1.547,2.493,3.009,3.696,4.298l4.814,5.072l4.986,4.728  c1.461,1.375,2.837,2.493,4.212,3.696l3.782,3.094c2.751,2.235,5.587,4.212,8.596,6.189c3.009,1.977,6.361,4.04,9.627,5.931  c1.289,0.774,2.493,1.375,3.696,1.977l4.126,2.063c2.235,1.117,4.298,1.977,6.275,2.837l5.845,2.321  c3.593,1.392,7.272,2.57,11.003,3.524l4.556,1.203c1.693,0.49,3.421,0.894,5.157,1.203l4.642,0.946l3.61,0.602l5.931,0.688  l6.189,0.516h8.596c78.333,0,141.831-63.497,141.831-141.831S432.011,16.972,353.678,16.972h-7.994l-6.103,0.516l-5.931,0.688  l-3.61,0.516l-4.814,0.946c-1.564,0.258-3.112,0.602-4.642,1.031l-4.814,1.289c-2.063,0.516-3.61,0.946-5.072,1.461l-4.814,1.633  l-4.04-7.65l3.18,7.994l-6.533,2.665c-2.063,0.86-4.04,1.719-6.017,2.751l-4.04,1.977l-0.946,0.43l-1.633,0.86l-1.977,1.031  c-2.923,1.633-6.103,3.61-9.283,5.759c-4.083,2.639-8.011,5.51-11.776,8.596c-1.633,1.375-3.095,2.579-4.47,3.868  c-1.375,1.289-3.438,3.18-5.072,4.814l-4.728,4.9c-1.289,1.375-2.407,2.751-3.524,4.04c-5.407,6.361-10.212,13.212-14.355,20.458  c-1.289,2.235-2.493,4.384-3.61,6.705c-4.341,8.441-7.762,17.312-10.229,26.475c-0.352,1.1-0.645,2.218-0.86,3.352  c-0.516,1.891-0.86,3.266-1.032,4.642v1.031c-0.292,1.221-0.524,2.45-0.688,3.696c0,1.891-0.602,3.266-0.774,4.556v1.203  c0,1.891-0.516,3.868-0.688,5.845c-0.172,1.977,0,4.556-0.516,6.619s0,4.384,0,6.705c0,2.321,0,4.556,0,6.705  c0,2.149,0,4.212,0.516,6.361c0.516,2.149,0,4.212,0.688,6.103L213.05,178.917z"/>
<rect x="0.038" y="390.646" transform="matrix(0.7071 -0.7071 0.7071 0.7071 -271.0041 187.8021)" style="fill:#AD1457;" width="182.315" height="60.772"/>
<rect x="-3.673" y="399.814" transform="matrix(0.7071 -0.7071 0.7071 0.7071 -274.7992 178.7519)" style="fill:#D81B60;" width="164.092" height="42.549"/>
<path d="M48.269,512.004c-4.539,0-8.897-1.788-12.12-4.986L5.29,476.073c-6.713-6.713-6.722-17.596-0.017-24.309  c0.009-0.009,0.009-0.009,0.017-0.017l116.817-116.645c6.713-6.713,17.596-6.722,24.309-0.017c0.009,0.009,0.009,0.009,0.017,0.017  l30.773,30.773c6.713,6.713,6.722,17.596,0.017,24.309c-0.009,0.009-0.009,0.009-0.017,0.017L60.389,507.018  C57.166,510.216,52.807,512.012,48.269,512.004z M134.227,347.136L17.41,464.039l30.859,30.773l116.817-116.731L134.227,347.136z"/>
<path style="fill:#555656;" d="M260.757,277.253l-14.785,14.871l-77.362,77.362l-25.787-25.787l77.362-77.362l14.785-14.785  l3.18,3.868c1.203,1.547,2.579,3.094,3.954,4.556c1.573,1.831,3.241,3.584,4.986,5.243c1.719,1.719,3.438,3.438,5.243,4.986  c1.805,1.547,3.18,2.837,4.814,4.212L260.757,277.253z"/>
<path style="fill:#717272;" d="M245.972,292.123l-77.362,77.362l-25.787-25.787l77.362-77.362l3.18,3.868  c1.203,1.547,2.579,3.094,3.954,4.556c1.573,1.831,3.241,3.584,4.986,5.243c1.719,1.719,3.438,3.438,5.243,4.986  s3.18,2.837,4.814,4.212L245.972,292.123z"/>
<path d="M168.61,381.52l-37.907-37.822l104.955-105.127l6.017,7.478l2.923,3.61c1.375,1.719,2.493,3.009,3.696,4.298  c1.203,1.289,3.18,3.438,4.642,4.9c1.461,1.461,3.352,3.352,4.9,4.728c1.547,1.375,3.009,2.665,4.298,3.782l3.782,3.094l7.65,6.017  L168.61,381.52z M154.943,343.698l13.667,13.581l79.425-79.425l-1.633-1.461c-1.633-1.375-3.438-3.18-5.243-4.986  c-1.805-1.805-3.868-3.868-5.587-5.931l-1.203-1.289L154.943,343.698z"/>
<rect x="234.461" y="241.681" transform="matrix(0.7081 -0.7061 0.7061 0.7081 -107.782 239.8225)" width="3.438" height="17.191"/>
<rect x="260.287" y="267.486" transform="matrix(0.7081 -0.7061 0.7061 0.7081 -118.4649 265.5907)" width="3.438" height="17.191"/>
<path style="fill:#F4F4F4;" d="M245.972,154.591c-4.745,0-8.596-3.851-8.596-8.596c0-52.219,42.334-94.554,94.554-94.554  c4.745,0,8.596,3.851,8.596,8.596s-3.851,8.596-8.596,8.596c-42.73,0-77.362,34.632-77.362,77.362  C254.568,150.748,250.717,154.591,245.972,154.591z"/>
<g>
</g>
<g>
</g>
<g>
</g>
<g>
</g>
<g>
</g>
<g>
</g>
<g>
</g>
<g>
</g>
<g>
</g>
<g>
</g>
<g>
</g>
<g>
</g>
<g>
</g>
<g>
</g>
<g>
</g>
</svg>
