<?xml version="1.0" encoding="iso-8859-1"?>
<!-- Generator: Adobe Illustrator 19.0.0, SVG Export Plug-In . SVG Version: 6.00 Build 0)  -->
<svg xmlns="http://www.w3.org/2000/svg" xmlns:xlink="http://www.w3.org/1999/xlink" version="1.1" id="Layer_1" x="0px" y="0px" viewBox="0 0 512.001 512.001" style="enable-background:new 0 0 512.001 512.001;" xml:space="preserve">
<path style="fill:#388E3C;" d="M499.366,289.568c0,101.962-82.661,184.622-184.622,184.622v-50.352  c74.159,0,134.271-60.111,134.271-134.271s-60.111-134.271-134.271-134.271v67.135l-25.176-25.176l-67.135-67.135l67.135-67.135  l25.176-25.176l0,0v67.135C416.706,104.946,499.366,187.598,499.366,289.568z"/>
<path style="fill:#4CAF50;" d="M474.19,289.568c0.025,92.252-68.059,170.365-159.447,182.944v-48.673  c74.159,0,134.271-60.111,134.271-134.271s-60.111-134.271-134.271-134.271v2.434c-8.291-1.62-16.725-2.442-25.176-2.434v41.96  l-67.135-67.135l67.135-67.135v41.96C391.53,104.946,474.19,187.598,474.19,289.568z"/>
<path style="fill:#004D40;" d="M289.568,381.879l-0.839,0.839l-91.472,91.472l0,0v-67.135  C95.295,407.24,12.483,324.739,12.29,222.777C12.122,130.272,80.424,51.925,172.081,39.489c8.342-1.158,16.759-1.712,25.176-1.678  v50.352c-74.151,0.386-133.96,60.808-133.574,134.967c0.327,63.921,45.677,118.746,108.399,131.057  c8.291,1.653,16.725,2.492,25.176,2.518v-67.135L289.568,381.879z"/>
<path style="fill:#00796B;" d="M264.392,381.879l-0.839,0.839l-66.296,66.296v-41.96C95.295,407.24,12.483,324.739,12.29,222.777  C12.122,130.272,80.424,51.925,172.081,39.489v48.673c-74.159,0-134.271,60.111-134.271,134.271s60.111,134.271,134.271,134.271  v-2.518c8.291,1.653,16.725,2.492,25.176,2.518v-41.96L264.392,381.879z"/>
<path d="M314.744,482.582c-4.632,0-8.392-3.76-8.392-8.392v-50.352c0-4.632,3.76-8.392,8.392-8.392  c69.519,2.316,127.759-52.164,130.075-121.683c2.316-69.519-52.164-127.759-121.683-130.075v58.743  c0.025,4.632-3.709,8.417-8.342,8.442c-2.257,0.017-4.423-0.881-6.009-2.484l-92.311-92.311c-3.256-3.273-3.256-8.56,0-11.833  l92.311-92.311c2.392-2.476,6.051-3.239,9.231-1.93c3.13,1.326,5.153,4.406,5.119,7.804v58.744  c106.603,2.316,191.135,90.608,188.818,197.21C509.638,400.367,421.338,484.899,314.744,482.582z M323.136,432.231v33.568  c97.33-2.316,174.351-83.097,172.035-180.426c-2.316-97.33-83.097-174.351-180.426-172.035c-4.632,0-8.392-3.76-8.392-8.392V57.951  l-72.171,72.171l72.171,72.171v-46.995c0-4.632,3.76-8.392,8.392-8.392c78.792-2.316,144.543,59.675,146.859,138.467  C463.919,364.164,401.919,429.906,323.136,432.231z"/>
<path d="M197.257,482.582c-1.066,0-2.115-0.193-3.105-0.587c-3.197-1.276-5.287-4.364-5.287-7.804v-58.743  C82.262,413.131-2.27,324.839,0.046,218.237S90.654,27.102,197.257,29.418c4.632,0,8.392,3.76,8.392,8.392v50.352  c0,4.632-3.76,8.392-8.392,8.392c-69.519-2.316-127.759,52.164-130.075,121.683c-2.316,69.519,52.164,127.759,121.683,130.075  v-58.743c-0.025-4.632,3.709-8.417,8.342-8.442c2.257-0.017,4.423,0.881,6.009,2.484l92.311,92.311c3.256,3.273,3.256,8.56,0,11.833  l-92.311,92.311C201.637,481.659,199.497,482.566,197.257,482.582z M188.865,46.202C91.535,48.518,14.514,129.299,16.83,226.629  s83.097,174.351,180.426,172.035c4.632,0,8.392,3.76,8.392,8.392v46.995l72.171-72.171l-72.171-72.171v46.995  c0,4.632-3.76,8.392-8.392,8.392c-78.792,2.316-144.543-59.675-146.859-138.467C48.082,147.837,110.073,82.086,188.865,79.77  L188.865,46.202L188.865,46.202z"/>
<g>
</g>
<g>
</g>
<g>
</g>
<g>
</g>
<g>
</g>
<g>
</g>
<g>
</g>
<g>
</g>
<g>
</g>
<g>
</g>
<g>
</g>
<g>
</g>
<g>
</g>
<g>
</g>
<g>
</g>
</svg>
