<?xml version="1.0" encoding="iso-8859-1"?>
<!-- Generator: Adobe Illustrator 19.0.0, SVG Export Plug-In . SVG Version: 6.00 Build 0)  -->
<svg xmlns="http://www.w3.org/2000/svg" xmlns:xlink="http://www.w3.org/1999/xlink" version="1.1" id="Layer_1" x="0px" y="0px" viewBox="0 0 512 512" style="enable-background:new 0 0 512 512;" xml:space="preserve">
<path style="fill:#F4F4F4;" d="M503.467,106.667V448c0,18.85-15.283,34.133-34.133,34.133H42.667  c-18.85,0-34.133-15.283-34.133-34.133V106.667c0-18.85,15.283-34.133,34.133-34.133h17.067v34.133c0,14.14,11.46,25.6,25.6,25.6  s25.6-11.46,25.6-25.6V72.533h290.133v34.133c0,14.14,11.46,25.6,25.6,25.6s25.6-11.46,25.6-25.6V72.533h17.067  C488.184,72.533,503.467,87.817,503.467,106.667z"/>
<path style="fill:#FFFFFF;" d="M469.333,106.667V448c0,18.85-15.283,34.133-34.133,34.133H42.667  c-18.85,0-34.133-15.283-34.133-34.133V106.667C8.516,94.455,15.027,83.166,25.6,77.056v29.611c0,14.14,11.46,25.6,25.6,25.6  s25.6-11.46,25.6-25.6V72.533h290.133v34.133c0,14.14,11.46,25.6,25.6,25.6s25.6-11.46,25.6-25.6V72.533H435.2  C454.05,72.533,469.333,87.817,469.333,106.667z"/>
<path style="fill:#B71C1C;" d="M503.467,106.667v76.8H8.533v-76.8c-0.026-15.59,10.505-29.21,25.6-33.109  c2.782-0.734,5.658-1.075,8.533-1.024h17.067v34.133c0,14.14,11.46,25.6,25.6,25.6s25.6-11.46,25.6-25.6V72.533h290.133v34.133  c0,14.14,11.46,25.6,25.6,25.6s25.6-11.46,25.6-25.6V72.533h17.067C488.184,72.533,503.467,87.817,503.467,106.667z"/>
<path style="fill:#D50000;" d="M477.867,106.667v76.8H8.533v-76.8c-0.026-15.59,10.505-29.21,25.6-33.109v33.109  c0,14.14,11.46,25.6,25.6,25.6s25.6-11.46,25.6-25.6V72.533h290.133v34.133c0,14.14,11.46,25.6,25.6,25.6s25.6-11.46,25.6-25.6  V72.533h17.067c2.884-0.026,5.751,0.35,8.533,1.109C467.328,77.534,477.858,91.11,477.867,106.667z"/>
<path style="fill:#A8A5A4;" d="M110.933,55.467v51.2c0,14.14-11.46,25.6-25.6,25.6c-2.918,0.017-5.811-0.503-8.533-1.536  c-10.206-3.61-17.033-13.244-17.067-24.064v-51.2C59.725,44.612,66.569,34.935,76.8,31.317c2.731-1.007,5.623-1.493,8.533-1.451  C99.473,29.867,110.933,41.327,110.933,55.467z"/>
<path style="fill:#BDBDBD;" d="M93.867,55.467v51.2c-0.034,10.82-6.861,20.454-17.067,24.064  c-10.206-3.61-17.033-13.244-17.067-24.064v-51.2C59.725,44.612,66.569,34.935,76.8,31.317c3.61,1.212,6.886,3.26,9.557,5.973  C91.179,42.112,93.884,48.649,93.867,55.467z"/>
<path style="fill:#A8A5A4;" d="M452.267,55.467v51.2c0,14.14-11.46,25.6-25.6,25.6c-2.918,0.017-5.811-0.503-8.533-1.536  c-10.206-3.61-17.033-13.244-17.067-24.064v-51.2c0.034-10.82,6.861-20.454,17.067-24.064c2.722-1.033,5.615-1.553,8.533-1.536  C440.806,29.867,452.267,41.327,452.267,55.467z"/>
<path style="fill:#BDBDBD;" d="M435.2,55.467v51.2c-0.034,10.82-6.861,20.454-17.067,24.064  c-10.206-3.61-17.033-13.244-17.067-24.064v-51.2c0.034-10.82,6.861-20.454,17.067-24.064c3.61,1.212,6.886,3.26,9.557,5.973  C432.495,42.172,435.191,48.683,435.2,55.467z"/>
<polygon style="fill:#388E3C;" points="401.067,251.648 213.333,447.915 200.875,434.176 128,354.048 162.133,319.915   201.216,365.483 213.333,379.648 354.475,230.656 366.933,217.515 "/>
<polygon style="fill:#4CAF50;" points="375.467,251.648 200.875,434.176 128,354.048 148.309,333.739 187.733,379.648   201.216,365.483 213.333,379.648 354.475,230.656 "/>
<path d="M469.333,490.667H42.667C19.106,490.667,0,471.561,0,448V106.667C0,83.106,19.106,64,42.667,64h17.067  c4.71,0,8.533,3.823,8.533,8.533v34.133c0,9.429,7.637,17.067,17.067,17.067s17.067-7.637,17.067-17.067V72.533  c0-4.71,3.823-8.533,8.533-8.533h290.133c4.71,0,8.533,3.823,8.533,8.533v34.133c0,9.429,7.637,17.067,17.067,17.067  s17.067-7.637,17.067-17.067V72.533c0-4.71,3.823-8.533,8.533-8.533h17.067C492.894,64,512,83.106,512,106.667V448  C512,471.561,492.894,490.667,469.333,490.667z M42.667,81.067c-14.14,0-25.6,11.46-25.6,25.6V448c0,14.14,11.46,25.6,25.6,25.6  h426.667c14.14,0,25.6-11.46,25.6-25.6V106.667c0-14.14-11.46-25.6-25.6-25.6H460.8v25.6c0,18.85-15.283,34.133-34.133,34.133  s-34.133-15.283-34.133-34.133v-25.6H119.467v25.6c0,18.85-15.283,34.133-34.133,34.133S51.2,125.517,51.2,106.667v-25.6H42.667z"/>
<path d="M503.467,192H8.533C3.823,192,0,188.177,0,183.467s3.823-8.533,8.533-8.533h494.933c4.71,0,8.533,3.823,8.533,8.533  S508.177,192,503.467,192z"/>
<path d="M85.333,140.8c-18.85,0-34.133-15.283-34.133-34.133v-51.2c0-18.85,15.283-34.133,34.133-34.133  s34.133,15.283,34.133,34.133v51.2C119.467,125.517,104.183,140.8,85.333,140.8z M85.333,38.4c-9.429,0-17.067,7.637-17.067,17.067  v51.2c0,9.429,7.637,17.067,17.067,17.067s17.067-7.637,17.067-17.067v-51.2C102.4,46.037,94.763,38.4,85.333,38.4z"/>
<path d="M426.667,140.8c-18.85,0-34.133-15.283-34.133-34.133v-51.2c0-18.85,15.283-34.133,34.133-34.133S460.8,36.617,460.8,55.467  v51.2C460.8,125.517,445.517,140.8,426.667,140.8z M426.667,38.4c-9.429,0-17.067,7.637-17.067,17.067v51.2  c0,9.429,7.637,17.067,17.067,17.067s17.067-7.637,17.067-17.067v-51.2C443.733,46.037,436.096,38.4,426.667,38.4z"/>
<path d="M213.333,456.533L213.333,456.533c-2.381-0.026-4.634-1.05-6.229-2.816l-85.333-93.867c-3.14-3.294-3.14-8.482,0-11.776  l34.133-34.133c1.613-1.707,3.891-2.611,6.229-2.475c2.372,0.094,4.599,1.178,6.144,2.987l45.056,52.48l147.371-155.307  c1.638-1.673,3.891-2.594,6.229-2.56c2.295-0.034,4.514,0.853,6.144,2.475l34.133,34.133c3.251,3.319,3.251,8.627,0,11.947  L219.477,453.888C217.873,455.569,215.654,456.525,213.333,456.533z M139.776,354.133l73.557,81.237L389.12,251.733l-22.187-22.016  L219.563,385.536c-1.604,1.732-3.866,2.722-6.229,2.731c-2.406-0.077-4.668-1.161-6.229-2.987l-45.227-52.736L139.776,354.133z"/>
<g>
</g>
<g>
</g>
<g>
</g>
<g>
</g>
<g>
</g>
<g>
</g>
<g>
</g>
<g>
</g>
<g>
</g>
<g>
</g>
<g>
</g>
<g>
</g>
<g>
</g>
<g>
</g>
<g>
</g>
</svg>
