<?xml version="1.0" encoding="iso-8859-1"?>
<!-- Generator: Adobe Illustrator 19.0.0, SVG Export Plug-In . SVG Version: 6.00 Build 0)  -->
<svg xmlns="http://www.w3.org/2000/svg" xmlns:xlink="http://www.w3.org/1999/xlink" version="1.1" id="Layer_1" x="0px" y="0px" viewBox="0 0 512 512" style="enable-background:new 0 0 512 512;" xml:space="preserve">
<path style="fill:#2979FF;" d="M503.467,106.667V448c0,18.85-15.283,34.133-34.133,34.133H42.667  c-18.85,0-34.133-15.283-34.133-34.133V106.667c-0.026-15.59,10.505-29.21,25.6-33.109c2.782-0.734,5.658-1.075,8.533-1.024h17.067  v34.133c0,14.14,11.46,25.6,25.6,25.6s25.6-11.46,25.6-25.6V72.533h290.133v34.133c0,14.14,11.46,25.6,25.6,25.6  s25.6-11.46,25.6-25.6V72.533h17.067C488.184,72.533,503.467,87.817,503.467,106.667z"/>
<path style="fill:#0091EA;" d="M477.867,106.667V448c0,18.85-15.283,34.133-34.133,34.133H42.667  c-18.85,0-34.133-15.283-34.133-34.133V106.667c-0.026-15.59,10.505-29.21,25.6-33.109v33.109c0,14.14,11.46,25.6,25.6,25.6  s25.6-11.46,25.6-25.6V72.533h290.133v34.133c0,14.14,11.46,25.6,25.6,25.6s25.6-11.46,25.6-25.6V72.533h17.067  c2.884-0.026,5.751,0.35,8.533,1.109C467.328,77.534,477.858,91.11,477.867,106.667z"/>
<path style="fill:#B71C1C;" d="M503.467,106.667v76.8H8.533v-76.8c-0.026-15.59,10.505-29.21,25.6-33.109  c2.782-0.734,5.658-1.075,8.533-1.024h17.067v34.133c0,14.14,11.46,25.6,25.6,25.6s25.6-11.46,25.6-25.6V72.533h290.133v34.133  c0,14.14,11.46,25.6,25.6,25.6s25.6-11.46,25.6-25.6V72.533h17.067C488.184,72.533,503.467,87.817,503.467,106.667z"/>
<path style="fill:#D50000;" d="M477.867,106.667v76.8H8.533v-76.8c-0.026-15.59,10.505-29.21,25.6-33.109v33.109  c0,14.14,11.46,25.6,25.6,25.6s25.6-11.46,25.6-25.6V72.533h290.133v34.133c0,14.14,11.46,25.6,25.6,25.6s25.6-11.46,25.6-25.6  V72.533h17.067c2.884-0.026,5.751,0.35,8.533,1.109C467.328,77.534,477.858,91.11,477.867,106.667z"/>
<path style="fill:#A8A5A4;" d="M110.933,55.467v51.2c0,14.14-11.46,25.6-25.6,25.6c-2.918,0.017-5.811-0.503-8.533-1.536  c-10.206-3.61-17.033-13.244-17.067-24.064v-51.2C59.725,44.612,66.569,34.935,76.8,31.317c2.731-1.007,5.623-1.493,8.533-1.451  C99.473,29.867,110.933,41.327,110.933,55.467z"/>
<path style="fill:#BDBDBD;" d="M93.867,55.467v51.2c-0.034,10.82-6.861,20.454-17.067,24.064  c-10.206-3.61-17.033-13.244-17.067-24.064v-51.2C59.725,44.612,66.569,34.935,76.8,31.317c3.61,1.212,6.886,3.26,9.557,5.973  C91.179,42.112,93.884,48.649,93.867,55.467z"/>
<path style="fill:#A8A5A4;" d="M452.267,55.467v51.2c0,14.14-11.46,25.6-25.6,25.6c-2.918,0.017-5.811-0.503-8.533-1.536  c-10.206-3.61-17.033-13.244-17.067-24.064v-51.2c0.034-10.82,6.861-20.454,17.067-24.064c2.722-1.033,5.615-1.553,8.533-1.536  C440.806,29.867,452.267,41.327,452.267,55.467z"/>
<path style="fill:#BDBDBD;" d="M435.2,55.467v51.2c-0.034,10.82-6.861,20.454-17.067,24.064  c-10.206-3.61-17.033-13.244-17.067-24.064v-51.2c0.034-10.82,6.861-20.454,17.067-24.064c3.61,1.212,6.886,3.26,9.557,5.973  C432.495,42.172,435.191,48.683,435.2,55.467z"/>
<path style="fill:#F4F4F4;" d="M59.733,217.515h85.333c9.429,0,17.067,7.637,17.067,17.067v59.733  c0,9.429-7.637,17.067-17.067,17.067H59.733c-9.429,0-17.067-7.637-17.067-17.067v-59.733  C42.667,225.152,50.304,217.515,59.733,217.515z"/>
<path style="fill:#FFFFFF;" d="M59.733,217.515h59.733c9.429,0,17.067,7.637,17.067,17.067v59.733  c0,9.429-7.637,17.067-17.067,17.067H59.733c-9.429,0-17.067-7.637-17.067-17.067v-59.733  C42.667,225.152,50.304,217.515,59.733,217.515z"/>
<path style="fill:#F4F4F4;" d="M59.733,354.048h85.333c9.429,0,17.067,7.637,17.067,17.067v59.733  c0,9.429-7.637,17.067-17.067,17.067H59.733c-9.429,0-17.067-7.637-17.067-17.067v-59.733  C42.667,361.685,50.304,354.048,59.733,354.048z"/>
<path style="fill:#FFFFFF;" d="M59.733,354.048h59.733c9.429,0,17.067,7.637,17.067,17.067v59.733  c0,9.429-7.637,17.067-17.067,17.067H59.733c-9.429,0-17.067-7.637-17.067-17.067v-59.733  C42.667,361.685,50.304,354.048,59.733,354.048z"/>
<path style="fill:#F4F4F4;" d="M366.933,217.515h85.333c9.429,0,17.067,7.637,17.067,17.067v59.733  c0,9.429-7.637,17.067-17.067,17.067h-85.333c-9.429,0-17.067-7.637-17.067-17.067v-59.733  C349.867,225.152,357.504,217.515,366.933,217.515z"/>
<path style="fill:#FFFFFF;" d="M366.933,217.515h59.733c9.429,0,17.067,7.637,17.067,17.067v59.733  c0,9.429-7.637,17.067-17.067,17.067h-59.733c-9.429,0-17.067-7.637-17.067-17.067v-59.733  C349.867,225.152,357.504,217.515,366.933,217.515z"/>
<path style="fill:#F4F4F4;" d="M366.933,354.048h85.333c9.429,0,17.067,7.637,17.067,17.067v59.733  c0,9.429-7.637,17.067-17.067,17.067h-85.333c-9.429,0-17.067-7.637-17.067-17.067v-59.733  C349.867,361.685,357.504,354.048,366.933,354.048z"/>
<path style="fill:#FFFFFF;" d="M366.933,354.048h59.733c9.429,0,17.067,7.637,17.067,17.067v59.733  c0,9.429-7.637,17.067-17.067,17.067h-59.733c-9.429,0-17.067-7.637-17.067-17.067v-59.733  C349.867,361.685,357.504,354.048,366.933,354.048z"/>
<path style="fill:#F4F4F4;" d="M213.333,217.515h85.333c9.429,0,17.067,7.637,17.067,17.067v59.733  c0,9.429-7.637,17.067-17.067,17.067h-85.333c-9.429,0-17.067-7.637-17.067-17.067v-59.733  C196.267,225.152,203.904,217.515,213.333,217.515z"/>
<g>
	<path style="fill:#FFFFFF;" d="M213.333,217.515h59.733c9.429,0,17.067,7.637,17.067,17.067v59.733   c0,9.429-7.637,17.067-17.067,17.067h-59.733c-9.429,0-17.067-7.637-17.067-17.067v-59.733   C196.267,225.152,203.904,217.515,213.333,217.515z"/>
	<path style="fill:#FFFFFF;" d="M213.333,354.048h85.333c9.429,0,17.067,7.637,17.067,17.067v59.733   c0,9.429-7.637,17.067-17.067,17.067h-85.333c-9.429,0-17.067-7.637-17.067-17.067v-59.733   C196.267,361.685,203.904,354.048,213.333,354.048z"/>
</g>
<path style="fill:#F4F4F4;" d="M204.8,354.048h85.333c9.429,0,17.067,7.637,17.067,17.067v59.733  c0,9.429-7.637,17.067-17.067,17.067H204.8c-9.429,0-17.067-7.637-17.067-17.067v-59.733  C187.733,361.685,195.371,354.048,204.8,354.048z"/>
<path style="fill:#FFFFFF;" d="M204.8,354.048h68.267c9.429,0,17.067,7.637,17.067,17.067v59.733  c0,9.429-7.637,17.067-17.067,17.067H204.8c-9.429,0-17.067-7.637-17.067-17.067v-59.733  C187.733,361.685,195.371,354.048,204.8,354.048z"/>
<path d="M469.333,490.667H42.667C19.106,490.667,0,471.561,0,448V106.667C0,83.106,19.106,64,42.667,64h17.067  c4.71,0,8.533,3.823,8.533,8.533v34.133c0,9.429,7.637,17.067,17.067,17.067s17.067-7.637,17.067-17.067V72.533  c0-4.71,3.823-8.533,8.533-8.533h290.133c4.71,0,8.533,3.823,8.533,8.533v34.133c0,9.429,7.637,17.067,17.067,17.067  s17.067-7.637,17.067-17.067V72.533c0-4.71,3.823-8.533,8.533-8.533h17.067C492.894,64,512,83.106,512,106.667V448  C512,471.561,492.894,490.667,469.333,490.667z M42.667,81.067c-14.14,0-25.6,11.46-25.6,25.6V448c0,14.14,11.46,25.6,25.6,25.6  h426.667c14.14,0,25.6-11.46,25.6-25.6V106.667c0-14.14-11.46-25.6-25.6-25.6H460.8v25.6c0,18.85-15.283,34.133-34.133,34.133  s-34.133-15.283-34.133-34.133v-25.6H119.467v25.6c0,18.85-15.283,34.133-34.133,34.133S51.2,125.517,51.2,106.667v-25.6H42.667z"/>
<path d="M503.467,192H8.533C3.823,192,0,188.177,0,183.467s3.823-8.533,8.533-8.533h494.933c4.71,0,8.533,3.823,8.533,8.533  S508.177,192,503.467,192z"/>
<path d="M85.333,140.8c-18.85,0-34.133-15.283-34.133-34.133v-51.2c0-18.85,15.283-34.133,34.133-34.133  s34.133,15.283,34.133,34.133v51.2C119.467,125.517,104.183,140.8,85.333,140.8z M85.333,38.4c-9.429,0-17.067,7.637-17.067,17.067  v51.2c0,9.429,7.637,17.067,17.067,17.067s17.067-7.637,17.067-17.067v-51.2C102.4,46.037,94.763,38.4,85.333,38.4z"/>
<path d="M426.667,140.8c-18.85,0-34.133-15.283-34.133-34.133v-51.2c0-18.85,15.283-34.133,34.133-34.133S460.8,36.617,460.8,55.467  v51.2C460.8,125.517,445.517,140.8,426.667,140.8z M426.667,38.4c-9.429,0-17.067,7.637-17.067,17.067v51.2  c0,9.429,7.637,17.067,17.067,17.067s17.067-7.637,17.067-17.067v-51.2C443.733,46.037,436.096,38.4,426.667,38.4z"/>
<path d="M145.067,320H59.733c-14.14,0-25.6-11.46-25.6-25.6v-59.733c0-14.14,11.46-25.6,25.6-25.6h85.333  c14.14,0,25.6,11.46,25.6,25.6V294.4C170.667,308.54,159.206,320,145.067,320z M59.733,226.133c-4.71,0-8.533,3.823-8.533,8.533  V294.4c0,4.71,3.823,8.533,8.533,8.533h85.333c4.71,0,8.533-3.823,8.533-8.533v-59.733c0-4.71-3.823-8.533-8.533-8.533H59.733z"/>
<path d="M145.067,456.533H59.733c-14.14,0-25.6-11.46-25.6-25.6V371.2c0-14.14,11.46-25.6,25.6-25.6h85.333  c14.14,0,25.6,11.46,25.6,25.6v59.733C170.667,445.073,159.206,456.533,145.067,456.533z M59.733,362.667  c-4.71,0-8.533,3.823-8.533,8.533v59.733c0,4.71,3.823,8.533,8.533,8.533h85.333c4.71,0,8.533-3.823,8.533-8.533V371.2  c0-4.71-3.823-8.533-8.533-8.533H59.733z"/>
<path d="M452.267,320h-85.333c-14.14,0-25.6-11.46-25.6-25.6v-59.733c0-14.14,11.46-25.6,25.6-25.6h85.333  c14.14,0,25.6,11.46,25.6,25.6V294.4C477.867,308.54,466.406,320,452.267,320z M366.933,226.133c-4.71,0-8.533,3.823-8.533,8.533  V294.4c0,4.71,3.823,8.533,8.533,8.533h85.333c4.71,0,8.533-3.823,8.533-8.533v-59.733c0-4.71-3.823-8.533-8.533-8.533H366.933z"/>
<path d="M452.267,456.533h-85.333c-14.14,0-25.6-11.46-25.6-25.6V371.2c0-14.14,11.46-25.6,25.6-25.6h85.333  c14.14,0,25.6,11.46,25.6,25.6v59.733C477.867,445.073,466.406,456.533,452.267,456.533z M366.933,362.667  c-4.71,0-8.533,3.823-8.533,8.533v59.733c0,4.71,3.823,8.533,8.533,8.533h85.333c4.71,0,8.533-3.823,8.533-8.533V371.2  c0-4.71-3.823-8.533-8.533-8.533H366.933z"/>
<path d="M298.667,320h-85.333c-14.14,0-25.6-11.46-25.6-25.6v-59.733c0-14.14,11.46-25.6,25.6-25.6h85.333  c14.14,0,25.6,11.46,25.6,25.6V294.4C324.267,308.54,312.806,320,298.667,320z M213.333,226.133c-4.71,0-8.533,3.823-8.533,8.533  V294.4c0,4.71,3.823,8.533,8.533,8.533h85.333c4.71,0,8.533-3.823,8.533-8.533v-59.733c0-4.71-3.823-8.533-8.533-8.533H213.333z"/>
<path d="M298.667,456.533h-85.333c-14.14,0-25.6-11.46-25.6-25.6V371.2c0-14.14,11.46-25.6,25.6-25.6h85.333  c14.14,0,25.6,11.46,25.6,25.6v59.733C324.267,445.073,312.806,456.533,298.667,456.533z M213.333,362.667  c-4.71,0-8.533,3.823-8.533,8.533v59.733c0,4.71,3.823,8.533,8.533,8.533h85.333c4.71,0,8.533-3.823,8.533-8.533V371.2  c0-4.71-3.823-8.533-8.533-8.533H213.333z"/>
<g>
</g>
<g>
</g>
<g>
</g>
<g>
</g>
<g>
</g>
<g>
</g>
<g>
</g>
<g>
</g>
<g>
</g>
<g>
</g>
<g>
</g>
<g>
</g>
<g>
</g>
<g>
</g>
<g>
</g>
</svg>
