<?xml version="1.0" encoding="iso-8859-1"?>
<!-- Generator: Adobe Illustrator 19.0.0, SVG Export Plug-In . SVG Version: 6.00 Build 0)  -->
<svg xmlns="http://www.w3.org/2000/svg" xmlns:xlink="http://www.w3.org/1999/xlink" version="1.1" id="Layer_1" x="0px" y="0px" viewBox="0 0 512 512" style="enable-background:new 0 0 512 512;" xml:space="preserve">
<path style="fill:#A8A5A4;" d="M285.863,324.289c0.068,45.204,32.346,83.933,76.791,92.149c5.623,1.118,11.331,1.689,17.065,1.706  c11.672-0.009,23.242-2.176,34.129-6.399v74.658c0,9.428-7.636,17.065-17.065,17.065H55.49c-9.428,0-17.065-7.636-17.065-17.065  V25.657c0-9.428,7.636-17.065,17.065-17.065h247.438V110.98c0,9.428,7.636,17.065,17.065,17.065h93.856v108.702  c-10.887-4.198-22.457-6.34-34.129-6.314c-5.725-0.009-11.442,0.529-17.065,1.621C318.175,240.271,285.889,279.05,285.863,324.289z"/>
<path style="fill:#BDBDBD;" d="M251.734,324.289c0,51.834,42.022,93.856,93.856,93.856c5.725,0.043,11.442-0.503,17.065-1.621  c5.623,1.092,11.339,1.63,17.065,1.621v68.259c0,9.428-7.636,17.065-17.065,17.065H55.49c-9.428,0-17.065-7.636-17.065-17.065  V25.657c0-9.428,7.636-17.065,17.065-17.065h213.308V110.98c0,9.428,7.636,17.065,17.065,17.065h93.856v102.388  c-5.725-0.009-11.442,0.529-17.065,1.621c-5.623-1.118-11.339-1.664-17.065-1.621C293.756,230.433,251.734,272.446,251.734,324.289z  "/>
<path style="fill:#A8A5A4;" d="M413.848,128.045h-93.856c-9.428,0-17.065-7.636-17.065-17.065V8.592L413.848,128.045z"/>
<path style="fill:#B71C1C;" d="M473.575,324.289c0,51.834-42.022,93.856-93.856,93.856c-4.283,0.034-8.566-0.282-12.799-0.939  c-51.313-7.312-86.987-54.837-79.675-106.159c5.887-41.322,38.353-73.788,79.675-79.675c4.232-0.657,8.515-0.973,12.799-0.939  C431.553,230.433,473.575,272.446,473.575,324.289z"/>
<path style="fill:#D50000;" d="M447.978,324.289c-0.034,46.868-34.633,86.526-81.057,92.917  c-51.313-7.312-86.987-54.837-79.675-106.159c5.887-41.322,38.353-73.788,79.675-79.675  C413.354,237.762,447.952,277.421,447.978,324.289z"/>
<polygon style="fill:#F4F4F4;" points="403.866,324.203 428.012,348.35 403.866,372.411 392.518,361.063 379.719,348.35   368.371,359.698 355.573,372.411 344.224,361.063 331.426,348.35 355.573,324.203 331.426,300.057 344.224,287.258 355.573,275.91   379.719,300.057 403.866,275.91 428.012,300.057 "/>
<polygon style="fill:#FFFFFF;" points="381.17,324.203 405.316,348.35 392.518,361.063 379.719,348.35 368.371,359.698   357.023,348.35 344.224,361.063 331.426,348.35 355.573,324.203 331.426,300.057 344.224,287.258 357.023,300.057 368.371,288.709   379.719,300.057 392.518,287.258 405.316,300.057 "/>
<path d="M396.784,512H55.49c-14.138,0-25.597-11.459-25.597-25.597V25.657c0-14.138,11.459-25.597,25.597-25.597h247.438  c4.71,0,8.532,3.822,8.532,8.532V110.98c0,4.71,3.822,8.532,8.532,8.532h93.856c4.71,0,8.532,3.822,8.532,8.532v108.702  c-0.017,4.71-3.848,8.524-8.558,8.507c-1.041,0-2.073-0.196-3.046-0.572c-43.899-17.141-93.378,4.548-110.511,48.447  c-17.133,43.899,4.548,93.378,48.447,110.511c19.957,7.79,42.116,7.79,62.073,0c4.394-1.698,9.334,0.495,11.032,4.889  c0.375,0.973,0.572,2.005,0.572,3.046v74.829C422.381,500.533,410.922,512,396.784,512z M55.49,17.125  c-4.71,0-8.532,3.822-8.532,8.532v460.746c0,4.71,3.822,8.532,8.532,8.532h341.294c4.71,0,8.532-3.822,8.532-8.532v-63.054  c-54.761,14.121-110.588-18.831-124.709-73.583c-14.121-54.761,18.831-110.588,73.583-124.709c16.766-4.326,34.36-4.326,51.126,0  v-88.48h-85.323c-14.138,0-25.597-11.459-25.597-25.597V17.125H55.49z"/>
<path d="M413.848,136.577h-93.856c-14.138,0-25.597-11.459-25.597-25.597V8.592c-0.026-4.718,3.763-8.558,8.481-8.592  c2.381-0.017,4.659,0.964,6.288,2.705l110.92,119.453c3.251,3.413,3.123,8.814-0.29,12.065  C418.191,135.741,416.058,136.586,413.848,136.577z M311.46,30.264v80.716c0,4.71,3.822,8.532,8.532,8.532h74.317L311.46,30.264z"/>
<path d="M226.137,93.916H72.555c-4.71,0-8.532-3.822-8.532-8.532c0-4.71,3.822-8.532,8.532-8.532h153.582  c4.71,0,8.532,3.822,8.532,8.532C234.669,90.093,230.855,93.916,226.137,93.916z"/>
<path d="M226.137,128.045H72.555c-4.71,0-8.532-3.822-8.532-8.532c0-4.71,3.822-8.532,8.532-8.532h153.582  c4.71,0,8.532,3.822,8.532,8.532C234.669,124.223,230.855,128.045,226.137,128.045z"/>
<path d="M226.137,162.174H72.555c-4.71,0-8.532-3.822-8.532-8.532s3.822-8.532,8.532-8.532h153.582c4.71,0,8.532,3.822,8.532,8.532  S230.855,162.174,226.137,162.174z"/>
<path d="M226.137,196.304H72.555c-4.71,0-8.532-3.822-8.532-8.532c0-4.71,3.822-8.532,8.532-8.532h153.582  c4.71,0,8.532,3.822,8.532,8.532C234.669,192.481,230.855,196.304,226.137,196.304z"/>
<path d="M379.719,426.677c-56.544,0-102.388-45.844-102.388-102.388s45.844-102.388,102.388-102.388s102.388,45.844,102.388,102.388  S436.271,426.677,379.719,426.677z M379.719,238.965c-47.124,0-85.323,38.199-85.323,85.323s38.199,85.323,85.323,85.323  s85.323-38.199,85.323-85.323S426.843,238.965,379.719,238.965z"/>
<path d="M403.866,380.944c-2.27,0.017-4.445-0.879-6.058-2.474l-18.089-18.003l-18.089,18.089c-3.328,3.311-8.703,3.311-12.031,0  l-24.147-24.061c-3.345-3.319-3.37-8.72-0.051-12.065c0.017-0.017,0.034-0.034,0.051-0.051l18.089-18.089L325.453,306.2  c-3.311-3.328-3.311-8.703,0-12.031l24.147-24.147c3.328-3.311,8.703-3.311,12.031,0l18.089,18.003l18.089-18.089  c3.328-3.311,8.703-3.311,12.031,0l24.147,24.147c3.311,3.328,3.311,8.703,0,12.031l-18.089,18.174l18.089,18.089  c3.345,3.319,3.37,8.72,0.051,12.065c-0.017,0.017-0.034,0.034-0.051,0.051l-24.147,24.061  C408.234,380.099,406.092,380.952,403.866,380.944z M379.719,339.818c2.27-0.017,4.445,0.879,6.058,2.474l18.089,18.089  l12.031-12.031l-18.089-18.089c-3.311-3.328-3.311-8.703,0-12.031l18.089-18.089l-12.116-12.116l-18.089,18.089  c-3.328,3.311-8.703,3.311-12.031,0l-18.089-18.089l-12.116,12.116l18.089,18.089c3.311,3.328,3.311,8.703,0,12.031l-18.089,18.089  l12.031,12.031l18.089-18.089C375.205,340.671,377.424,339.775,379.719,339.818z"/>
<g>
</g>
<g>
</g>
<g>
</g>
<g>
</g>
<g>
</g>
<g>
</g>
<g>
</g>
<g>
</g>
<g>
</g>
<g>
</g>
<g>
</g>
<g>
</g>
<g>
</g>
<g>
</g>
<g>
</g>
</svg>
