<?xml version="1.0" encoding="iso-8859-1"?>
<!-- Generator: Adobe Illustrator 19.0.0, SVG Export Plug-In . SVG Version: 6.00 Build 0)  -->
<svg xmlns="http://www.w3.org/2000/svg" xmlns:xlink="http://www.w3.org/1999/xlink" version="1.1" id="Layer_1" x="0px" y="0px" viewBox="0 0 511.989 511.989" style="enable-background:new 0 0 511.989 511.989;" xml:space="preserve">
<path style="fill:#AD1457;" d="M462.148,293.907c0,115.177-93.374,208.55-208.55,208.55c-4.863,0-9.603-0.19-14.219-0.569  c-109.375-7.479-194.283-98.35-194.331-207.981h56.877c-0.047,78.292,59.503,143.767,137.453,151.104  c4.73,0.427,9.47,0.616,14.219,0.569c83.771,0,151.673-67.902,151.673-151.673s-67.902-151.673-151.673-151.673v75.836  l-28.439-28.439l-75.836-75.836l75.836-75.836L253.598,9.52l0,0v75.836C368.775,85.357,462.148,178.73,462.148,293.907z"/>
<path style="fill:#D81B60;" d="M433.71,293.907c0.009,109.669-84.918,200.597-194.331,208.076  c-109.413-7.479-194.34-98.407-194.331-208.076h28.439c0,83.771,67.902,151.673,151.673,151.673  c4.749,0.019,9.499-0.199,14.219-0.664c4.721,0.464,9.47,0.682,14.219,0.664c83.771,0,151.673-67.902,151.673-151.673  s-67.902-151.673-151.673-151.673v2.749c-9.366-1.83-18.893-2.759-28.439-2.749v47.398l-75.836-75.836l75.836-75.836v47.398  C340.336,85.357,433.71,178.73,433.71,293.907z"/>
<path d="M253.598,511.937c-120.419,0-218.03-97.611-218.03-218.03c0-5.233,4.247-9.48,9.48-9.48h56.877  c5.233,0,9.48,4.247,9.48,9.48c0.171,78.529,63.977,142.051,142.506,141.88c78.529-0.171,142.051-63.978,141.88-142.506  c-0.171-74.727-58.148-136.581-132.714-141.558v66.357c0.028,5.233-4.19,9.508-9.423,9.536c-2.55,0.019-4.996-0.995-6.787-2.806  L142.593,120.535c-3.678-3.697-3.678-9.669,0-13.366L246.868,2.894c2.702-2.796,6.835-3.659,10.428-2.18  c3.536,1.498,5.82,4.977,5.783,8.816v66.357c120.419,2.616,215.906,102.351,213.29,222.769  C473.751,419.075,374.008,514.553,253.598,511.937z M54.528,303.386C59.761,413.207,153.03,497.992,262.85,492.75  c109.821-5.242,194.596-98.502,189.364-208.323C447.161,178.38,359.769,94.96,253.598,94.836c-5.233,0-9.48-4.247-9.48-9.48V32.271  l-81.524,81.524l81.524,81.524v-53.085c0-5.233,4.247-9.48,9.48-9.48c89.004,0.152,161.029,72.433,160.877,161.427  c-0.152,88.994-72.433,161.029-161.427,160.877c-85.212-0.152-155.578-66.603-160.593-151.673L54.528,303.386L54.528,303.386z"/>
<g>
</g>
<g>
</g>
<g>
</g>
<g>
</g>
<g>
</g>
<g>
</g>
<g>
</g>
<g>
</g>
<g>
</g>
<g>
</g>
<g>
</g>
<g>
</g>
<g>
</g>
<g>
</g>
<g>
</g>
</svg>
