<?xml version="1.0" encoding="iso-8859-1"?>
<!-- Generator: Adobe Illustrator 19.0.0, SVG Export Plug-In . SVG Version: 6.00 Build 0)  -->
<svg xmlns="http://www.w3.org/2000/svg" xmlns:xlink="http://www.w3.org/1999/xlink" version="1.1" id="Layer_1" x="0px" y="0px" viewBox="0 0 512 512" style="enable-background:new 0 0 512 512;" xml:space="preserve">
<path style="fill:#2979FF;" d="M469.373,238.933c-0.009,41.975-27.887,78.839-68.267,90.283c-8.32,2.415-16.939,3.618-25.6,3.584  c-4.164,0.017-8.329-0.273-12.459-0.853l0,0c-51.371-6.972-87.356-54.272-80.384-105.643c5.675-41.822,38.562-74.709,80.384-80.384  l0,0c4.13-0.58,8.294-0.87,12.459-0.853c8.661-0.034,17.28,1.169,25.6,3.584C441.486,160.094,469.355,196.958,469.373,238.933z"/>
<path style="fill:#0091EA;" d="M443.773,238.933c-0.009,41.975-27.887,78.839-68.267,90.283c-4.087,1.178-8.252,2.091-12.459,2.731  l0,0c-51.371-6.972-87.356-54.272-80.384-105.643c5.675-41.822,38.562-74.709,80.384-80.384l0,0  c4.207,0.64,8.371,1.553,12.459,2.731C415.886,160.094,443.755,196.958,443.773,238.933z"/>
<path style="fill:#B71C1C;" d="M281.639,238.933c0,51.84,42.027,93.867,93.867,93.867c8.661,0.034,17.28-1.169,25.6-3.584v174.251  l-25.6-30.72l-59.733-71.68l-23.04,25.6l-2.56-3.413l-46.763,57.173l-21.504,23.04V187.733h-25.6v-4.011h-153.6V76.8  c0-37.7,30.566-68.267,68.267-68.267h221.867c10.547-0.026,20.958,2.432,30.379,7.168C386.42,27.23,401.089,50.893,401.106,76.8  v71.851c-8.32-2.415-16.939-3.618-25.6-3.584C323.657,145.067,281.639,187.093,281.639,238.933z"/>
<path style="fill:#D50000;" d="M256.039,241.067c0,58.112,41.984,105.216,93.867,105.216c8.695,0.017,17.331-1.331,25.6-4.011  v130.389l-59.733-71.595l-23.04,25.6l-2.56-3.413l-46.763,57.173l-21.504,23.04V187.733h-25.6v-4.011h-153.6V76.8  c0-37.7,30.566-68.267,68.267-68.267h221.867c10.547-0.026,20.958,2.432,30.379,7.168c8.175,13.218,12.433,28.484,12.288,44.032  v80.469c-8.269-2.679-16.905-4.028-25.6-4.011C298.023,135.851,256.039,182.869,256.039,241.067z"/>
<path style="fill:#B71C1C;" d="M221.906,76.8v110.933h-179.2V76.8c0-37.7,30.566-68.267,68.267-68.267h42.667  C191.339,8.533,221.906,39.1,221.906,76.8z"/>
<polygon style="fill:#FFFFFF;" points="358.439,255.915 324.306,255.915 324.306,221.781 358.439,221.781 392.573,221.781   426.706,221.781 426.706,255.915 392.573,255.915 "/>
<rect x="324.349" y="221.781" style="fill:#F4F4F4;" width="102.4" height="34.133"/>
<rect x="324.349" y="221.781" style="fill:#FFFFFF;" width="85.333" height="34.133"/>
<path d="M401.106,512c-2.534,0-4.949-1.118-6.571-3.072l-78.763-94.976l-87.552,95.232c-3.166,3.49-8.567,3.746-12.058,0.572  c-1.775-1.613-2.79-3.9-2.79-6.289v-307.2H42.706c-4.71,0-8.533-3.823-8.533-8.533V76.8c0-42.419,34.381-76.8,76.8-76.8h221.867  c42.419,0,76.8,34.381,76.8,76.8v71.851c0.188,4.71-3.473,8.678-8.183,8.866c-0.922,0.034-1.852-0.077-2.739-0.333  c-7.526-2.304-15.343-3.507-23.211-3.584c-47.13,0-85.333,38.204-85.333,85.333s38.204,85.333,85.333,85.333  c7.851,0.034,15.667-1.058,23.211-3.243c4.523-1.323,9.259,1.271,10.59,5.794c0.256,0.887,0.375,1.818,0.333,2.739v173.909  C409.639,508.177,405.816,512,401.106,512z M51.239,179.2h170.667c4.71,0,8.533,3.823,8.533,8.533v293.717l79.019-86.187  c1.587-1.809,3.908-2.816,6.315-2.731c2.475,0.043,4.813,1.169,6.4,3.072l70.4,84.224V339.797  c-55.774,9.344-108.57-28.297-117.914-84.07s28.297-108.57,84.07-117.914c11.204-1.877,22.639-1.877,33.843,0V76.8  c0-32.99-26.743-59.733-59.733-59.733H110.973c-32.99,0-59.733,26.743-59.733,59.733C51.239,76.8,51.239,179.2,51.239,179.2z"/>
<path d="M221.906,196.267h-179.2c-4.71,0-8.533-3.823-8.533-8.533V76.8c0-42.419,34.381-76.8,76.8-76.8h42.667  c42.419,0,76.8,34.381,76.8,76.8v110.933C230.439,192.444,226.616,196.267,221.906,196.267z M51.239,179.2h162.133V76.8  c0-32.99-26.743-59.733-59.733-59.733h-42.667c-32.99,0-59.733,26.743-59.733,59.733C51.239,76.8,51.239,179.2,51.239,179.2z"/>
<path d="M375.856,341.333c-0.128,0-0.256,0-0.384,0c-56.431,0-102.366-45.935-102.366-102.4s45.935-102.4,102.4-102.4  c9.438-0.085,18.859,1.229,27.947,3.831c0.393,0.111,0.768,0.247,1.135,0.41c33.792,10.035,59.657,36.173,69.316,70.135  c15.462,54.298-16.162,111.061-70.468,126.515C394.493,340.019,385.191,341.333,375.856,341.333z M376.163,153.6  c-47.3-0.538-85.99,38.084-85.99,85.333c0,47.053,38.281,85.333,85.333,85.333c0.111,0,0.213,0,0.316,0  c7.774,0,15.471-1.092,22.912-3.251c45.303-12.894,71.646-60.186,58.761-105.438c-8.141-28.621-30.089-50.577-58.718-58.718  c-0.367-0.102-0.725-0.23-1.075-0.384C390.687,154.564,383.442,153.6,376.163,153.6z M426.706,264.533h-102.4  c-4.719,0-8.533-3.823-8.533-8.533v-34.133c0-4.71,3.814-8.533,8.533-8.533h102.4c4.719,0,8.533,3.823,8.533,8.533V256  C435.239,260.71,431.416,264.533,426.706,264.533z M332.839,247.467h85.333V230.4h-85.333V247.467z"/>
<g>
</g>
<g>
</g>
<g>
</g>
<g>
</g>
<g>
</g>
<g>
</g>
<g>
</g>
<g>
</g>
<g>
</g>
<g>
</g>
<g>
</g>
<g>
</g>
<g>
</g>
<g>
</g>
<g>
</g>
</svg>
