<?xml version="1.0" encoding="iso-8859-1"?>
<!-- Generator: Adobe Illustrator 19.0.0, SVG Export Plug-In . SVG Version: 6.00 Build 0)  -->
<svg xmlns="http://www.w3.org/2000/svg" xmlns:xlink="http://www.w3.org/1999/xlink" version="1.1" id="Layer_1" x="0px" y="0px" viewBox="0 0 512 512" style="enable-background:new 0 0 512 512;" xml:space="preserve">
<path style="fill:#B71C1C;" d="M281.633,238.933c0,51.84,42.027,93.867,93.867,93.867c8.661,0.034,17.28-1.169,25.6-3.584v174.251  l-25.6-30.72l-59.733-71.68l-21.675,23.637l-3.925-5.12L221.9,499.2V187.733H42.7V76.8c0-37.7,30.566-68.267,68.267-68.267h221.867  c2.33-0.128,4.668-0.128,6.997,0l0,0c34.944,3.601,61.457,33.135,61.269,68.267v71.851c-8.32-2.415-16.939-3.618-25.6-3.584  c-5.41,0.009-10.803,0.495-16.128,1.451C314.452,154.351,281.658,193.331,281.633,238.933z"/>
<path style="fill:#D50000;" d="M375.5,72.875v76.8c-5.248-1.647-10.65-2.731-16.128-3.243c-3.14-0.41-6.306-0.614-9.472-0.597  c-51.883,0-93.867,44.885-93.867,100.352s41.984,100.352,93.867,100.352c8.678,0.026,17.314-1.263,25.6-3.84v129.963l-59.733-71.595  l-21.675,23.637l-3.925-5.12L221.9,499.2V187.733H42.7V76.8c0-37.7,30.566-68.267,68.267-68.267h221.867  c2.33-0.128,4.668-0.128,6.997,0l0,0C362.324,22.101,375.901,46.609,375.5,72.875z"/>
<path style="fill:#B71C1C;" d="M221.899,76.8v110.933h-179.2V76.8c0-37.7,30.566-68.267,68.267-68.267h42.667  C191.333,8.533,221.899,39.1,221.899,76.8z"/>
<path d="M401.1,512c-2.534,0-4.949-1.118-6.571-3.072l-78.763-94.976l-87.552,95.232c-3.166,3.49-8.567,3.746-12.058,0.572  c-1.775-1.613-2.79-3.9-2.79-6.289v-307.2H42.7c-4.71,0-8.533-3.823-8.533-8.533V76.8c0-42.419,34.381-76.8,76.8-76.8h221.867  c42.419,0,76.8,34.381,76.8,76.8v71.851c0.188,4.71-3.473,8.678-8.183,8.866c-0.922,0.034-1.852-0.077-2.739-0.333  c-7.526-2.304-15.343-3.507-23.211-3.584c-47.13,0-85.333,38.204-85.333,85.333s38.204,85.333,85.333,85.333  c7.851,0.034,15.667-1.058,23.211-3.243c4.523-1.323,9.259,1.271,10.59,5.794c0.256,0.887,0.375,1.818,0.333,2.739v173.909  C409.633,508.177,405.81,512,401.1,512z M51.233,179.2h170.667c4.71,0,8.533,3.823,8.533,8.533v293.717l79.019-86.187  c1.63-1.758,3.917-2.748,6.315-2.731c2.475,0.043,4.813,1.169,6.4,3.072l70.4,84.224V339.797  c-55.774,9.344-108.57-28.297-117.914-84.07c-9.344-55.774,28.297-108.57,84.07-117.914c11.204-1.877,22.639-1.877,33.843,0V76.8  c0-32.99-26.743-59.733-59.733-59.733H110.966c-32.99,0-59.733,26.743-59.733,59.733L51.233,179.2L51.233,179.2z"/>
<path d="M221.899,196.267h-179.2c-4.71,0-8.533-3.823-8.533-8.533V76.8c0-42.419,34.381-76.8,76.8-76.8h42.667  c42.419,0,76.8,34.381,76.8,76.8v110.933C230.433,192.444,226.61,196.267,221.899,196.267z M51.233,179.2h162.133V76.8  c0-32.99-26.743-59.733-59.733-59.733h-42.667c-32.99,0-59.733,26.743-59.733,59.733C51.233,76.8,51.233,179.2,51.233,179.2z"/>
<path style="fill:#388E3C;" d="M469.366,238.933c-0.009,41.975-27.887,78.839-68.267,90.283c-8.32,2.415-16.939,3.618-25.6,3.584  c-4.164,0.017-8.329-0.273-12.459-0.853l0,0c-51.371-6.972-87.356-54.272-80.384-105.643c5.675-41.822,38.562-74.709,80.384-80.384  l0,0c4.13-0.58,8.294-0.87,12.459-0.853c8.661-0.034,17.28,1.169,25.6,3.584C441.479,160.094,469.349,196.958,469.366,238.933z"/>
<path style="fill:#4CAF50;" d="M443.766,238.933c-0.009,41.975-27.887,78.839-68.267,90.283c-4.087,1.178-8.252,2.091-12.459,2.731  l0,0c-51.371-6.972-87.356-54.272-80.384-105.643c5.675-41.822,38.562-74.709,80.384-80.384l0,0  c4.207,0.64,8.371,1.553,12.459,2.731C415.879,160.094,443.749,196.958,443.766,238.933z"/>
<path d="M375.5,341.333c-56.55,0-102.4-45.85-102.4-102.4s45.85-102.4,102.4-102.4c9.472-0.034,18.893,1.289,27.989,3.925  c54.383,15.505,85.905,72.166,70.391,126.558c-9.711,34.057-36.335,60.681-70.391,70.391  C394.392,340.053,384.971,341.376,375.5,341.333z M375.5,153.6c-47.13,0-85.333,38.204-85.333,85.333s38.204,85.333,85.333,85.333  c7.851,0.034,15.667-1.058,23.211-3.243c45.338-12.868,71.663-60.058,58.795-105.387c-8.081-28.467-30.327-50.714-58.795-58.795l0,0  C391.167,154.658,383.35,153.566,375.5,153.6z"/>
<polygon style="fill:#F4F4F4;" points="426.7,221.781 426.7,255.915 392.566,255.915 392.566,290.048 358.433,290.048   358.433,255.915 324.3,255.915 324.3,221.781 358.433,221.781 358.433,187.648 392.566,187.648 392.566,221.781 "/>
<polygon style="fill:#FFFFFF;" points="409.633,221.781 409.633,255.915 375.5,255.915 375.5,290.048 358.433,290.048   358.433,255.915 324.3,255.915 324.3,221.781 358.433,221.781 358.433,187.648 375.5,187.648 375.5,221.781 "/>
<path d="M392.566,298.667h-34.133c-4.71,0-8.533-3.823-8.533-8.533v-25.6h-25.6c-4.71,0-8.533-3.823-8.533-8.533v-34.133  c0-4.71,3.823-8.533,8.533-8.533h25.6v-25.6c0-4.71,3.823-8.533,8.533-8.533h34.133c4.71,0,8.533,3.823,8.533,8.533v25.6h25.6  c4.71,0,8.533,3.823,8.533,8.533V256c0,4.71-3.823,8.533-8.533,8.533h-25.6v25.6C401.1,294.844,397.277,298.667,392.566,298.667z   M366.966,281.6h17.067V256c0-4.71,3.823-8.533,8.533-8.533h25.6V230.4h-25.6c-4.71,0-8.533-3.823-8.533-8.533v-25.6h-17.067v25.6  c0,4.71-3.823,8.533-8.533,8.533h-25.6v17.067h25.6c4.71,0,8.533,3.823,8.533,8.533V281.6z"/>
<g>
</g>
<g>
</g>
<g>
</g>
<g>
</g>
<g>
</g>
<g>
</g>
<g>
</g>
<g>
</g>
<g>
</g>
<g>
</g>
<g>
</g>
<g>
</g>
<g>
</g>
<g>
</g>
<g>
</g>
</svg>
