<?xml version="1.0" encoding="iso-8859-1"?>
<!-- Generator: Adobe Illustrator 19.0.0, SVG Export Plug-In . SVG Version: 6.00 Build 0)  -->
<svg xmlns="http://www.w3.org/2000/svg" xmlns:xlink="http://www.w3.org/1999/xlink" version="1.1" id="Layer_1" x="0px" y="0px" viewBox="0 0 512 512" style="enable-background:new 0 0 512 512;" xml:space="preserve">
<path style="fill:#A8A5A4;" d="M503.603,256c0,136.67-110.797,247.467-247.467,247.467c-7.168,0-14.336,0-21.333-1.024  C98.697,490.018-1.57,369.621,10.846,233.515C21.7,114.611,115.908,20.412,234.803,9.557c6.997-1.024,14.165-1.024,21.333-1.024  C392.815,8.533,503.603,119.33,503.603,256z"/>
<path style="fill:#BDBDBD;" d="M460.937,256c-0.094,128.333-98.278,235.298-226.133,246.357  C98.697,489.933-1.57,369.536,10.846,233.429C21.7,114.526,115.908,20.326,234.803,9.472C362.726,20.54,460.928,127.608,460.937,256  z"/>
<g>
	<path style="fill:#D50000;" d="M404.702,267.861L285.235,387.328c-6.682,6.647-17.493,6.613-24.132-0.068   c-3.123-3.14-4.898-7.364-4.966-11.793V136.533c0.085-9.429,7.799-16.998,17.22-16.913c4.497,0.043,8.798,1.852,11.964,5.052   l119.467,119.467C411.162,250.778,411.128,261.274,404.702,267.861z"/>
	<path style="fill:#D50000;" d="M362.035,267.861L256.137,373.931V137.899l105.899,106.069   C368.546,250.607,368.546,261.222,362.035,267.861z"/>
</g>
<path style="fill:#B71C1C;" d="M179.337,119.381h25.6c9.429,0,17.067,7.637,17.067,17.067v238.933  c0,9.429-7.637,17.067-17.067,17.067h-25.6c-9.429,0-17.067-7.637-17.067-17.067V136.448  C162.27,127.019,169.916,119.381,179.337,119.381z"/>
<path style="fill:#D50000;" d="M179.337,119.381h8.533c9.429,0,17.067,7.637,17.067,17.067v238.933  c0,9.429-7.637,17.067-17.067,17.067h-8.533c-9.429,0-17.067-7.637-17.067-17.067V136.448  C162.27,127.019,169.916,119.381,179.337,119.381z"/>
<path d="M256.137,512L256.137,512C114.756,512.077,0.077,397.525,0,256.137S114.475,0.077,255.864,0S511.923,114.475,512,255.864  c0.034,67.891-26.897,133.009-74.871,181.043C389.146,484.949,324.045,511.966,256.137,512z M256.137,17.067  C124.177,17.067,17.203,124.041,17.203,256s106.974,238.933,238.933,238.933l0,0C388.096,494.933,495.07,387.96,495.07,256  S388.096,17.067,256.137,17.067z"/>
<path d="M273.203,401.067c-3.422,0.017-6.818-0.649-9.984-1.963c-9.583-3.908-15.787-13.295-15.616-23.637V136.533  c-0.085-10.308,6.144-19.61,15.701-23.467c9.6-4.062,20.702-1.903,28.075,5.461l119.467,119.467  c9.941,9.651,10.18,25.532,0.538,35.473c-0.179,0.179-0.35,0.358-0.538,0.538L291.379,393.472  C286.584,398.328,280.038,401.058,273.203,401.067z M273.203,128c-1.229-0.009-2.441,0.23-3.584,0.683  c-3.055,1.417-4.992,4.489-4.949,7.851V256l0,0v119.467c0.068,3.362,2.108,6.366,5.205,7.68c3.226,1.417,6.989,0.7,9.472-1.792  l119.467-119.467c3.226-3.038,3.388-8.107,0.35-11.341c-0.111-0.119-0.23-0.239-0.35-0.35L279.347,130.731  C277.76,129.016,275.541,128.034,273.203,128z"/>
<path d="M204.937,401.067h-25.6c-14.14,0-25.6-11.46-25.6-25.6V136.533c0-14.14,11.46-25.6,25.6-25.6h25.6  c14.14,0,25.6,11.46,25.6,25.6v238.933C230.537,389.606,219.076,401.067,204.937,401.067z M179.337,128  c-4.71,0-8.533,3.823-8.533,8.533v238.933c0,4.71,3.823,8.533,8.533,8.533h25.6c4.71,0,8.533-3.823,8.533-8.533V136.533  c0-4.71-3.823-8.533-8.533-8.533H179.337z"/>
<g>
</g>
<g>
</g>
<g>
</g>
<g>
</g>
<g>
</g>
<g>
</g>
<g>
</g>
<g>
</g>
<g>
</g>
<g>
</g>
<g>
</g>
<g>
</g>
<g>
</g>
<g>
</g>
<g>
</g>
</svg>
