<?xml version="1.0" encoding="iso-8859-1"?>
<!-- Generator: Adobe Illustrator 19.0.0, SVG Export Plug-In . SVG Version: 6.00 Build 0)  -->
<svg xmlns="http://www.w3.org/2000/svg" xmlns:xlink="http://www.w3.org/1999/xlink" version="1.1" id="Layer_1" x="0px" y="0px" viewBox="0 0 512 512" style="enable-background:new 0 0 512 512;" xml:space="preserve">
<path style="fill:#555656;" d="M503.467,192v196.267c0-51.84-42.027-93.867-93.867-93.867s-93.867,42.027-93.867,93.867  c-0.06,18.185,5.222,35.985,15.189,51.2H42.667c-18.85,0-34.133-15.283-34.133-34.133V192H503.467z"/>
<path style="fill:#717272;" d="M503.467,192v116.992c-23.159-29.244-58.445-46.251-95.744-46.165  c-66.509-0.521-120.866,52.958-121.429,119.467c-0.128,19.985,4.864,39.671,14.507,57.173H42.667  c-18.85,0-34.133-15.283-34.133-34.133V192H503.467z"/>
<path style="fill:#A8A5A4;" d="M503.467,149.333V192H8.533V64c0-18.85,15.283-34.133,34.133-34.133h128  c18.85,0,34.133,15.283,34.133,34.133v17.067c0,18.85,15.283,34.133,34.133,34.133h230.4  C488.184,115.2,503.467,130.483,503.467,149.333z"/>
<path style="fill:#BDBDBD;" d="M469.333,157.867V192H8.533V64c0.009-9.805,4.241-19.132,11.605-25.6h116.395  c18.85,0,34.133,15.283,34.133,34.133V89.6c0,18.85,15.283,34.133,34.133,34.133h230.4  C454.05,123.733,469.333,139.017,469.333,157.867z"/>
<path style="fill:#B71C1C;" d="M409.6,294.4c-4.284-0.034-8.568,0.282-12.8,0.939c-51.319,7.313-86.997,54.844-79.684,106.172  c5.888,41.327,38.357,73.796,79.684,79.684c4.241,0.614,8.516,0.922,12.8,0.939c51.84,0,93.867-42.027,93.867-93.867  S461.44,294.4,409.6,294.4z"/>
<path style="fill:#D50000;" d="M396.8,295.253c-51.319,7.313-86.997,54.844-79.684,106.172  c5.888,41.327,38.357,73.796,79.684,79.684c51.319-7.313,86.997-54.844,79.684-106.172  C470.596,333.611,438.127,301.141,396.8,295.253z"/>
<polygon style="fill:#F4F4F4;" points="433.749,388.181 457.899,412.331 433.749,436.395 422.4,425.045 409.6,412.331   398.251,423.68 385.451,436.395 374.101,425.045 361.301,412.331 385.451,388.181 361.301,364.032 374.101,351.232 385.451,339.883   409.6,364.032 433.749,339.883 457.899,364.032 "/>
<polygon style="fill:#FFFFFF;" points="411.051,388.181 435.2,412.331 422.4,425.045 409.6,412.331 398.251,423.68 386.901,412.331   374.101,425.045 361.301,412.331 385.451,388.181 361.301,364.032 374.101,351.232 386.901,364.032 398.251,352.683 409.6,364.032   422.4,351.232 435.2,364.032 "/>
<path d="M503.467,200.533H8.533C3.823,200.533,0,196.71,0,192V64c0-23.561,19.106-42.667,42.667-42.667h128  c23.561,0,42.667,19.106,42.667,42.667v17.067c0,14.14,11.46,25.6,25.6,25.6h230.4c23.561,0,42.667,19.106,42.667,42.667V192  C512,196.71,508.177,200.533,503.467,200.533z M17.067,183.467h477.867v-34.133c0-14.14-11.46-25.6-25.6-25.6h-230.4  c-23.561,0-42.667-19.106-42.667-42.667V64c0-14.14-11.46-25.6-25.6-25.6h-128c-14.14,0-25.6,11.46-25.6,25.6V183.467z"/>
<path d="M409.6,490.667c-56.55,0-102.4-45.85-102.4-102.4s45.85-102.4,102.4-102.4s102.4,45.85,102.4,102.4  S466.15,490.667,409.6,490.667z M409.6,302.933c-47.13,0-85.333,38.204-85.333,85.333S362.47,473.6,409.6,473.6  s85.333-38.204,85.333-85.333S456.73,302.933,409.6,302.933z"/>
<path d="M433.749,444.928c-2.27,0.017-4.446-0.879-6.059-2.475L409.6,424.363l-18.091,18.091c-3.328,3.311-8.704,3.311-12.032,0  l-24.149-24.064c-3.345-3.319-3.371-8.721-0.051-12.066c0.017-0.017,0.034-0.034,0.051-0.051l18.091-18.005l-18.091-18.091  c-3.311-3.328-3.311-8.704,0-12.032l24.149-24.149c3.328-3.311,8.704-3.311,12.032,0L409.6,352l18.091-18.091  c3.328-3.311,8.704-3.311,12.032,0l24.149,24.149c3.311,3.328,3.311,8.704,0,12.032l-18.091,18.176l18.091,18.091  c3.345,3.319,3.371,8.721,0.051,12.066c-0.017,0.017-0.034,0.034-0.051,0.051l-24.149,24.064  C438.118,444.083,435.977,444.945,433.749,444.928z M409.6,403.797c2.27-0.017,4.446,0.879,6.059,2.475l18.091,18.091l12.117-12.032  l-18.176-18.091c-3.311-3.328-3.311-8.704,0-12.032l18.091-18.091L433.664,352l-18.091,18.091c-3.328,3.311-8.704,3.311-12.032,0  L385.451,352l-12.117,12.117l18.091,18.091c3.311,3.328,3.311,8.704,0,12.032l-18.091,18.091l12.117,12.032l18.091-18.091  C405.154,404.676,407.33,403.78,409.6,403.797z"/>
<path d="M330.923,448H42.667C19.106,448,0,428.894,0,405.333V192c0-4.71,3.823-8.533,8.533-8.533h494.933  c4.71,0,8.533,3.823,8.533,8.533v196.267c0,4.71-3.823,8.533-8.533,8.533c-4.71,0-8.533-3.823-8.533-8.533  c0-47.13-38.204-85.333-85.333-85.333s-85.333,38.204-85.333,85.333c-0.043,16.521,4.762,32.691,13.824,46.507  c2.594,3.934,1.502,9.225-2.432,11.819C334.251,447.522,332.604,448.009,330.923,448z M17.067,200.533v204.8  c0,14.14,11.46,25.6,25.6,25.6h273.835c-23.697-51.345-1.28-112.188,50.065-135.885c45.943-21.205,100.489-5.675,128.367,36.557  V200.533H17.067z"/>
<g>
</g>
<g>
</g>
<g>
</g>
<g>
</g>
<g>
</g>
<g>
</g>
<g>
</g>
<g>
</g>
<g>
</g>
<g>
</g>
<g>
</g>
<g>
</g>
<g>
</g>
<g>
</g>
<g>
</g>
</svg>
