<?xml version="1.0" encoding="iso-8859-1"?>
<!-- Generator: Adobe Illustrator 19.0.0, SVG Export Plug-In . SVG Version: 6.00 Build 0)  -->
<svg xmlns="http://www.w3.org/2000/svg" xmlns:xlink="http://www.w3.org/1999/xlink" version="1.1" id="Layer_1" x="0px" y="0px" viewBox="0 0 512 512" style="enable-background:new 0 0 512 512;" xml:space="preserve">
<polygon style="fill:#3949AB;" points="426.667,371.115 460.8,371.115 460.8,405.248 426.667,405.248 426.667,439.381   392.533,439.381 392.533,405.248 358.4,405.248 358.4,371.115 392.533,371.115 392.533,336.981 426.667,336.981 "/>
<path style="fill:#555656;" d="M503.467,192v196.267c0-51.84-42.027-93.867-93.867-93.867s-93.867,42.027-93.867,93.867  c-0.06,18.185,5.222,35.985,15.189,51.2H42.667c-18.85,0-34.133-15.283-34.133-34.133V192H503.467z"/>
<path style="fill:#717272;" d="M503.467,192v116.992c-23.159-29.244-58.445-46.251-95.744-46.165  c-66.509-0.521-120.866,52.958-121.429,119.467c-0.128,19.985,4.864,39.671,14.507,57.173H42.667  c-18.85,0-34.133-15.283-34.133-34.133V192H503.467z"/>
<path style="fill:#A8A5A4;" d="M503.467,149.333V192H8.533V64c0-18.85,15.283-34.133,34.133-34.133h128  c18.85,0,34.133,15.283,34.133,34.133v17.067c0,18.85,15.283,34.133,34.133,34.133h230.4  C488.184,115.2,503.467,130.483,503.467,149.333z"/>
<path style="fill:#BDBDBD;" d="M469.333,157.867V192H8.533V64c0.009-9.805,4.241-19.132,11.605-25.6h116.395  c18.85,0,34.133,15.283,34.133,34.133V89.6c0,18.85,15.283,34.133,34.133,34.133h230.4  C454.05,123.733,469.333,139.017,469.333,157.867z"/>
<path style="fill:#4CAF50;" d="M409.6,294.4c-51.84,0-93.867,42.027-93.867,93.867s42.027,93.867,93.867,93.867  s93.867-42.027,93.867-93.867S461.44,294.4,409.6,294.4z"/>
<polygon style="fill:#F4F4F4;" points="460.8,371.115 460.8,405.248 426.667,405.248 426.667,439.381 392.533,439.381   392.533,405.248 358.4,405.248 358.4,371.115 392.533,371.115 392.533,336.981 426.667,336.981 426.667,371.115 "/>
<polygon style="fill:#FFFFFF;" points="443.733,371.115 443.733,405.248 409.6,405.248 409.6,439.381 392.533,439.381   392.533,405.248 358.4,405.248 358.4,371.115 392.533,371.115 392.533,336.981 409.6,336.981 409.6,371.115 "/>
<path d="M426.667,448h-34.133c-4.71,0-8.533-3.823-8.533-8.533v-25.6h-25.6c-4.71,0-8.533-3.823-8.533-8.533V371.2  c0-4.71,3.823-8.533,8.533-8.533H384v-25.6c0-4.71,3.823-8.533,8.533-8.533h34.133c4.71,0,8.533,3.823,8.533,8.533v25.6h25.6  c4.71,0,8.533,3.823,8.533,8.533v34.133c0,4.71-3.823,8.533-8.533,8.533h-25.6v25.6C435.2,444.177,431.377,448,426.667,448z   M401.067,430.933h17.067v-25.6c0-4.71,3.823-8.533,8.533-8.533h25.6v-17.067h-25.6c-4.71,0-8.533-3.823-8.533-8.533v-25.6h-17.067  v25.6c0,4.71-3.823,8.533-8.533,8.533h-25.6V396.8h25.6c4.71,0,8.533,3.823,8.533,8.533V430.933z"/>
<path d="M330.923,448H42.667C19.106,448,0,428.894,0,405.333V192c0-4.71,3.823-8.533,8.533-8.533h494.933  c4.71,0,8.533,3.823,8.533,8.533v196.267c0,4.71-3.823,8.533-8.533,8.533c-4.71,0-8.533-3.823-8.533-8.533  c0-47.13-38.204-85.333-85.333-85.333s-85.333,38.204-85.333,85.333c-0.043,16.521,4.762,32.691,13.824,46.507  c2.594,3.934,1.502,9.225-2.432,11.819C334.251,447.522,332.604,448.009,330.923,448z M17.067,200.533v204.8  c0,14.14,11.46,25.6,25.6,25.6h273.835c-23.697-51.345-1.28-112.188,50.065-135.885c45.943-21.205,100.489-5.675,128.367,36.557  V200.533H17.067z"/>
<path d="M503.467,200.533H8.533C3.823,200.533,0,196.71,0,192V64c0-23.561,19.106-42.667,42.667-42.667h128  c23.561,0,42.667,19.106,42.667,42.667v17.067c0,14.14,11.46,25.6,25.6,25.6h230.4c23.561,0,42.667,19.106,42.667,42.667V192  C512,196.71,508.177,200.533,503.467,200.533z M17.067,183.467h477.867v-34.133c0-14.14-11.46-25.6-25.6-25.6h-230.4  c-23.561,0-42.667-19.106-42.667-42.667V64c0-14.14-11.46-25.6-25.6-25.6h-128c-14.14,0-25.6,11.46-25.6,25.6V183.467z"/>
<path d="M409.6,490.667c-56.55,0-102.4-45.85-102.4-102.4s45.85-102.4,102.4-102.4s102.4,45.85,102.4,102.4  S466.15,490.667,409.6,490.667z M409.6,302.933c-47.13,0-85.333,38.204-85.333,85.333S362.47,473.6,409.6,473.6  s85.333-38.204,85.333-85.333S456.73,302.933,409.6,302.933z"/>
<g>
</g>
<g>
</g>
<g>
</g>
<g>
</g>
<g>
</g>
<g>
</g>
<g>
</g>
<g>
</g>
<g>
</g>
<g>
</g>
<g>
</g>
<g>
</g>
<g>
</g>
<g>
</g>
<g>
</g>
</svg>
