<?xml version="1.0" encoding="iso-8859-1"?>
<!-- Generator: Adobe Illustrator 19.0.0, SVG Export Plug-In . SVG Version: 6.00 Build 0)  -->
<svg xmlns="http://www.w3.org/2000/svg" xmlns:xlink="http://www.w3.org/1999/xlink" version="1.1" id="Layer_1" x="0px" y="0px" viewBox="0 0 512 512" style="enable-background:new 0 0 512 512;" xml:space="preserve">
<path style="fill:#555656;" d="M136.533,59.648h238.933c9.429,0,17.067,7.637,17.067,17.067v409.6  c0,9.429-7.637,17.067-17.067,17.067H136.533c-9.429,0-17.067-7.637-17.067-17.067v-409.6  C119.467,67.285,127.104,59.648,136.533,59.648z"/>
<path style="fill:#717272;" d="M136.533,59.648h204.8c9.429,0,17.067,7.637,17.067,17.067v409.6c0,9.429-7.637,17.067-17.067,17.067  h-204.8c-9.429,0-17.067-7.637-17.067-17.067v-409.6C119.467,67.285,127.104,59.648,136.533,59.648z"/>
<path style="fill:#555656;" d="M290.133,25.6v34.133h-68.267V25.6c0-9.429,7.637-17.067,17.067-17.067h34.133  C282.496,8.533,290.133,16.171,290.133,25.6z"/>
<path d="M375.467,512H136.533c-14.14,0-25.6-11.46-25.6-25.6V76.8c0-14.14,11.46-25.6,25.6-25.6h238.933  c14.14,0,25.6,11.46,25.6,25.6v409.6C401.067,500.54,389.606,512,375.467,512z M136.533,68.267c-4.71,0-8.533,3.823-8.533,8.533  v409.6c0,4.71,3.823,8.533,8.533,8.533h238.933c4.71,0,8.533-3.823,8.533-8.533V76.8c0-4.71-3.823-8.533-8.533-8.533H136.533z"/>
<path d="M290.133,68.267h-68.267c-4.71,0-8.533-3.823-8.533-8.533V25.6c0-14.14,11.46-25.6,25.6-25.6h34.133  c14.14,0,25.6,11.46,25.6,25.6v34.133C298.667,64.444,294.844,68.267,290.133,68.267z M230.4,51.2h51.2V25.6  c0-4.71-3.823-8.533-8.533-8.533h-34.133c-4.71,0-8.533,3.823-8.533,8.533V51.2z"/>
<g>
</g>
<g>
</g>
<g>
</g>
<g>
</g>
<g>
</g>
<g>
</g>
<g>
</g>
<g>
</g>
<g>
</g>
<g>
</g>
<g>
</g>
<g>
</g>
<g>
</g>
<g>
</g>
<g>
</g>
</svg>
