<?xml version="1.0" encoding="iso-8859-1"?>
<!-- Generator: Adobe Illustrator 19.0.0, SVG Export Plug-In . SVG Version: 6.00 Build 0)  -->
<svg xmlns="http://www.w3.org/2000/svg" xmlns:xlink="http://www.w3.org/1999/xlink" version="1.1" id="Layer_1" x="0px" y="0px" viewBox="0 0 512 512" style="enable-background:new 0 0 512 512;" xml:space="preserve">
<path style="fill:#555656;" d="M392.559,76.8v290.133H119.492V76.8c0-9.429,7.637-17.067,17.067-17.067h238.933  C384.913,59.733,392.559,67.371,392.559,76.8z"/>
<path style="fill:#717272;" d="M358.426,76.8v290.133H119.492V76.8c0-9.429,7.637-17.067,17.067-17.067h204.8  C350.78,59.733,358.426,67.371,358.426,76.8z"/>
<path style="fill:#555656;" d="M290.159,25.6v34.133h-68.267V25.6c0-9.429,7.637-17.067,17.067-17.067h34.133  C282.513,8.533,290.159,16.171,290.159,25.6z"/>
<path style="fill:#B71C1C;" d="M392.559,366.933V486.4c0,9.429-7.637,17.067-17.067,17.067H136.559  c-9.429,0-17.067-7.637-17.067-17.067V366.933H392.559z"/>
<path style="fill:#D50000;" d="M358.426,366.933V486.4c0,9.429-7.637,17.067-17.067,17.067h-204.8  c-9.429,0-17.067-7.637-17.067-17.067V366.933H358.426z"/>
<rect x="119.467" y="332.715" style="fill:#B71C1C;" width="273.067" height="34.133"/>
<path d="M392.559,375.467H119.492c-4.71,0-8.533-3.823-8.533-8.533V76.8c0-14.14,11.46-25.6,25.6-25.6h238.933  c14.14,0,25.6,11.46,25.6,25.6v290.133C401.092,371.644,397.27,375.467,392.559,375.467z M128.026,358.4h256V76.8  c0-4.71-3.823-8.533-8.533-8.533H136.559c-4.71,0-8.533,3.823-8.533,8.533L128.026,358.4L128.026,358.4z"/>
<path d="M290.159,68.267h-68.267c-4.71,0-8.533-3.823-8.533-8.533V25.6c0-14.14,11.46-25.6,25.6-25.6h34.133  c14.14,0,25.6,11.46,25.6,25.6v34.133C298.692,64.444,294.87,68.267,290.159,68.267z M230.426,51.2h51.2V25.6  c0-4.71-3.823-8.533-8.533-8.533h-34.133c-4.71,0-8.533,3.823-8.533,8.533L230.426,51.2L230.426,51.2z"/>
<path d="M375.492,512H136.559c-14.14,0-25.6-11.46-25.6-25.6V366.933c0-4.71,3.823-8.533,8.533-8.533h273.067  c4.71,0,8.533,3.823,8.533,8.533V486.4C401.092,500.54,389.632,512,375.492,512z M128.026,375.467V486.4  c0,4.71,3.823,8.533,8.533,8.533h238.933c4.71,0,8.533-3.823,8.533-8.533V375.467H128.026z"/>
<path d="M136.559,512c-4.71,0.026-8.559-3.772-8.585-8.482c-0.017-2.295,0.896-4.497,2.526-6.11l136.533-136.533  c3.576-3.063,8.969-2.645,12.032,0.93c2.739,3.191,2.739,7.91,0,11.102L142.532,509.44C140.954,511.044,138.812,511.966,136.559,512  z"/>
<path d="M187.759,512c-4.71,0.026-8.559-3.772-8.585-8.482c-0.017-2.295,0.896-4.497,2.526-6.11l136.533-136.533  c3.575-3.063,8.969-2.645,12.032,0.93c2.739,3.191,2.739,7.91,0,11.102L193.732,509.44C192.154,511.044,190.012,511.966,187.759,512  z"/>
<path d="M238.959,512c-4.71,0.026-8.559-3.772-8.585-8.482c-0.017-2.295,0.896-4.497,2.526-6.11l136.533-136.533  c3.575-3.063,8.969-2.645,12.032,0.93c2.739,3.191,2.739,7.91,0,11.102L244.932,509.44C243.354,511.044,241.212,511.966,238.959,512  z"/>
<path d="M290.159,512c-4.71,0.026-8.559-3.772-8.585-8.482c-0.017-2.295,0.896-4.497,2.526-6.11l102.4-102.4  c3.575-3.063,8.969-2.645,12.032,0.93c2.739,3.191,2.739,7.91,0,11.102l-102.4,102.4C294.554,511.044,292.412,511.966,290.159,512z"/>
<path d="M341.359,512c-4.71,0.026-8.559-3.772-8.585-8.482c-0.017-2.295,0.896-4.497,2.526-6.11l51.2-51.2  c3.575-3.063,8.969-2.645,12.032,0.93c2.739,3.191,2.739,7.91,0,11.102l-51.2,51.2C345.754,511.044,343.612,511.966,341.359,512z"/>
<path d="M119.492,426.667c-4.71,0.026-8.559-3.772-8.585-8.482c-0.017-2.295,0.896-4.497,2.526-6.11l51.2-51.2  c3.575-3.063,8.969-2.645,12.032,0.93c2.739,3.191,2.739,7.91,0,11.102l-51.2,51.2C123.887,425.711,121.745,426.633,119.492,426.667  z"/>
<path d="M119.492,477.867c-4.71,0.026-8.559-3.772-8.585-8.482c-0.017-2.295,0.896-4.497,2.526-6.11l102.4-102.4  c3.575-3.063,8.969-2.645,12.032,0.93c2.739,3.191,2.739,7.91,0,11.102l-102.4,102.4  C123.887,476.911,121.745,477.833,119.492,477.867z"/>
<path d="M392.559,375.467H119.492c-4.71,0-8.533-3.823-8.533-8.533V332.8c0-4.71,3.823-8.533,8.533-8.533h273.067  c4.71,0,8.533,3.823,8.533,8.533v34.133C401.092,371.644,397.27,375.467,392.559,375.467z M128.026,358.4h256v-17.067h-256  L128.026,358.4L128.026,358.4z"/>
<g>
</g>
<g>
</g>
<g>
</g>
<g>
</g>
<g>
</g>
<g>
</g>
<g>
</g>
<g>
</g>
<g>
</g>
<g>
</g>
<g>
</g>
<g>
</g>
<g>
</g>
<g>
</g>
<g>
</g>
</svg>
