<?xml version="1.0" encoding="iso-8859-1"?>
<!-- Generator: Adobe Illustrator 19.0.0, SVG Export Plug-In . SVG Version: 6.00 Build 0)  -->
<svg xmlns="http://www.w3.org/2000/svg" xmlns:xlink="http://www.w3.org/1999/xlink" version="1.1" id="Layer_1" x="0px" y="0px" viewBox="0 0 512 512" style="enable-background:new 0 0 512 512;" xml:space="preserve">
<path style="fill:#388E3C;" d="M392.559,207.957v283.648c0,6.485-7.68,11.776-17.067,11.776H136.559  c-9.387,0-17.067-5.291-17.067-11.776V207.957c0-6.485,7.68-11.776,17.067-11.776h238.933  C384.879,196.267,392.559,201.472,392.559,207.957z"/>
<path style="fill:#4CAF50;" d="M358.426,207.957v283.648c0,6.485-7.68,11.776-17.067,11.776h-204.8  c-9.387,0-17.067-5.291-17.067-11.776V207.957c0-6.485,7.68-11.776,17.067-11.776h204.8  C350.746,196.267,358.426,201.472,358.426,207.957z"/>
<path style="fill:#555656;" d="M392.559,64.939v125.952c0,2.901-7.68,5.291-17.067,5.291H136.559  c-9.387,0-17.067-2.389-17.067-5.291V64.939c0-2.901,7.68-5.291,17.067-5.291h238.933C384.879,59.733,392.559,62.037,392.559,64.939  z"/>
<path style="fill:#717272;" d="M358.426,64.939v125.952c0,2.901-7.68,5.291-17.067,5.291h-204.8c-9.387,0-17.067-2.389-17.067-5.291  V64.939c0-2.901,7.68-5.291,17.067-5.291h204.8C350.746,59.733,358.426,62.037,358.426,64.939z"/>
<path style="fill:#555656;" d="M290.159,25.6v34.133h-68.267V25.6c0-9.429,7.637-17.067,17.067-17.067h34.133  C282.513,8.533,290.159,16.171,290.159,25.6z"/>
<rect x="119.467" y="162.048" style="fill:#388E3C;" width="273.067" height="34.133"/>
<path d="M375.492,512H136.559c-14.14,0-25.6-11.46-25.6-25.6V76.8c0-14.14,11.46-25.6,25.6-25.6h238.933  c14.14,0,25.6,11.46,25.6,25.6v409.6C401.092,500.54,389.632,512,375.492,512z M136.559,68.267c-4.71,0-8.533,3.823-8.533,8.533  v409.6c0,4.71,3.823,8.533,8.533,8.533h238.933c4.71,0,8.533-3.823,8.533-8.533V76.8c0-4.71-3.823-8.533-8.533-8.533H136.559z"/>
<path d="M290.159,68.267h-68.267c-4.71,0-8.533-3.823-8.533-8.533V25.6c0-14.14,11.46-25.6,25.6-25.6h34.133  c14.14,0,25.6,11.46,25.6,25.6v34.133C298.692,64.444,294.87,68.267,290.159,68.267z M230.426,51.2h51.2V25.6  c0-4.71-3.823-8.533-8.533-8.533h-34.133c-4.71,0-8.533,3.823-8.533,8.533L230.426,51.2L230.426,51.2z"/>
<path d="M392.559,204.8H119.492c-4.71,0-8.533-3.823-8.533-8.533v-34.133c0-4.71,3.823-8.533,8.533-8.533h273.067  c4.71,0,8.533,3.823,8.533,8.533v34.133C401.092,200.977,397.27,204.8,392.559,204.8z M128.026,187.733h256v-17.067h-256  L128.026,187.733L128.026,187.733z"/>
<path d="M119.492,273.067c-4.71,0.026-8.559-3.772-8.585-8.482c-0.017-2.295,0.896-4.497,2.526-6.11l68.267-68.267  c3.575-3.063,8.969-2.645,12.032,0.93c2.739,3.191,2.739,7.91,0,11.102l-68.267,68.267  C123.887,272.111,121.745,273.033,119.492,273.067z"/>
<path d="M119.492,324.267c-4.71,0.026-8.559-3.772-8.585-8.482c-0.017-2.295,0.896-4.497,2.526-6.11L232.9,190.208  c3.575-3.063,8.969-2.645,12.032,0.93c2.739,3.191,2.739,7.91,0,11.102L125.466,321.707  C123.887,323.311,121.745,324.233,119.492,324.267z"/>
<path d="M128.026,366.933c-4.71,0.026-8.559-3.772-8.585-8.482c-0.017-2.295,0.896-4.497,2.526-6.11L284.1,190.208  c3.575-3.063,8.969-2.645,12.032,0.93c2.739,3.191,2.739,7.91,0,11.102L133.999,364.373  C132.42,365.978,130.279,366.899,128.026,366.933z"/>
<path d="M136.559,512c-4.71,0.026-8.559-3.772-8.585-8.482c-0.017-2.295,0.896-4.497,2.526-6.11l256-256  c3.575-3.063,8.969-2.645,12.032,0.93c2.739,3.191,2.739,7.91,0,11.102l-256,256C140.954,511.044,138.812,511.966,136.559,512z"/>
<path d="M187.759,512c-4.71,0.026-8.559-3.772-8.585-8.482c-0.017-2.295,0.896-4.497,2.526-6.11l204.8-204.8  c3.575-3.063,8.969-2.645,12.032,0.93c2.739,3.191,2.739,7.91,0,11.102l-204.8,204.8C192.154,511.044,190.012,511.966,187.759,512z"/>
<path d="M238.959,512c-4.71,0.026-8.559-3.772-8.585-8.482c-0.017-2.295,0.896-4.497,2.526-6.11l153.6-153.6  c3.575-3.063,8.969-2.645,12.032,0.93c2.739,3.191,2.739,7.91,0,11.102l-153.6,153.6C243.354,511.044,241.212,511.966,238.959,512z"/>
<path d="M290.159,512c-4.71,0.026-8.559-3.772-8.585-8.482c-0.017-2.295,0.896-4.497,2.526-6.11l102.4-102.4  c3.575-3.063,8.969-2.645,12.032,0.93c2.739,3.191,2.739,7.91,0,11.102l-102.4,102.4C294.554,511.044,292.412,511.966,290.159,512z"/>
<path d="M341.359,512c-4.71,0.026-8.559-3.772-8.585-8.482c-0.017-2.295,0.896-4.497,2.526-6.11l51.2-51.2  c3.575-3.063,8.969-2.645,12.032,0.93c2.739,3.191,2.739,7.91,0,11.102l-51.2,51.2C345.754,511.044,343.612,511.966,341.359,512z"/>
<path d="M119.492,426.667c-4.71,0.026-8.559-3.772-8.585-8.482c-0.017-2.295,0.896-4.497,2.526-6.11L335.3,190.208  c3.575-3.063,8.969-2.645,12.032,0.93c2.739,3.191,2.739,7.91,0,11.102L125.466,424.107  C123.887,425.711,121.745,426.633,119.492,426.667z"/>
<path d="M119.492,477.867c-4.71,0.026-8.559-3.772-8.585-8.482c-0.017-2.295,0.896-4.497,2.526-6.11L386.5,190.208  c3.575-3.063,8.969-2.645,12.032,0.93c2.739,3.191,2.739,7.91,0,11.102L125.466,475.307  C123.887,476.911,121.745,477.833,119.492,477.867z"/>
<g>
</g>
<g>
</g>
<g>
</g>
<g>
</g>
<g>
</g>
<g>
</g>
<g>
</g>
<g>
</g>
<g>
</g>
<g>
</g>
<g>
</g>
<g>
</g>
<g>
</g>
<g>
</g>
<g>
</g>
</svg>
