<?xml version="1.0" encoding="iso-8859-1"?>
<!-- Generator: Adobe Illustrator 19.0.0, SVG Export Plug-In . SVG Version: 6.00 Build 0)  -->
<svg xmlns="http://www.w3.org/2000/svg" xmlns:xlink="http://www.w3.org/1999/xlink" version="1.1" id="Layer_1" x="0px" y="0px" viewBox="0 0 512 512" style="enable-background:new 0 0 512 512;" xml:space="preserve">
<path style="fill:#555656;" d="M204.8,96.293V415.61l-25.6-20.736l-76.8-62.037H25.6c-9.429,0-17.067-7.637-17.067-17.067V196.304  c0-9.429,7.637-17.067,17.067-17.067h76.8l76.8-62.123L204.8,96.293z"/>
<path style="fill:#717272;" d="M179.2,117.029v277.845l-76.8-62.037H25.6c-9.429,0-17.067-7.637-17.067-17.067V196.304  c0-9.429,7.637-17.067,17.067-17.067h76.8L179.2,117.029z"/>
<path style="fill:#555656;" d="M273.067,76.837v358.4c-0.026,9.429-7.68,17.05-17.109,17.024c-3.755-0.009-7.398-1.254-10.368-3.541  L204.8,415.61V96.293l40.789-33.024c7.467-5.751,18.185-4.352,23.936,3.115C271.829,69.379,273.075,73.057,273.067,76.837z"/>
<path style="fill:#2979FF;" d="M503.467,256.037c0,51.84-42.027,93.867-93.867,93.867c-4.284,0.034-8.568-0.282-12.8-0.939  c-51.319-7.313-86.997-54.844-79.684-106.172c5.888-41.327,38.357-73.796,79.684-79.684c4.233-0.657,8.516-0.973,12.8-0.939  C461.44,162.17,503.467,204.197,503.467,256.037z"/>
<path style="fill:#0091EA;" d="M477.867,256.037c-0.034,46.874-34.637,86.537-81.067,92.928  c-51.319-7.313-86.997-54.844-79.684-106.172c5.888-41.327,38.357-73.796,79.684-79.684  C443.23,169.5,477.833,209.163,477.867,256.037z"/>
<rect x="358.4" y="238.885" style="fill:#F4F4F4;" width="102.4" height="34.133"/>
<rect x="358.4" y="238.885" style="fill:#FFFFFF;" width="76.8" height="34.133"/>
<path d="M204.8,424.144c-1.954,0.009-3.849-0.657-5.376-1.877L99.413,341.37H25.6c-14.14,0-25.6-11.46-25.6-25.6V196.304  c0-14.14,11.46-25.6,25.6-25.6h73.813l100.011-81.067c3.661-2.97,9.037-2.406,12.006,1.254c1.237,1.527,1.911,3.439,1.903,5.402  V415.61C213.333,420.329,209.51,424.144,204.8,424.144z M25.6,187.77c-4.71,0-8.533,3.823-8.533,8.533V315.77  c0,4.71,3.823,8.533,8.533,8.533h76.8c1.954-0.009,3.849,0.657,5.376,1.877l88.491,71.509V114.128l-88.491,71.595  c-1.502,1.289-3.405,2.014-5.376,2.048H25.6z"/>
<path d="M256,460.837c-5.658-0.017-11.145-1.911-15.616-5.376l-40.96-33.109c-2.031-1.647-3.191-4.13-3.157-6.741V96.293  c-0.009-2.586,1.152-5.026,3.157-6.656l40.789-33.024c11.127-8.721,27.221-6.767,35.942,4.369  c3.541,4.523,5.461,10.112,5.444,15.855v358.4C281.6,449.377,270.14,460.837,256,460.837z M213.333,411.6l37.632,30.464  c2.483,1.801,5.743,2.125,8.533,0.853c3.029-1.365,4.992-4.361,5.035-7.68v-358.4c-0.009-4.71-3.84-8.525-8.55-8.516  c-1.877,0.009-3.695,0.623-5.188,1.775l-37.461,30.208V411.6z"/>
<path d="M409.6,358.437c-56.55,0-102.4-45.85-102.4-102.4s45.85-102.4,102.4-102.4s102.4,45.85,102.4,102.4  S466.15,358.437,409.6,358.437z M409.6,170.704c-47.13,0-85.333,38.204-85.333,85.333S362.47,341.37,409.6,341.37  s85.333-38.204,85.333-85.333S456.73,170.704,409.6,170.704z"/>
<path d="M460.8,281.637H358.4c-4.71,0-8.533-3.823-8.533-8.533V238.97c0-4.71,3.823-8.533,8.533-8.533h102.4  c4.71,0,8.533,3.823,8.533,8.533v34.133C469.333,277.823,465.51,281.637,460.8,281.637z M366.933,264.57h85.333v-17.067h-85.333  V264.57z"/>
<g>
</g>
<g>
</g>
<g>
</g>
<g>
</g>
<g>
</g>
<g>
</g>
<g>
</g>
<g>
</g>
<g>
</g>
<g>
</g>
<g>
</g>
<g>
</g>
<g>
</g>
<g>
</g>
<g>
</g>
</svg>
