<?xml version="1.0" encoding="iso-8859-1"?>
<!-- Generator: Adobe Illustrator 19.0.0, SVG Export Plug-In . SVG Version: 6.00 Build 0)  -->
<svg xmlns="http://www.w3.org/2000/svg" xmlns:xlink="http://www.w3.org/1999/xlink" version="1.1" id="Layer_1" x="0px" y="0px" viewBox="0 0 512 512" style="enable-background:new 0 0 512 512;" xml:space="preserve">
<path style="fill:#555656;" d="M204.8,96.293V415.61l-25.6-20.736l-76.8-62.037H25.6c-9.429,0-17.067-7.637-17.067-17.067V196.304  c0-9.429,7.637-17.067,17.067-17.067h76.8l76.8-62.037l0,0L204.8,96.293z"/>
<path style="fill:#717272;" d="M179.2,117.029v277.845l-76.8-62.037H25.6c-9.429,0-17.067-7.637-17.067-17.067V196.304  c0-9.429,7.637-17.067,17.067-17.067h76.8l76.8-62.037V117.029z"/>
<path style="fill:#555656;" d="M273.067,76.837v358.4c-0.026,9.429-7.68,17.05-17.109,17.024c-3.755-0.009-7.398-1.254-10.368-3.541  L204.8,415.61V96.293l40.789-33.024c7.467-5.751,18.185-4.352,23.936,3.115C271.829,69.379,273.075,73.057,273.067,76.837z"/>
<path style="fill:#B71C1C;" d="M503.467,264.57c0,51.84-42.027,93.867-93.867,93.867c-4.284,0.034-8.568-0.282-12.8-0.939  c-51.319-7.313-86.997-54.844-79.684-106.172c5.888-41.327,38.357-73.796,79.684-79.684c4.233-0.657,8.516-0.973,12.8-0.939  C461.44,170.704,503.467,212.73,503.467,264.57z"/>
<path style="fill:#D50000;" d="M477.867,264.57c-0.034,46.874-34.637,86.537-81.067,92.928  c-51.319-7.313-86.997-54.844-79.684-106.172c5.888-41.327,38.357-73.796,79.684-79.684  C443.23,178.034,477.833,217.697,477.867,264.57z"/>
<polygon style="fill:#FFFFFF;" points="411.051,264.57 435.2,298.704 428.8,307.749 409.6,288.634 392.107,306.042 385.451,312.698   380.501,307.749 361.301,288.634 385.451,264.485 361.301,240.336 380.416,221.221 385.451,216.186 409.6,240.336 428.715,221.221   435.2,230.352 "/>
<polygon style="fill:#F4F4F4;" points="433.749,264.485 457.899,288.634 433.749,312.698 428.8,307.749 435.2,298.704   411.051,264.57 435.2,230.352 428.715,221.221 433.749,216.186 457.899,240.336 "/>
<path d="M204.8,424.144c-1.954,0.009-3.849-0.657-5.376-1.877L99.413,341.37H25.6c-14.14,0-25.6-11.46-25.6-25.6V196.304  c0-14.14,11.46-25.6,25.6-25.6h73.813l100.011-80.981c3.661-2.97,9.037-2.406,12.006,1.254c1.237,1.527,1.911,3.439,1.903,5.402  V415.61C213.333,420.329,209.51,424.144,204.8,424.144z M25.6,187.77c-4.71,0-8.533,3.823-8.533,8.533V315.77  c0,4.71,3.823,8.533,8.533,8.533h76.8c1.954-0.009,3.849,0.657,5.376,1.877l88.491,71.595V114.213l-88.491,71.595  c-1.51,1.254-3.413,1.946-5.376,1.963L25.6,187.77L25.6,187.77z"/>
<path d="M256,460.837c-5.658-0.017-11.145-1.911-15.616-5.376l-40.96-33.109c-2.031-1.647-3.191-4.13-3.157-6.741V96.293  c-0.009-2.586,1.152-5.026,3.157-6.656l40.789-33.024c11.127-8.721,27.221-6.767,35.942,4.369  c3.541,4.523,5.461,10.112,5.444,15.855v358.4C281.6,449.377,270.14,460.837,256,460.837z M213.333,411.6l37.632,30.464  c2.483,1.801,5.743,2.125,8.533,0.853c3.029-1.365,4.992-4.361,5.035-7.68v-358.4c-0.009-4.71-3.84-8.525-8.55-8.516  c-1.877,0.009-3.695,0.623-5.188,1.775l-37.461,30.293V411.6z"/>
<path d="M409.6,366.97c-56.55,0-102.4-45.85-102.4-102.4s45.85-102.4,102.4-102.4S512,208.02,512,264.57S466.15,366.97,409.6,366.97  z M409.6,179.237c-47.13,0-85.333,38.204-85.333,85.333s38.204,85.333,85.333,85.333s85.333-38.204,85.333-85.333  S456.73,179.237,409.6,179.237z"/>
<path d="M433.749,321.232c-2.27,0.017-4.446-0.879-6.059-2.475L409.6,300.666l-18.091,18.091c-3.328,3.311-8.704,3.311-12.032,0  l-24.149-24.064c-3.345-3.319-3.371-8.721-0.051-12.066c0.017-0.017,0.034-0.034,0.051-0.051l18.091-18.005l-18.091-18.091  c-3.311-3.328-3.311-8.704,0-12.032l24.149-24.149c3.328-3.311,8.704-3.311,12.032,0l18.091,18.005l18.091-18.091  c3.328-3.311,8.704-3.311,12.032,0l24.149,24.149c3.311,3.328,3.311,8.704,0,12.032l-18.091,18.176l18.091,18.091  c3.345,3.319,3.371,8.721,0.051,12.066c-0.017,0.017-0.034,0.034-0.051,0.051l-24.149,24.064  C438.118,320.387,435.977,321.249,433.749,321.232z M409.6,280.101c2.27-0.017,4.446,0.879,6.059,2.475l18.091,18.091l12.117-12.032  l-18.176-18.091c-3.311-3.328-3.311-8.704,0-12.032l18.091-18.091l-12.117-12.117l-18.091,18.091c-3.328,3.311-8.704,3.311-12.032,0  l-18.091-18.091l-12.117,12.117l18.091,18.091c3.311,3.328,3.311,8.704,0,12.032l-18.091,18.091l12.117,12.032l18.091-18.091  C405.154,280.98,407.33,280.092,409.6,280.101z"/>
<g>
</g>
<g>
</g>
<g>
</g>
<g>
</g>
<g>
</g>
<g>
</g>
<g>
</g>
<g>
</g>
<g>
</g>
<g>
</g>
<g>
</g>
<g>
</g>
<g>
</g>
<g>
</g>
<g>
</g>
</svg>
