<?xml version="1.0" encoding="iso-8859-1"?>
<!-- Generator: Adobe Illustrator 19.0.0, SVG Export Plug-In . SVG Version: 6.00 Build 0)  -->
<svg xmlns="http://www.w3.org/2000/svg" xmlns:xlink="http://www.w3.org/1999/xlink" version="1.1" id="Layer_1" x="0px" y="0px" viewBox="0 0 512 512" style="enable-background:new 0 0 512 512;" xml:space="preserve">
<path style="fill:#388E3C;" d="M503.542,136.447l-34.138,34.138c-117.963-117.537-308.76-117.537-426.724,0L8.543,136.447  C145.154-0.241,366.701-0.309,503.397,136.302C503.44,136.353,503.491,136.404,503.542,136.447z"/>
<path style="fill:#4CAF50;" d="M503.542,136.447l-16.472,16.472c-129.075-123.963-332.981-123.963-462.056,0L8.543,136.447  C145.154-0.241,366.701-0.309,503.397,136.302C503.44,136.353,503.491,136.404,503.542,136.447z"/>
<path style="fill:#388E3C;" d="M435.267,204.723l-34.138,34.138c-80.224-79.9-209.948-79.9-290.172,0l-34.138-34.138  C175.938,106.081,336.147,106.081,435.267,204.723z"/>
<path style="fill:#4CAF50;" d="M435.267,204.723l-20.312,20.312c-87.879-87.495-229.944-87.495-317.824,0l-20.312-20.312  C175.938,106.081,336.147,106.081,435.267,204.723z"/>
<path style="fill:#388E3C;" d="M366.991,272.999l-34.138,34.138c-42.305-42.425-110.982-42.519-153.407-0.213  c-0.068,0.068-0.145,0.145-0.213,0.213l-34.138-34.138c1.451-1.451,2.902-2.902,4.438-4.182  C211.424,211.713,307.335,213.556,366.991,272.999z"/>
<path style="fill:#4CAF50;" d="M366.991,272.999l-21.08,21.08c-50.353-50.439-129.809-53.084-176.92-5.889l-19.459-19.459  C211.45,211.644,307.36,213.53,366.991,272.999z"/>
<path style="fill:#388E3C;" d="M324.318,409.55c0,37.705-30.57,68.276-68.276,68.276c-4.293-0.009-8.577-0.401-12.802-1.195  c-37.048-7.024-61.388-42.749-54.365-79.797c5.223-27.575,26.79-49.133,54.365-54.365c4.225-0.794,8.509-1.186,12.802-1.195  C293.748,341.274,324.318,371.845,324.318,409.55z"/>
<path style="fill:#4CAF50;" d="M298.715,409.55c0.009,32.781-23.282,60.936-55.474,67.081  c-37.048-7.024-61.388-42.749-54.365-79.797c5.223-27.575,26.79-49.133,54.365-54.365  C275.433,348.622,298.724,376.778,298.715,409.55z"/>
<path d="M469.404,179.119c-2.27,0.017-4.446-0.879-6.059-2.475c-114.592-114.319-300.098-114.319-414.69,0  c-3.328,3.311-8.705,3.311-12.034,0L2.484,142.506c-3.311-3.328-3.311-8.705,0-12.034c140.11-139.778,366.923-139.778,507.033,0  c3.311,3.328,3.311,8.705,0,12.034l-34.138,34.138C473.791,178.223,471.641,179.111,469.404,179.119z M256.043,73.719  c79.362-0.171,155.746,30.169,213.362,84.747l22.019-22.019c-131.934-125.235-338.827-125.235-470.761,0l22.019,22.019  C100.297,103.897,176.681,73.548,256.043,73.719z"/>
<path d="M401.129,247.395c-2.27,0.017-4.446-0.879-6.059-2.475c-76.853-76.682-201.285-76.682-278.138,0  c-3.328,3.311-8.705,3.311-12.034,0l-34.138-34.138c-3.311-3.328-3.311-8.705,0-12.034c102.371-102.141,268.11-102.141,370.481,0  c3.311,3.328,3.311,8.705,0,12.034l-34.138,34.138C405.515,246.499,403.365,247.387,401.129,247.395z M256.043,170.585  c53.767-0.094,105.58,20.116,145.086,56.584l21.934-22.446c-94.152-87.589-239.972-87.589-334.125,0l22.019,22.104  C150.514,190.487,202.327,170.406,256.043,170.585z"/>
<path d="M332.853,315.671c-2.27,0.017-4.446-0.879-6.059-2.475c-39.045-38.977-102.286-38.977-141.331,0  c-3.328,3.311-8.705,3.311-12.034,0l-34.138-34.138c-3.346-3.32-3.371-8.722-0.051-12.068c0.017-0.017,0.034-0.034,0.051-0.051  c64.649-64.469,169.281-64.469,233.93,0c3.311,3.328,3.311,8.705,0,12.034l-34.138,34.138  C337.444,314.783,335.191,315.714,332.853,315.671z M157.384,272.999l21.848,22.275c43.953-37.85,108.985-37.85,152.938,0  l22.19-22.19C298.152,223.294,213.626,223.251,157.384,272.999z"/>
<path d="M256.043,486.36c-42.425,0-76.81-34.385-76.81-76.81s34.385-76.81,76.81-76.81s76.81,34.385,76.81,76.81  S298.459,486.36,256.043,486.36L256.043,486.36z M256.043,349.809c-32.994,0-59.741,26.747-59.741,59.741  s26.747,59.741,59.741,59.741s59.741-26.747,59.741-59.741S289.037,349.809,256.043,349.809z"/>
<g>
</g>
<g>
</g>
<g>
</g>
<g>
</g>
<g>
</g>
<g>
</g>
<g>
</g>
<g>
</g>
<g>
</g>
<g>
</g>
<g>
</g>
<g>
</g>
<g>
</g>
<g>
</g>
<g>
</g>
</svg>
