<?xml version="1.0" encoding="iso-8859-1"?>
<!-- Generator: Adobe Illustrator 19.0.0, SVG Export Plug-In . SVG Version: 6.00 Build 0)  -->
<svg xmlns="http://www.w3.org/2000/svg" xmlns:xlink="http://www.w3.org/1999/xlink" version="1.1" id="Layer_1" x="0px" y="0px" viewBox="0 0 512 512" style="enable-background:new 0 0 512 512;" xml:space="preserve">
<path style="fill:#BDBDBD;" d="M460.8,256c-0.094,128.333-98.278,235.298-226.133,246.357  C98.56,489.933-1.707,369.536,10.709,233.429C21.564,114.526,115.763,20.326,234.667,9.472C362.581,20.54,460.792,127.607,460.8,256  z"/>
<path style="fill:#A8A5A4;" d="M503.467,256c0,136.67-110.797,247.467-247.467,247.467c-7.168,0-14.336,0-21.333-1.024  C98.56,490.018-1.707,369.621,10.709,233.515C21.564,114.611,115.763,20.412,234.667,9.557c6.997-1.024,14.165-1.024,21.333-1.024  C392.67,8.533,503.467,119.33,503.467,256z"/>
<path style="fill:#2979FF;" d="M404.565,267.947L290.133,383.573l-4.949,5.035c-6.639,6.69-17.442,6.733-24.132,0.102  c-3.234-3.209-5.052-7.578-5.052-12.134v-70.571l37.632-38.059c6.613-6.656,6.613-17.408,0-24.064L256,205.824v-70.571  c-0.009-9.429,7.629-17.075,17.05-17.084c4.557,0,8.926,1.818,12.134,5.052l4.949,4.779l114.432,115.883  C411.179,250.539,411.179,261.291,404.565,267.947z"/>
<path style="fill:#0091EA;" d="M404.565,267.947L290.133,383.573v-71.765l37.632-42.667c6.724-7.663,6.724-19.132,0-26.795  l-37.632-42.667V128l114.432,115.883C411.179,250.539,411.179,261.291,404.565,267.947z"/>
<path style="fill:#2979FF;" d="M293.632,267.947L256,306.005l-81.749,82.603c-6.639,6.69-17.442,6.733-24.132,0.102  c-3.234-3.209-5.052-7.578-5.052-12.134V135.253c-0.009-9.429,7.629-17.075,17.05-17.084c4.557,0,8.926,1.818,12.134,5.052  L256,205.824l37.632,38.059C300.245,250.539,300.245,261.291,293.632,267.947z"/>
<path style="fill:#0091EA;" d="M250.965,267.947l-37.632,38.059l-68.267,68.949V136.533l68.267,68.949l37.632,38.059  c6.741,6.588,6.861,17.391,0.273,24.132C251.145,267.767,251.059,267.861,250.965,267.947z"/>
<path d="M256,512C114.611,512,0,397.389,0,256S114.611,0,256,0s256,114.611,256,256S397.389,512,256,512z M256,17.067  C124.041,17.067,17.067,124.041,17.067,256S124.041,494.933,256,494.933S494.933,387.96,494.933,256S387.96,17.067,256,17.067z"/>
<path d="M273.067,402.176c-3.43-0.017-6.827-0.717-9.984-2.048c-9.463-4.002-15.607-13.278-15.616-23.552v-70.571  c0.009-2.236,0.896-4.386,2.475-5.973l37.632-38.059c3.251-3.319,3.251-8.627,0-11.947l-37.717-38.144  c-1.579-1.587-2.466-3.738-2.475-5.973v-70.656c-0.034-14.14,11.401-25.626,25.54-25.66c6.844-0.017,13.414,2.714,18.236,7.569  l119.467,120.661c9.924,9.984,9.924,26.112,0,36.096L291.157,394.581C286.379,399.411,279.868,402.15,273.067,402.176z   M264.533,309.504v67.072c0.017,3.447,2.108,6.545,5.291,7.851c3.217,1.357,6.938,0.606,9.387-1.877l119.467-120.661l0,0  c3.251-3.319,3.251-8.627,0-11.947L279.211,129.195c-2.458-2.423-6.127-3.132-9.301-1.792c-3.183,1.306-5.274,4.403-5.291,7.851  v67.072l35.157,35.584c9.924,9.984,9.924,26.112,0,36.096L264.533,309.504z"/>
<path d="M162.133,402.176c-3.43-0.017-6.827-0.717-9.984-2.048c-9.463-4.002-15.607-13.278-15.616-23.552V135.253  c-0.034-14.14,11.401-25.626,25.54-25.66c6.844-0.017,13.414,2.714,18.236,7.569l119.467,120.661c9.924,9.984,9.924,26.112,0,36.096  L180.309,394.581C175.505,399.437,168.96,402.168,162.133,402.176z M162.133,126.72c-1.203,0-2.389,0.23-3.499,0.683  c-3.183,1.306-5.274,4.403-5.291,7.851v241.323c0.017,4.71,3.857,8.516,8.567,8.499c2.261-0.009,4.429-0.922,6.025-2.526  l119.467-120.661l0,0c3.251-3.319,3.251-8.627,0-11.947L167.936,129.195C166.417,127.616,164.326,126.72,162.133,126.72z"/>
<g>
</g>
<g>
</g>
<g>
</g>
<g>
</g>
<g>
</g>
<g>
</g>
<g>
</g>
<g>
</g>
<g>
</g>
<g>
</g>
<g>
</g>
<g>
</g>
<g>
</g>
<g>
</g>
<g>
</g>
</svg>
