<?xml version="1.0" encoding="iso-8859-1"?>
<!-- Generator: Adobe Illustrator 19.0.0, SVG Export Plug-In . SVG Version: 6.00 Build 0)  -->
<svg xmlns="http://www.w3.org/2000/svg" xmlns:xlink="http://www.w3.org/1999/xlink" version="1.1" id="Layer_1" x="0px" y="0px" viewBox="0 0 512 512" style="enable-background:new 0 0 512 512;" xml:space="preserve">
<path style="fill:#A8A5A4;" d="M495.07,256c0,136.67-110.797,247.467-247.467,247.467c-5.717,0-11.435,0-17.067-0.683  C94.225,492.962-8.32,374.494,1.502,238.174C10.334,115.524,107.896,17.971,230.537,9.131c5.632-0.597,11.349-0.597,17.067-0.597  C384.282,8.533,495.07,119.33,495.07,256z"/>
<path style="fill:#BDBDBD;" d="M460.937,256c-0.094,129.98-100.727,237.739-230.4,246.699  C94.242,492.553-8.021,373.837,2.125,237.542C11.221,115.362,108.356,18.227,230.537,9.131  C360.277,18.099,460.937,125.952,460.937,256z"/>
<path style="fill:#388E3C;" d="M353.502,267.947L234.035,388.608c-6.682,6.647-17.493,6.613-24.132-0.068  c-3.157-3.183-4.941-7.475-4.966-11.964V135.253c-0.009-9.429,7.629-17.075,17.05-17.084c4.557,0,8.926,1.818,12.134,5.052  l119.467,120.661C360.184,250.564,360.149,261.316,353.502,267.947z"/>
<path style="fill:#4CAF50;" d="M310.835,266.752L204.937,373.675V135.68l105.899,106.923c6.665,6.665,6.673,17.468,0.017,24.132  C310.844,266.744,310.844,266.744,310.835,266.752z"/>
<path d="M256.137,512L256.137,512C114.756,512.077,0.077,397.525,0,256.137S114.475,0.077,255.864,0S511.923,114.475,512,255.864  c0.034,67.891-26.897,133.009-74.871,181.043C389.146,484.949,324.045,511.966,256.137,512z M256.137,17.067  C124.177,17.067,17.203,124.041,17.203,256s106.974,238.933,238.933,238.933S495.07,387.96,495.07,256  S388.096,17.067,256.137,17.067z"/>
<path d="M222.003,402.261c-3.396,0.009-6.758-0.657-9.899-1.963c-9.549-4.002-15.744-13.363-15.701-23.723V135.253  c0.009-14.14,11.486-25.591,25.626-25.574c6.818,0.009,13.355,2.731,18.15,7.569l119.467,120.576c9.984,9.993,9.984,26.189,0,36.181  L240.179,394.581C235.392,399.471,228.847,402.236,222.003,402.261z M222.003,126.72c-1.169,0.009-2.33,0.239-3.413,0.683  c-3.183,1.306-5.274,4.403-5.291,7.851v241.323c0.017,4.71,3.857,8.516,8.567,8.499c2.261-0.009,4.429-0.922,6.025-2.526  l119.467-120.576c3.345-3.319,3.371-8.721,0.051-12.066c-0.017-0.017-0.034-0.034-0.051-0.051L227.891,129.28  C226.338,127.693,224.23,126.771,222.003,126.72z"/>
<g>
</g>
<g>
</g>
<g>
</g>
<g>
</g>
<g>
</g>
<g>
</g>
<g>
</g>
<g>
</g>
<g>
</g>
<g>
</g>
<g>
</g>
<g>
</g>
<g>
</g>
<g>
</g>
<g>
</g>
</svg>
