<?xml version="1.0" encoding="iso-8859-1"?>
<!-- Generator: Adobe Illustrator 19.0.0, SVG Export Plug-In . SVG Version: 6.00 Build 0)  -->
<svg xmlns="http://www.w3.org/2000/svg" xmlns:xlink="http://www.w3.org/1999/xlink" version="1.1" id="Layer_1" x="0px" y="0px" viewBox="0 0 512 512" style="enable-background:new 0 0 512 512;" xml:space="preserve">
<path style="fill:#A8A5A4;" d="M503.467,256c0,136.67-110.797,247.467-247.467,247.467c-7.168,0-14.336,0-21.333-1.024  C98.56,490.018-1.707,369.621,10.709,233.515C21.564,114.611,115.763,20.412,234.667,9.557c6.997-1.024,14.165-1.024,21.333-1.024  C392.67,8.533,503.467,119.33,503.467,256z"/>
<path style="fill:#BDBDBD;" d="M460.8,256c-0.094,128.333-98.278,235.298-226.133,246.357  C98.56,489.933-1.707,369.536,10.709,233.429C21.564,114.526,115.763,20.326,234.667,9.472C362.581,20.54,460.792,127.607,460.8,256  z"/>
<path style="fill:#B71C1C;" d="M179.2,136.448h25.6c9.429,0,17.067,7.637,17.067,17.067v204.8c0,9.429-7.637,17.067-17.067,17.067  h-25.6c-9.429,0-17.067-7.637-17.067-17.067v-204.8C162.133,144.085,169.771,136.448,179.2,136.448z"/>
<path style="fill:#D50000;" d="M179.2,136.448h8.533c9.429,0,17.067,7.637,17.067,17.067v204.8c0,9.429-7.637,17.067-17.067,17.067  H179.2c-9.429,0-17.067-7.637-17.067-17.067v-204.8C162.133,144.085,169.771,136.448,179.2,136.448z"/>
<path style="fill:#B71C1C;" d="M307.2,136.448h25.6c9.429,0,17.067,7.637,17.067,17.067v204.8c0,9.429-7.637,17.067-17.067,17.067  h-25.6c-9.429,0-17.067-7.637-17.067-17.067v-204.8C290.133,144.085,297.771,136.448,307.2,136.448z"/>
<path style="fill:#D50000;" d="M307.2,136.448h8.533c9.429,0,17.067,7.637,17.067,17.067v204.8c0,9.429-7.637,17.067-17.067,17.067  H307.2c-9.429,0-17.067-7.637-17.067-17.067v-204.8C290.133,144.085,297.771,136.448,307.2,136.448z"/>
<path d="M256,512C114.611,512,0,397.389,0,256S114.611,0,256,0s256,114.611,256,256S397.389,512,256,512z M256,17.067  C124.041,17.067,17.067,124.041,17.067,256S124.041,494.933,256,494.933S494.933,387.96,494.933,256S387.96,17.067,256,17.067z"/>
<path d="M204.8,384h-25.6c-14.14,0-25.6-11.46-25.6-25.6V153.6c0-14.14,11.46-25.6,25.6-25.6h25.6c14.14,0,25.6,11.46,25.6,25.6  v204.8C230.4,372.54,218.94,384,204.8,384z M179.2,145.067c-4.71,0-8.533,3.823-8.533,8.533v204.8c0,4.71,3.823,8.533,8.533,8.533  h25.6c4.71,0,8.533-3.823,8.533-8.533V153.6c0-4.71-3.823-8.533-8.533-8.533H179.2z"/>
<path d="M332.8,384h-25.6c-14.14,0-25.6-11.46-25.6-25.6V153.6c0-14.14,11.46-25.6,25.6-25.6h25.6c14.14,0,25.6,11.46,25.6,25.6  v204.8C358.4,372.54,346.94,384,332.8,384z M307.2,145.067c-4.71,0-8.533,3.823-8.533,8.533v204.8c0,4.71,3.823,8.533,8.533,8.533  h25.6c4.71,0,8.533-3.823,8.533-8.533V153.6c0-4.71-3.823-8.533-8.533-8.533H307.2z"/>
<g>
</g>
<g>
</g>
<g>
</g>
<g>
</g>
<g>
</g>
<g>
</g>
<g>
</g>
<g>
</g>
<g>
</g>
<g>
</g>
<g>
</g>
<g>
</g>
<g>
</g>
<g>
</g>
<g>
</g>
</svg>
