<?xml version="1.0" encoding="iso-8859-1"?>
<!-- Generator: Adobe Illustrator 19.0.0, SVG Export Plug-In . SVG Version: 6.00 Build 0)  -->
<svg xmlns="http://www.w3.org/2000/svg" xmlns:xlink="http://www.w3.org/1999/xlink" version="1.1" id="Layer_1" x="0px" y="0px" viewBox="0 0 512 512" style="enable-background:new 0 0 512 512;" xml:space="preserve">
<path style="fill:#A8A5A4;" d="M503.467,256c-0.06,126.063-94.865,231.936-220.16,245.845c-9.062,1.058-18.185,1.596-27.307,1.621  C119.33,503.467,8.533,392.67,8.533,256S119.33,8.533,256,8.533S503.467,119.33,503.467,256z"/>
<path style="fill:#BDBDBD;" d="M460.8,264.533c-0.026,109.705-72.269,206.293-177.493,237.312  c-9.062,1.058-18.185,1.596-27.307,1.621C119.33,503.68,8.354,393.062,8.141,256.393C7.97,146.372,80.444,49.451,186.027,18.517  c9.071-0.998,18.185-1.485,27.307-1.451C350.003,17.067,460.8,127.863,460.8,264.533z"/>
<path style="fill:#2979FF;" d="M218.368,243.883c-6.613,6.656-6.613,17.408,0,24.064L256,306.005v70.571  c0.009,9.429-7.629,17.075-17.05,17.084c-4.557,0-8.926-1.818-12.134-5.052l-4.949-5.035L107.435,267.947  c-6.613-6.656-6.613-17.408,0-24.064L221.867,128l4.949-5.035c6.639-6.69,17.442-6.741,24.132-0.102  c3.302,3.268,5.12,7.748,5.052,12.39v70.571L218.368,243.883z"/>
<path style="fill:#0091EA;" d="M184.235,242.517c-6.724,7.663-6.724,19.132,0,26.795l37.632,42.667v71.765L107.435,267.947  c-6.613-6.656-6.613-17.408,0-24.064L221.867,128v71.765L184.235,242.517z"/>
<path style="fill:#2979FF;" d="M366.933,135.253v241.323c0.009,9.429-7.629,17.075-17.05,17.084c-4.557,0-8.926-1.818-12.134-5.052  l-5.973-6.059L256,305.749l-37.632-37.803c-6.613-6.656-6.613-17.408,0-24.064L256,205.824l75.776-76.8l5.973-6.059  c6.639-6.69,17.442-6.741,24.132-0.102C365.184,126.131,367.01,130.611,366.933,135.253z"/>
<path style="fill:#0091EA;" d="M332.8,135.253v241.323c0.017,2.039-0.333,4.062-1.024,5.973L256,305.749l-37.632-37.803  c-6.613-6.656-6.613-17.408,0-24.064L256,205.824l75.776-76.8C332.501,131.021,332.851,133.129,332.8,135.253z"/>
<path d="M256,512C114.611,512,0,397.389,0,256S114.611,0,256,0s256,114.611,256,256S397.389,512,256,512z M256,17.067  C124.041,17.067,17.067,124.041,17.067,256S124.041,494.933,256,494.933S494.933,387.96,494.933,256S387.96,17.067,256,17.067z"/>
<path d="M238.933,402.176c-6.767-0.051-13.244-2.782-18.005-7.595L101.461,273.92c-9.984-9.993-9.984-26.189,0-36.181  l119.467-120.576c10.052-9.941,26.257-9.856,36.207,0.196c4.719,4.77,7.373,11.196,7.398,17.894v70.571  c-0.009,2.236-0.896,4.386-2.475,5.973l-37.632,38.059c-1.647,1.613-2.577,3.831-2.56,6.144c0.034,2.253,0.956,4.395,2.56,5.973  l37.717,38.144c1.579,1.587,2.466,3.738,2.475,5.973v70.571c0,10.342-6.229,19.669-15.787,23.637  C245.683,401.562,242.321,402.202,238.933,402.176z M238.933,126.72c-2.219,0.051-4.335,0.973-5.888,2.56L113.579,249.941  c-1.664,1.579-2.611,3.763-2.645,6.059c0.034,2.253,0.956,4.395,2.56,5.973l0,0L232.96,382.635  c3.362,3.302,8.772,3.243,12.066-0.119c1.553-1.587,2.432-3.721,2.441-5.939v-67.072l-35.157-35.584  c-9.924-9.984-9.924-26.112,0-36.096l35.157-35.499v-67.072c-0.017-3.447-2.108-6.545-5.291-7.851  C241.143,126.985,240.043,126.754,238.933,126.72z"/>
<path d="M349.867,402.176c-6.767-0.051-13.244-2.782-18.005-7.595L212.395,273.92c-9.984-9.993-9.984-26.189,0-36.181  l119.467-120.576c10.052-9.941,26.257-9.856,36.207,0.196c4.719,4.77,7.373,11.196,7.398,17.894v241.323  c0,10.342-6.229,19.669-15.787,23.637C356.565,401.493,353.237,402.159,349.867,402.176z M349.867,126.72  c-2.219,0.051-4.335,0.973-5.888,2.56L224.512,249.941c-1.664,1.579-2.611,3.763-2.645,6.059c0.034,2.253,0.956,4.395,2.56,5.973  l0,0l119.467,120.661c3.362,3.302,8.772,3.243,12.066-0.119c1.553-1.587,2.432-3.721,2.441-5.939V135.253  c-0.017-3.447-2.108-6.545-5.291-7.851C352.077,126.985,350.976,126.754,349.867,126.72z"/>
<g>
</g>
<g>
</g>
<g>
</g>
<g>
</g>
<g>
</g>
<g>
</g>
<g>
</g>
<g>
</g>
<g>
</g>
<g>
</g>
<g>
</g>
<g>
</g>
<g>
</g>
<g>
</g>
<g>
</g>
</svg>
