<?xml version="1.0" encoding="iso-8859-1"?>
<!-- Generator: Adobe Illustrator 19.0.0, SVG Export Plug-In . SVG Version: 6.00 Build 0)  -->
<svg xmlns="http://www.w3.org/2000/svg" xmlns:xlink="http://www.w3.org/1999/xlink" version="1.1" id="Layer_1" x="0px" y="0px" viewBox="0 0 512 512" style="enable-background:new 0 0 512 512;" xml:space="preserve">
<path style="fill:#AFB42B;" d="M196.489,452.489l5.951,1.7c-8.51,3.112-17.352,5.194-26.355,6.206  c-4.514,0.485-9.063,0.68-13.603,0.595c-65.734,0-119.022-53.288-119.022-119.022c0-2.491,0-4.956,0-7.396  c0.417-6.104,1.36-12.166,2.806-18.108l14.198-2.295l0.51,1.87l80.935-13.943c14.223,30.223,38.801,54.359,69.288,68.013  L196.489,452.489z"/>
<path style="fill:#827717;" d="M196.489,452.489l5.951,1.7c-8.51,3.112-17.352,5.194-26.355,6.206  c-59.18-22.682-106.899-67.987-132.625-125.909c0.425-6.079,1.36-12.106,2.806-18.023l14.198-2.295l0.51,1.87l80.935-13.943  c14.223,30.223,38.801,54.359,69.288,68.013L196.489,452.489z"/>
<g>
	<path style="fill:#AFB42B;" d="M196.489,61.416l14.623,85.016c-29.866,12.208-53.535,35.97-65.632,65.887l-85.016-14.878   c-1.87,6.121-3.486,12.412-4.761,18.789c-29.279-58.857-5.296-130.295,53.56-159.575c33.505-16.663,72.901-16.604,106.355,0.17   C209.241,58.1,202.95,59.716,196.489,61.416z"/>
	<path style="fill:#AFB42B;" d="M204.991,149.408c-1.989,0.901-3.919,1.921-5.781,3.061c0,0,0,0-0.68,0   c-25.904,12.82-47.354,33.139-61.552,58.321l-76.514-13.348c-1.87,6.121-3.486,12.412-4.761,18.789   c-7.26-14.58-11.426-30.495-12.242-46.759c0-2.04,0-4.081,0-6.121C43.469,97.616,96.757,44.336,162.491,44.336   c6.691,0,13.373,0.57,19.97,1.692c1.87,0,3.741,0.68,5.611,1.105L204.991,149.408z"/>
</g>
<g>
	<path style="fill:#827717;" d="M204.991,149.748c-1.955,0.85-3.911,1.7-5.866,2.721c0,0,0,0-0.68,0   c-25.879,12.829-47.294,33.156-61.467,58.321l-76.514-13.348c-1.87,6.121-3.486,12.412-4.761,18.789   c-7.26-14.58-11.426-30.495-12.242-46.759c28.353-57.785,78.274-102.113,139.001-123.443l5.526-1.615v2.806l17.003,102.019V149.748   z"/>
	<path style="fill:#827717;" d="M468.54,341.969c0,65.734-53.288,119.022-119.022,119.022c-4.234-0.009-8.459-0.238-12.667-0.68   c-9.437-0.978-18.721-3.12-27.63-6.376l6.291-1.445l-14.963-85.016c28.514-11.528,51.452-33.649,64.017-61.722   c0.68-1.36,1.19-2.721,1.785-4.081l60.616,10.457l12.752,2.21l11.562,1.955c2.533-8.298,4.497-16.765,5.866-25.335   C464.68,306.908,468.566,324.328,468.54,341.969z"/>
</g>
<path style="fill:#AFB42B;" d="M443.035,341.969c-0.034,60.735-45.798,111.702-106.185,118.257  c-9.437-0.978-18.721-3.12-27.63-6.376l6.291-1.36l-14.963-85.016c28.514-11.528,51.452-33.649,64.017-61.722l61.467,10.287  c0.425-1.36,0.85-2.806,1.19-4.166c1.913-6.869,3.392-13.858,4.421-20.914C439.108,306.925,443.001,324.336,443.035,341.969z"/>
<path style="fill:#827717;" d="M468.54,163.435c0.009,18.44-4.268,36.633-12.497,53.135c-1.275-6.376-2.891-12.667-4.761-18.789  l-14.028,2.38l-10.287,1.785l-60.446,10.372c-0.595-1.36-1.105-2.721-1.785-4.081c-12.582-28.14-35.596-50.295-64.187-61.807  l14.963-85.016c-6.121-1.87-12.412-3.486-18.789-4.761c12.701-6.334,26.44-10.338,40.553-11.817  c4.072-0.34,8.153-0.485,12.242-0.425C415.252,44.413,468.54,97.701,468.54,163.435z"/>
<path style="fill:#AFB42B;" d="M443.035,163.435c0,12.472-1.947,24.859-5.781,36.727l-10.287,1.785c0-1.445-0.765-2.806-1.19-4.166  l-61.211,10.542c-12.531-28.14-35.477-50.321-64.017-61.892l14.963-85.016c-6.121-1.87-12.412-3.486-18.789-4.761  c12.701-6.334,26.44-10.338,40.553-11.817C397.62,51.605,443.197,102.708,443.035,163.435z"/>
<path style="fill:#B71C1C;" d="M211.452,367.473l-14.963,85.016l-2.806-0.935c-62.665-20.14-111.762-69.271-131.86-131.945  c0-1.19-0.765-2.38-1.105-3.571l85.016-14.623C157.807,331.41,181.518,355.24,211.452,367.473z"/>
<path style="fill:#D50000;" d="M204.991,390.853l-10.967,60.361c-62.716-19.979-111.94-68.982-132.2-131.605l58.151-9.437  C136.315,347.393,166.955,376.477,204.991,390.853z"/>
<path style="fill:#B71C1C;" d="M211.452,146.432c-29.994,12.132-53.798,35.902-65.972,65.887l-85.016-14.878  c0-1.53,0.935-3.061,1.445-4.506c20.608-62.308,69.926-110.903,132.54-130.584l2.04-0.935L211.452,146.432z"/>
<path style="fill:#D50000;" d="M204.991,122.883c-36.99,14.759-66.431,43.86-81.615,80.68l-61.211-10.372  c20.489-62.351,69.713-111.039,132.285-130.84L204.991,122.883z"/>
<path style="fill:#B71C1C;" d="M451.537,316.039c-19.656,65.377-70.708,116.591-136.026,136.451l-1.53-8.502l-13.092-76.514  c28.514-11.528,51.452-33.649,64.017-61.722c0.68-1.36,1.19-2.721,1.785-4.081L451.537,316.039z"/>
<path style="fill:#D50000;" d="M426.032,316.039c-17.131,56.833-58.159,103.388-112.391,127.524l-13.092-76.514  c28.514-11.528,51.452-33.649,64.017-61.722L426.032,316.039z"/>
<path style="fill:#B71C1C;" d="M451.537,197.442l-85.016,14.878c-0.595-1.445-1.19-2.891-1.87-4.251  c-12.599-28.055-35.571-50.142-64.102-61.637l13.177-76.514l1.785-8.502C380.719,81.191,431.754,132.226,451.537,197.442z"/>
<path style="fill:#D50000;" d="M426.032,197.442l-61.552,10.627c-12.557-28.021-35.469-50.108-63.932-61.637l13.177-76.514  C367.864,94.147,408.842,140.668,426.032,197.442z"/>
<path style="fill:#8D6E63;" d="M290.007,44.413V55.72l-3.401-0.51c-20.276-3.171-40.935-3.171-61.212,0l-3.401,0.51V44.413  c0-18.78,15.226-34.006,34.006-34.006S290.007,25.633,290.007,44.413z"/>
<path style="fill:#6D4C41;" d="M286.606,55.21c-20.276-3.171-40.935-3.171-61.212,0C231.04,43.435,242.942,35.937,256,35.911  c9.02-0.008,17.675,3.571,24.06,9.947C282.763,48.57,284.982,51.733,286.606,55.21z"/>
<path style="fill:#8D6E63;" d="M290.007,458.015v11.477c0,18.78-15.226,34.006-34.006,34.006s-34.006-15.226-34.006-34.006v-11.477  l3.401,0.51c20.276,3.171,40.935,3.171,61.211,0L290.007,458.015z"/>
<path style="fill:#6D4C41;" d="M286.606,458.525c-1.615,3.503-3.826,6.699-6.546,9.437c-6.368,6.41-15.022,10.015-24.06,10.032  c-13.084-0.034-24.978-7.575-30.606-19.384c20.276,3.171,40.935,3.171,61.212,0V458.525z"/>
<path style="fill:#8D6E63;" d="M54.342,287.473c0,1.105,0,2.295,0.51,3.401H43.46c-18.78,0-34.006-15.226-34.006-34.006  c0-18.78,15.226-34.006,34.006-34.006h11.392c0,1.105-0.425,2.295-0.51,3.401C51.163,246.538,51.163,267.189,54.342,287.473z"/>
<path style="fill:#6D4C41;" d="M51.962,256.953c-0.026,10.253,0.765,20.48,2.38,30.606c-11.809-5.628-19.35-17.522-19.384-30.606  c-0.008-9.02,3.571-17.675,9.947-24.059c2.738-2.721,5.934-4.931,9.437-6.546C52.727,236.464,51.936,246.7,51.962,256.953z"/>
<path style="fill:#8D6E63;" d="M502.546,256.953c0,18.78-15.226,34.006-34.006,34.006h-11.392v-1.615  c3.511-21.45,3.511-43.333,0-64.782v-1.615h11.392C487.32,222.946,502.546,238.173,502.546,256.953z"/>
<path style="fill:#6D4C41;" d="M477.042,256.953c0.629,13.781-7.124,26.576-19.639,32.391c2.448-21.526,2.448-43.256,0-64.782  c4.455,1.819,8.383,4.744,11.392,8.502C474.194,239.847,477.101,248.281,477.042,256.953z"/>
<path style="fill:#F4F4F4;" d="M315.511,61.416l-14.963,85.016c-6.886-2.823-14.036-4.965-21.339-6.376l-2.635-0.51  c-6.801-1.139-13.679-1.683-20.574-1.615c-4.2,0.008-8.4,0.238-12.582,0.68c-4.293-0.451-8.604-0.68-12.922-0.68  c-6.895-0.008-13.781,0.587-20.574,1.785l-13.433-78.3c6.121-1.87,12.412-3.486,18.789-4.761l6.716-0.935  c7.082-1.36,14.232-2.304,21.424-2.806c4.081,0,8.332,0,12.582,0c11.401-0.026,22.776,0.935,34.006,2.891l6.376,1.105  C302.759,58.1,309.05,59.716,315.511,61.416z"/>
<path style="fill:#FFFFFF;" d="M290.007,61.416l-13.433,78.215c-6.793-1.165-13.679-1.734-20.574-1.7  c-4.2,0.008-8.4,0.238-12.582,0.68c-4.293-0.451-8.604-0.68-12.922-0.68c-6.895-0.008-13.781,0.587-20.574,1.785l-13.433-78.3  c6.121-1.87,12.412-3.486,18.789-4.761l6.716-0.935c7.082-1.36,14.232-2.304,21.424-2.806c7.073,0.519,14.121,1.454,21.084,2.806  l6.376,1.105C277.594,58.1,283.885,59.716,290.007,61.416z"/>
<path style="fill:#F4F4F4;" d="M139.273,280.077c1.36,7.303,3.435,14.444,6.206,21.339l-85.016,14.623  c-0.425-1.36-0.85-2.806-1.19-4.166c-1.913-6.869-3.392-13.858-4.421-20.914l0,0c-3.851-22.504-3.851-45.509,0-68.013  c0-2.125,0.68-4.251,1.105-6.376c1.02-4.931,2.21-9.862,3.571-14.623c0-1.445,0.765-2.806,1.19-4.166l85.016,14.623  c-5.773,14.147-8.748,29.271-8.757,44.548c0,7.787,0.74,15.558,2.21,23.209L139.273,280.077z"/>
<path style="fill:#FFFFFF;" d="M113.769,280.077c1.36,7.303,3.435,14.444,6.206,21.339l-60.446,10.457  c-1.998-6.869-3.562-13.849-4.676-20.914l0,0c-3.851-22.504-3.851-45.509,0-68.013c0-2.125,0.68-4.251,1.105-6.376  c1.02-4.931,2.21-9.862,3.571-14.623l60.446,10.372c-5.696,14.189-8.578,29.348-8.502,44.633c0,7.787,0.74,15.558,2.21,23.209  L113.769,280.077z"/>
<path style="fill:#F4F4F4;" d="M460.039,256.953c0.025,11.401-0.935,22.776-2.891,34.006l0,0c-1.301,8.476-3.171,16.859-5.611,25.08  l-24.315-4.166l-60.701-10.457c2.823-6.886,4.965-14.036,6.376-21.339l0,0c1.437-7.626,2.142-15.362,2.125-23.124  c0.068-15.26-2.814-30.385-8.502-44.548l60.616-10.457l24.4-4.506c1.87,6.121,3.486,12.412,4.761,18.789  c0,2.125,0.765,4.251,1.105,6.376C459.29,233.956,460.175,245.45,460.039,256.953z"/>
<path style="fill:#FFFFFF;" d="M434.534,256.953c0.026,11.401-0.935,22.776-2.891,34.006l0,0  c-1.114,7.065-2.678,14.045-4.676,20.914l-60.446-10.457c2.823-6.886,4.965-14.036,6.376-21.339l0,0  c1.437-7.626,2.142-15.362,2.125-23.124c0.068-15.26-2.814-30.385-8.502-44.548l60.616-10.457c1.36,4.761,2.55,9.692,3.571,14.623  c0,2.125,0.765,4.251,1.105,6.376C433.709,234.177,434.619,245.561,434.534,256.953z"/>
<path style="fill:#F4F4F4;" d="M315.511,452.489l-5.951,1.7c-6.325,1.743-12.735,3.129-19.214,4.166  c-11.35,1.887-22.844,2.772-34.346,2.635c-4.251,0-8.502,0-12.582,0c-7.192-0.561-14.351-1.556-21.424-2.976  c-6.478-1.037-12.888-2.423-19.214-4.166l-6.291-1.36l13.433-78.045c6.801,1.071,13.688,1.581,20.574,1.53  c4.208,0,8.408-0.255,12.582-0.765c4.285,0.527,8.604,0.782,12.922,0.765c6.895-0.034,13.773-0.629,20.574-1.785h0.51  c8.043-1.428,15.906-3.707,23.464-6.801L315.511,452.489z"/>
<path style="fill:#FFFFFF;" d="M290.007,452.489l-5.951,1.7c-6.325,1.743-12.735,3.129-19.214,4.166  c-7.082,1.25-14.24,2.074-21.424,2.465c-7.192-0.502-14.342-1.445-21.424-2.806c-6.478-1.037-12.888-2.423-19.214-4.166l-6.291-1.36  l13.433-78.045c6.801,1.071,13.688,1.581,20.574,1.53c4.208,0,8.408-0.255,12.582-0.765c4.285,0.527,8.604,0.782,12.922,0.765  c6.895-0.034,13.773-0.629,20.574-1.785L290.007,452.489z"/>
<path d="M196.489,460.991c-0.816,0.119-1.649,0.119-2.465,0c-68.081-20.744-121.216-74.261-141.467-142.487  c-1.199-4.54,1.505-9.19,6.045-10.389c0.221-0.06,0.442-0.111,0.672-0.153l85.016-14.623c3.953-0.697,7.847,1.471,9.352,5.186  c11.418,27.494,33.369,49.258,60.956,60.446c3.715,1.505,5.883,5.398,5.186,9.352l-14.793,85.271  C204.43,457.854,200.782,461.025,196.489,460.991z M71.856,322.755c19.656,55.175,63.082,98.602,118.257,118.257l11.817-68.693  c-26.959-12.727-48.655-34.423-61.382-61.382L71.856,322.755z"/>
<path d="M145.48,220.821h-1.445l-84.761-14.878c-4.633-0.782-7.753-5.16-6.971-9.794c0.06-0.366,0.145-0.731,0.255-1.088  c20.565-67.987,73.802-121.156,141.807-141.637c4.523-1.25,9.207,1.411,10.448,5.943c0.068,0.255,0.128,0.51,0.179,0.774  l14.623,85.016c0.697,3.953-1.471,7.847-5.186,9.352c-27.783,11.307-49.819,33.343-61.126,61.126  C151.966,218.772,148.889,220.812,145.48,220.821z M71.856,190.98l68.693,11.817c12.727-26.959,34.423-48.655,61.382-61.382  l-11.817-68.693C134.938,92.379,91.511,135.796,71.856,190.98z"/>
<path d="M315.511,460.991c-4.183,0.06-7.787-2.933-8.502-7.056l-14.623-85.016c-0.697-3.953,1.471-7.847,5.186-9.352  c27.783-11.307,49.819-33.343,61.126-61.126c1.505-3.715,5.398-5.883,9.352-5.186l85.016,14.623c4.633,0.782,7.753,5.16,6.971,9.794  c-0.06,0.366-0.145,0.731-0.255,1.088c-20.65,68.03-74.032,121.182-142.147,141.552  C316.957,460.625,316.243,460.855,315.511,460.991z M310.41,372.659l11.817,68.693c55.124-19.817,98.414-63.362,117.917-118.597  l-68.693-11.817c-12.727,26.959-34.423,48.655-61.382,61.382L310.41,372.659z"/>
<path d="M366.521,220.821c-3.46,0.017-6.589-2.066-7.906-5.271c-11.307-27.783-33.343-49.819-61.126-61.126  c-3.715-1.505-5.883-5.399-5.186-9.352l14.708-84.931c0.782-4.633,5.16-7.753,9.794-6.971c0.366,0.06,0.731,0.145,1.088,0.255  c67.953,20.591,121.088,73.819,141.552,141.807c1.292,4.514-1.326,9.224-5.841,10.508c-0.289,0.085-0.578,0.153-0.876,0.204  l-85.016,14.623L366.521,220.821z M310.24,141.416c26.959,12.727,48.655,34.423,61.382,61.382l68.693-11.817  c-19.698-55.218-63.184-98.644-118.427-118.257L310.24,141.416z"/>
<path d="M290.007,64.222h-1.445c-21.526-3.664-43.511-3.664-65.037,0c-4.625,0.799-9.029-2.304-9.828-6.929  c-0.094-0.519-0.128-1.046-0.119-1.573V44.413c-1.046-23.456,17.114-43.316,40.561-44.37c23.456-1.046,43.316,17.114,44.37,40.561  c0.06,1.267,0.06,2.533,0,3.8v11.307C298.508,60.413,294.7,64.222,290.007,64.222z M256,44.413  c8.527-0.008,17.046,0.502,25.505,1.53v-1.53c0-14.087-11.418-25.505-25.505-25.505s-25.505,11.418-25.505,25.505v1.53  C238.955,44.914,247.473,44.404,256,44.413z"/>
<path d="M256,512c-23.473,0-42.508-19.035-42.508-42.508v-11.477c-0.068-4.693,3.681-8.553,8.374-8.621  c0.527-0.009,1.054,0.034,1.573,0.119c21.526,3.656,43.511,3.656,65.037,0c4.625-0.799,9.029,2.304,9.828,6.929  c0.094,0.519,0.128,1.046,0.119,1.573v11.477c0,23.473-19.035,42.508-42.508,42.508H256z M230.495,467.962v1.53  c0,14.087,11.418,25.505,25.505,25.505s25.505-11.418,25.505-25.505l0,0v-1.53c-16.944,1.998-34.066,1.972-51.01-0.085V467.962z"/>
<path d="M54.853,299.461H43.46c-23.473,0-42.508-19.035-42.508-42.508s19.035-42.508,42.508-42.508h11.392  c4.693-0.068,8.553,3.681,8.621,8.374c0.008,0.527-0.034,1.054-0.119,1.573c-3.681,21.526-3.681,43.511,0,65.037  c0.799,4.625-2.304,9.029-6.929,9.828c-0.519,0.094-1.046,0.128-1.573,0.119V299.461z M43.46,231.448  c-14.087,0-25.505,11.418-25.505,25.505c0,14.087,11.418,25.505,25.505,25.505h1.53c-2.04-16.944-2.04-34.066,0-51.01L43.46,231.448  L43.46,231.448z"/>
<path d="M468.54,299.461h-11.392c-4.693,0.068-8.553-3.681-8.621-8.374c-0.008-0.527,0.034-1.054,0.119-1.573  c3.681-21.526,3.681-43.511,0-65.037c-0.799-4.625,2.304-9.029,6.929-9.828c0.519-0.094,1.046-0.128,1.573-0.119h11.392  c23.473,0,42.508,19.035,42.508,42.508s-19.035,42.508-42.508,42.508V299.461z M467.01,282.457h1.53  c14.087,0,25.505-11.418,25.505-25.505c0-14.087-11.418-25.505-25.505-25.505l0,0h-1.53  C469.042,248.383,469.042,265.514,467.01,282.457z"/>
<path d="M300.549,154.934c-1.114-0.017-2.21-0.247-3.231-0.68c-6.368-2.601-12.973-4.565-19.724-5.866  c-14.232-2.831-28.871-2.831-43.103,0c-6.776,1.301-13.416,3.265-19.809,5.866c-4.336,1.802-9.309-0.255-11.112-4.591  c-0.247-0.604-0.425-1.224-0.536-1.87l-14.623-85.016c-0.748-4.225,1.768-8.34,5.866-9.607c6.546-2.04,13.177-3.656,19.639-4.931  l6.716-1.19c23.439-3.987,47.379-3.987,70.818,0l6.546,1.105c6.461,1.275,13.092,2.976,19.639,4.931  c4.098,1.267,6.614,5.382,5.866,9.607l-14.623,85.016c-0.714,4.123-4.319,7.116-8.502,7.056L300.549,154.934z M206.521,67.707  l11.647,67.418c4.276-1.335,8.612-2.448,13.007-3.316c16.417-3.265,33.318-3.265,49.734,0c4.395,0.867,8.731,1.972,13.007,3.316  l11.647-67.418c-3.656-0.935-7.226-1.785-10.797-2.465l-6.036-1.02c-21.577-3.69-43.63-3.69-65.207,0l-6.206,1.105  C213.492,65.837,210.092,66.687,206.521,67.707z"/>
<path d="M60.464,324.54c-3.877,0.17-7.379-2.321-8.502-6.036c-2.635-8.578-4.684-17.326-6.121-26.185l0,0  c-3.979-23.354-3.979-47.209,0-70.563c0-2.125,0.68-4.336,1.105-6.546c1.275-6.461,2.976-13.092,5.016-19.639  c0.918-4.608,5.399-7.592,9.998-6.674c0.068,0.017,0.136,0.025,0.204,0.042l85.016,14.623c4.625,0.782,7.745,5.177,6.963,9.802  c-0.102,0.604-0.272,1.19-0.502,1.76c-5.433,13.271-8.204,27.486-8.162,41.828c0.008,6.869,0.638,13.73,1.87,20.489  c0.025,0.366,0.025,0.74,0,1.105c1.301,6.75,3.265,13.356,5.866,19.724c1.811,4.336-0.238,9.309-4.574,11.12  c-0.578,0.238-1.182,0.417-1.802,0.527L61.824,324.54L60.464,324.54L60.464,324.54z M63.099,290.024  c0.85,5.271,2.04,10.712,3.486,16.323l67.418-11.562c-1.19-3.851-2.21-7.796-3.061-11.817c-0.034-0.425-0.034-0.85,0-1.275  c-1.598-8.153-2.423-16.434-2.465-24.74c-0.009-11.639,1.598-23.226,4.761-34.431l1.02-3.401L66.84,207.388  c-0.935,3.656-1.785,7.226-2.55,10.797c0,2.04-0.68,3.996-1.02,6.036c-3.698,21.577-3.698,43.63,0,65.207L63.099,290.024z"/>
<path d="M55.958,224.987c-3.205-0.008-6.13-1.819-7.566-4.676c-31.456-63.014-5.866-139.596,57.148-171.052  c35.86-17.896,78.045-17.896,113.904,0c4.217,2.066,5.96,7.158,3.894,11.375c-1.173,2.397-3.401,4.106-6.019,4.608  c-3.571,0.68-7.141,1.53-10.797,2.465l13.348,77.365c0.697,3.953-1.471,7.847-5.186,9.352  c-27.783,11.307-49.819,33.343-61.126,61.126c-1.505,3.715-5.399,5.883-9.352,5.186L66.84,207.388  c-0.935,3.656-1.785,7.226-2.55,10.797c-0.731,3.554-3.63,6.249-7.226,6.716L55.958,224.987z M60.464,188.94h1.7l78.385,13.518  c12.727-26.959,34.423-48.655,61.382-61.382l-13.518-78.045c-0.417-2.38,0.204-4.82,1.7-6.716  C131.018,41.038,70.725,76.557,55.448,135.652c-4.693,18.142-4.693,37.177,0,55.328C56.85,189.765,58.61,189.05,60.464,188.94z"/>
<path d="M256,384.477c-7.549,0-15.09-0.655-22.529-1.955c-8.74-1.513-17.292-3.962-25.505-7.311  c-32.026-13.041-57.437-38.453-70.478-70.478c-2.882-7.005-5.101-14.257-6.631-21.679c-0.026-0.4-0.026-0.791,0-1.19  c-1.581-8.213-2.372-16.553-2.38-24.91c-0.009-11.639,1.598-23.226,4.761-34.431c10.695-38.036,38.427-68.965,75.069-83.741  c7.379-3.01,15.039-5.288,22.869-6.801c16.417-3.265,33.318-3.265,49.734,0c7.83,1.547,15.49,3.851,22.869,6.886  c36.616,14.801,64.306,45.722,74.984,83.741c3.154,11.18,4.761,22.733,4.761,34.346c-0.008,8.332-0.808,16.646-2.38,24.825  c0.034,0.425,0.034,0.85,0,1.275c-1.522,7.447-3.741,14.733-6.631,21.764c-13.041,32.025-38.453,57.437-70.478,70.478  c-8.213,3.35-16.765,5.798-25.505,7.311C271.082,383.873,263.55,384.502,256,384.477z M147.35,277.357  c0.025,0.366,0.025,0.74,0,1.105c1.301,6.75,3.265,13.356,5.866,19.724c11.443,27.698,33.573,49.615,61.382,60.786  c7.014,2.865,14.308,4.973,21.764,6.291c12.99,2.346,26.287,2.346,39.277,0c7.43-1.326,14.699-3.435,21.679-6.291  c27.783-11.307,49.819-33.343,61.126-61.126c2.635-6.393,4.625-13.024,5.951-19.809c-0.025-0.366-0.025-0.74,0-1.105  c1.284-6.589,1.998-13.271,2.125-19.979c0-14.164-2.737-28.2-8.077-41.318c-11.307-27.783-33.343-49.819-61.126-61.126  c-6.393-2.627-13.024-4.625-19.809-5.951c-14.232-2.831-28.871-2.831-43.103,0c-6.784,1.301-13.416,3.265-19.809,5.866  c-27.783,11.307-49.819,33.343-61.126,61.126c-5.322,13.152-8.034,27.214-7.992,41.403  C145.497,263.796,146.117,270.623,147.35,277.357z"/>
<path d="M451.537,324.54h-1.7l-85.016-14.623c-4.625-0.808-7.719-5.22-6.903-9.845c0.111-0.621,0.289-1.224,0.527-1.802  c2.601-6.368,4.565-12.973,5.866-19.724c-0.025-0.366-0.025-0.74,0-1.105c1.343-6.75,2.083-13.611,2.21-20.489  c0-14.164-2.737-28.2-8.077-41.318c-1.76-4.353,0.349-9.309,4.701-11.061c0.57-0.23,1.156-0.391,1.76-0.502l84.931-15.133  c4.225-0.748,8.34,1.768,9.607,5.866c2.04,6.546,3.656,13.177,4.931,19.639c0.425,2.21,0.765,4.506,1.19,6.716  c3.97,23.328,3.97,47.15,0,70.478l0,0c-1.437,8.859-3.486,17.607-6.121,26.185C458.636,321.599,455.388,324.353,451.537,324.54z   M377.998,294.785l67.418,11.562c1.53-5.696,2.635-11.052,3.486-16.408v-0.595c3.681-21.526,3.681-43.511,0-65.037  c0-2.125-0.68-4.166-1.105-6.206c-0.68-3.571-1.53-7.141-2.465-10.797l-67.418,11.647l1.02,3.486  c3.12,11.239,4.659,22.852,4.591,34.516c-0.009,8.332-0.808,16.646-2.38,24.825c0.034,0.425,0.034,0.85,0,1.275  c-1.02,3.911-2.151,7.821-3.401,11.732L377.998,294.785L377.998,294.785z"/>
<path d="M456.043,224.987h-1.105c-3.596-0.468-6.495-3.163-7.226-6.716c-0.68-3.571-1.53-7.141-2.55-10.797l-77.365,13.348  c-3.953,0.697-7.847-1.471-9.352-5.186c-11.307-27.783-33.343-49.819-61.126-61.126c-3.715-1.505-5.883-5.399-5.186-9.352  l13.348-77.365c-3.656-0.935-7.226-1.785-10.797-2.465c-4.599-0.961-7.549-5.458-6.589-10.057c0.527-2.525,2.168-4.667,4.463-5.841  c63.048-31.388,139.605-5.73,170.993,57.318c17.802,35.758,17.828,77.79,0.06,113.564  C462.164,223.167,459.239,224.978,456.043,224.987z M310.07,141.416c26.959,12.727,48.655,34.423,61.382,61.382l78.385-13.858  c2.38-0.417,4.82,0.204,6.716,1.7c15.073-59.146-20.65-119.32-79.796-134.393c-18.006-4.591-36.871-4.565-54.869,0.068  c1.496,1.896,2.117,4.336,1.7,6.716L310.07,141.416z"/>
<path d="M162.483,469.493c-70.427,0.034-127.558-57.029-127.592-127.456c-0.008-18.933,4.191-37.628,12.31-54.733  c2.015-4.242,7.09-6.036,11.333-4.021c2.516,1.199,4.293,3.562,4.735,6.317c0.901,5.722,2.091,11.401,3.571,17.003l77.365-13.348  c3.953-0.697,7.847,1.471,9.352,5.186c11.418,27.537,33.411,49.343,61.041,60.531c3.715,1.505,5.883,5.398,5.186,9.352  l-13.347,77.535c4.234,2.04,6.011,7.116,3.97,11.35c-0.961,1.989-2.661,3.537-4.735,4.293  C191.856,466.679,177.233,469.382,162.483,469.493z M53.917,321.14c-11.503,59.945,27.766,117.866,87.711,129.369  c6.869,1.318,13.858,1.981,20.854,1.981c8.825,0.008,17.615-1.046,26.185-3.146l13.262-76.514  c-26.959-12.727-48.655-34.423-61.382-61.382l-78.385,13.007C59.01,324.982,55.822,323.707,53.917,321.14z"/>
<path d="M256,469.493c-11.885,0.043-23.745-0.952-35.452-2.976c-6.733-1.08-13.407-2.525-19.979-4.336l-6.036-1.7  c-4.2-1.156-6.844-5.305-6.121-9.607l14.623-85.016c0.544-4.667,4.769-8,9.437-7.456c0.757,0.085,1.505,0.281,2.21,0.57  c7.014,2.865,14.308,4.973,21.764,6.291c12.99,2.346,26.287,2.346,39.277,0c7.396-1.326,14.64-3.435,21.594-6.291  c4.353-1.76,9.309,0.349,11.061,4.701c0.23,0.57,0.391,1.156,0.502,1.76l14.623,85.016c0.748,4.225-1.768,8.34-5.866,9.607  l-2.125-7.566l2.295,8.502l-6.121,1.785c-6.572,1.811-13.245,3.256-19.979,4.336C279.898,468.948,267.945,469.748,256,469.493z   M206.521,446.113c5.603,1.479,11.282,2.669,17.003,3.571c21.577,3.69,43.63,3.69,65.207,0c5.722-0.901,11.401-2.091,17.003-3.571  l-11.562-67.418c-5.016,1.573-10.125,2.823-15.303,3.741c-14.903,2.678-30.155,2.678-45.058,0  c-5.203-0.91-10.346-2.159-15.388-3.741L206.521,446.113z"/>
<path d="M349.518,469.493c-14.725,0.025-29.348-2.533-43.188-7.566c-4.412-1.615-6.674-6.495-5.058-10.908  c0.757-2.074,2.304-3.775,4.293-4.735l-13.347-77.535c-0.697-3.953,1.471-7.847,5.186-9.352  c27.783-11.307,49.819-33.343,61.126-61.126c1.505-3.715,5.398-5.883,9.352-5.186l77.365,13.348  c1.479-5.603,2.669-11.282,3.571-17.003c0.748-4.633,5.118-7.787,9.751-7.031c2.755,0.451,5.118,2.219,6.317,4.735  c30.283,63.583,3.29,139.681-60.293,169.964C387.384,465.293,368.57,469.527,349.518,469.493z M323.333,449.344  c59.299,14.461,119.099-21.892,133.56-81.19c2.091-8.57,3.146-17.36,3.146-26.185c0-6.963-0.655-13.909-1.955-20.744  c-1.947,2.661-5.262,3.953-8.502,3.316l-78.385-13.518c-12.727,26.959-34.423,48.655-61.382,61.382L323.333,449.344z"/>
<g>
</g>
<g>
</g>
<g>
</g>
<g>
</g>
<g>
</g>
<g>
</g>
<g>
</g>
<g>
</g>
<g>
</g>
<g>
</g>
<g>
</g>
<g>
</g>
<g>
</g>
<g>
</g>
<g>
</g>
</svg>
