<?xml version="1.0" encoding="iso-8859-1"?>
<!-- Generator: Adobe Illustrator 19.0.0, SVG Export Plug-In . SVG Version: 6.00 Build 0)  -->
<svg xmlns="http://www.w3.org/2000/svg" xmlns:xlink="http://www.w3.org/1999/xlink" version="1.1" id="Layer_1" x="0px" y="0px" viewBox="0 0 512.007 512.007" style="enable-background:new 0 0 512.007 512.007;" xml:space="preserve">
<path style="fill:#555656;" d="M335.99,56.403v399.08l-31.995-25.916l-95.984-77.534h-95.984c-11.785,0-21.33-9.545-21.33-21.33  V181.395c0-11.785,9.545-21.33,21.33-21.33h95.984l95.984-77.64L335.99,56.403z"/>
<path style="fill:#717272;" d="M303.995,82.319v347.249l-95.984-77.534h-95.984c-11.785,0-21.33-9.545-21.33-21.33V181.395  c0-11.785,9.545-21.33,21.33-21.33h95.984L303.995,82.319z"/>
<path style="fill:#555656;" d="M421.309,32.087v447.925c-0.032,11.785-9.598,21.308-21.383,21.276  c-4.693-0.011-9.246-1.568-12.958-4.426l-50.978-41.38V56.403l50.978-41.273c9.332-7.188,22.727-5.439,29.915,3.893  C419.763,22.766,421.32,27.362,421.309,32.087z"/>
<path d="M335.99,466.148c-2.442,0.011-4.81-0.821-6.719-2.346L204.279,362.699h-92.251c-17.672,0-31.995-14.323-31.995-31.995  V181.395c0-17.672,14.323-31.995,31.995-31.995h92.251L329.271,48.084c4.575-3.711,11.294-3.007,15.006,1.568  c1.546,1.909,2.389,4.298,2.378,6.751v399.08C346.655,461.381,341.888,466.148,335.99,466.148z M112.027,170.731  c-5.887,0-10.665,4.778-10.665,10.665v149.308c0,5.887,4.778,10.665,10.665,10.665h95.984c2.442-0.011,4.81,0.821,6.719,2.346  l110.595,89.372V78.799L214.73,168.278c-1.888,1.568-4.266,2.432-6.719,2.453H112.027z"/>
<path d="M399.979,512.007c-7.071-0.021-13.928-2.389-19.517-6.719l-51.191-41.38c-2.538-2.058-3.989-5.162-3.946-8.425V56.403  c-0.011-3.231,1.44-6.282,3.946-8.319l50.978-41.273c13.907-10.9,34.021-8.457,44.92,5.46c4.426,5.652,6.826,12.638,6.804,19.815  v447.925C431.974,497.684,417.651,512.007,399.979,512.007z M346.655,450.471l47.032,38.074c3.103,2.25,7.177,2.656,10.665,1.066  c3.786-1.706,6.239-5.45,6.292-9.598V32.087c-0.011-5.887-4.799-10.654-10.686-10.644c-2.346,0.011-4.618,0.779-6.484,2.218  l-46.819,37.86V450.471z"/>
<g>
</g>
<g>
</g>
<g>
</g>
<g>
</g>
<g>
</g>
<g>
</g>
<g>
</g>
<g>
</g>
<g>
</g>
<g>
</g>
<g>
</g>
<g>
</g>
<g>
</g>
<g>
</g>
<g>
</g>
</svg>
