<?xml version="1.0" encoding="iso-8859-1"?>
<!-- Generator: Adobe Illustrator 19.0.0, SVG Export Plug-In . SVG Version: 6.00 Build 0)  -->
<svg xmlns="http://www.w3.org/2000/svg" xmlns:xlink="http://www.w3.org/1999/xlink" version="1.1" id="Layer_1" x="0px" y="0px" viewBox="0 0 512.001 512.001" style="enable-background:new 0 0 512.001 512.001;" xml:space="preserve">
<path style="fill:#555656;" d="M227.631,78.489v354.915l-28.454-23.048l-85.362-68.953H28.454c-10.481,0-18.969-8.489-18.969-18.969  V189.649c0.028-5.511,2.447-10.737,6.639-14.322c3.396-3.016,7.787-4.676,12.33-4.647h85.362l85.362-69.048L227.631,78.489z"/>
<path style="fill:#717272;" d="M199.178,101.537v308.82l-85.362-68.953H28.454c-10.481,0-18.969-8.489-18.969-18.969V189.649  c0.028-5.511,2.447-10.737,6.639-14.322h69.238l5.311-4.647h23.143L199.178,101.537z"/>
<path style="fill:#555656;" d="M303.509,56.864v398.355c-0.028,10.481-8.536,18.95-19.017,18.922  c-4.173-0.009-8.223-1.394-11.524-3.936l-2.751-2.276l-42.586-34.524V78.489l42.586-34.429l2.751-2.276  c8.299-6.393,20.212-4.837,26.604,3.462C302.133,48.575,303.518,52.663,303.509,56.864z"/>
<path style="fill:#F9A825;" d="M502.686,257.559c-0.066,74.085-43.259,141.35-110.591,172.241V85.318  C459.313,116.342,502.449,183.522,502.686,257.559z"/>
<path style="fill:#FFC107;" d="M483.717,257.559c-1.043,64.856-35.757,124.495-91.622,157.445V100.019  C447.95,133.026,482.645,192.684,483.717,257.559z"/>
<path style="fill:#F9A825;" d="M464.747,257.559c-0.047,59.279-34.609,113.104-88.492,137.812V119.653  C430.091,144.474,464.615,198.28,464.747,257.559z"/>
<path style="fill:#FFC107;" d="M448.908,257.559c-0.085,52.792-27.6,101.751-72.652,129.276V128.284  C421.308,155.808,448.823,204.768,448.908,257.559z"/>
<path style="fill:#F9A825;" d="M426.809,257.559c-0.028,44.474-25.969,84.85-66.392,103.383V154.177  C400.84,172.71,426.78,213.086,426.809,257.559z"/>
<path style="fill:#FFC107;" d="M407.84,257.559c0.047,36.62-17.622,71.002-47.423,92.286V165.274  C390.217,186.557,407.887,220.939,407.84,257.559z"/>
<path d="M227.631,442.889c-2.172,0.009-4.278-0.73-5.975-2.087l-111.16-89.914H28.454C12.738,350.888,0,338.15,0,322.434V189.649  c0-15.716,12.738-28.454,28.454-28.454h82.042l111.16-90.104c4.069-3.301,10.044-2.675,13.345,1.394  c1.375,1.698,2.125,3.822,2.115,6.004v354.915C237.116,438.64,232.867,442.889,227.631,442.889z M28.454,180.165  c-5.236,0-9.485,4.249-9.485,9.485v132.785c0,5.236,4.249,9.485,9.485,9.485h85.362c2.172-0.009,4.278,0.73,5.975,2.087  l98.356,79.481V98.407l-98.356,79.576c-1.679,1.394-3.794,2.163-5.975,2.181L28.454,180.165L28.454,180.165z"/>
<path d="M284.539,483.673c-6.288-0.019-12.387-2.125-17.357-5.975l-45.526-36.8c-2.257-1.831-3.547-4.591-3.509-7.493V78.489  c-0.009-2.874,1.28-5.586,3.509-7.398l45.337-36.706c12.368-9.693,30.256-7.521,39.949,4.856c3.936,5.027,6.07,11.239,6.051,17.622  v398.355C312.993,470.935,300.255,483.673,284.539,483.673z M237.116,428.947l41.827,33.86c2.76,2.001,6.383,2.362,9.485,0.948  c3.367-1.518,5.549-4.847,5.596-8.536V56.864c-0.009-5.236-4.268-9.475-9.504-9.466c-2.087,0.009-4.107,0.692-5.767,1.973  l-41.638,33.671V428.947z"/>
<path d="M392.095,439.285c-5.236,0.028-9.504-4.192-9.532-9.437c-0.019-3.737,2.153-7.132,5.548-8.678  c90.408-41.609,129.978-148.634,88.368-239.041c-17.973-39.058-49.311-70.395-88.368-88.368c-4.771-2.2-6.848-7.844-4.647-12.615  s7.844-6.848,12.615-4.647c99.921,46.01,143.626,164.302,97.616,264.223c-19.861,43.136-54.48,77.755-97.616,97.616  C394.836,438.944,393.48,439.266,392.095,439.285z"/>
<path d="M376.256,404.856c-5.236,0.028-9.504-4.192-9.532-9.437c-0.019-3.737,2.153-7.132,5.548-8.678  c71.372-32.864,102.586-117.363,69.722-188.735c-14.189-30.806-38.915-55.542-69.722-69.722c-4.771-2.2-6.848-7.844-4.647-12.615  c2.2-4.771,7.844-6.848,12.615-4.647c80.876,37.265,116.234,133.041,78.969,213.917c-16.076,34.894-44.085,62.893-78.969,78.969  C378.997,404.514,377.641,404.837,376.256,404.856z"/>
<path d="M360.416,370.427c-5.236,0.028-9.504-4.192-9.532-9.437c-0.019-3.737,2.153-7.132,5.548-8.678  c52.384-24.006,75.384-85.931,51.378-138.315c-10.414-22.735-28.653-40.964-51.378-51.378c-4.771-2.2-6.848-7.844-4.647-12.615  c2.2-4.771,7.844-6.848,12.615-4.647c61.84,28.52,88.843,101.77,60.332,163.601c-12.292,26.652-33.68,48.04-60.332,60.332  C363.176,369.962,361.811,370.351,360.416,370.427z"/>
<g>
</g>
<g>
</g>
<g>
</g>
<g>
</g>
<g>
</g>
<g>
</g>
<g>
</g>
<g>
</g>
<g>
</g>
<g>
</g>
<g>
</g>
<g>
</g>
<g>
</g>
<g>
</g>
<g>
</g>
</svg>
