<?xml version="1.0" encoding="iso-8859-1"?>
<!-- Generator: Adobe Illustrator 19.0.0, SVG Export Plug-In . SVG Version: 6.00 Build 0)  -->
<svg xmlns="http://www.w3.org/2000/svg" xmlns:xlink="http://www.w3.org/1999/xlink" version="1.1" id="Layer_1" x="0px" y="0px" viewBox="0 0 512 512" style="enable-background:new 0 0 512 512;" xml:space="preserve">
<path style="fill:#555656;" d="M503.603,256c0,136.67-110.797,247.467-247.467,247.467S8.67,392.67,8.67,256  S119.467,8.533,256.137,8.533S503.603,119.33,503.603,256z"/>
<path style="fill:#717272;" d="M469.47,264.533c-0.068,107.025-68.924,201.882-170.667,235.093  C164.105,522.769,36.147,432.341,13.005,297.643C-7.74,176.888,62.993,59.136,179.337,20.736  c134.622-23.561,262.861,66.466,286.43,201.097C468.233,235.93,469.478,250.214,469.47,264.533z"/>
<polygon style="fill:#AD1457;" points="418.27,213.248 418.27,298.581 213.47,298.581 213.47,366.848 94.003,255.915   213.47,144.981 213.47,213.248 "/>
<polygon style="fill:#D81B60;" points="418.27,213.248 418.27,298.581 213.47,298.581 213.47,335.189 128.137,255.915   213.47,176.64 213.47,213.248 "/>
<path d="M256.137,512L256.137,512C114.756,512.077,0.077,397.525,0,256.137S114.475,0.077,255.864,0S511.923,114.475,512,255.864  c0.034,67.891-26.897,133.009-74.871,181.043C389.146,484.949,324.045,511.966,256.137,512z M256.137,17.067  C124.177,17.067,17.203,124.041,17.203,256s106.974,238.933,238.933,238.933S495.07,387.96,495.07,256  S388.096,17.067,256.137,17.067z"/>
<path d="M213.47,375.467c-2.159-0.009-4.233-0.828-5.803-2.304L88.201,262.229c-3.465-3.191-3.678-8.593-0.486-12.058  c0.154-0.171,0.316-0.333,0.486-0.486l119.467-110.933c3.456-3.209,8.858-3.004,12.058,0.452c1.476,1.596,2.295,3.686,2.278,5.862  V204.8H418.27c4.71,0,8.533,3.823,8.533,8.533v85.333c0,4.71-3.823,8.533-8.533,8.533H222.003v59.733  C222.003,371.644,218.189,375.467,213.47,375.467z M106.547,256l98.389,91.307v-48.64c0-4.71,3.823-8.533,8.533-8.533h196.267  v-68.267H213.47c-4.71,0-8.533-3.823-8.533-8.533v-48.811L106.547,256z"/>
<g>
</g>
<g>
</g>
<g>
</g>
<g>
</g>
<g>
</g>
<g>
</g>
<g>
</g>
<g>
</g>
<g>
</g>
<g>
</g>
<g>
</g>
<g>
</g>
<g>
</g>
<g>
</g>
<g>
</g>
</svg>
