<?xml version="1.0" encoding="iso-8859-1"?>
<!-- Generator: Adobe Illustrator 19.0.0, SVG Export Plug-In . SVG Version: 6.00 Build 0)  -->
<svg xmlns="http://www.w3.org/2000/svg" xmlns:xlink="http://www.w3.org/1999/xlink" version="1.1" id="Layer_1" x="0px" y="0px" viewBox="0 0 512 512" style="enable-background:new 0 0 512 512;" xml:space="preserve">
<path style="fill:#555656;" d="M503.467,256c0,136.67-110.797,247.467-247.467,247.467S8.533,392.67,8.533,256  S119.33,8.533,256,8.533S503.467,119.33,503.467,256z"/>
<path style="fill:#717272;" d="M469.333,264.533c-0.068,107.025-68.924,201.882-170.667,235.093  C163.968,522.769,36.011,432.341,12.868,297.643C-7.876,176.887,62.857,59.136,179.2,20.736  C313.822-2.825,442.061,87.202,465.63,221.833C468.096,235.93,469.333,250.214,469.333,264.533z"/>
<g>
	<polygon style="fill:#AD1457;" points="298.667,298.581 93.867,298.581 93.867,213.248 298.667,213.248 298.667,144.981    418.133,255.915 298.667,366.848  "/>
	<polygon style="fill:#AD1457;" points="298.667,307.115 93.867,307.115 93.867,221.781 298.667,221.781 298.667,153.515    418.133,264.448 298.667,375.381  "/>
</g>
<polygon style="fill:#D81B60;" points="298.667,335.189 298.667,298.581 93.867,298.581 93.867,213.248 298.667,213.248   298.667,176.64 384,255.915 "/>
<path d="M256,512C114.611,512,0,397.389,0,256S114.611,0,256,0s256,114.611,256,256S397.389,512,256,512z M256,17.067  C124.041,17.067,17.067,124.041,17.067,256S124.041,494.933,256,494.933S494.933,387.96,494.933,256S387.96,17.067,256,17.067z"/>
<path d="M298.667,375.467c-4.71,0-8.533-3.823-8.533-8.533V307.2H93.867c-4.71,0-8.533-3.823-8.533-8.533v-85.333  c0-4.71,3.823-8.533,8.533-8.533h196.267v-59.733c0.017-4.71,3.849-8.525,8.559-8.508c2.142,0.009,4.207,0.819,5.777,2.278  l119.467,110.933c3.465,3.191,3.678,8.593,0.486,12.058c-0.154,0.171-0.316,0.333-0.486,0.486L304.469,373.248  C302.882,374.69,300.809,375.484,298.667,375.467z M102.4,290.133h196.267c4.71,0,8.533,3.823,8.533,8.533v48.64L405.589,256  L307.2,164.523v48.811c0,4.71-3.823,8.533-8.533,8.533H102.4V290.133z"/>
<g>
</g>
<g>
</g>
<g>
</g>
<g>
</g>
<g>
</g>
<g>
</g>
<g>
</g>
<g>
</g>
<g>
</g>
<g>
</g>
<g>
</g>
<g>
</g>
<g>
</g>
<g>
</g>
<g>
</g>
</svg>
