<?xml version="1.0" encoding="iso-8859-1"?>
<!-- Generator: Adobe Illustrator 19.0.0, SVG Export Plug-In . SVG Version: 6.00 Build 0)  -->
<svg xmlns="http://www.w3.org/2000/svg" xmlns:xlink="http://www.w3.org/1999/xlink" version="1.1" id="Layer_1" x="0px" y="0px" viewBox="0 0 512 512" style="enable-background:new 0 0 512 512;" xml:space="preserve">
<path style="fill:#2979FF;" d="M503.467,157.867V396.8c0.009,15.898-10.957,29.705-26.453,33.28  c-2.526,0.546-5.094,0.828-7.68,0.853h-12.8L409.6,337.067H102.4l-46.933,93.867h-12.8c-18.85,0-34.133-15.283-34.133-34.133  V157.867c0.026-2.586,0.307-5.154,0.853-7.68c3.575-15.497,17.382-26.462,33.28-26.453h426.667  C488.184,123.733,503.467,139.017,503.467,157.867z"/>
<path style="fill:#0091EA;" d="M477.867,183.467V422.4c-0.026,2.586-0.307,5.154-0.853,7.68  c-3.575,15.497-17.382,26.462-33.28,26.453h-12.8L384,362.667H76.8l-34.133,68.267c-18.85,0-34.133-15.283-34.133-34.133V157.867  c0.026-2.586,0.307-5.154,0.853-7.68c2.526-0.546,5.094-0.828,7.68-0.853h426.667C462.583,149.333,477.867,164.617,477.867,183.467z  "/>
<path style="fill:#F4F4F4;" d="M426.667,55.467v68.267H85.333V55.467c0-18.85,15.283-34.133,34.133-34.133h273.067  C411.383,21.333,426.667,36.617,426.667,55.467z"/>
<path style="fill:#FFFFFF;" d="M401.067,64v59.733H85.333V55.467c0.009-9.805,4.241-19.132,11.605-25.6h269.995  C385.783,29.867,401.067,45.15,401.067,64z"/>
<polygon style="fill:#555656;" points="452.267,302.848 452.267,422.315 409.6,336.981 102.4,336.981 59.733,422.315   59.733,302.848 "/>
<path style="fill:#F4F4F4;" d="M458.752,490.667H53.248c-9.429,0.017-17.084-7.603-17.101-17.033  c-0.009-2.68,0.623-5.325,1.826-7.714L102.4,337.067h307.2l64.427,128.853c4.241,8.414,0.853,18.679-7.561,22.921  C464.077,490.044,461.431,490.675,458.752,490.667z"/>
<path style="fill:#FFFFFF;" d="M422.656,490.667H53.248c-9.429,0.017-17.084-7.603-17.101-17.033  c-0.009-2.68,0.623-5.325,1.826-7.714L102.4,337.067h271.104l64.427,128.853c4.241,8.414,0.853,18.679-7.561,22.921  C427.981,490.044,425.336,490.675,422.656,490.667z"/>
<path d="M469.333,439.467h-12.8c-3.217-0.009-6.153-1.826-7.595-4.693L404.309,345.6H107.691l-44.629,89.088  c-1.425,2.901-4.361,4.753-7.595,4.779h-12.8C19.106,439.467,0,420.361,0,396.8V157.867C0,134.306,19.106,115.2,42.667,115.2  h426.667c23.561,0,42.667,19.106,42.667,42.667V396.8C512,420.361,492.894,439.467,469.333,439.467z M461.824,422.4h7.509  c14.14,0,25.6-11.46,25.6-25.6V157.867c0-14.14-11.46-25.6-25.6-25.6H42.667c-14.14,0-25.6,11.46-25.6,25.6V396.8  c0,14.14,11.46,25.6,25.6,25.6h7.509l44.544-89.173c1.459-2.901,4.437-4.719,7.68-4.693h307.2c3.217,0.009,6.153,1.826,7.595,4.693  L461.824,422.4z"/>
<path d="M426.667,132.267H85.333c-4.71,0-8.533-3.823-8.533-8.533V55.467c0-23.561,19.106-42.667,42.667-42.667h273.067  c23.561,0,42.667,19.106,42.667,42.667v68.267C435.2,128.444,431.377,132.267,426.667,132.267z M93.867,115.2h324.267V55.467  c0-14.14-11.46-25.6-25.6-25.6H119.467c-14.14,0-25.6,11.46-25.6,25.6V115.2z"/>
<path d="M452.267,430.933c-3.217-0.009-6.153-1.826-7.595-4.693l-40.363-80.64H107.691l-40.363,80.555  c-2.15,4.198-7.287,5.854-11.486,3.703c-2.807-1.434-4.591-4.301-4.642-7.458V302.933c0-4.71,3.823-8.533,8.533-8.533h392.533  c4.71,0,8.533,3.823,8.533,8.533V422.4c0.111,4.045-2.637,7.603-6.571,8.533H452.267z M102.4,328.533h307.2  c3.217,0.009,6.153,1.826,7.595,4.693l26.539,52.907v-74.667H68.267v74.752l26.539-52.992  C96.247,330.359,99.183,328.542,102.4,328.533z"/>
<path d="M458.752,499.2H53.248c-14.14-0.017-25.583-11.494-25.566-25.634c0.009-3.959,0.93-7.859,2.697-11.401l64.427-128.939  c1.442-2.867,4.378-4.685,7.595-4.693h307.2c3.217,0.009,6.153,1.826,7.595,4.693l64.427,128.939  c6.315,12.646,1.178,28.023-11.469,34.338C466.611,498.27,462.711,499.191,458.752,499.2z M107.691,345.6L45.568,469.675  c-2.167,4.181-0.538,9.335,3.652,11.503c1.246,0.649,2.628,0.973,4.028,0.956h405.504c4.71-0.017,8.525-3.849,8.508-8.559  c0-1.323-0.316-2.628-0.913-3.814L404.309,345.6H107.691z"/>
<path d="M375.467,388.267H136.533c-4.71,0-8.533-3.823-8.533-8.533c0-4.71,3.823-8.533,8.533-8.533h238.933  c4.71,0,8.533,3.823,8.533,8.533C384,384.444,380.177,388.267,375.467,388.267z"/>
<path d="M392.533,422.4H119.467c-4.71,0-8.533-3.823-8.533-8.533s3.823-8.533,8.533-8.533h273.067c4.71,0,8.533,3.823,8.533,8.533  S397.244,422.4,392.533,422.4z"/>
<path d="M426.667,456.533H85.333c-4.71,0-8.533-3.823-8.533-8.533s3.823-8.533,8.533-8.533h341.333c4.71,0,8.533,3.823,8.533,8.533  S431.377,456.533,426.667,456.533z"/>
<g>
</g>
<g>
</g>
<g>
</g>
<g>
</g>
<g>
</g>
<g>
</g>
<g>
</g>
<g>
</g>
<g>
</g>
<g>
</g>
<g>
</g>
<g>
</g>
<g>
</g>
<g>
</g>
<g>
</g>
</svg>
