<?xml version="1.0" encoding="iso-8859-1"?>
<!-- Generator: Adobe Illustrator 19.0.0, SVG Export Plug-In . SVG Version: 6.00 Build 0)  -->
<svg xmlns="http://www.w3.org/2000/svg" xmlns:xlink="http://www.w3.org/1999/xlink" version="1.1" id="Layer_1" x="0px" y="0px" viewBox="0 0 512 512" style="enable-background:new 0 0 512 512;" xml:space="preserve">
<path style="fill:#555656;" d="M446.915,78.102v60.746H65.085V78.102c0-9.589,7.767-17.356,17.356-17.356h347.119  C439.148,60.746,446.915,68.513,446.915,78.102z"/>
<path style="fill:#717272;" d="M412.203,78.102v60.746H65.085V78.102c0-9.589,7.767-17.356,17.356-17.356h312.407  C404.437,60.746,412.203,68.513,412.203,78.102z"/>
<path style="fill:#388E3C;" d="M412.203,138.847v347.119c0,9.589-7.767,17.356-17.356,17.356H117.153  c-9.589,0-17.356-7.767-17.356-17.356V138.847H412.203z"/>
<path style="fill:#4CAF50;" d="M377.492,138.847v347.119c0,9.589-7.767,17.356-17.356,17.356H117.153  c-9.589,0-17.356-7.767-17.356-17.356V138.847H377.492z"/>
<g>
	<rect x="134.508" y="173.473" style="fill:#388E3C;" width="52.068" height="295.051"/>
	<rect x="229.966" y="173.473" style="fill:#388E3C;" width="52.068" height="295.051"/>
	<rect x="325.424" y="173.473" style="fill:#388E3C;" width="52.068" height="295.051"/>
</g>
<path style="fill:#555656;" d="M160.542,8.678h190.915c9.589,0,17.356,7.767,17.356,17.356v34.712l0,0H143.186l0,0V26.034  C143.186,16.445,150.953,8.678,160.542,8.678z"/>
<path d="M446.915,147.525H65.085c-4.79,0-8.678-3.888-8.678-8.678V78.102c0-14.379,11.655-26.034,26.034-26.034h347.119  c14.379,0,26.034,11.655,26.034,26.034v60.746C455.593,143.638,451.705,147.525,446.915,147.525z M73.763,130.169h364.475V78.102  c0-4.79-3.888-8.678-8.678-8.678H82.441c-4.79,0-8.678,3.888-8.678,8.678V130.169z"/>
<path d="M394.847,512H117.153c-14.379,0-26.034-11.654-26.034-26.034V138.847c0-4.79,3.888-8.678,8.678-8.678h312.407  c4.79,0,8.678,3.888,8.678,8.678v347.119C420.881,500.346,409.227,512,394.847,512z M108.475,147.525v338.441  c0,4.79,3.888,8.678,8.678,8.678h277.695c4.79,0,8.678-3.888,8.678-8.678V147.525H108.475z"/>
<path d="M186.576,477.288h-52.068c-4.79,0-8.678-3.888-8.678-8.678V173.559c0-4.79,3.888-8.678,8.678-8.678h52.068  c4.79,0,8.678,3.888,8.678,8.678V468.61C195.254,473.4,191.367,477.288,186.576,477.288z M143.186,459.932h34.712V182.237h-34.712  V459.932z"/>
<path d="M282.034,477.288h-52.068c-4.79,0-8.678-3.888-8.678-8.678V173.559c0-4.79,3.888-8.678,8.678-8.678h52.068  c4.79,0,8.678,3.888,8.678,8.678V468.61C290.712,473.4,286.824,477.288,282.034,477.288z M238.644,459.932h34.712V182.237h-34.712  V459.932z"/>
<path d="M377.492,477.288h-52.068c-4.79,0-8.678-3.888-8.678-8.678V173.559c0-4.79,3.888-8.678,8.678-8.678h52.068  c4.79,0,8.678,3.888,8.678,8.678V468.61C386.169,473.4,382.282,477.288,377.492,477.288z M334.102,459.932h34.712V182.237h-34.712  V459.932z"/>
<path d="M368.814,69.424H143.186c-4.79,0-8.678-3.888-8.678-8.678V26.034C134.508,11.655,146.163,0,160.542,0h190.915  c14.379,0,26.034,11.655,26.034,26.034v34.712C377.492,65.536,373.604,69.424,368.814,69.424z M151.864,52.068h208.271V26.034  c0-4.79-3.888-8.678-8.678-8.678H160.542c-4.79,0-8.678,3.888-8.678,8.678V52.068z"/>
<g>
</g>
<g>
</g>
<g>
</g>
<g>
</g>
<g>
</g>
<g>
</g>
<g>
</g>
<g>
</g>
<g>
</g>
<g>
</g>
<g>
</g>
<g>
</g>
<g>
</g>
<g>
</g>
<g>
</g>
</svg>
