<?xml version="1.0" encoding="iso-8859-1"?>
<!-- Generator: Adobe Illustrator 19.0.0, SVG Export Plug-In . SVG Version: 6.00 Build 0)  -->
<svg xmlns="http://www.w3.org/2000/svg" xmlns:xlink="http://www.w3.org/1999/xlink" version="1.1" id="Layer_1" x="0px" y="0px" viewBox="0 0 512 512" style="enable-background:new 0 0 512 512;" xml:space="preserve">
<path style="fill:#283593;" d="M503.467,75.264V486.4c0,9.429-7.637,17.067-17.067,17.067H25.6c-9.429,0-17.067-7.637-17.067-17.067  V25.6c0-9.429,7.637-17.067,17.067-17.067h411.051c4.523,0.017,8.849,1.826,12.032,5.035l49.749,49.579  C501.658,66.355,503.467,70.716,503.467,75.264z"/>
<path style="fill:#A8A5A4;" d="M418.133,8.533v187.733c0.538,8.755-6.016,16.341-14.763,17.067H108.629  c-8.747-0.725-15.3-8.311-14.763-17.067V8.533H418.133z"/>
<path style="fill:#BDBDBD;" d="M384,8.533v187.733c0.538,8.755-6.016,16.341-14.763,17.067H108.629  c-8.747-0.725-15.3-8.311-14.763-17.067V8.533H384z"/>
<path style="fill:#F4F4F4;" d="M426.667,486.4v17.067h-332.8V486.4c0-9.429,7.637-17.067,17.067-17.067H409.6  C419.029,469.333,426.667,476.971,426.667,486.4z"/>
<path style="fill:#FFFFFF;" d="M401.067,486.4v17.067h-307.2V486.4c0-9.429,7.637-17.067,17.067-17.067H384  C393.429,469.333,401.067,476.971,401.067,486.4z"/>
<path d="M486.4,512H25.6C11.46,512,0,500.54,0,486.4V25.6C0,11.46,11.46,0,25.6,0h411.051c6.784,0.009,13.295,2.705,18.091,7.509  l49.749,49.664c4.804,4.796,7.501,11.307,7.509,18.091V486.4C512,500.54,500.54,512,486.4,512z M25.6,17.067  c-4.71,0-8.533,3.823-8.533,8.533v460.8c0,4.71,3.823,8.533,8.533,8.533h460.8c4.71,0,8.533-3.823,8.533-8.533V75.264  c0.017-2.27-0.879-4.446-2.475-6.059l-49.749-49.749c-1.621-1.57-3.806-2.423-6.059-2.389H25.6z"/>
<path d="M403.371,221.867H108.629c-13.474-0.691-23.876-12.117-23.296-25.6V8.533c0-4.71,3.823-8.533,8.533-8.533h324.267  c4.71,0,8.533,3.823,8.533,8.533v187.733C427.247,209.749,416.845,221.175,403.371,221.867z M102.4,17.067v179.2  c0,4.523,2.901,8.533,6.229,8.533h294.741c3.328,0,6.229-4.011,6.229-8.533v-179.2H102.4z"/>
<path d="M426.667,512h-332.8c-4.71,0-8.533-3.823-8.533-8.533V486.4c0-14.14,11.46-25.6,25.6-25.6H409.6  c14.14,0,25.6,11.46,25.6,25.6v17.067C435.2,508.177,431.377,512,426.667,512z M102.4,494.933h315.733V486.4  c0-4.71-3.823-8.533-8.533-8.533H110.933c-4.71,0-8.533,3.823-8.533,8.533V494.933z"/>
<path d="M349.867,221.867c-4.71,0-8.533-3.823-8.533-8.533V8.533c0-4.71,3.823-8.533,8.533-8.533s8.533,3.823,8.533,8.533v204.8  C358.4,218.044,354.577,221.867,349.867,221.867z"/>
<g>
</g>
<g>
</g>
<g>
</g>
<g>
</g>
<g>
</g>
<g>
</g>
<g>
</g>
<g>
</g>
<g>
</g>
<g>
</g>
<g>
</g>
<g>
</g>
<g>
</g>
<g>
</g>
<g>
</g>
</svg>
