<?xml version="1.0" encoding="iso-8859-1"?>
<!-- Generator: Adobe Illustrator 19.0.0, SVG Export Plug-In . SVG Version: 6.00 Build 0)  -->
<svg xmlns="http://www.w3.org/2000/svg" xmlns:xlink="http://www.w3.org/1999/xlink" version="1.1" id="Layer_1" x="0px" y="0px" viewBox="0 0 512.002 512.002" style="enable-background:new 0 0 512.002 512.002;" xml:space="preserve">
<path style="fill:#283593;" d="M358.401,145.388c-0.009,34.33-17.212,66.364-45.824,85.333c-0.947,0.674-1.946,1.28-2.987,1.792  c-10.539,6.69-22.281,11.264-34.56,13.483c-6.263,1.246-12.638,1.843-19.029,1.792c-18.961,0.06-37.547-5.265-53.589-15.36  c-1.041-0.512-2.039-1.118-2.987-1.792c-47.138-31.249-60.023-94.788-28.774-141.926s94.788-60.023,141.926-28.774  C341.223,78.922,358.435,111.016,358.401,145.388z"/>
<path style="fill:#3949AB;" d="M332.801,153.922c-0.009,34.33-17.212,66.364-45.824,85.333c-0.947,0.674-1.946,1.28-2.987,1.792  c-2.893,1.818-5.879,3.465-8.96,4.949c-6.263,1.246-12.638,1.843-19.029,1.792c-18.961,0.06-37.547-5.265-53.589-15.36  c-1.041-0.512-2.039-1.118-2.987-1.792c-47.113-31.283-59.955-94.831-28.672-141.952c10.035-15.113,23.91-27.298,40.192-35.285  c6.409-1.271,12.928-1.903,19.456-1.877C286.96,51.522,332.801,97.363,332.801,153.922z"/>
<path style="fill:#311B92;" d="M401.067,367.255v102.4H110.934v-102.4c-0.043-23.817,5.82-47.275,17.067-68.267l0,0  c13.065-24.363,32.768-44.51,56.832-58.112c5.658-3.243,11.537-6.093,17.579-8.533c11.127,7.023,23.543,11.75,36.523,13.909  c5.632,0.99,11.341,1.502,17.067,1.536c12.672,0.017,25.242-2.355,37.035-6.997c5.777-2.304,11.324-5.163,16.555-8.533  c31.923,12.723,58.291,36.378,74.411,66.731l0,0C395.248,319.98,401.11,343.438,401.067,367.255z"/>
<path style="fill:#5E35B1;" d="M366.934,367.255v102.4h-256v-102.4c-0.043-23.817,5.82-47.275,17.067-68.267l0,0  c13.065-24.363,32.768-44.51,56.832-58.112c11.802,4.617,24.363,6.955,37.035,6.912c5.717-0.009,11.426-0.495,17.067-1.451  c12.979-2.159,25.395-6.886,36.523-13.909c6.042,2.441,11.921,5.291,17.579,8.533c24.047,13.577,43.759,33.698,56.832,58.027l0,0  C361.114,319.98,366.977,343.438,366.934,367.255z"/>
<path style="fill:#A8A5A4;" d="M494.934,205.122c0,16.674-8.115,32.307-21.76,41.899c-5.154,3.61-10.948,6.212-17.067,7.68  c-4.045,1.033-8.201,1.57-12.373,1.621c-10.547,0.051-20.838-3.209-29.44-9.301c-23.142-16.256-28.723-48.188-12.476-71.322  c9.591-13.653,25.225-21.777,41.916-21.777c4.326,0,8.627,0.572,12.8,1.707C479.113,161.457,494.9,181.8,494.934,205.122z"/>
<path style="fill:#BDBDBD;" d="M494.934,205.122c0,16.674-8.115,32.307-21.76,41.899c-5.154,3.61-10.948,6.212-17.067,7.68  c-6.118-1.468-11.913-4.07-17.067-7.68c-23.066-16.367-28.493-48.324-12.126-71.381c7.04-9.924,17.391-17.024,29.193-20.011  C478.857,161.294,494.849,181.681,494.934,205.122z"/>
<path style="fill:#555656;" d="M503.467,298.988v85.333h-102.4v-17.067c0.043-23.817-5.82-47.275-17.067-68.267l0,0  c0.034-21.487,11.597-41.293,30.293-51.883c4.659,3.302,9.856,5.786,15.36,7.339c4.582,1.28,9.318,1.911,14.08,1.877  c4.318-0.009,8.619-0.555,12.8-1.621c6.118-1.468,11.913-4.07,17.067-7.68c3.661,2.048,7.066,4.506,10.155,7.339  c0.93,0.589,1.809,1.246,2.645,1.963C497.554,267.697,503.698,283.057,503.467,298.988z"/>
<path style="fill:#717272;" d="M503.467,298.988v85.333h-76.8v-17.067c0.043-23.817-5.82-47.275-17.067-68.267l0,0  c-0.034-17.041,7.27-33.271,20.053-44.544c3.132-2.816,6.571-5.274,10.24-7.339c5.154,3.61,10.948,6.212,17.067,7.68  c4.045,0.998,8.201,1.519,12.373,1.536c4.736,0.009,9.446-0.657,13.995-1.963c1.075,0.572,2.099,1.229,3.072,1.963  C497.554,267.697,503.698,283.057,503.467,298.988z"/>
<path style="fill:#A8A5A4;" d="M119.467,205.122c0,16.674-8.115,32.307-21.76,41.899c-7.808,5.572-17.05,8.798-26.624,9.301h-2.816  c-10.556,0.026-20.847-3.26-29.44-9.387c-23.151-16.239-28.757-48.162-12.518-71.313c3.635-5.18,8.201-9.643,13.457-13.167  c8.422-5.649,18.355-8.619,28.501-8.533C96.547,153.922,119.467,176.842,119.467,205.122z"/>
<path style="fill:#BDBDBD;" d="M93.867,213.655c-0.026,16.649-8.141,32.239-21.76,41.813l-1.024,0.853h-2.816  c-10.556,0.026-20.847-3.26-29.44-9.387c-23.151-16.239-28.757-48.162-12.518-71.313c3.635-5.18,8.201-9.643,13.457-13.167  c0.964-0.085,1.937-0.085,2.901,0C70.947,162.455,93.867,185.375,93.867,213.655z"/>
<path style="fill:#555656;" d="M128.001,298.988L128.001,298.988c-11.247,20.992-17.109,44.45-17.067,68.267v17.067H8.534v-85.333  c0.009-17.058,7.305-33.297,20.053-44.629c3.132-2.816,6.571-5.274,10.24-7.339c5.154,3.61,10.948,6.212,17.067,7.68  c4.045,1.033,8.201,1.57,12.373,1.621c4.736,0.009,9.446-0.657,13.995-1.963c5.547-1.502,10.778-3.985,15.445-7.339  C116.43,257.619,128.001,277.476,128.001,298.988z"/>
<path style="fill:#717272;" d="M102.401,298.988L102.401,298.988c-11.247,20.992-17.109,44.45-17.067,68.267v17.067h-76.8v-85.333  c0.009-17.058,7.305-33.297,20.053-44.629c4.582,1.306,9.318,1.963,14.08,1.963c4.318-0.009,8.619-0.555,12.8-1.621  c6.118-1.468,11.913-4.07,17.067-7.68c3.661,2.048,7.066,4.506,10.155,7.339c0.93,0.589,1.809,1.246,2.645,1.963  C96.538,267.662,102.691,283.048,102.401,298.988z"/>
<path d="M256.001,256.322c-20.599-0.068-40.755-5.982-58.112-17.067c-1.203-0.606-2.347-1.323-3.413-2.133  c-51.012-33.929-64.853-102.793-30.925-153.805s102.793-64.853,153.805-30.925s64.853,102.793,30.925,153.805  c-8.158,12.262-18.671,22.767-30.925,30.925c-1.22,0.87-2.5,1.638-3.84,2.304C296.329,250.391,276.387,256.253,256.001,256.322z   M256.001,51.522c-51.84,0.051-93.824,42.112-93.773,93.961c0.034,31.394,15.753,60.698,41.89,78.071  c0.674,0.486,1.391,0.913,2.133,1.28c14.874,9.438,32.137,14.438,49.749,14.421c17.357,0.051,34.372-4.838,49.067-14.08l2.475-1.451  c43.264-28.561,55.185-86.784,26.624-130.048C316.826,67.402,287.472,51.581,256.001,51.522z"/>
<path d="M401.067,478.188H110.934c-4.71,0-8.533-3.823-8.533-8.533v-102.4c0-24.977,6.093-49.587,17.749-71.68v-0.768  c17.101-32.043,45.013-56.986,78.763-70.4c2.526-1.007,5.376-0.751,7.68,0.683c30.089,18.423,67.959,18.423,98.048,0  c2.304-1.434,5.154-1.69,7.68-0.683c33.749,13.414,61.662,38.357,78.763,70.4v0.768c11.921,22.025,18.278,46.635,18.517,71.68v102.4  C409.601,474.365,405.778,478.188,401.067,478.188z M119.467,461.122h273.067v-93.867c0.085-22.417-5.427-44.51-16.043-64.256  v-0.683c-14.549-26.914-37.717-48.162-65.792-60.331c-33.766,18.825-74.863,18.825-108.629,0  c-28.1,12.151-51.302,33.399-65.877,60.331v0.683c-10.854,19.686-16.606,41.779-16.725,64.256  C119.467,367.255,119.467,461.122,119.467,461.122z"/>
<path d="M443.734,264.855c-12.228,0.017-24.158-3.772-34.133-10.837c-26.974-18.995-33.442-56.26-14.455-83.234  s56.26-33.442,83.234-14.455c26.974,18.987,33.442,56.26,14.455,83.234c-3.951,5.615-8.841,10.505-14.455,14.455  C468.259,261.186,456.133,264.974,443.734,264.855z M443.734,162.455c-23.561,0.026-42.641,19.157-42.615,42.718  c0.017,13.875,6.775,26.871,18.125,34.85c14.763,10.112,34.219,10.112,48.981,0c19.277-13.551,23.91-40.166,10.359-59.443  C470.606,169.23,457.609,162.472,443.734,162.455z"/>
<path d="M503.467,392.855h-102.4c-4.71,0-8.533-3.823-8.533-8.533v-17.067c0.085-22.417-5.427-44.51-16.043-64.256  c-0.666-1.229-1.015-2.611-1.024-4.011c-0.119-24.713,13.133-47.565,34.645-59.733c2.884-1.613,6.443-1.417,9.131,0.512  c14.771,10.086,34.21,10.086,48.981,0c2.688-1.929,6.246-2.125,9.131-0.512c21.513,12.169,34.765,35.021,34.645,59.733v85.333  C512.001,389.032,508.178,392.855,503.467,392.855z M409.601,375.788h85.333v-76.8c0-16.674-8.115-32.307-21.76-41.899  c-18.338,10.163-40.627,10.163-58.965,0c-13.013,9.165-21.026,23.859-21.675,39.765c11.221,21.769,17.075,45.909,17.067,70.4  V375.788z"/>
<path d="M68.267,264.855c-12.228,0.017-24.158-3.772-34.133-10.837c-26.974-18.995-33.442-56.26-14.455-83.234  s56.26-33.442,83.234-14.455s33.442,56.26,14.455,83.234c-3.951,5.615-8.841,10.505-14.455,14.455  C92.792,261.186,80.666,264.974,68.267,264.855z M68.267,162.455c-23.561,0.026-42.641,19.157-42.615,42.718  c0.017,13.875,6.775,26.871,18.125,34.85c14.763,10.112,34.219,10.112,48.981,0c19.277-13.551,23.91-40.166,10.359-59.443  C95.139,169.23,82.143,162.472,68.267,162.455z"/>
<path d="M110.934,392.855H8.534c-4.71,0-8.533-3.823-8.533-8.533v-85.333c-0.119-24.713,13.133-47.565,34.645-59.733  c2.884-1.613,6.443-1.417,9.131,0.512c14.771,10.086,34.21,10.086,48.981,0c2.688-1.929,6.246-2.125,9.131-0.512  c21.513,12.169,34.765,35.021,34.645,59.733l0,0c-0.009,1.399-0.358,2.782-1.024,4.011c-10.615,19.746-16.128,41.839-16.043,64.256  v17.067C119.467,389.032,115.645,392.855,110.934,392.855z M17.067,375.788h85.333v-8.533c0.009-24.465,5.862-48.572,17.067-70.315  c-0.623-15.932-8.636-30.669-21.675-39.851c-18.338,10.163-40.627,10.163-58.965,0c-13.645,9.592-21.76,25.225-21.76,41.899V375.788  z"/>
<g>
</g>
<g>
</g>
<g>
</g>
<g>
</g>
<g>
</g>
<g>
</g>
<g>
</g>
<g>
</g>
<g>
</g>
<g>
</g>
<g>
</g>
<g>
</g>
<g>
</g>
<g>
</g>
<g>
</g>
</svg>
