<?xml version="1.0" encoding="iso-8859-1"?>
<!-- Generator: Adobe Illustrator 19.0.0, SVG Export Plug-In . SVG Version: 6.00 Build 0)  -->
<svg xmlns="http://www.w3.org/2000/svg" xmlns:xlink="http://www.w3.org/1999/xlink" version="1.1" id="Layer_1" x="0px" y="0px" viewBox="0 0 512 512" style="enable-background:new 0 0 512 512;" xml:space="preserve">
<path style="fill:#009FE3;" d="M332.806,328.448c0.094,63.573-51.371,115.191-114.944,115.285c-0.085,0-0.171,0-0.256,0H187.74  L119.473,512v-68.267c-11.648-0.393-23.159-2.577-34.133-6.485c-6.229-2.278-12.228-5.137-17.92-8.533  C12.09,397.304-7.298,326.989,24.113,271.659c20.361-35.883,58.368-58.129,99.627-58.325h88.747l0,0  c21.632,21.632,50.901,33.894,81.493,34.133h5.12C320.595,268.945,332.713,298.061,332.806,328.448z"/>
<path style="fill:#5BC5F2;" d="M298.673,309.419c0.171,31.974-11.887,62.805-33.707,86.187  c-21.086,22.605-50.577,35.482-81.493,35.584h-29.867l-34.133,36.096v-23.552c-11.648-0.393-23.159-2.577-34.133-6.485v-5.973  c-6.025-0.23-12.015-0.939-17.92-2.133C11.859,398.149-8.066,327.979,22.927,272.418c20.378-36.54,58.974-59.162,100.813-59.085  h88.747l0,0c18.62,18.679,43.136,30.345,69.376,33.024C292.87,265.549,298.665,287.292,298.673,309.419z"/>
<path d="M119.473,512c-4.71,0-8.533-3.823-8.533-8.533v-60.501C43.023,435.379-5.882,374.178,1.705,306.262  c6.955-62.276,59.366-109.525,122.035-109.995h88.747c2.278,0.009,4.463,0.93,6.059,2.56c20.053,20.241,47.369,31.607,75.861,31.573  h5.12c2.278,0.009,4.463,0.93,6.059,2.56c48.068,48.572,47.667,126.916-0.905,174.985c-23.177,22.938-54.468,35.797-87.074,35.789  h-26.368l-65.707,65.707C123.936,511.07,121.752,511.992,119.473,512z M123.74,213.334c-58.914-1.178-107.622,45.619-108.8,104.533  s45.619,107.622,104.533,108.8c4.71,0,8.533,3.823,8.533,8.533v47.787l53.675-53.675c1.579-1.664,3.763-2.611,6.059-2.645h29.867  c58.957-0.085,106.684-47.949,106.598-106.906c-0.043-26.803-10.155-52.608-28.348-72.294h-1.451  c-31.778,0.051-62.353-12.177-85.333-34.133L123.74,213.334L123.74,213.334z"/>
<path style="fill:#388E3C;" d="M503.473,123.648c0.137,62.046-48.93,113.033-110.933,115.285V307.2l-68.267-68.267h-29.867  c-22.195,0.051-43.93-6.357-62.549-18.432c-6.835-4.574-13.184-9.839-18.944-15.701l0,0c-21.359-21.564-33.323-50.714-33.28-81.067  c0-2.389,0-4.864,0-7.253c3.738-60.646,54.007-107.93,114.773-107.947h93.867c63.573-0.051,115.149,51.456,115.2,115.029  C503.473,123.589,503.473,123.623,503.473,123.648z"/>
<g>
	<path style="fill:#4CAF50;" d="M469.34,123.648c0.034,38.801-19.507,74.999-51.968,96.256   c-17.51,11.682-37.931,18.27-58.965,19.029v34.133l-34.133-34.133h-29.867c-22.195,0.051-43.93-6.357-62.549-18.432   c-6.835-4.574-13.184-9.839-18.944-15.701l0,0c-21.359-21.564-33.323-50.714-33.28-81.067c0-2.389,0-4.864,0-7.253   c3.738-60.646,54.007-107.93,114.773-107.947h59.733c60.894-0.205,111.403,47.078,115.2,107.861   C469.34,118.784,469.34,121.174,469.34,123.648z"/>
	<path style="fill:#4CAF50;" d="M469.34,108.118c0,2.816,0,5.547,0,8.533c-1.331,40.388-20.215,78.191-51.712,103.509   c-17.024,13.167-37.717,20.71-59.221,21.589V281.6l-34.133-39.68h-29.867c-22.63-0.102-44.604-7.629-62.549-21.419   c-6.921-5.205-13.269-11.127-18.944-17.664v-0.512c-20.395-24.149-32.239-54.357-33.707-85.931   c3.789-60.783,54.298-108.066,115.2-107.861h93.867c18.799-0.009,37.316,4.591,53.931,13.397   C460.107,47.079,469.604,77.244,469.34,108.118z"/>
</g>
<path d="M392.54,315.734c-2.27,0.017-4.446-0.879-6.059-2.475l-65.707-65.792h-26.368c-23.834,0.043-47.164-6.835-67.157-19.797  c-7.305-4.762-14.106-10.257-20.309-16.384c-23.262-23.228-36.318-54.767-36.267-87.637c0-2.56,0-5.291,0-7.851  C174.863,50.577,229.05-0.136,294.406,0h93.867c68.335,0.512,123.315,56.329,122.795,124.663  c-0.469,62.66-47.718,115.081-109.995,122.035V307.2C401.073,311.911,397.25,315.734,392.54,315.734z M294.406,17.067  c-56.346-0.119-103.057,43.614-106.667,99.84c0,2.304,0,4.523,0,6.741c-0.085,28.126,10.991,55.134,30.805,75.093  c5.461,5.436,11.469,10.291,17.92,14.507c17.254,11.187,37.385,17.109,57.941,17.067h29.867c2.27-0.017,4.446,0.879,6.059,2.475  l53.675,53.76v-47.616c0-4.71,3.823-8.533,8.533-8.533c58.871-2.159,104.841-51.635,102.682-110.507  c-1.399-38.221-23.159-72.764-57.028-90.539c-15.377-8.141-32.521-12.365-49.92-12.288  C388.273,17.067,294.406,17.067,294.406,17.067z"/>
<g>
</g>
<g>
</g>
<g>
</g>
<g>
</g>
<g>
</g>
<g>
</g>
<g>
</g>
<g>
</g>
<g>
</g>
<g>
</g>
<g>
</g>
<g>
</g>
<g>
</g>
<g>
</g>
<g>
</g>
</svg>
