<?xml version="1.0" encoding="iso-8859-1"?>
<!-- Generator: Adobe Illustrator 19.0.0, SVG Export Plug-In . SVG Version: 6.00 Build 0)  -->
<svg xmlns="http://www.w3.org/2000/svg" xmlns:xlink="http://www.w3.org/1999/xlink" version="1.1" id="Layer_1" x="0px" y="0px" viewBox="0 0 512 512" style="enable-background:new 0 0 512 512;" xml:space="preserve">
<path style="fill:#009FE3;" d="M503.584,217.591c-0.06,76.366-53.38,142.344-128.03,158.416v80.573l-76.818-76.818h-128.03  c-89.561,0-162.171-72.61-162.171-162.171S81.145,55.42,170.706,55.42h170.706C430.974,55.42,503.584,128.021,503.584,217.591z"/>
<path style="fill:#5BC5F2;" d="M477.978,217.591c-0.06,76.366-53.38,142.344-128.03,158.416v54.967l-51.212-51.212h-128.03  c-89.561,0-162.171-72.61-162.171-162.171S81.145,55.42,170.706,55.42h145.101C405.368,55.42,477.978,128.021,477.978,217.591z"/>
<path style="fill:#388E3C;" d="M452.372,217.591c-0.017,22.909-15.253,43.027-37.299,49.249c-4.524,1.306-9.21,1.972-13.913,1.963  c-28.286-0.043-51.178-23.011-51.127-51.297c0.026-15.944,7.477-30.958,20.143-40.628c8.86-6.871,19.768-10.567,30.983-10.498  C429.446,166.379,452.372,189.305,452.372,217.591z"/>
<path style="fill:#4CAF50;" d="M435.302,226.126c-0.017,15.987-7.503,31.043-20.229,40.714c-4.524,1.306-9.21,1.972-13.913,1.963  c-28.286-0.043-51.178-23.011-51.127-51.297c0.026-15.944,7.477-30.958,20.143-40.628c4.524-1.306,9.21-1.972,13.913-1.963  C412.376,174.914,435.302,197.84,435.302,226.126z"/>
<path d="M401.16,277.338c-32.998,0-59.747-26.75-59.747-59.747s26.75-59.747,59.747-59.747s59.747,26.75,59.747,59.747  S434.158,277.338,401.16,277.338z M401.16,174.914c-23.566,0-42.677,19.111-42.677,42.677s19.111,42.677,42.677,42.677  s42.677-19.111,42.677-42.677S424.726,174.914,401.16,174.914z"/>
<path d="M375.554,465.115c-2.27,0.017-4.447-0.879-6.06-2.475l-74.257-74.343h-124.53C76.425,388.297,0,311.872,0,217.591  S76.425,46.884,170.706,46.884h170.706C435.694,46.953,512.068,123.438,512,217.71c-0.034,45.177-17.975,88.511-49.898,120.485  c-21.5,21.629-48.455,37.026-78.013,44.554v73.831C384.09,461.292,380.266,465.115,375.554,465.115z M170.706,63.955  c-84.85,0-153.636,68.786-153.636,153.636s68.786,153.636,153.636,153.636h128.03c2.27-0.017,4.447,0.879,6.06,2.475l62.223,62.223  v-59.747c-0.094-4.097,2.74-7.673,6.743-8.535c70.707-15.227,121.219-77.723,121.287-150.051  c0-84.85-68.786-153.636-153.636-153.636L170.706,63.955L170.706,63.955z"/>
<g>
	<circle style="fill:#388E3C;" cx="110.959" cy="217.506" r="51.212"/>
	<path style="fill:#388E3C;" d="M153.636,217.591c0,28.286-22.926,51.212-51.212,51.212s-51.212-22.926-51.212-51.212   s22.926-51.212,51.212-51.212S153.636,189.305,153.636,217.591z"/>
</g>
<path style="fill:#4CAF50;" d="M145.101,226.126c0.026,11.497-3.858,22.661-11.011,31.666c-9.005,7.153-20.169,11.036-31.666,11.011  c-28.286,0-51.212-22.926-51.212-51.212l0,0c-0.026-11.497,3.858-22.661,11.011-31.666c9.005-7.153,20.169-11.036,31.666-11.011  C122.175,174.914,145.101,197.84,145.101,226.126z"/>
<path d="M110.959,277.338c-32.998,0-59.747-26.75-59.747-59.747s26.75-59.747,59.747-59.747s59.747,26.75,59.747,59.747  S143.957,277.338,110.959,277.338z M110.959,174.914c-23.566,0-42.677,19.111-42.677,42.677s19.111,42.677,42.677,42.677  s42.677-19.111,42.677-42.677S134.525,174.914,110.959,174.914z"/>
<g>
	<circle style="fill:#388E3C;" cx="256.06" cy="217.506" r="51.212"/>
	<path style="fill:#388E3C;" d="M298.736,217.591c0,28.286-22.926,51.212-51.212,51.212s-51.212-22.926-51.212-51.212   s22.926-51.212,51.212-51.212S298.736,189.305,298.736,217.591z"/>
</g>
<path style="fill:#4CAF50;" d="M290.201,226.126c0.026,11.497-3.858,22.661-11.011,31.666c-9.005,7.153-20.169,11.036-31.666,11.011  c-28.286,0-51.212-22.926-51.212-51.212l0,0c-0.026-11.497,3.858-22.661,11.011-31.666c9.005-7.153,20.169-11.036,31.666-11.011  C267.275,174.914,290.201,197.84,290.201,226.126z"/>
<path d="M256.06,277.338c-32.998,0-59.747-26.75-59.747-59.747s26.75-59.747,59.747-59.747s59.747,26.75,59.747,59.747  S289.057,277.338,256.06,277.338z M256.06,174.914c-23.566,0-42.677,19.111-42.677,42.677s19.111,42.677,42.677,42.677  s42.677-19.111,42.677-42.677S279.626,174.914,256.06,174.914z"/>
<g>
</g>
<g>
</g>
<g>
</g>
<g>
</g>
<g>
</g>
<g>
</g>
<g>
</g>
<g>
</g>
<g>
</g>
<g>
</g>
<g>
</g>
<g>
</g>
<g>
</g>
<g>
</g>
<g>
</g>
</svg>
