<?xml version="1.0" encoding="iso-8859-1"?>
<!-- Generator: Adobe Illustrator 19.0.0, SVG Export Plug-In . SVG Version: 6.00 Build 0)  -->
<svg xmlns="http://www.w3.org/2000/svg" xmlns:xlink="http://www.w3.org/1999/xlink" version="1.1" id="Layer_1" x="0px" y="0px" viewBox="0 0 512 512" style="enable-background:new 0 0 512 512;" xml:space="preserve">
<path style="fill:#009FE3;" d="M503.584,217.591c-0.06,76.366-53.38,142.344-128.03,158.416v80.573l-76.818-76.818h-128.03  c-89.561,0-162.171-72.61-162.171-162.171S81.145,55.42,170.706,55.42h170.706C430.974,55.42,503.584,128.021,503.584,217.591z"/>
<path style="fill:#5BC5F2;" d="M477.978,217.591c-0.06,76.366-53.38,142.344-128.03,158.416v54.967l-51.212-51.212h-128.03  c-89.561,0-162.171-72.61-162.171-162.171S81.145,55.42,170.706,55.42h145.101C405.368,55.42,477.978,128.021,477.978,217.591z"/>
<path d="M375.554,465.115c-2.27,0.017-4.447-0.879-6.06-2.475l-74.257-74.343h-124.53C76.425,388.297,0,311.872,0,217.591  S76.425,46.884,170.706,46.884h170.706C435.694,46.953,512.068,123.438,512,217.71c-0.034,45.177-17.975,88.511-49.898,120.485  c-21.5,21.629-48.455,37.026-78.013,44.554v73.831C384.09,461.292,380.266,465.115,375.554,465.115z M170.706,63.955  c-84.85,0-153.636,68.786-153.636,153.636s68.786,153.636,153.636,153.636h128.03c2.27-0.017,4.447,0.879,6.06,2.475l62.223,62.223  v-59.747c-0.094-4.097,2.74-7.673,6.743-8.535c70.707-15.227,121.219-77.723,121.287-150.051  c0-84.85-68.786-153.636-153.636-153.636L170.706,63.955L170.706,63.955z"/>
<path d="M409.696,149.308H102.424c-4.712,0-8.535-3.824-8.535-8.535c0-4.712,3.824-8.535,8.535-8.535h307.272  c4.711,0,8.535,3.824,8.535,8.535C418.231,145.485,414.407,149.308,409.696,149.308z"/>
<path d="M213.383,191.985H59.747c-4.712,0-8.535-3.824-8.535-8.535s3.824-8.535,8.535-8.535h153.636  c4.711,0,8.535,3.824,8.535,8.535S218.095,191.985,213.383,191.985z"/>
<path d="M452.372,191.985H264.595c-4.711,0-8.535-3.824-8.535-8.535s3.824-8.535,8.535-8.535h187.777  c4.711,0,8.535,3.824,8.535,8.535S457.084,191.985,452.372,191.985z"/>
<path d="M452.372,277.338H264.595c-4.711,0-8.535-3.824-8.535-8.535s3.824-8.535,8.535-8.535h187.777  c4.711,0,8.535,3.824,8.535,8.535S457.084,277.338,452.372,277.338z"/>
<path d="M452.372,234.662H51.212c-4.712,0-8.535-3.824-8.535-8.535s3.824-8.535,8.535-8.535h401.16c4.711,0,8.535,3.824,8.535,8.535  S457.084,234.662,452.372,234.662z"/>
<g>
</g>
<g>
</g>
<g>
</g>
<g>
</g>
<g>
</g>
<g>
</g>
<g>
</g>
<g>
</g>
<g>
</g>
<g>
</g>
<g>
</g>
<g>
</g>
<g>
</g>
<g>
</g>
<g>
</g>
</svg>
