<?xml version="1.0" encoding="iso-8859-1"?>
<!-- Generator: Adobe Illustrator 19.0.0, SVG Export Plug-In . SVG Version: 6.00 Build 0)  -->
<svg xmlns="http://www.w3.org/2000/svg" xmlns:xlink="http://www.w3.org/1999/xlink" version="1.1" id="Layer_1" x="0px" y="0px" viewBox="0 0 512 512" style="enable-background:new 0 0 512 512;" xml:space="preserve">
<path style="fill:#AD1457;" d="M503.467,179.2v238.933c0,18.85-15.283,34.133-34.133,34.133H42.667  c-18.85,0-34.133-15.283-34.133-34.133V179.2c0-18.85,15.283-34.133,34.133-34.133h91.051l20.651-61.952  c1.894-5.76,5.316-10.889,9.899-14.848c6.204-5.47,14.174-8.499,22.443-8.533h131.499c13.918-0.009,26.445,8.431,31.659,21.333  l25.6,64h93.867C488.184,145.067,503.467,160.35,503.467,179.2z"/>
<path style="fill:#D81B60;" d="M477.867,187.733v238.933c-0.009,9.805-4.241,19.132-11.605,25.6H42.667  c-18.85,0-34.133-15.283-34.133-34.133V179.2c0.009-9.805,4.241-19.132,11.605-25.6h87.979l2.816-8.533h22.784l20.651-61.952  c1.894-5.76,5.316-10.889,9.899-14.848h128c14.037-0.145,26.735,8.32,32,21.333l25.6,64h93.867  C462.583,153.6,477.867,168.883,477.867,187.733z"/>
<path d="M469.333,460.8H42.667C19.106,460.8,0,441.694,0,418.133V179.2c0-23.561,19.106-42.667,42.667-42.667h84.907l18.688-56.149  c5.803-17.417,22.093-29.167,40.448-29.184h131.499c17.468-0.034,33.186,10.581,39.68,26.795l23.381,58.539h88.064  c23.561,0,42.667,19.106,42.667,42.667v238.933C512,441.694,492.894,460.8,469.333,460.8z M42.667,153.6  c-14.14,0-25.6,11.46-25.6,25.6v238.933c0,14.14,11.46,25.6,25.6,25.6h426.667c14.14,0,25.6-11.46,25.6-25.6V179.2  c0-14.14-11.46-25.6-25.6-25.6h-93.867c-3.499,0-6.639-2.125-7.936-5.376l-25.6-63.915c-3.9-9.685-13.286-16.034-23.723-16.043  H186.709c-11.008-0.188-20.907,6.682-24.576,17.067l-20.651,61.952c-1.178,3.473-4.437,5.811-8.107,5.803L42.667,153.6z"/>
<path style="fill:#F4F4F4;" d="M366.933,281.6c0,61.269-49.664,110.933-110.933,110.933c-2.901,0-5.717,0-8.533,0  c-61.269,0-110.933-49.664-110.933-110.933s49.664-110.933,110.933-110.933c2.842-0.171,5.692-0.171,8.533,0  C317.269,170.667,366.933,220.331,366.933,281.6z"/>
<path style="fill:#FFFFFF;" d="M349.867,281.6c0.171,58.086-44.484,106.462-102.4,110.933c-61.269,0-110.933-49.664-110.933-110.933  s49.664-110.933,110.933-110.933C305.382,175.138,350.037,223.514,349.867,281.6z"/>
<path d="M256,401.067c-65.98,0-119.467-53.487-119.467-119.467S190.02,162.133,256,162.133S375.467,215.62,375.467,281.6  S321.98,401.067,256,401.067z M256,179.2c-56.55,0-102.4,45.85-102.4,102.4S199.45,384,256,384s102.4-45.85,102.4-102.4  S312.55,179.2,256,179.2z"/>
<path style="fill:#555656;" d="M332.8,281.6c0,42.419-34.381,76.8-76.8,76.8c-4.284,0.009-8.567-0.341-12.8-1.024  c-41.847-6.903-70.178-46.421-63.275-88.277c5.359-32.469,30.805-57.924,63.275-63.275c4.233-0.683,8.516-1.033,12.8-1.024  C298.419,204.8,332.8,239.181,332.8,281.6z"/>
<path style="fill:#717272;" d="M307.2,281.6c0.026,37.495-27.034,69.53-64,75.776c-41.847-6.903-70.178-46.421-63.275-88.277  c5.359-32.469,30.805-57.924,63.275-63.275C280.166,212.07,307.226,244.105,307.2,281.6z"/>
<path d="M256,366.933c-47.13,0-85.333-38.204-85.333-85.333S208.87,196.267,256,196.267s85.333,38.204,85.333,85.333  S303.13,366.933,256,366.933z M256,213.333c-37.7,0-68.267,30.566-68.267,68.267S218.3,349.867,256,349.867  s68.267-30.566,68.267-68.267S293.7,213.333,256,213.333z"/>
<path style="fill:#009FE3;" d="M469.333,119.467v25.6h-76.8v-25.6c0-4.71,3.823-8.533,8.533-8.533H460.8  C465.51,110.933,469.333,114.756,469.333,119.467z"/>
<path style="fill:#5BC5F2;" d="M452.267,119.467v25.6h-59.733v-25.6c0-4.71,3.823-8.533,8.533-8.533h42.667  C448.444,110.933,452.267,114.756,452.267,119.467z"/>
<path d="M469.333,153.6h-76.8c-4.71,0-8.533-3.823-8.533-8.533v-25.6c0-9.429,7.637-17.067,17.067-17.067H460.8  c9.429,0,17.067,7.637,17.067,17.067v25.6C477.867,149.777,474.044,153.6,469.333,153.6z M401.067,136.533H460.8v-17.067h-59.733  V136.533z"/>
<g>
</g>
<g>
</g>
<g>
</g>
<g>
</g>
<g>
</g>
<g>
</g>
<g>
</g>
<g>
</g>
<g>
</g>
<g>
</g>
<g>
</g>
<g>
</g>
<g>
</g>
<g>
</g>
<g>
</g>
</svg>
