<?xml version="1.0" encoding="iso-8859-1"?>
<!-- Generator: Adobe Illustrator 19.0.0, SVG Export Plug-In . SVG Version: 6.00 Build 0)  -->
<svg xmlns="http://www.w3.org/2000/svg" xmlns:xlink="http://www.w3.org/1999/xlink" version="1.1" id="Layer_1" x="0px" y="0px" viewBox="0 0 512.005 512.005" style="enable-background:new 0 0 512.005 512.005;" xml:space="preserve">
<g>
	<path style="fill:#555656;" d="M359.081,484.908c0.844,1.748,1.108,3.717,0.767,5.627c7.418-3.24,14.58-6.736,21.571-10.658   c3.99-2.311,5.423-7.367,3.24-11.425c-9.899-23.805-3.871-51.251,15.091-68.721c0.784-0.81,1.611-1.577,2.473-2.302   c-10.607,3.564-20.216,9.583-28.051,17.564C355.184,432.949,349.19,460.728,359.081,484.908z"/>
	<path style="fill:#555656;" d="M497.206,315.151c-23.942-9.916-39.059-33.806-37.771-59.684   c-1.287-25.877,13.83-49.768,37.771-59.684c4.067-1.228,6.616-5.261,5.968-9.464c-5.406-19.482-13.105-38.257-22.936-55.932   c-2.311-3.99-7.367-5.423-11.425-3.24c-23.805,9.899-51.251,3.871-68.721-15.091c-19.082-17.385-25.246-44.848-15.432-68.721   c2.183-4.058,0.75-9.115-3.24-11.425c-17.658-9.916-36.433-17.7-55.932-23.191c-4.323-0.895-8.611,1.654-9.89,5.883   c-0.801,2.328-1.799,4.579-2.984,6.736l-1.194,2.217c-3.223,5.158-7.29,9.737-12.022,13.557c-2.677,2.208-5.534,4.203-8.526,5.968   l-2.814,1.62c-3.393,1.739-6.932,3.197-10.573,4.348l-3.666,1.023c-2.549,0.699-5.141,1.211-7.759,1.535   c-3.359,0.52-6.753,0.776-10.146,0.767c-25.877,1.287-49.768-13.83-59.684-37.771c-1.279-4.229-5.568-6.778-9.89-5.883   c-4.263,1.194-8.526,2.473-12.704,3.922c-4.178,1.449-8.526,2.899-12.278,4.519l0,0c-10.624,4.084-20.94,8.927-30.865,14.495   c-3.99,2.311-5.423,7.367-3.24,11.425c9.899,23.805,3.871,51.251-15.091,68.721c-2.635,2.669-5.491,5.124-8.526,7.333l-3.325,2.302   l-4.348,2.558c-1.305,0.725-2.635,1.373-4.007,1.961l-1.535,0.767l-2.728,1.023l-2.814,1.023c-1.339,0.452-2.711,0.819-4.093,1.108   l-4.604,1.023H74.39h-3.069c-0.512,0.085-1.023,0.085-1.535,0c-2.583,0.188-5.175,0.188-7.759,0   c-2.583-0.179-5.15-0.546-7.674-1.108c-3.743-0.827-7.375-2.089-10.828-3.752c-4.058-2.183-9.115-0.75-11.425,3.24   c-1.62,2.899-3.24,5.883-4.775,8.526c-2.387,4.689-4.604,9.549-6.65,14.495c-1.449,3.069-2.643,6.139-3.837,9.294   c-1.194,3.155-2.814,7.333-3.922,11.084c-0.034,0.256-0.034,0.512,0,0.767c-1.194,3.752-2.387,7.503-3.41,11.34   c-1.893,4.314,0.077,9.345,4.391,11.229c0.239,0.102,0.477,0.196,0.725,0.281c23.942,9.916,39.059,33.806,37.771,59.684   c1.287,25.877-13.83,49.768-37.771,59.684c-4.22,1.236-6.804,5.482-5.968,9.805c5.406,19.482,13.105,38.257,22.936,55.932   c2.311,3.99,7.367,5.423,11.425,3.24c23.805-9.899,51.251-3.871,68.721,15.091c18.962,17.47,24.99,44.916,15.091,68.721   c-2.183,4.059-0.75,9.115,3.24,11.425c3.752,2.132,7.588,4.093,11.51,5.968c3.922,1.876,7.844,3.752,11.851,5.457   c4.007,1.705,8.015,3.41,12.107,4.86c4.093,1.449,8.526,2.984,12.448,4.263l8.015,2.387c4.365,1.117,8.842-1.347,10.231-5.627   c0.665-1.97,1.492-3.879,2.473-5.713c0.571-1.211,1.228-2.379,1.961-3.496l0,0c0,0,1.364-2.132,2.046-3.155l1.62-2.132l2.643-3.069   c1.39-1.509,2.873-2.933,4.434-4.263c1.484-1.347,3.052-2.592,4.689-3.752l0.682-0.512l5.201-3.155   c1.518-0.853,3.086-1.62,4.689-2.302l4.093-1.705l3.581-1.194c2.208-0.699,4.459-1.27,6.736-1.705   c2.805-0.605,5.661-1.006,8.526-1.194h5.627c25.877-1.287,49.768,13.83,59.684,37.771c1.39,4.323,5.926,6.795,10.317,5.627   l8.526-2.643c3.129-0.912,6.199-1.935,9.208-3.069c2.643-0.938,5.372-1.961,8.015-3.069l7.844-3.24h0.512   c0.341-1.91,0.077-3.879-0.767-5.627c-9.89-24.189-3.896-51.959,15.091-69.915c7.836-7.981,17.445-14,28.051-17.564l0,0   l4.945-4.178l5.116-3.496l0,0c1.705-1.023,3.411-2.046,5.201-2.899c1.79-0.853,3.666-1.79,5.542-2.558   c1.876-0.767,3.155-1.194,4.775-1.705l3.069-0.853l3.411-0.767c1.876,0,3.752-0.682,5.713-0.853c3.206-0.298,6.429-0.298,9.635,0   c1.305-0.085,2.618-0.085,3.922,0l3.922,0.682c1.27,0.264,2.524,0.605,3.752,1.023l3.24,1.108c1.253,0.426,2.481,0.938,3.666,1.535   c4.059,2.183,9.115,0.75,11.425-3.24c10.283-17.777,18.383-36.731,24.129-56.444C504.317,320.983,501.665,316.404,497.206,315.151z    M255.913,179.243c42.384,0,76.736,34.352,76.736,76.736s-34.352,76.736-76.736,76.736s-76.736-34.352-76.736-76.736   S213.53,179.243,255.913,179.243z M477.595,339.536c0.375-1.424,0.375-2.924,0-4.348c0.119,0.674,0.119,1.373,0,2.046   c0.111,0.733,0.111,1.484,0,2.217V339.536z"/>
</g>
<path style="fill:#717272;" d="M476.487,332.715c-1.057-1.935-2.788-3.428-4.86-4.178c-14.136-5.286-25.519-16.089-31.547-29.927  c-0.682-1.364-1.194-2.814-1.79-4.263c-2.967-8.202-4.468-16.856-4.434-25.579c0-28.563,15.944-52.607,37.771-60.28  c4.544-1.228,7.23-5.917,6.002-10.462c-0.009-0.034-0.017-0.077-0.034-0.111c-1.023-3.752-2.132-7.503-3.325-11.169  c-2.387-7.333-5.03-14.58-8.015-21.657v-0.938c-0.111-0.418-0.281-0.819-0.512-1.194c-1.194-2.814-2.387-5.627-3.752-8.526  c-2.106-4.604-4.408-9.123-6.906-13.557c-2.276-4.024-7.341-5.499-11.425-3.325c-23.839,10.052-51.422,3.888-68.721-15.347  c-5.84-5.926-10.598-12.823-14.068-20.378c-0.597-1.194-1.023-2.302-1.535-3.496l0,0c-0.512-1.279-0.938-2.558-1.364-3.837  c-0.426-1.279,0-0.767,0-1.194c-0.588-1.722-1.04-3.496-1.364-5.286c0,0,0-0.426,0-0.682c0-1.961-0.682-4.007-0.938-6.054  c-0.128-2.012-0.128-4.041,0-6.054c-0.034-7.895,1.68-15.697,5.03-22.85c0.605-1.279,0.921-2.677,0.938-4.093  c0.085-0.622,0.085-1.253,0-1.876c0.043-0.281,0.043-0.571,0-0.853c-0.153-0.537-0.384-1.057-0.682-1.535  c-0.716-1.33-1.773-2.456-3.069-3.24c-14.546-7.998-29.859-14.503-45.701-19.44l-1.194,2.217  c-3.095,5.124-7.009,9.703-11.596,13.557c-2.677,2.208-5.534,4.203-8.526,5.968l-2.814,1.62c-3.393,1.739-6.932,3.197-10.573,4.348  l-3.666,1.023c-2.549,0.699-5.141,1.211-7.759,1.535c-10.735,6.625-23.115,10.112-35.725,10.061  c-26.031,1.194-49.964-14.196-59.684-38.368c-1.185-4.033-5.124-6.599-9.294-6.054l0,0c-10.624,4.084-20.94,8.927-30.865,14.495  c-3.99,2.311-5.423,7.367-3.24,11.425c9.899,23.805,3.871,51.251-15.091,68.721c-2.635,2.669-5.491,5.124-8.526,7.333l-3.325,2.302  l-4.348,2.558c-1.305,0.725-2.635,1.373-4.007,1.961l-1.535,0.767l-2.728,1.023l-2.814,1.023c-1.339,0.452-2.711,0.819-4.093,1.108  l-4.604,1.023H74.39h-3.069c-0.512,0.085-1.023,0.085-1.535,0c-2.583,0.188-5.175,0.188-7.759,0  c-2.583-0.179-5.15-0.546-7.674-1.108c-3.743-0.827-7.375-2.089-10.828-3.752c-4.058-2.183-9.115-0.75-11.425,3.24  c-1.62,2.899-3.24,5.883-4.775,8.526c-2.387,4.689-4.604,9.549-6.65,14.495c-1.449,3.069-2.643,6.139-3.837,9.294  c-1.194,3.155-2.814,7.333-3.922,11.084c-0.034,0.256-0.034,0.512,0,0.767c-1.194,3.752-2.387,7.503-3.41,11.34  c-1.85,4.331,0.162,9.336,4.493,11.186c0.205,0.085,0.409,0.162,0.622,0.239c23.942,9.916,39.059,33.806,37.771,59.684  c1.287,25.877-13.83,49.768-37.771,59.684c-4.22,1.236-6.804,5.482-5.968,9.805c5.406,19.482,13.105,38.257,22.936,55.932  c2.311,3.99,7.367,5.423,11.425,3.24c23.805-9.899,51.251-3.871,68.721,15.091c18.962,17.47,24.99,44.916,15.091,68.721  c-2.183,4.059-0.75,9.115,3.24,11.425c3.752,2.132,7.588,4.093,11.51,5.968c3.922,1.876,7.844,3.752,11.851,5.457  s8.015,3.41,12.107,4.86c4.093,1.449,8.526,2.984,12.448,4.263l8.015,2.387c4.365,1.117,8.842-1.347,10.231-5.627  c0.665-1.97,1.492-3.879,2.473-5.713c0.571-1.211,1.228-2.379,1.961-3.496l0,0c0,0,1.364-2.132,2.046-3.155l1.62-2.132l2.643-3.069  c1.39-1.509,2.873-2.933,4.434-4.263c1.484-1.347,3.052-2.592,4.689-3.752l0.682-0.512l5.201-3.155  c1.518-0.853,3.086-1.62,4.689-2.302l4.093-1.705l3.581-1.194c2.208-0.699,4.459-1.27,6.736-1.705  c2.805-0.605,5.661-1.006,8.526-1.194h5.627c25.877-1.287,49.768,13.83,59.684,37.771c1.39,4.323,5.926,6.795,10.317,5.627  l8.526-2.643c3.129-0.912,6.199-1.935,9.208-3.069c2.643-0.938,5.372-1.961,8.015-3.069l7.844-3.24h0.512  c0.341-1.91,0.077-3.879-0.767-5.627c-9.89-24.189-3.896-51.959,15.091-69.915c7.836-7.981,17.445-14,28.051-17.564l0,0l4.945-4.178  l5.116-3.496l0,0c1.705-1.023,3.411-2.046,5.201-2.899c1.79-0.853,3.666-1.79,5.542-2.558c1.876-0.767,3.155-1.194,4.775-1.705  l3.069-0.853l3.41-0.767c1.876,0,3.752-0.682,5.713-0.853c3.206-0.298,6.429-0.298,9.635,0c1.305-0.085,2.618-0.085,3.922,0  l3.922,0.682c1.27,0.264,2.524,0.605,3.752,1.023c6.471-13.727,11.715-27.992,15.688-42.631c0.128-0.759,0.128-1.543,0-2.302  C476.896,335.998,476.93,334.309,476.487,332.715z M332.65,255.979c0,42.384-34.352,76.736-76.736,76.736  s-76.736-34.352-76.736-76.736s34.352-76.736,76.736-76.736S332.65,213.604,332.65,255.979z"/>
<path d="M323.066,512.005c-7.358,0-13.966-4.613-16.268-11.775c-8.279-19.909-28.904-32.928-51.149-31.871l-6.045,0.009  c-1.893,0.145-4.323,0.486-6.702,0.998c-2.191,0.426-4.118,0.912-6.02,1.509l-6.932,2.643c-1.287,0.537-2.566,1.177-3.811,1.876  l-4.945,3.01c-1.594,1.142-2.831,2.132-3.982,3.206c-1.663,1.373-2.797,2.456-3.82,3.632l-3.581,4.306  c-0.819,1.108-1.27,1.799-1.671,2.524c-0.87,1.381-1.33,2.191-1.731,3.035c-0.963,1.825-1.603,3.3-2.114,4.809  c-2.745,8.458-11.724,13.344-20.437,11.169l-8.313-2.464c-4.203-1.373-8.705-2.933-12.866-4.408  c-4.272-1.518-8.441-3.283-12.61-5.056c-4.118-1.756-8.16-3.683-12.201-5.619c-4.093-1.953-8.108-4.007-12.039-6.233  c-7.938-4.587-10.828-14.35-6.77-22.424c8.305-20.344,3.052-43.961-13.13-58.865c-15.467-16.754-39.238-21.947-59.675-13.488  c-7.409,4.05-17.445,1.177-22.083-6.855c-10.206-18.348-18.178-37.797-23.763-57.91c-1.808-9.149,3.078-17.428,11.255-20.105  c20.361-8.594,33.278-29.134,32.187-51.234c1.1-23.072-11.962-43.714-32.519-52.232c-4.928-2.055-8.177-5.354-9.89-9.575  c-1.62-4.016-1.671-8.39-0.153-12.423c0.912-3.385,1.953-6.719,3.01-10.035c0.009-0.119,0.017-0.23,0.034-0.35  c0.051-0.495,0.153-0.989,0.298-1.467c1.049-3.538,2.515-7.443,3.726-10.615l0.401-1.057c1.279-3.376,2.558-6.65,4.101-9.925  c2.029-4.928,4.357-10.01,6.761-14.725c1.253-2.183,2.311-4.101,3.385-6.045l1.543-2.771c4.706-8.143,14.742-10.99,22.919-6.582  c2.524,1.211,5.534,2.251,8.62,2.933c4.229,0.938,8.543,1.219,12.866,0.853c0.512-0.043,1.006-0.026,1.492,0  c0.486-0.026,0.972-0.043,1.458,0c0.563,0.043,1.125,0.043,1.68,0l1.901-0.017c0.844-0.119,1.671-0.315,2.473-0.588  c0.315-0.102,0.639-0.196,0.972-0.264c1.066-0.222,2.123-0.512,3.155-0.861l2.592-0.946c1.066-0.324,1.552-0.503,2.004-0.716  l1.356-0.682c1.688-0.691,2.575-1.125,3.41-1.629l7.23-4.579c2.49-1.808,4.996-3.965,7.316-6.309  c16.464-15.177,21.716-38.794,13.412-59.146c-4.058-8.083-1.168-17.837,6.719-22.39c10.359-5.815,21.128-10.862,32.076-15.074  c2.839-1.27,6.403-2.49,9.967-3.7l2.669-0.912c4.34-1.501,8.765-2.839,13.19-4.076c9.285-1.953,17.777,3.121,20.352,11.621  c8.228,19.764,28.861,32.707,51.098,31.726c3.385,0,6.352-0.23,9.259-0.682c2.473-0.307,4.664-0.742,6.804-1.33  c1.424-0.307,2.234-0.537,3.035-0.819c3.479-1.108,6.591-2.396,9.575-3.922l2.447-1.424c2.609-1.475,5.022-3.163,7.247-5.056  c4.186-3.385,7.605-7.23,10.334-11.596c0.043-0.102,0.213-0.367,0.435-0.682c0.145-0.392,0.315-0.776,0.529-1.143  c0.938-1.714,1.748-3.53,2.387-5.38C309.987,3.62,318.53-1.453,327.21,0.371c20.702,5.806,40.141,13.864,58.371,24.104  c7.981,4.613,10.862,14.358,6.821,22.441c-8.236,20.403-2.856,44.012,13.429,58.84c15.501,16.788,39.263,22.006,59.701,13.523  c7.418-4.041,17.436-1.185,22.083,6.847c10.197,18.34,18.178,37.788,23.771,57.91c0.085,0.324,0.162,0.648,0.205,0.981  c1.262,8.185-3.632,16.166-11.451,18.775c-20.378,8.586-33.303,29.143-32.195,51.251c-1.108,22.919,11.8,43.467,32.144,52.07  c8.629,2.737,13.599,11.596,11.34,20.446c-6.002,20.642-14.392,40.269-25.016,58.618c-4.647,8.04-14.699,10.871-22.859,6.471  c-0.614-0.315-1.475-0.665-2.345-0.955c-1.296-0.537-1.918-0.75-2.549-0.904c-1.62-0.529-2.515-0.767-3.41-0.946  c-1.296-0.333-2.072-0.477-2.856-0.537c-1.015-0.119-1.603-0.128-2.2-0.043c-0.656,0.077-1.313,0.094-1.978,0.017  c-2.618-0.264-5.244-0.264-7.827,0c-1.756,0.153-3.3,0.375-4.809,0.708c-1.313,0.205-2.029,0.375-2.72,0.58  c-1.441,0.333-2.046,0.503-2.635,0.708c-1.739,0.554-3.027,0.981-4.391,1.56c-1.893,0.691-3.308,1.347-4.655,2.115  c-2.063,0.972-3.376,1.705-4.63,2.549c-1.987,1.143-3.274,2.021-4.459,3.01c-1.893,1.356-3.163,2.439-4.34,3.615  c-1.219,1.066-1.816,1.629-2.396,2.234c-16.601,15.322-21.827,39.101-13.335,59.505c4.033,7.409,1.185,17.445-6.838,22.083  c-2.413,1.347-4.962,2.652-7.341,3.845l-3.607,1.859c-3.231,1.705-6.633,3.24-10.052,4.766l-1.415,0.622  c-0.614,0.264-1.262,0.469-1.927,0.58l-6.616,2.728c-2.737,1.151-5.627,2.234-8.415,3.223c-3.044,1.151-6.326,2.251-9.669,3.214  l-8.381,2.6C326.178,511.808,324.601,512.005,323.066,512.005z M66.785,371.603c19.218,0,37.856,7.861,51.209,22.356  c21.017,19.329,27.923,50.782,16.694,77.776c-0.111,0.264-0.23,0.529-0.367,0.776c3.521,1.995,7.179,3.862,10.922,5.644  c3.82,1.833,7.622,3.658,11.519,5.312c3.854,1.637,7.699,3.274,11.63,4.672c4.016,1.424,8.373,2.933,12.235,4.195l7.793,2.311  c0.537-2.592,1.56-4.954,2.762-7.196c0.537-1.16,1.39-2.677,2.345-4.135c0.452-0.887,1.364-2.294,2.379-3.632  c0.145-0.247,0.657-0.904,1.151-1.535c0.119-0.162,0.665-0.861,0.801-1.006l2.643-3.069c1.688-1.944,3.547-3.726,5.542-5.337  c1.322-1.253,3.223-2.78,5.235-4.152c0.128-0.094,0.938-0.682,1.066-0.767l5.201-3.155c2.055-1.151,3.905-2.063,5.806-2.865  l8.27-3.129c2.686-0.844,5.252-1.501,7.844-1.987c2.984-0.657,6.284-1.125,9.575-1.33l6.173-0.017  c29.023-1.509,56.299,15.842,67.562,43.04l8.441-1.901c3.044-0.887,5.909-1.842,8.714-2.907c2.669-0.938,5.235-1.91,7.725-2.95  l7.904-3.266c0.52-0.205,1.049-0.375,1.603-0.486l0.094-0.043c3.018-1.347,6.088-2.711,9.004-4.246l3.862-1.987  c2.174-1.1,4.502-2.276,6.608-3.453c-0.136-0.239-0.367-0.46-0.469-0.716c-11.229-26.994-4.331-58.439,17.18-78.262  c0.639-0.682,1.688-1.663,2.78-2.575c1.296-1.364,3.351-3.086,5.508-4.613c1.467-1.245,3.624-2.711,5.883-3.973  c1.381-0.981,3.564-2.191,5.832-3.214c1.492-0.887,3.794-1.953,6.156-2.805c1.449-0.622,3.24-1.236,5.116-1.825  c1.032-0.392,2.49-0.793,3.956-1.083c0.716-0.264,2.285-0.614,3.871-0.853c1.654-0.375,3.931-0.716,6.224-0.904  c3.291-0.341,6.804-0.375,10.308-0.068c1.671-0.154,3.368-0.102,5.022,0.111c1.432,0.102,3.291,0.426,5.09,0.912  c1.1,0.205,2.72,0.648,4.306,1.202c0.844,0.171,2.387,0.699,3.871,1.356c0.938,0.281,2.549,0.946,4.093,1.731  c10.121-17.069,17.965-35.426,23.515-54.466c-0.23-0.077-0.503-0.017-0.742-0.009c-0.111,0-0.205-0.009-0.307-0.051  c-27.19-11.263-44.49-38.581-43.023-67.988c-1.466-28.554,15.825-55.872,43.023-67.136c0.247-0.102,0.503-0.188,0.75-0.273  c-5.218-18.485-12.585-36.347-21.904-53.101c-0.247,0.136-0.443,0.375-0.699,0.486c-27.003,11.229-58.447,4.314-78.262-17.189  c-21.128-19.201-28.196-50.654-17.052-77.742c0.119-0.273,0.239-0.546,0.384-0.801c-16.967-9.524-35.154-17.061-53.971-22.364  c-0.418,2.788-1.364,5.192-2.532,7.452c-0.537,1.654-1.39,2.831-1.85,3.453c-3.888,6.216-8.569,11.493-14.051,15.918  c-2.865,2.447-6.19,4.775-9.694,6.753l-2.745,1.586c-4.186,2.157-8.185,3.803-12.252,5.09c-1.27,0.469-2.907,0.921-4.57,1.253  c-2.345,0.674-5.372,1.262-8.39,1.637c-3.521,0.546-7.682,0.631-11.203,0.836c-29.117,1.407-56.282-15.842-67.536-43.032  l-0.179-0.81c-3.939,1.108-7.878,2.302-11.741,3.641l-2.771,0.946c-3.061,1.04-6.147,2.072-8.935,3.308  c-10.59,4.084-20.599,8.782-30.157,14.136c11.689,27.719,4.783,59.172-16.72,78.978c-2.677,2.728-5.9,5.499-9.294,7.964  l-8.356,5.312c-1.62,0.981-3.419,1.859-5.295,2.575l-0.759,0.426c-1.484,0.699-2.831,1.202-4.212,1.603l-2.234,0.836  c-1.697,0.563-3.231,0.989-4.775,1.33c-1.901,0.605-3.879,1.032-5.866,1.253c-0.324,0.034-0.639,0.051-0.963,0.051h-1.791  c-0.631,0.068-1.731,0.094-2.89,0.026c-0.605,0.043-1.219,0.051-1.808,0c-5.772,0.418-11.527-0.009-17.172-1.253  c-4.365-0.963-8.646-2.447-12.696-4.4l-1.782,2.43c-1.134,2.046-2.259,4.076-3.342,5.934c-1.97,3.905-4.118,8.577-6.147,13.48  c-1.518,3.24-2.626,6.105-3.743,9.046l-0.401,1.091c-0.946,2.49-2.089,5.499-2.984,8.33c-0.043,0.682-0.171,1.356-0.375,2.012  c-1.202,3.777-2.328,7.324-3.3,10.956c-0.102,0.384-0.23,0.759-0.384,1.125c27.804,11.485,45.104,38.803,43.637,68.21  c1.467,28.554-15.825,55.872-43.023,67.136c-0.281,0.119-0.563,0.213-0.861,0.298c5.073,18.169,12.534,36.364,22.023,53.417  C48.061,373.436,57.5,371.603,66.785,371.603z M255.913,341.241c-47.014,0-85.262-38.24-85.262-85.262s38.249-85.262,85.262-85.262  s85.262,38.249,85.262,85.262S302.919,341.241,255.913,341.241z M255.913,187.769c-37.609,0-68.21,30.601-68.21,68.21  s30.601,68.21,68.21,68.21s68.21-30.601,68.21-68.21S293.523,187.769,255.913,187.769z"/>
<path style="fill:#B71C1C;" d="M255.913,111.033h-6.48h-5.542h-1.108l-4.178,0.512c-4.451,0.435-8.867,1.177-13.216,2.217  l-5.372,1.194h-0.597c-1.876,0-3.666,0.938-5.457,1.535l-4.178,1.364c-2.132,0.682-4.263,1.449-6.309,2.302  c-2.046,0.853-3.837,1.535-5.713,2.387c-24.76,10.828-45.973,28.409-61.218,50.731c-1.108,1.535-2.132,3.069-3.155,4.689  c-4.544,7.026-8.449,14.443-11.681,22.168l-1.535,3.837l-1.62,4.348c-1.279,3.752-2.473,7.503-3.41,11.425  c-0.597,2.302-1.194,4.604-1.62,6.992c-0.426,2.387-0.853,4.178-1.108,6.309c-2.498,15.134-2.498,30.567,0,45.701  c0,2.132,0.682,4.263,1.108,6.309c0.426,2.046,1.023,4.689,1.62,6.992c0.938,3.922,2.132,7.674,3.41,11.425l1.62,4.348l1.535,3.837  c3.231,7.725,7.136,15.143,11.681,22.168c1.023,1.62,2.046,3.155,3.155,4.689c15.219,22.006,36.271,39.34,60.792,50.049  c1.876,0.853,3.752,1.705,5.713,2.387c1.961,0.682,4.178,1.62,6.309,2.302l4.178,1.364c1.791,0.597,3.581,1.108,5.457,1.535h0.597  l5.372,1.194c5.866,1.347,11.817,2.259,17.82,2.728h0.682h5.542l6.906,0.853c80.053,0,144.946-64.893,144.946-144.946  S335.958,111.033,255.913,111.033z M179.177,255.979c0-42.384,34.352-76.736,76.736-76.736s76.736,34.352,76.736,76.736  s-34.352,76.736-76.736,76.736S179.177,298.363,179.177,255.979z"/>
<path style="fill:#D50000;" d="M243.209,111.545L243.209,111.545l-4.178,0.512c-4.451,0.435-8.867,1.177-13.216,2.217l-5.372,1.194  h-0.597c-1.876,0-3.666,0.938-5.457,1.535l-4.178,1.364c-2.132,0.682-4.263,1.449-6.309,2.302c-2.046,0.853-3.837,1.535-5.713,2.387  c-24.854,10.624-46.221,28.026-61.645,50.219c-1.108,1.535-2.132,3.069-3.155,4.689c-4.544,7.026-8.449,14.443-11.681,22.168  l-1.535,3.837l-1.62,4.348c-1.279,3.752-2.473,7.503-3.41,11.425c-0.597,2.302-1.194,4.604-1.62,6.992  c-0.426,2.387-0.853,4.178-1.108,6.309c-2.498,15.134-2.498,30.567,0,45.701c0,2.132,0.682,4.263,1.108,6.309  c0.426,2.046,1.023,4.689,1.62,6.992c0.938,3.922,2.132,7.674,3.41,11.425l1.62,4.348l1.535,3.837  c3.231,7.725,7.136,15.143,11.681,22.168c1.023,1.62,2.046,3.155,3.155,4.689c15.219,22.006,36.271,39.34,60.792,50.049  c1.876,0.853,3.752,1.705,5.713,2.387c1.961,0.682,4.178,1.62,6.309,2.302l4.178,1.364c1.791,0.597,3.581,1.108,5.457,1.535h0.597  l5.372,1.194c5.866,1.347,11.817,2.259,17.82,2.728c79.72-7.256,138.466-77.768,131.21-157.488  c-6.344-69.668-61.542-124.867-131.21-131.21L243.209,111.545z M255.913,332.715c-42.384,0-76.736-34.352-76.736-76.736  s34.352-76.736,76.736-76.736s76.736,34.352,76.736,76.736S298.289,332.715,255.913,332.715z"/>
<path d="M255.913,409.451h-6.821h-5.968h-0.682c-6.403-0.503-12.755-1.467-19.013-2.899l-5.116-1.108l0,0h-1.108  c-2.046-0.512-4.007-1.023-5.968-1.705l-4.434-2.814c-1.961-0.597-4.348-1.449-6.565-2.387c-2.217-0.938-3.837-1.535-5.968-2.473  c-25.937-11.323-48.207-29.654-64.288-52.948c-1.108-1.535-2.217-3.24-3.325-5.03c-4.809-7.435-8.944-15.279-12.363-23.447  l-3.325-8.526c-1.194-3.581-2.558-7.759-3.666-12.278c-0.597-2.387-1.279-4.86-1.705-7.503c-0.426-2.643-0.853-4.434-1.194-6.821  c-1.313-7.776-1.97-15.646-1.961-23.532c-0.034-8.143,0.622-16.268,1.961-24.3c0-1.961,0.682-4.348,1.194-6.65  c0.512-2.302,1.023-4.86,1.705-7.418c1.023-4.348,2.387-8.526,3.581-12.022l3.325-8.526c3.436-8.228,7.605-16.132,12.448-23.618  c1.023-1.705,2.217-3.41,3.41-5.03c16.089-23.26,38.359-41.565,64.288-52.863c1.961-0.938,4.093-1.876,6.309-2.643  s4.178-1.62,6.48-2.387l3.41-1.108h0.853c1.876-0.597,3.837-1.194,5.883-1.62h0.767l0,0l5.798-1.279  c4.604-1.091,9.277-1.859,13.983-2.302l3.922-0.512h2.132h5.116l6.906-1.194c84.759,0,153.472,68.713,153.472,153.472  S340.673,409.451,255.913,409.451z M244.829,391.972h4.945l6.139,0.426c75.346,0,136.42-61.073,136.42-136.42  s-61.073-136.42-136.42-136.42h-5.883h-5.372h-1.449l-3.581,0.426c-4.135,0.401-8.236,1.083-12.278,2.046l-5.286,1.194h-0.682  c-1.62,0-3.155,0.767-4.689,1.279h-1.023l-2.814,0.938c-2.302,0.767-4.178,1.449-6.054,2.217s-3.837,1.535-5.457,2.302  c-23.123,10.069-42.964,26.397-57.296,47.15c-1.108,1.535-2.046,2.899-2.984,4.348c-4.28,6.625-7.955,13.616-10.999,20.889  l-2.984,7.759c-1.194,3.41-2.302,6.906-3.155,10.573c-0.597,2.217-1.108,4.348-1.535,6.48c-0.426,2.132-0.853,3.922-1.023,5.883  c-1.313,7.571-1.935,15.253-1.876,22.936c-0.009,7.171,0.588,14.333,1.791,21.401c0,2.302,0.682,4.178,1.023,6.054  c0.341,1.876,0.938,4.519,1.535,6.565c0.938,3.837,2.046,7.333,3.24,10.828l2.984,7.759c3.018,7.213,6.668,14.154,10.914,20.719  c0.938,1.535,1.876,2.984,2.899,4.348c14.324,20.778,34.165,37.14,57.296,47.235c1.79,0.767,3.41,1.535,5.116,2.132  c1.705,0.597,4.178,1.62,6.139,2.217l3.325,1.108h0.938c1.535,0.512,3.069,0.938,4.604,1.279h0.767l4.945,1.108  c5.61,1.305,11.314,2.183,17.052,2.643L244.829,391.972z M255.913,341.241c-47.09,0-85.262-38.172-85.262-85.262  s38.172-85.262,85.262-85.262s85.262,38.172,85.262,85.262S302.995,341.241,255.913,341.241z M255.913,187.769  c-37.669,0-68.21,30.541-68.21,68.21s30.541,68.21,68.21,68.21s68.21-30.541,68.21-68.21S293.582,187.769,255.913,187.769z"/>
<g>
</g>
<g>
</g>
<g>
</g>
<g>
</g>
<g>
</g>
<g>
</g>
<g>
</g>
<g>
</g>
<g>
</g>
<g>
</g>
<g>
</g>
<g>
</g>
<g>
</g>
<g>
</g>
<g>
</g>
</svg>
