<?xml version="1.0" encoding="iso-8859-1"?>
<!-- Generator: Adobe Illustrator 19.0.0, SVG Export Plug-In . SVG Version: 6.00 Build 0)  -->
<svg xmlns="http://www.w3.org/2000/svg" xmlns:xlink="http://www.w3.org/1999/xlink" version="1.1" id="Layer_1" x="0px" y="0px" viewBox="0 0 512 512" style="enable-background:new 0 0 512 512;" xml:space="preserve">
<path style="fill:#388E3C;" d="M503.467,256c0,136.67-110.797,247.467-247.467,247.467c-5.717,0-11.435,0-17.067-0.683  C102.613,492.962,0.068,374.494,9.89,238.174C18.731,115.524,116.284,17.971,238.933,9.131c5.632-0.597,11.349-0.597,17.067-0.597  C392.67,8.533,503.467,119.33,503.467,256z"/>
<path style="fill:#4CAF50;" d="M469.333,256c-0.094,129.98-100.727,237.739-230.4,246.699  C102.639,492.553,0.375,373.837,10.522,237.542C19.61,115.362,116.745,18.227,238.933,9.131  C368.666,18.099,469.333,125.952,469.333,256z"/>
<path d="M256,512C114.611,512,0,397.389,0,256S114.611,0,256,0s256,114.611,256,256S397.389,512,256,512z M256,17.067  C124.041,17.067,17.067,124.041,17.067,256S124.041,494.933,256,494.933S494.933,387.96,494.933,256S387.96,17.067,256,17.067z"/>
<path style="fill:#2979FF;" d="M315.733,256c0,32.99-26.743,59.733-59.733,59.733c-4.301-0.017-8.593-0.478-12.8-1.365  c-32.239-7.014-52.685-38.827-45.67-71.066c4.975-22.852,22.818-40.695,45.67-45.67c4.207-0.887,8.499-1.348,12.8-1.365  C288.99,196.267,315.733,223.01,315.733,256z"/>
<path style="fill:#0091EA;" d="M290.133,256c0.009,28.066-19.516,52.352-46.933,58.368c-32.239-7.014-52.685-38.827-45.67-71.066  c4.975-22.852,22.818-40.695,45.67-45.67C270.618,203.648,290.142,227.934,290.133,256z"/>
<path d="M256,324.267c-37.7,0-68.267-30.566-68.267-68.267S218.3,187.733,256,187.733S324.267,218.3,324.267,256  S293.7,324.267,256,324.267z M256,204.8c-28.279,0-51.2,22.921-51.2,51.2c0,28.279,22.921,51.2,51.2,51.2  c28.279,0,51.2-22.921,51.2-51.2C307.2,227.721,284.279,204.8,256,204.8z"/>
<path d="M256,204.8c-4.71,0-8.533-3.823-8.533-8.533V102.4c0-4.71,3.823-8.533,8.533-8.533c4.71,0,8.533,3.823,8.533,8.533v93.867  C264.533,200.977,260.71,204.8,256,204.8z"/>
<path d="M256,477.867c-4.71,0-8.533-3.823-8.533-8.533v-25.6c0-4.71,3.823-8.533,8.533-8.533c4.71,0,8.533,3.823,8.533,8.533v25.6  C264.533,474.044,260.71,477.867,256,477.867z"/>
<path d="M256,76.8c-4.71,0-8.533-3.823-8.533-8.533v-25.6c0-4.71,3.823-8.533,8.533-8.533c4.71,0,8.533,3.823,8.533,8.533v25.6  C264.533,72.977,260.71,76.8,256,76.8z"/>
<path d="M123.221,131.669c-2.27,0.017-4.446-0.879-6.059-2.475l-18.005-18.261c-2.603-3.925-1.527-9.225,2.398-11.827  c2.842-1.886,6.528-1.894,9.378-0.034l18.091,18.091c3.345,3.319,3.371,8.721,0.051,12.066c-1.613,1.63-3.814,2.534-6.11,2.526  L123.221,131.669z"/>
<path d="M406.869,415.317c-2.27,0.017-4.446-0.879-6.059-2.475l-18.091-18.091c-3.063-3.575-2.645-8.969,0.93-12.032  c3.191-2.739,7.91-2.739,11.102,0l18.091,18.347c3.345,3.319,3.371,8.721,0.051,12.066c-1.613,1.63-3.814,2.534-6.11,2.526  L406.869,415.317z"/>
<path d="M68.267,264.533h-25.6c-4.71,0-8.533-3.823-8.533-8.533c0-4.71,3.823-8.533,8.533-8.533h25.6  c4.71,0,8.533,3.823,8.533,8.533C76.8,260.71,72.977,264.533,68.267,264.533z"/>
<path d="M469.333,264.533h-25.6c-4.71,0-8.533-3.823-8.533-8.533c0-4.71,3.823-8.533,8.533-8.533h25.6  c4.71,0,8.533,3.823,8.533,8.533C477.867,260.71,474.044,264.533,469.333,264.533z"/>
<path d="M105.131,415.317c-4.71-0.196-8.371-4.173-8.175-8.883c0.085-1.988,0.862-3.891,2.202-5.367l18.091-18.091  c3.575-3.063,8.969-2.645,12.032,0.93c2.739,3.191,2.739,7.91,0,11.102l-18.347,17.749  C109.397,414.327,107.324,415.241,105.131,415.317z"/>
<path d="M388.779,131.669c-4.71,0.026-8.559-3.772-8.585-8.482c-0.017-2.295,0.896-4.497,2.526-6.11l18.347-18.005  c3.951-2.577,9.233-1.468,11.81,2.483c1.86,2.85,1.852,6.537-0.034,9.378l-18.091,18.091  C393.19,130.662,391.04,131.618,388.779,131.669z"/>
<path d="M341.333,349.867c-2.27,0.017-4.446-0.879-6.059-2.475l-42.667-42.667c-3.063-3.575-2.645-8.969,0.93-12.032  c3.191-2.739,7.91-2.739,11.102,0l42.667,42.667c3.302,3.362,3.243,8.764-0.119,12.066  C345.626,348.962,343.526,349.833,341.333,349.867z"/>
<g>
</g>
<g>
</g>
<g>
</g>
<g>
</g>
<g>
</g>
<g>
</g>
<g>
</g>
<g>
</g>
<g>
</g>
<g>
</g>
<g>
</g>
<g>
</g>
<g>
</g>
<g>
</g>
<g>
</g>
</svg>
