<?xml version="1.0" encoding="iso-8859-1"?>
<!-- Generator: Adobe Illustrator 19.0.0, SVG Export Plug-In . SVG Version: 6.00 Build 0)  -->
<svg xmlns="http://www.w3.org/2000/svg" xmlns:xlink="http://www.w3.org/1999/xlink" version="1.1" id="Layer_1" x="0px" y="0px" viewBox="0 0 512 512" style="enable-background:new 0 0 512 512;" xml:space="preserve">
<path style="fill:#6D4C41;" d="M503.467,210.817v17.067c0,9.429-7.637,17.067-17.067,17.067H25.6  c-9.429,0-17.067-7.637-17.067-17.067v-17.067c0-5.222,2.389-10.163,6.485-13.397L233.984,23.084l11.435-8.533  c6.204-4.898,14.959-4.898,21.163,0l230.4,182.699C501.129,200.526,503.518,205.535,503.467,210.817z"/>
<path style="fill:#8D6E63;" d="M477.867,222.764v17.067c-0.009,1.587-0.239,3.166-0.683,4.693H25.6  c-9.429,0-17.067-7.637-17.067-17.067v-16.64c0-5.222,2.389-10.163,6.485-13.397L233.984,23.084c2.56,0.495,4.966,1.604,6.997,3.243  l230.4,182.784C475.554,212.404,477.952,217.456,477.867,222.764z"/>
<path style="fill:#B71C1C;" d="M460.8,244.95v238.933c0,9.429-7.637,17.067-17.067,17.067h-25.6c9.429,0,17.067-7.637,17.067-17.067  V244.95L460.8,244.95L460.8,244.95z"/>
<path style="fill:#D50000;" d="M435.2,244.95v238.933c0,9.429-7.637,17.067-17.067,17.067H247.467  c-9.429,0-17.067-7.637-17.067-17.067V364.417c0-9.429-7.637-17.067-17.067-17.067h-68.267c-9.429,0-17.067,7.637-17.067,17.067  v119.467c0,9.429-7.637,17.067-17.067,17.067H68.267c-9.429,0-17.067-7.637-17.067-17.067V244.95L435.2,244.95L435.2,244.95z"/>
<path d="M486.4,253.484H25.6c-14.14,0-25.6-11.46-25.6-25.6v-17.067c0.009-7.817,3.593-15.206,9.728-20.053l230.4-182.699  c9.318-7.398,22.511-7.398,31.829,0l230.4,182.699c6.101,4.864,9.651,12.245,9.643,20.053v17.067  C512,242.023,500.54,253.484,486.4,253.484z M256,19.158c-1.929,0.009-3.789,0.674-5.291,1.877l-230.4,182.699  c-2.159,1.698-3.362,4.335-3.243,7.083v17.067c0,4.71,3.823,8.533,8.533,8.533h460.8c4.71,0,8.533-3.823,8.533-8.533v-17.067  c-0.009-2.594-1.203-5.043-3.243-6.656l-230.4-182.699C259.849,20.106,257.98,19.286,256,19.158z"/>
<path d="M443.733,509.484H247.467c-14.14,0-25.6-11.46-25.6-25.6V364.417c0-4.71-3.823-8.533-8.533-8.533h-68.267  c-4.71,0-8.533,3.823-8.533,8.533v119.467c0,14.14-11.46,25.6-25.6,25.6H68.267c-14.14,0-25.6-11.46-25.6-25.6V244.95  c0-4.71,3.823-8.533,8.533-8.533h409.6c4.71,0,8.533,3.823,8.533,8.533v238.933C469.333,498.023,457.873,509.484,443.733,509.484z   M145.067,338.817h68.267c14.14,0,25.6,11.46,25.6,25.6v119.467c0,4.71,3.823,8.533,8.533,8.533h196.267  c4.71,0,8.533-3.823,8.533-8.533v-230.4H59.733v230.4c0,4.71,3.823,8.533,8.533,8.533h42.667c4.71,0,8.533-3.823,8.533-8.533  V364.417C119.467,350.277,130.927,338.817,145.067,338.817z"/>
<g>
</g>
<g>
</g>
<g>
</g>
<g>
</g>
<g>
</g>
<g>
</g>
<g>
</g>
<g>
</g>
<g>
</g>
<g>
</g>
<g>
</g>
<g>
</g>
<g>
</g>
<g>
</g>
<g>
</g>
</svg>
