<?xml version="1.0" encoding="iso-8859-1"?>
<!-- Generator: Adobe Illustrator 19.0.0, SVG Export Plug-In . SVG Version: 6.00 Build 0)  -->
<svg xmlns="http://www.w3.org/2000/svg" xmlns:xlink="http://www.w3.org/1999/xlink" version="1.1" id="Layer_1" x="0px" y="0px" viewBox="0 0 511.998 511.998" style="enable-background:new 0 0 511.998 511.998;" xml:space="preserve">
<path id="SVGCleanerId_0" d="M360.528,426.66c-2.995-0.051-5.922-0.836-8.533-2.304l-95.572-52.906c-0.29-0.171-0.649-0.171-0.939,0  l-95.316,52.82c-8.712,4.796-19.66,1.621-24.456-7.083c-1.946-3.533-2.645-7.62-1.997-11.605l18.432-113.235  c0.128-0.273,0.128-0.58,0-0.853L73.386,210.94c-6.946-7.117-6.818-18.517,0.299-25.463c2.688-2.628,6.135-4.343,9.856-4.915  l107.604-16.554c0.299-0.051,0.546-0.239,0.683-0.512l47.786-102.398c4.224-9.003,14.95-12.877,23.953-8.644  c3.806,1.783,6.861,4.847,8.644,8.644l47.786,102.398c0.137,0.273,0.384,0.461,0.683,0.512l107.604,16.469  c9.83,1.502,16.58,10.692,15.07,20.522c-0.572,3.72-2.287,7.168-4.915,9.856l-78.335,80.639c-0.128,0.273-0.128,0.58,0,0.853  l18.432,113.235c1.647,9.856-5,19.183-14.856,20.83C362.635,426.583,361.586,426.668,360.528,426.66z M255.996,354.298  c2.995,0.043,5.922,0.836,8.533,2.304l95.572,52.991c0.307,0.23,0.717,0.23,1.024,0c0.188-0.282,0.188-0.657,0-0.939l-18.09-113.577  c-0.93-5.658,0.87-11.417,4.864-15.53l78.761-80.553c0.23-0.307,0.23-0.717,0-1.024c-0.077-0.375-0.393-0.649-0.768-0.683  l-107.689-16.384c-5.948-0.93-11.042-4.77-13.568-10.24L256.849,68.266c0,0-1.536,0-1.707,0l-47.786,102.398  c-2.551,5.436-7.637,9.241-13.568,10.154L86.185,197.373c-0.375,0.034-0.691,0.307-0.768,0.683c-0.23,0.307-0.23,0.717,0,1.024  l78.42,80.553c3.959,4.096,5.768,9.822,4.864,15.445l-18.176,113.321c-0.188,0.282-0.188,0.657,0,0.939  c0.29,0.265,0.734,0.265,1.024,0l95.913-52.82C250.082,355.083,253.009,354.315,255.996,354.298z"/>
<circle style="fill:#A8A5A4;" cx="255.996" cy="255.91" r="247.463"/>
<path style="fill:#311B92;" d="M503.458,255.996c0,136.668-110.795,247.463-247.463,247.463S8.533,392.663,8.533,255.996  S119.328,8.533,255.996,8.533S503.458,119.328,503.458,255.996z"/>
<path style="fill:#5E35B1;" d="M477.859,281.595c0.077,77.439-36.189,150.423-97.961,197.117  C261.252,546.551,110.078,505.37,42.24,386.733c-61.55-107.638-33.937-244.22,64.596-319.491  c118.415-68.24,269.726-27.571,337.966,90.844C466.45,195.649,477.85,238.238,477.859,281.595z"/>
<path id="SVGCleanerId_1" d="M255.996,511.991L255.996,511.991C114.61,511.991,0,397.382,0,255.996S114.61,0,255.996,0  s255.996,114.609,255.996,255.996c0.947,140.439-112.135,255.049-252.574,255.996C258.283,512,257.139,512,255.996,511.991z   M255.996,17.066c-131.957,0-238.929,106.972-238.929,238.929s106.972,238.929,238.929,238.929l0,0  c131.957,0,238.929-106.972,238.929-238.929S387.953,17.066,255.996,17.066z"/>
<g>
	<path style="fill:#F9A825;" d="M369.914,406.948c0.828,5.214-2.731,10.112-7.944,10.94c-2.074,0.333-4.207-0.034-6.05-1.041   l-6.144-3.413l-15.36-93.865c-0.623-3.089,0.341-6.289,2.56-8.533l14.848-15.274L369.914,406.948z"/>
	<path style="fill:#F9A825;" d="M427.172,188.925l-107.689-16.469c-3.098-0.461-5.768-2.449-7.083-5.291L264.529,65.108   c-2.381-4.71-8.124-6.605-12.834-4.232c-1.826,0.922-3.311,2.406-4.232,4.232l-9.557,20.224l-38.314,81.833   c-1.314,2.842-3.985,4.83-7.083,5.291h-0.512L84.82,188.925c-5.188,0.964-8.619,5.948-7.654,11.136   c0.324,1.766,1.152,3.413,2.364,4.736l6.571,6.741l71.849,73.812c2.219,2.244,3.183,5.444,2.56,8.533l-18.432,113.065   c-0.828,5.214,2.731,10.112,7.944,10.94c2.074,0.333,4.207-0.034,6.05-1.041l95.316-52.82c2.859-1.63,6.357-1.63,9.216,0   l89.257,49.407l-15.36-93.865c-0.623-3.089,0.341-6.289,2.56-8.533l14.848-15.274v-2.133c-0.623-3.089,0.341-6.289,2.56-8.533   l63.402-65.108l14.592-15.189c3.575-3.883,3.328-9.933-0.555-13.508C430.585,190.077,428.938,189.249,427.172,188.925z"/>
</g>
<g>
	<path style="fill:#FFC107;" d="M354.042,285.521c-2.219,2.244-3.183,5.444-2.56,8.533v2.133l-14.848,15.274   c-2.219,2.244-3.183,5.444-2.56,8.533l15.36,93.865l-88.831-49.834c-2.859-1.63-6.357-1.63-9.216,0l-95.316,52.82   c-4.642,2.517-10.445,0.794-12.953-3.848c-0.998-1.852-1.365-3.976-1.041-6.05l18.432-113.235c0.623-3.089-0.341-6.289-2.56-8.533   L86.1,211.367l-6.571-6.571c-3.652-3.806-3.533-9.856,0.273-13.517c1.382-1.331,3.132-2.21,5.018-2.526l107.177-16.213h0.512   c3.098-0.461,5.768-2.449,7.083-5.291l38.314-81.919c4.036-0.486,7.936,1.681,9.643,5.376l47.786,102.398   c1.314,2.842,3.985,4.83,7.083,5.291l107.689,16.469c3.328,0.503,6.127,2.756,7.339,5.888L354.042,285.521z"/>
	<path style="fill:#FFC107;" d="M237.906,85.332l-38.314,81.833c-1.314,2.842-3.985,4.83-7.083,5.291h-0.512l38.399-81.748   C231.796,87.738,234.637,85.699,237.906,85.332z"/>
	<path style="fill:#FFC107;" d="M415.396,230.396l-63.572,65.279v-2.133c-0.623-3.089,0.341-6.289,2.56-8.533l63.402-65.108   C419.219,223.561,418.272,227.725,415.396,230.396z"/>
</g>
<g>
	<path id="SVGCleanerId_0_1_" d="M360.528,426.66c-2.995-0.051-5.922-0.836-8.533-2.304l-95.572-52.906   c-0.29-0.171-0.649-0.171-0.939,0l-95.316,52.82c-8.712,4.796-19.66,1.621-24.456-7.083c-1.946-3.533-2.645-7.62-1.997-11.605   l18.432-113.235c0.128-0.273,0.128-0.58,0-0.853L73.386,210.94c-6.946-7.117-6.818-18.517,0.299-25.463   c2.688-2.628,6.135-4.343,9.856-4.915l107.604-16.554c0.299-0.051,0.546-0.239,0.683-0.512l47.786-102.398   c4.224-9.003,14.95-12.877,23.953-8.644c3.806,1.783,6.861,4.847,8.644,8.644l47.786,102.398c0.137,0.273,0.384,0.461,0.683,0.512   l107.604,16.469c9.83,1.502,16.58,10.692,15.07,20.522c-0.572,3.72-2.287,7.168-4.915,9.856l-78.335,80.639   c-0.128,0.273-0.128,0.58,0,0.853l18.432,113.235c1.647,9.856-5,19.183-14.856,20.83   C362.635,426.583,361.586,426.668,360.528,426.66z M255.996,354.298c2.995,0.043,5.922,0.836,8.533,2.304l95.572,52.991   c0.307,0.23,0.717,0.23,1.024,0c0.188-0.282,0.188-0.657,0-0.939l-18.09-113.577c-0.93-5.658,0.87-11.417,4.864-15.53   l78.761-80.553c0.23-0.307,0.23-0.717,0-1.024c-0.077-0.375-0.393-0.649-0.768-0.683l-107.689-16.384   c-5.948-0.93-11.042-4.77-13.568-10.24L256.849,68.266c0,0-1.536,0-1.707,0l-47.786,102.398   c-2.551,5.436-7.637,9.241-13.568,10.154L86.185,197.373c-0.375,0.034-0.691,0.307-0.768,0.683c-0.23,0.307-0.23,0.717,0,1.024   l78.42,80.553c3.959,4.096,5.768,9.822,4.864,15.445l-18.176,113.321c-0.188,0.282-0.188,0.657,0,0.939   c0.29,0.265,0.734,0.265,1.024,0l95.913-52.82C250.082,355.083,253.009,354.315,255.996,354.298z"/>
</g>
<g>
	<path id="SVGCleanerId_1_1_" d="M255.996,511.991L255.996,511.991C114.61,511.991,0,397.382,0,255.996S114.61,0,255.996,0   s255.996,114.609,255.996,255.996c0.947,140.439-112.135,255.049-252.574,255.996C258.283,512,257.139,512,255.996,511.991z    M255.996,17.066c-131.957,0-238.929,106.972-238.929,238.929s106.972,238.929,238.929,238.929l0,0   c131.957,0,238.929-106.972,238.929-238.929S387.953,17.066,255.996,17.066z"/>
</g>
<g>
</g>
<g>
</g>
<g>
</g>
<g>
</g>
<g>
</g>
<g>
</g>
<g>
</g>
<g>
</g>
<g>
</g>
<g>
</g>
<g>
</g>
<g>
</g>
<g>
</g>
<g>
</g>
<g>
</g>
</svg>
